<?xml version="1.0" encoding="UTF-8"?>
<svg id="Layer_1" data-name="Layer 1" xmlns="http://www.w3.org/2000/svg" viewBox="0 0 595.3 841.9">
  <defs>
    <style>
      .cls-1 {
        fill: #231f20;
      }
    </style>
  </defs>
  <path class="cls-1" d="M14.2,137.5V704.4H581.1V137.5H14.2Zm97.3,470.2h-19.5v-9h19.5v9Zm165.6,26.1h-3.6v-8.8h3.6v8.8Zm0-12.4h-3.6v-8.8h3.6v8.8Zm0-12.4h-3.6v-8.8h3.6v8.8Zm0-12.4h-3.6v-8.8h3.6v8.8Zm0-12.4h-3.6v-8.8h3.6v8.8Zm0-12.4h-3.6v-8.8h3.6v8.8Zm8.2,61.8h-3.6v-8.8h3.6v8.8Zm0-12.4h-3.6v-8.8h3.6v8.8Zm0-12.4h-3.6v-8.8h3.6v8.8Zm0-12.4h-3.6v-8.8h3.6v8.8Zm0-12.4h-3.6v-8.8h3.6v8.8Zm0-12.4h-3.6v-8.8h3.6v8.8Zm8.2,61.8h-3.6v-8.8h3.6v8.8Zm0-12.4h-3.6v-8.8h3.6v8.8Zm0-12.4h-3.6v-8.8h3.6v8.8Zm0-12.4h-3.6v-8.8h3.6v8.8Zm0-12.4h-3.6v-8.8h3.6v8.8Zm0-12.4h-3.6v-8.8h3.6v8.8Zm15.9,61.8h-3.6v-8.8h3.6v8.8Zm0-12.4h-3.6v-8.8h3.6v8.8Zm0-12.4h-3.6v-8.8h3.6v8.8Zm0-12.4h-3.6v-8.8h3.6v8.8Zm0-12.4h-3.6v-8.8h3.6v8.8Zm0-12.4h-3.6v-8.8h3.6v8.8Zm8.2,61.8h-3.6v-8.8h3.6v8.8Zm0-12.4h-3.6v-8.8h3.6v8.8Zm0-12.4h-3.6v-8.8h3.6v8.8Zm0-12.4h-3.6v-8.8h3.6v8.8Zm0-12.4h-3.6v-8.8h3.6v8.8Zm0-12.4h-3.6v-8.8h3.6v8.8Zm8.2,61.8h-3.6v-8.8h3.6v8.8Zm0-12.4h-3.6v-8.8h3.6v8.8Zm0-12.4h-3.6v-8.8h3.6v8.8Zm0-12.4h-3.6v-8.8h3.6v8.8Zm0-12.4h-3.6v-8.8h3.6v8.8Zm0-12.4h-3.6v-8.8h3.6v8.8Zm207.3-44.4c-.3,.7-4.4,4.2-4.6,4.4s-4.9-9.9-5.6-10.9c-.7-.9-5.6-4.7-5.6-4.7,0,0,.5,10.3,0,11.9-.4,1.5-4.3,6.8-5,7.2-.7,.4-5.9,.2-5.9,.2,0,0-2-10-2.4-10.2-.3-.2-6.8,4.8-8.9,6-2.1,1.1-4.4,2-4.9,2.2-.5,.2-7.5-4.3-7.4-4.5,0-.1,4.5-4.2,4.8-4.7,.3-.5,1.9-6.8,2-7,0-.2-5-6.8-5.3-8.1s-5.9-13.2-5.9-13.5,.6-8.1,.6-8.9-11.8-11.6-15.9-14.5c-4.2-2.9-28.7-17.4-28.7-17.4,0,0-16.6,37.5-19.3,43.8s-7.4,11.7-7.4,11.7c0,0,10.9,19.5,12.6,20.4,1.7,.9,7.9,8.5,8.9,9.8,1,1.3,14.7,23.1,15.3,24.4,.5,1.3,8.7,19.4,9,20s-26,5.9-26.4,6.3c-.3,.4-4.5,5-4.9,5.3-.4,.3-4.7-6.2-4.7-7.1s-1.1-9.9-1.1-9.9l-1.5,10-4.8,6.8v42.5h-10v13.4h-18.2v-42.3h-17.7v42.8h-3.4v-50.8h-18.1v50.8h-10.4v-15.4h-2v-79.8h-7.7s.7-8.9-7-8.9-7.6,8.9-7.6,8.9h-6.1v89.9h-4.2v-90.7h-8.3s.4-8.2-6.4-8.2-7,8.2-7,8.2h-7.1v91.3l-2.9,1.9h-5.1l-1.9-5.8h-3.6v-20h-29.2v18.7h-25.3v-16.1s2.1-.5,4-2.6,1.7-4.4,1.7-4.4h-4.5v-14.8c0-2.7-4.7-7.8-6-8.2,0-1.3,0-3.7,0-3.7h1.7v-4.5h-3.6s-.1-4.3-1.9-4.3c0-1.9,0-23.1,0-23.1,0,0,3.7,.6,4.5,2.2,.9-1.5-1.6-5.5-4.4-6.9,0-5.5,0-11,0-11l-2.7,1.6v4s-1.8,1.9-1.9,3.1c.6-.4,1.9-.5,1.9-.5v30.6s-2.4-1-2.1,4.2c-2.3,0-4.2,0-4.2,0v4.5h1.8v3.3s-7.3,5-7.6,9.1c-.2,4.1,0,14.1,0,14.1h-5.5s1.6,4.6,3.1,6c1.5,1.4,2.9,1.4,2.9,1.4v25.9h-3.5v-7.2h-6.7v2.6h-8.5v-31.2h-5.2v-13.3h-9.6v13.1h-5.4v35.6h-9.8v-3.7h-8.2s0-35.3,0-35.1,2.5-.8,2.8-4.3h-2.7v-12.5s1.9-2.4,1.6-4.7-4.9-4.9-4.9-4.9l2.3-5s-3.8-.8-4.5-1.4c-.7-.7-3.2-4.3-3.2-4.3v-10.3h-3.1l-7.7-31.5-6.1,31.4h-2.9v9.9s-3.5,4.7-3.7,4.8c-.2,.2-4.6,1.7-4.6,1.7l-1.4,6-2.8-41.3s26.8-31.8,33.9-40.7c7.1-8.9,10.4-12.8,12.5-13.8,2.1-1,5.1-2.3,5.7-3,.6-.7,.8-4.3,2-5.1,1.2-.8,8.2-2.6,11.1-6.3,2.8-3.7-.1-9.1-1.6-10.8-1.5-1.7-7.4-12.7-9.1-18.6-1.6-5.9-1.4-8.7-2.6-10.4-1.2-1.8-17.3-18.5-17.3-18.9,0-.3,4.2-2.5,4.3-2.9,.1-.4-.1-16.3,.3-16.3h9.7s16.9,15,21.8,21.3,12.9,15.5,15.2,17.9c2.3,2.4,6.9,7.7,6.9,7.7,0,0-1.4-6.3-3.5-9-2.1-2.7-5.5-6.5-5.7-7-.1-.6,1.6,0,2-.6s-3.7-14.7-7.6-20.7c-3.9-6-15.5-14.3-15.8-15.1-.2-.8-1.8-9.7-3.6-15.8-1.8-6.1-3.5-11.1-3.1-11.4,.3-.3,4.9,2,12.2,8.1,7.3,6,19.1,14.4,24.6,19,5.5,4.6,11,8.8,11.4,8.8s-9-20.3-14.6-27.3c-5.6-7-9.8-13.6-11.7-22.2-1.9-8.6-3.4-26.1-3.4-26.1,0,0,17.7,21.8,18,22,.3,.2-1.2-10-4.6-15.8-3.5-5.7-9-16.4-11.2-20.8-2.3-4.4-2.8-7.8-2.8-9s0-4.1,.6-4.2c.5,0,22.7,25.4,27.4,30.2,4.7,4.8,10,11.5,10.3,11.6,.4,0,0-5,.6-5.3,.6-.2,7.5,9.8,8.6,10.8,1.1,1,2.9,1,7.1,2.5,4.2,1.5,7.8,3,8.5,3.8s0-6.4-3-10.1-11.1-18.9-11.4-20.7c-.3-1.7,4.8,1.1,5,1.1s-4.4-10.1-6.6-12.6c-2.2-2.5-9-8-11.7-13.5s-15.9-24.1-15.9-24.1c0,0,10.9,7.4,11.1,7.4-2.6-3-6-6.6-7.3-8.8s-3.8-6-4.5-7.5-1.1-3.5-1.1-3.5c0,0,10.6,8.2,13.3,10.6s3.6,3.4,3.9,3.5c.3,0,1.5-1.9,2.3-2,.8-.1,28.5,28.4,28.6,28.5s.3-5.3,.7-5.5c.4-.2,25.4,22.6,27.4,23.9,2,1.3,9.2,2.2,9.4,2.1,.2,0-13.9-17.7-14.4-19.2-.4-1.4-1-6.3,0-8,.9-1.7,.2-2.8-.9-5.5-1.1-2.8-1.5-6.2-1.5-6.3,0-.1,10.3,10.9,10.9,10.9s-21.5-44.4-22.1-46.5c-.6-2.1-1.5-5.9-1.5-5.9,0,0,5.5,5.8,6,6.2s1.4,2.7,1.4,2.7c0,0,21.2,20.7,21.4,20.8,.2,0-1.3-6.5-1-6.8s26.4,29.7,26.8,29.5c.4-.2,.5-6,.6-6.9,0-.9-26.1-39.7-26.1-39.7,0,0,13.8,14.1,14.4,14.8,0-3.3-.1-5.8-.1-5.8l7.2,7.7,.4-6.4s19.6,13.5,20.4,13.9c.8,.4,3-3.7,3-3.7,0,0,8,11.2,11.6,15,3.7,3.8,5.7,6.3,6.1,6.4,.4,0,2.7-2.5,3.3-2.5,.5,0-2.4-3.6-2.8-5.3-.4-1.7-.5-4.1-1.1-5.7-.6-1.6-11.7-17-11.7-17h4.1s-9-15.2-9-15.2l18.5,13.7-1.4-6.2s25.8,18.8,26,18.9c.2,0,.3-4.2,0-5s-7.3-8.5-7.3-8.9,1.7-2.1,2.6-2.3c.9-.2,4.6,2.3,4.6,2.3,0,0-1.4-4.3-2-5.1-.5-.8-5-7.5-5-7.5,0,0,5.6,.1,6.7,.9,1.1,.7,6,6.4,6,6.4,0,0-.9-3.6-.8-4,0-.4,7.8,4.6,9.2,5.9,1.5,1.3,4.2,5,4.5,5.2,.3,.2,2.2,.5,2.2,.5,0,0-4.8-9.1-5.4-10.3-.7-1.2-1.2-3.8-1.2-3.8,0,0,2.6,2.2,2.9,2.5,.3,.4-.3-3.1-.3-3.1,0,0,2.9,.6,3.3,1s8.6,5.6,9.4,6c.8,.4-7.2-13.9-7.2-14,0,0,10.1,1.5,10.9,1.8,.7,.3,4.8,4.4,5.5,4.5,.6,0,5.2-3.7,5.6-5.5,.4-1.8,.2-4.6-.3-5-.6-.5-2.8-1.6-3.2-1.7-.4,0,3.3-2,4.5-2.1,1.2,0,4.7,.3,4.8,.1,.2-.1,12.4-8.1,12.9-8.7s-.2-3.7-.2-3.7c0,0,2.9-.5,3.4-.5s12.2-6.2,14-6.8c1.9-.6,4.8-1.8,6.1-2.6,1.3-.8,4-2.8,4.4-2.9,.4,0,13.9-.4,16.3-.9,2.4-.5,5.6-3.2,6.7-3.4,1.2-.2,5.3,.8,6.3,.7,.9-.1,3.9,.3,4.6,.6s2.7,3.2,3.4,3.6c.7,.4,3.7,0,4.2-.3,.4-.4,3.8-1.9,6.4-2.4,2.6-.6,4.5-1.1,4.8-1.1s5.3,7.3,5.7,8.2c.3,.9,.5,4.4,.9,5.1,.4,.8,1.1,2.3,1.1,2.7,0,.4-1.9,1.9-1.9,2.1s.4,2.5,.4,2.6-2.3-1.1-2.3-1.1l-2.4,2.7-.8,3.2-1.4-2.1-1.5,3,.6,3-2.7-1.6-3.9,.3,.4,3.9-3-.9-3.1,2.5,.6,3.5-2.4-1.7-3.8,1.8s.4,3.6,.4,3.8,3.4,2.4,4.3,2.4,3.2,0,3.7,0,3,1.7,4.6,1.7,9,0,9,0l.4,4.2,2-2.6,.6,1.8,1.1-1.8,1.5,1.8,1.5-1.9,.8,2.1,1.6-1.9s1.3,1.8,1.5,2.5,.2,10.4,.2,11-7.5,8.7-9.9,9.2-9.8,0-10.3,.2-12.4,6.8-13,7.3c-.6,.6-7.3,12.9-9.1,19.1-1.8,6.3-5.3,16-5.5,16.7-.1,.8-1.3,13.1-2,15.4-.7,2.3-2.8,12.3-2.8,12.8s8,15,9.2,18.9c1.2,3.9,1.4,11.1,1.5,12.7s-5.9,22.4-5.6,23.8,7.6,7.5,9,8.8,18.4,23.2,21,27.6c2.6,4.4,22.7,36.3,24.9,40.1,2.2,3.8,11.2,18.9,12.7,20.9s11.9,17.7,12.1,18.4c.1,.7-1.1,13.4-1.4,14Z"/>
</svg>