<?xml version="1.0" encoding="UTF-8"?>
<svg id="Layer_1" data-name="Layer 1" xmlns="http://www.w3.org/2000/svg" viewBox="0 0 595.3 841.9">
  <defs>
    <style>
      .cls-1 {
        fill: #231f20;
      }
    </style>
  </defs>
  <path class="cls-1" d="M14.2,137.5V704.4H581.1V137.5H14.2Zm510.4,360.7c1,1.4,2.2,3.2,3.4,5v24.1h-1.9c-.5-1-1-2.1-1.5-3v-26.1ZM119.3,417.1c.1-.4-.1-16.3,.3-16.3h9.7s16.9,15,21.8,21.3c4.9,6.2,12.9,15.5,15.2,17.9,2.3,2.4,6.9,7.7,6.9,7.7,0,0-1.4-6.3-3.5-9-2.1-2.7-5.5-6.5-5.7-7-.1-.6,1.6,0,2-.6,.4-.5-3.7-14.7-7.6-20.7-3.9-6-15.5-14.3-15.8-15.1-.2-.8-1.8-9.7-3.6-15.8-1.8-6.1-3.5-11.1-3.1-11.4s4.9,2,12.2,8.1c7.3,6,19.1,14.4,24.6,19,5.5,4.6,11,8.8,11.4,8.8s-7.3-16.5-12.9-24.9l16.2-.2s.2,1,1.1,1.1c.9,0,5,0,5.5,0s.9-.8,.9-.8c0,0,.9,.8,1.8,.6,.8-.2,1.2-.7,1.2-.7l1.3,1.3h4.1s.8,1,.8,1h-2.3c0,0,.3,.6,.3,.6h12.2s1.4,1.7,1.4,1.7l1.4-.4-2.2-3.1s2.1,.3,3.4,0c1.3-.4,1.4-.8,1.4-.8,0,0,2.1,.2,3.6-.6,1.5-.8,1.6-1.5,1.6-1.5l1.5-.2s.9-1.1,1-1.1c0,0-1.5-2.6-1.5-2.6l-2.8-.2s-1.4-1.6-3.2-2.4c-1.8-.8-6.3-1.2-7.6-1.3s-3-.3-3-.3l-1-.7,6-.3,19.7-4-.8-2.1-26.1,4.4-.2-1.3s1.2-.1,1.6-1.1c.4-1-.6-1.7-1.2-1.8s-2.2,0-2.6,0c-.4,0-.9,.6-.9,.6l-9.5-12.6-2.1,.6,11.4,15.5-4.4,.2-22.6,3,.9,1.7,27.1-2.8-.2,.6-10.3,1.4,.7,1.2-3.7,2.3-.8-1-.9,.4,.3,1.1s-.6,.3-.8,.4c-.2,0-15.8,1.4-15.8,1.4l-2.9-3.5s.9,.6,1.4,0-.5-1.4-.6-1.6c-.1-.2-2.3-2.4-2.3-2.4,0,0,4.1-.2,4.5-.3s.6-1.5-.3-1.5-5.6,.3-5.6,.3c0,0-2.9-3.3-3.4-3.7-.4-.4-1.6,.3-1.1,1.1,.6,.8,2.5,2.7,2.5,2.7,0,0-1.3,0-2.4,.1-2.4-4-4.2-8.2-5.3-13-1.9-8.6-3.4-26.1-3.4-26.1,0,0,17.7,21.8,18,22,.3,.2-1.2-10-4.6-15.8-3.5-5.7-9-16.4-11.2-20.8-2.3-4.4-2.8-7.8-2.8-9s0-4.1,.6-4.2c.5,0,22.7,25.4,27.4,30.2,4.7,4.8,10,11.5,10.3,11.6,.4,0,0-5,.6-5.3,.6-.2,7.5,9.8,8.6,10.8,1.1,1,2.9,1,7.1,2.5,4.2,1.5,7.8,3,8.5,3.8,.7,.8,0-6.4-3-10.1s-11.1-18.9-11.4-20.7c-.3-1.7,4.8,1.1,5,1.1s-4.4-10.1-6.6-12.6c-2.2-2.5-9-8-11.7-13.5-2.8-5.5-15.9-24.1-15.9-24.1,0,0,10.9,7.4,11.1,7.4-2.6-3-6-6.6-7.3-8.8-1.3-2.2-3.8-6-4.5-7.5-.7-1.5-1.1-3.5-1.1-3.5,0,0,10.6,8.2,13.3,10.6,2.7,2.4,3.6,3.4,3.9,3.5,.3,0,1.5-1.9,2.3-2,.8-.1,28.5,28.4,28.6,28.5,.2,0,.3-5.3,.7-5.5s25.4,22.6,27.4,23.9c2,1.3,9.2,2.2,9.4,2.1,.2,0-13.9-17.7-14.4-19.2-.4-1.4-1-6.3,0-8,.9-1.7,.2-2.8-.9-5.5-1.1-2.8-1.5-6.2-1.5-6.3,0-.1,10.3,10.9,10.9,10.9s-21.5-44.4-22.1-46.5c-.6-2.1-1.5-5.9-1.5-5.9,0,0,5.5,5.8,6,6.2,.5,.4,1.4,2.7,1.4,2.7,0,0,21.2,20.7,21.4,20.8s-1.3-6.5-1-6.8,26.4,29.7,26.8,29.5,.5-6,.6-6.9c0-.9-26.1-39.7-26.1-39.7,0,0,13.8,14.1,14.4,14.8,0-3.3-.1-5.8-.1-5.8l7.2,7.7,.4-6.4s19.6,13.5,20.4,13.9c.8,.4,3-3.7,3-3.7,0,0,8,11.2,11.6,15,3.7,3.8,5.7,6.3,6.1,6.4,.4,0,2.7-2.5,3.3-2.5s-2.4-3.6-2.8-5.3c-.4-1.7-.5-4.1-1.1-5.7-.6-1.6-11.7-17-11.7-17h4.1s-9-15.2-9-15.2l18.5,13.7-1.4-6.2s25.8,18.8,26,18.9c.2,0,.3-4.2,0-5-.3-.8-7.3-8.5-7.3-8.9s1.7-2.1,2.6-2.3,4.6,2.3,4.6,2.3c0,0-1.4-4.3-2-5.1-.5-.8-5-7.5-5-7.5,0,0,5.6,.1,6.7,.9,1.1,.7,6,6.4,6,6.4,0,0-.9-3.6-.8-4,0-.4,7.8,4.6,9.2,5.9,1.5,1.3,4.2,5,4.5,5.2s2.2,.5,2.2,.5c0,0-4.8-9.1-5.4-10.3-.7-1.2-1.2-3.8-1.2-3.8,0,0,2.6,2.2,2.9,2.5,.3,.4-.3-3.1-.3-3.1,0,0,2.9,.6,3.3,1,.4,.4,8.6,5.6,9.4,6,.8,.4-7.2-13.9-7.2-14,0,0,10.1,1.5,10.9,1.8,.7,.3,4.8,4.4,5.5,4.5s5.2-3.7,5.6-5.5c.4-1.8,.2-4.6-.3-5-.6-.5-2.8-1.6-3.2-1.7-.4,0,3.3-2,4.5-2.1,1.2,0,4.7,.3,4.8,.1,.2-.1,12.4-8.1,12.9-8.7,.5-.6-.2-3.7-.2-3.7,0,0,2.9-.5,3.4-.5,.5,0,12.2-6.2,14-6.8,1.9-.6,4.8-1.8,6.1-2.6,1.3-.8,4-2.8,4.4-2.9,.4,0,13.9-.4,16.3-.9,2.4-.5,5.6-3.2,6.7-3.4s5.3,.8,6.3,.7c.9-.1,3.9,.3,4.6,.6,.8,.3,2.7,3.2,3.4,3.6,.7,.4,3.7,0,4.2-.3,.4-.4,3.8-1.9,6.4-2.4,2.6-.6,4.5-1.1,4.8-1.1s5.3,7.3,5.7,8.2c.3,.9,.5,4.4,.9,5.1,.4,.8,1.1,2.3,1.1,2.7,0,.4-1.9,1.9-1.9,2.1s.4,2.5,.4,2.6-2.3-1.1-2.3-1.1l-2.4,2.7-.8,3.2-1.4-2.1-1.5,3,.6,3-2.7-1.6-3.9,.3,.4,3.9-3-.9-3.1,2.5,.6,3.5-2.4-1.7-3.8,1.8s.4,3.6,.4,3.8,3.4,2.4,4.3,2.4,3.2,0,3.7,0,3,1.7,4.6,1.7,9,0,9,0l.4,4.2,2-2.6,.6,1.8,1.1-1.8,1.5,1.8,1.5-1.9,.8,2.1,1.6-1.9s1.3,1.8,1.5,2.5,.2,10.4,.2,11-7.5,8.7-9.9,9.2c-2.4,.5-9.8,0-10.3,.2s-12.4,6.8-13,7.3c-.6,.6-7.3,12.9-9.1,19.1s-5.3,16-5.5,16.7-1.3,13.1-2,15.4c-.7,2.3-2.8,12.3-2.8,12.8s8,15,9.2,18.9c1.2,3.9,1.4,11.1,1.5,12.7s-5.9,22.4-5.6,23.8c.3,1.5,7.6,7.5,9,8.8,1.4,1.4,18.4,23.2,21,27.6,2.6,4.4,22.7,36.3,24.9,40.1,1.8,3.2,8.6,14.5,11.5,19.1h-6.6v33.6h-10c-.2-.9-.4-1.5-.5-1.6-.1,0-1.2,.6-2.5,1.6h-3v-26.6h-11v-16.1h-10.9c-3.7-3.6-10.5-9.7-13.5-11.7-4.2-2.9-28.7-17.4-28.7-17.4,0,0-8.8,19.9-14.6,33.1h-4.8v-3.9h-7.3v56.1h-7.3v-29.3h-12.9v28.5h-20.6v-43.8h1.4v-4.2h-1.6v-2.4h1.3v-2.9h-16.7v1.5h-6.7v2.4h-4.3v42.9h-15.3v-48.7h-20.3v46.8h-33.7v-23.4h-13.9v17.9h-12.9v-52.8h-6.1v-2.3h-4.4v-6l-1.8-10.3v18.5h-2.5v-18.7l-2,10.3v5.9h-4.5v2.3h-7.8v52.8h-20.4v-69.9h-6.5v-2h-3.6v2.1h-9v-2.6h-6.5v63.8h-10.7v25.5h-17.5v-60.2c1.7-.9,3.4-2,4.5-3.4,2.8-3.7-.1-9.1-1.6-10.8-1.5-1.7-7.4-12.7-9.1-18.6-1.6-5.9-1.4-8.7-2.6-10.4-1.2-1.8-17.3-18.5-17.3-18.9,0-.3,4.2-2.5,4.3-2.9Zm309.4,122.8h-7.9v-8.8c1.8,1.4,6.2,6.6,7.9,8.8Zm-318.3-28.2c1.6-2,3-3.6,4-4.9,2.9-3.6,5.2-6.4,7-8.5v46.2h-10.9v-32.8Zm-22.8,27.4v17.2h-6.5l-.6-8.7s2.9-3.5,7.1-8.5Zm465.1,137H42.5v-53.9h510.2v53.9Zm15.7,14.5h-1.6v3.2h-1.5v-3.2h-5.4v-1l5.2-7.5h1.7v7.3h1.6v1.2Z"/>
</svg>