<?xml version="1.0" encoding="UTF-8"?>
<svg id="Layer_1" data-name="Layer 1" xmlns="http://www.w3.org/2000/svg" viewBox="0 0 595.3 841.9">
  <defs>
    <style>
      .cls-1 {
        fill: #231f20;
      }
    </style>
  </defs>
  <path class="cls-1" d="M14.2,137.5V704.4H581.1V137.5H14.2Zm429.7,73.3c3.6-1.6,6,.3,9.5,.3,3.5,0,5.1-1.9,8.7-.5s6.2,.6,9.5,.4c8.7-.5,11.4,3.8,11.4,3.8,0,0-6.6-1.5-10.6-.9-2.2,.4-3.7,2.2-9.3,.5s-5.3,0-8.8,0c-3.6,.2-5-1.8-10.8-.9-5.8,.9-8.7-.7-8.7-.7,0,0,5.6-.6,9.2-2.1Zm-4.9,239.5c-3.1,2.3-8.1-.5-12.7-.8-4.6-.3-11.2,5.2-11.2,5.2,0,0,4.6-9.5,13.5-8.1,4.7,.7,8.9,1.3,10.4-1.3,1.5-2.5,9.6-1.7,9-.1-.6,1.6,2.7,1.9,4.6,1.5,1.5-.3,4.1-1,7.8-.3,.9,.2,2.9,.7,3.2,.8,5.4,1.8,15.5,2.1,15.5,2.1,0,0-6.6,2.5-13.2,1.3s-6.3-.9-12.1,.6c-5.8,1.5-9.9,0-9.1-1.8,.7-1.8-2.6-1.3-5.7,1Zm-157.4,.6c-6.2,.5-7.7-1.2-2.4-1.8s6.6-2.3,13.9-1.3,6.3-4,12.7-4.5c6.4-.5,.3,3.3,4,3.1,3.7-.2,5.5,1.1,8,3,2.5,1.9,9.5-1.6,15.2,1.9,5.6,3.5,8.3,2.9,13.5,1.6,11.5-3.6,17-.8,17-.8,0,0-10.7,1.7-15.7,4.4-5,2.7-10.2,3.3-14.3,.7-4.2-2.5-7.8-3.2-14.6-1.1-6.7,2.1-8.6-1.6-11.6-2.9-3-1.2-5.9,0-9.3,1.7-3.4,1.7-6.8,2-10.8,1.2-4-.8-5.9-1-11.7,1.7-5.8,2.7-7.1,1.1-7.1,1.1,0,0,6.9-4.6,11.7-6.1,4.7-1.5,9.5-2.4,9.5-2.4,0,0-1.6-.2-7.8,.3Zm59.5-37.5c-10-2.2-20.5-3.5-34.1-2.3-10.9,1-13.5,1.3-22.3-.8-10.2-2.4-12.2-.4-26.4-.3-14.2,.1-20-1.2-20.8-.8,0,0,9.7-2.9,14.5-2.9,12.2,.2,20.2-1.3,27.8-1.5,7.2-.2-7.2-3.6-18.3-2.8,18-4.8,35.6-.5,43.6,2.6,8.1,3.1,8.5-2,16.9-3.1,8.5-1,16.3,3.6,17.2,6.9,.9,3.3,11.8,2.3,11.8,2.3,0,0,14.3-4,23.8-1.2,1.3,.4,2.6,2.2,3.5,3.2-14.2,1-29.4,2.3-37.4,.6Zm24.5-84.1c5.7-4.8,12.5,.1,20.8,1.2,8.3,1.1,14.7,1.2,20.2-.3s12.3-.4,22.5,2.2c9.7,2.5,12.7-.7,12.7-.7-3,6.5-18.5,3.8-27.5,1.8-9-2-9.3,2.8-24.2,1.4s-13.9-1.7-21.5-1.2c-11.4,3-22.6,1.1-30.5-3.4,10.2,2.8,21.6,3.9,27.3-.9Zm-11-27.8s29.4,2,40.3-1.2c10.8-3.2,23.3-3.6,30.8-3.8,1.9,0,3.3,0,4.6,0,7.5,1.4,14.6,3.8,21.1,6.8-4.2,.1-8.3,.2-12.3,.9-7.6,1.3-13.2,.8-20.7,0s-15.2,.9-25.9,2.1c-10.7,1.2-26.3,2.9-37.8-4.8Zm-6.2,60.6c8.3,1.1,14.7,1.2,20.2-.3,5.5-1.5,12.3-.4,22.5,2.2,10.2,2.6,12.7-.7,12.7-.7-3,6.5-18.5,3.8-27.5,1.8-9-2-9.3,2.8-24.2,1.4-14.8-1.3-13.9-1.7-21.5-1.2-11.4,3-22.6,1.1-30.5-3.4,10.2,2.8,21.6,3.9,27.3-.9,5.7-4.8,12.5,.1,20.8,1.2Zm17.3,27.4s9.4,1.2,18.2-.3c8.8-1.5,20.6-3.4,30.3-.9-10.2,.6-18,1.4-16.9,2.3,1.1,.9,6.7-.3,12.1,.3s12.7,1.1,18.5-.3,12.7,.4,12.7,.4c0,0,.7,.3,1.7,.6,1.1,1.7,2.1,3.3,3.1,5-2.1-.2-4.3-.5-6.4-1.2-9.4-2.7-14.5,2.5-22.7,1.5-8.1-.9-13-2.7-22.2-1.8-9.1,.9-26.4-1.4-28.4-5.6Zm15.5-139.3c2.2-.4,3.7-2.2,9.3-.6s5.3,0,8.8-.2c3.6-.2,5,1.7,10.8,.8,5.7-1,8.7,.6,8.7,.6,0,0-5.6,.7-9.2,2.3-3.5,1.6-6-.2-9.5-.2s-5.1,2-8.7,.6c-3.6-1.4-6.2-.5-9.5-.3-8.7,.7-11.5-3.6-11.5-3.6,0,0,6.6,1.4,10.6,.7Zm-47.4,21.6c16,4.8,10.8-6.5,19.8-1.9,9.1,4.6,18.4,1,29.2,.3,10.9-.7,27.8-.4,23.8,2.9-4,3.3-.9,4.6,7,2.4,7.9-2.2,18-2.8,22.9-1.5,16.8,4.5,30.5,2.1,30.5,2.1,0,0,0,0,0,0-1.4,1.8-16.4,4.3-24.3,2.9-7.3-1.3-16.7-2.9-25.8-.1-8.6,2.7-22.6,4.2-22,1.4,0-.3,.3-.6,.7-1,4.4-4.2-.9-3.3-10-4-9.1-.7-24.5,.6-38.3,2.4-13.8,1.8-12.7-3.3-19.6-4.2-6.9-.9-27.6,1.8-27.6,1.8,0,0,17.8-8.5,33.7-3.7Zm-19.8,17.3c13.6,0,24.6,11,24.6,24.6s-11,24.6-24.6,24.6-24.6-11-24.6-24.6,11-24.6,24.6-24.6Zm-30.4,88c4.7-2,5.1,.9,3.9,1.4-1.2,.5-3,1.4-3,1.4,0,0,3.4,1.7,6.4,1.7,3,0,15.3,0,15.3,0,0,0-4.6,1.2-10.6,2.6-6,1.4-8.7-.1-13.6-.9-5-.8-3.5,0-8.9,1.7-5.4,1.8-5.1-1.2-8.7-1-3.7,.2-4.4-2.2-9.7,.2-7.4,1.7-6.4-1.9-11.1,.2-4.7,2.1-9.8,.5-12.8-1.9-2.9-2.3-5.5-3.7-5.5-3.7h0c.6,0,5.1,.7,9.1,2.6,4.2,2,9-1.1,14.1-2.3,5.1-1.2,1.9,2.8,8.1,.3,4.2-1.7,4.6,.8,9.1-.2,4.5-1,5.3-.7,5.3,1.9,0,2.6,7.8-2,12.5-4Zm-64.2,74.5c-11.6,3.7-20.8,3.3-27,2.9-6.1-.4-11.2-1.9-17.1-3.1-5.9-1.2-10.9-3.5-20.5-2.2s-22.5,.2-22.5,.2c0,0,8.5-2.8,23.9-4.4,11-1.2,23.3,2.8,30.2,1.4,6.9-1.5,15.9-2.1,23.4-2.2,7.5,0,20.8,1.5,20.8,1.5,0,0-17.8,2.1-21.9,1.7-4.1-.4-12.6,1.7-12.6,1.7,0,0,12.9,3.2,23.2,2.6Zm-36.4-101c-6.2,.5-8-.8-2.7-1.4,5.3-.6,6.6-2.3,13.9-1.3,7.3,1,6.3-4,12.7-4.5,6.4-.5,.3,3.3,4,3.1,3.7-.2,5.5,1.1,8,3,2.5,1.9,9.5-1.6,15.2,1.9,5.6,3.5,8.3,2.9,13.5,1.6,11.5-3.6,17-.8,17-.8,0,0-10.7,1.7-15.7,4.4-5,2.7-10.2,3.3-14.3,.7-4.2-2.5-7.8-3.2-14.6-1.1-6.7,2.1-8.6-1.6-11.6-2.9-3-1.2-5.9,0-9.3,1.7-3.4,1.7-6.8,2-10.8,1.2-4-.8-5.9-1-11.7,1.7-5.8,2.7-7.1,1.1-7.1,1.1,0,0,6.9-4.6,11.7-6.1,4.7-1.5,8.8-1.6,8.8-1.6,0,0-.6-1.3-6.8-.8Zm87.8-14.4s-6.6-1.3-10.6-.4c-2.2,.5-3.6,2.3-9.3,.9-5.7-1.4-5.3,.1-8.8,.4-3.6,.3-5.1-1.6-10.8-.5-5.7,1.1-8.7-.3-8.7-.3,0,0,5.6-.8,9.1-2.5,3.5-1.7,6,0,9.5,0s5-2.1,8.7-.8c3.7,1.3,6.2,.4,9.5,0,8.7-.9,11.6,3.3,11.6,3.3Zm-45.4-35.6c2.5,.6,4.2-1,7.6,.5,3.3,1.4,3.7,.6,8.9,.6,5.2,0,8.2,.6,18.9,4.7,0,0-6.4-.8-15.5-.3-9.1,.5-8.7,1.9-13.4-.5-4.7-2.3-3.8,.2-6.7,1.2s-3.6,0-8.1,.3-5.4-.3-9.5-.2-12.9,1-12.9,1c0,0,6.5-3.7,10.8-3.7,4.3,0,8,.6,10.7-.8,2.7-1.3,6.6-3.5,9.1-2.9Zm-53-25.3c.8-.2,1.5-.5,2.1-.9,6.9-2.4,11.9-1,17.5,.9,5.4,1.8,7.9,1.3,8.1,1.2,0,0,0,0,0,0,7.1-1.3,13.2-.3,15.2,1.2-5.4-.4-9.5,0-13.5,1.2-4,1.1-4,0-10.2-.6-6.3-.6-13-1.9-16.9,0-2,1-5.1,1.2-8.1,1.1,2-1.5,3.9-2.8,5.7-4Zm-32.4,121.9s0,0,0,0c.2,0,2.7,.7,8.1-1,5.7-1.7,11.1-3.4,17.9-.9,2.6,1.7,7.1,2.7,11.1,.9s13.4,1.8,18.6,1.3c5.2-.4,8.1,.2,11.5,0,3.4-.2,7.1,.5,15,.4-4.5,2.9-10.7,.9-16.3,3.4-5.7,2.5-8,1.8-13.2,.5-5.2-1.3-4.9-1.4-9-.7-4.1,.6-6.3-1.5-10.8-1-4.5,.5-10.3,1.4-14.2-.6-3.8-2-4.1-.7-10.4-.3-6.3,.4-6.2,1.5-10.2,.3-4-1.2-3.7-1.8-7.8-3.2,2-1.4,6.3,.7,9.6,.9Zm412.8,278.9H42.5v-93h510.2v93Zm14.1,7.1l-5.1,10.7h-1.6l5.1-10.4h0s-5.7,0-5.7,0v-1.3h7.4v1Z"/>
</svg>