<?xml version="1.0" encoding="UTF-8" standalone="no"?>
<!-- Created with Inkscape (http://www.inkscape.org/) -->

<svg
   width="297mm"
   height="210mm"
   viewBox="0 0 297 210"
   version="1.1"
   id="svg1189"
   xmlns="http://www.w3.org/2000/svg"
   xmlns:svg="http://www.w3.org/2000/svg">
  <defs
     id="defs1186" />
  <g
     id="layer1">
    <path
       id="Path7"
       stroke-width="0.246944"
       stroke="#151515"
       stroke-opacity="1"
       fill="#2b2b2b"
       fill-opacity="1"
       fill-rule="evenodd"
       stroke-linecap="round"
       stroke-linejoin="round"
       d="m 23.033639,17.275229 c 0,0 -0.388055,0 -0.388055,0 0,0 0,180.022501 0,180.022501 0,0 239.994716,0 239.994716,0 0,0 0,-0.3175 0,-0.3175 0,0 0.38806,0 0.38806,0 0,0 0,-180.022501 0,-180.022501 0,0 -239.994721,0 -239.994721,0 0,0 0,0.3175 0,0.3175 z M 34.675306,161.773 c 0,0.0706 -0.03528,0 -0.176389,-0.24694 -0.176389,-0.3175 -0.211667,-0.42333 -0.211667,-0.56444 0,-0.28223 0.07056,-0.28223 0.141111,-0.0353 0,0.14111 0.03528,0.21166 0.07056,0.21166 0,0 0.03528,0.14112 0.07055,0.28223 0,0.14111 0.03528,0.24694 0.07056,0.24694 0,0 0.03528,0.0706 0.03528,0.10583 z m 218.969164,26.21139 c 0,0 -221.614998,0 -221.614998,0 0,0 0,-3.59833 0,-3.59833 0,0 0,0 0,0 1.552223,0.35278 3.386667,0.635 5.573889,0.98778 12.735278,2.04611 35.877499,2.2225 59.266665,-0.14111 13.793614,-1.41112 22.295554,-1.48167 26.458334,-1.02306 1.12889,0.10583 1.97555,0.17639 2.50472,0.0353 0,0 0.10583,0 0.10583,0 0,0 2.2225,0.49389 2.2225,0.49389 0.0353,0 0.0706,-0.17639 0.17639,-0.635 0,0 0.17639,-0.74084 0.17639,-0.74084 0,0 1.62278,0.0353 1.62278,0.0353 19.15583,0.52917 57.43222,-0.35278 57.71444,0.0706 0.98778,0.24694 16.54528,1.27 16.89806,1.27 0.98778,0.0353 2.99861,0.0705 4.51555,0.10583 8.18445,0.21167 13.54667,1.65806 31.36195,-2.29306 1.83444,-0.38805 6.77333,-0.91722 11.46528,-1.83444 0,0 1.55222,-0.3175 1.55222,-0.3175 0,0 0,7.58472 0,7.58472 z M 32.029472,158.45689 c 0,0 0,0 0,0 0,0.0353 0.07056,0.10584 0.07056,0.21167 0.03528,0.0706 0.07055,0.17639 0.07055,0.17639 0.03528,0 0.07056,0.10583 0.105834,0.17639 0.03528,0.10583 0.07055,0.28222 0.141111,0.38805 0.105833,0.35278 0.423333,1.30528 0.423333,1.34056 0,0.0353 0.03528,0.0705 0.03528,0.0705 0.03528,0 0.07056,0.10584 0.07056,0.21167 0.03528,0.10583 0.07055,0.24695 0.07055,0.24695 0.03528,0.0353 0.07056,0.14111 0.105833,0.28222 0,0.10583 0.03528,0.24694 0.07056,0.24694 0.03528,0.0706 0.03528,0.49389 0,0.56445 0,0 -0.03528,0.0353 -0.03528,0.10583 0,0 -0.03528,0.21167 -0.03528,0.21167 0,0 -0.9525,0.0705 -0.9525,0.0705 0,0 -0.03528,-0.14111 -0.03528,-0.14111 -0.03528,-0.10583 -0.105834,-0.21167 -0.105834,-0.21167 0,0 0,-0.0353 0,-0.0353 0,0 0,-3.91584 0,-3.91584 z m 0,-132.185827 c 0,0 221.614998,0 221.614998,0 0,0 0,143.368887 0,143.368887 0,0 -0.77611,-0.24695 -0.77611,-0.24695 -2.46945,-0.91722 -6.0325,-2.25777 -10.83028,-4.445 -18.66195,-8.46666 -12.27667,-4.26861 -23.495,-8.46666 -0.59972,-0.24695 -1.19945,-0.49389 -1.79917,-0.74084 0,0 -0.49389,-0.17638 -0.49389,-0.17638 0,0 0.14111,-0.0353 0.14111,-0.0353 0.91723,-0.14111 0.91723,-0.17639 4.05695,0.52916 2.39889,0.52917 2.50472,0.56445 3.81,1.12889 2.61055,1.12889 2.50472,1.09361 2.61055,0.9525 0.17639,-0.21166 0.10584,-0.77611 -0.14111,-1.27 -0.28222,-0.49389 -2.11666,-2.18722 -2.75166,-2.54 -0.24695,-0.10583 -0.74084,-0.3175 -1.09361,-0.42333 -1.30528,-0.38806 -2.46945,-0.70556 -2.61056,-0.70556 -0.10583,0.0353 -0.24694,-0.0705 -0.38806,-0.17638 -0.24694,-0.21167 -0.24694,-0.24695 0.10584,-1.30528 0.10583,-0.42334 0.24694,-0.98778 0.28222,-1.27 0.0353,-0.52917 0,-0.635 -0.21167,-1.37584 -0.14111,-0.42333 -0.3175,-0.9525 -0.42333,-1.16416 -0.0706,-0.17639 -0.3175,-0.70556 -0.52917,-1.16417 -0.52916,-1.19944 -1.27,-2.46944 -1.69333,-2.96333 -0.74083,-0.84667 -2.99861,-2.61056 -4.19806,-3.28084 -1.16416,-0.59972 -2.29305,-1.09361 -2.61055,-1.05833 -0.77611,0.0353 -1.27,-0.24694 -1.51694,-0.91722 -0.49389,-1.27 -1.94028,-2.8575 -3.10445,-3.31611 -0.3175,-0.14111 -0.67028,-0.28222 -0.77611,-0.28222 -0.17639,-0.0706 -0.21167,-0.10584 -0.0706,-0.3175 0.24695,-0.35278 0.10584,-0.38806 -1.30527,-0.35278 -0.59973,0 -1.55223,-0.0353 -2.11667,-0.0706 0,0 -0.98778,-0.0705 -0.98778,-0.0705 0,0 -0.45861,0.17639 -0.45861,0.17639 -0.59972,0.28222 -2.04611,1.12888 -2.71639,1.62277 -0.52916,0.38806 -0.56444,0.45861 -0.635,1.27 -0.0353,0.24695 0,0.35278 0.14111,0.49389 0.0706,0.0706 0.17639,0.3175 0.21167,0.52917 0.0706,0.28222 0.14111,0.42333 0.3175,0.56444 0.14111,0.0706 0.35278,0.38806 0.52917,0.67028 0.35277,0.59972 0.56444,0.81139 1.34055,1.41111 0.56445,0.42334 0.59972,0.45861 0.84667,1.12889 1.23472,3.28083 1.34055,3.52778 1.97555,4.93889 0.84667,1.83444 1.41112,3.38667 1.44639,3.88056 0.0353,0.14111 0.10584,0.56444 0.21167,0.9525 0.10583,0.35277 0.21167,0.81138 0.24694,1.05833 0,0.45861 0,0.49389 -0.91722,0.74083 -0.91722,0.3175 -1.05833,0.42334 -1.02305,0.91722 0,0.14112 0,0.35278 -0.0353,0.45862 0,0 -0.0706,0.21166 -0.0706,0.21166 0,0 0.49389,-0.0705 0.49389,-0.0705 0,0 0.49389,-0.0706 0.49389,-0.0706 0,0 0.0353,0.21167 0.0353,0.21167 0,0.17639 0.17639,0.24694 0.24694,0.10583 0.0353,-0.0353 0.21167,-0.10583 0.42334,-0.14111 0.17639,-0.0706 0.45861,-0.14111 0.56444,-0.24694 0.14111,-0.10584 0.3175,-0.17639 0.77611,-0.17639 0.49389,-0.0353 0.59972,-0.0706 0.77611,-0.24695 0.21167,-0.24694 0.28223,-0.24694 0.24695,0.0353 -0.0353,0.0353 -0.0353,0.0706 -0.0353,0.10583 0,0 -0.0706,0.10584 -0.0706,0.10584 0,0 -0.17638,0.0353 -0.17638,0.0353 -2.82223,0.635 -6.24417,1.97556 -10.61862,4.33917 -4.23333,2.25778 -4.48027,3.77472 -8.43138,4.65667 -2.57528,0.56444 -4.26862,1.37583 -5.36223,2.18722 -1.79916,1.34056 -1.94027,2.68111 -1.94027,2.78694 0,0.0706 -11.00667,5.11528 -9.34862,7.62 0.0706,0.10584 -25.11777,2.50473 -39.96972,4.33917 0,0 -1.12889,0.14111 -1.12889,0.14111 0,0 0.24695,-1.12889 0.24695,-1.12889 0.3175,-1.37583 0.38805,-1.48166 0.52917,-1.65805 0.0353,-0.0706 0.10583,-0.14111 0.14111,-0.21167 0.0353,-0.0706 0.17639,-0.21167 0.24694,-0.3175 0.10583,-0.14111 0.17639,-0.24694 0.17639,-0.28222 0.0353,-0.0353 0.0353,-0.0706 0.0706,-0.0353 0,0 0.0706,-0.0706 0.10583,-0.14111 0.0353,-0.0706 0.0705,-0.14111 0.10583,-0.14111 0,0 0.0353,-0.0353 0.10584,-0.10584 0.0353,-0.0705 0.0705,-0.14111 0.10583,-0.14111 0,0 0.0353,0 0.0353,-0.0353 0,0 0.14111,-0.17639 0.35277,-0.38806 0.17639,-0.21167 0.3175,-0.38806 0.3175,-0.38806 0,-0.0353 0.0353,-0.0353 0.0353,-0.0353 0.0353,0 0.0706,-0.0353 0.14111,-0.10584 0.10584,-0.14111 0.17639,-0.21166 0.3175,-0.3175 0.10584,-0.10583 0.14111,-0.21166 0.0706,-0.21166 -0.0353,-0.0353 -0.21167,0.0353 -0.35278,0.10583 -0.0353,0.0353 -0.10583,0.0706 -0.17639,0.10583 -0.24694,0.10584 -1.55222,0.91723 -1.55222,0.98778 0,0 -0.0353,0.0353 -0.0706,0.0706 -0.17638,0.14111 -0.3175,0.24694 -0.3175,0.28222 0,0 -0.0353,0.0353 -0.0705,0.0353 -0.0353,0 -0.0706,0.0353 -0.0706,0.0353 0,0.0353 -0.0705,0.10584 -0.14111,0.14112 -0.0353,0.0705 -0.10583,0.14111 -0.10583,0.14111 0,0.0353 -0.0353,0.0353 -0.0353,0.0353 -0.0353,0.0353 -0.42333,0.42334 -0.56444,0.59973 -0.0353,0.0705 -0.0706,0.10583 -0.10584,0.10583 0,-0.0353 0.0706,-0.17639 0.10584,-0.38806 0.3175,-0.88194 0.42333,-1.34055 0.635,-2.29305 0.14111,-0.56445 0.21166,-1.05833 0.21166,-1.09361 -0.0353,-0.0353 0,-0.3175 0.0353,-0.56445 0.0353,-0.28222 0.0706,-0.52916 0.0706,-0.56444 -0.0353,-0.0353 -0.0353,-0.21167 0,-0.38806 0,-0.42333 -0.0353,-0.91722 -0.0706,-1.23472 -0.0353,-0.0705 -0.0353,-0.14111 -0.0353,-0.21167 0,-0.0705 -0.0353,-0.10583 -0.0353,-0.14111 0,-0.0353 -0.0353,-0.10583 -0.0353,-0.17639 0,-0.10583 0,-0.17638 -0.0353,-0.17638 0,0 -0.0353,-0.0706 -0.0353,-0.14112 0,-0.10583 -0.0353,-0.17638 -0.0353,-0.17638 0,0 -0.0353,-0.0706 -0.0353,-0.14112 -0.0353,-0.0705 -0.0353,-0.14111 -0.0706,-0.14111 0,0 -0.0353,-0.0353 0,-0.0353 0,-0.10584 -0.38805,-0.84667 -0.45861,-0.88195 -0.0706,0 -0.0706,0.14111 0,0.38806 0,0.0705 0.0353,0.21166 0.0353,0.28222 0,0.0705 0,0.10583 0,0.10583 0.0353,0 0.0353,0.10584 0.0353,0.21167 0,0.14111 0,0.21167 0.0353,0.21167 0,0.0353 0,0.14111 0,0.24694 0,0.14111 0,0.28222 0.0353,0.3175 0,0.0706 0.0353,0.38806 0,0.84667 0,0.17639 0,0.3175 0.0353,0.35277 0,0.0353 0,0.14112 -0.0353,0.28223 0,0.14111 -0.0353,0.35277 -0.0353,0.49389 0,0.10583 -0.0353,0.38805 -0.0705,0.59972 -0.0353,0.21166 -0.0353,0.42333 -0.0353,0.45861 0.0353,0.14111 -0.45861,2.08139 -0.67028,2.64583 -0.21166,0.59972 -0.45861,1.23472 -0.49389,1.30528 -0.0353,0 -0.10583,0.17639 -0.14111,0.3175 -0.0705,0.17639 -0.14111,0.35278 -0.17639,0.42333 -0.0353,0.0353 -0.10583,0.14111 -0.14111,0.21167 -0.0353,0.10583 -0.10583,0.21167 -0.14111,0.28222 -0.0353,0.0353 -0.10583,0.14111 -0.14111,0.21167 -0.0353,0.0705 -0.0706,0.14111 -0.0706,0.14111 -0.0353,-0.0353 -0.0705,0.0353 -0.10583,0.10583 -0.0353,0.0353 -0.0705,0.14111 -0.14111,0.21167 0,0 -0.10583,0.10583 -0.10583,0.10583 0,0 0.14111,-0.56444 0.14111,-0.56444 0.10583,-0.3175 0.17639,-0.59972 0.21166,-0.635 0.0353,-0.0353 0.0706,-0.10583 0.10584,-0.21167 0,0 0.0706,-0.17639 0.0706,-0.17639 0,0 -0.14111,-0.0353 -0.14111,-0.0353 -0.10583,0 -0.10583,-0.0353 -0.0705,-0.10584 0.0353,-0.0705 0.0705,-0.17639 0.10583,-0.21166 0.0706,-0.0353 0.10583,-0.10584 0.10583,-0.14112 0,-0.0353 0.0353,-0.0705 0.0353,-0.0705 0.0353,0 0.10583,-0.10583 0.14111,-0.21167 0.0706,-0.10583 0.10584,-0.21166 0.14111,-0.24694 0,0 0.0706,-0.10584 0.10584,-0.24695 0.0705,-0.10583 0.14111,-0.24694 0.17639,-0.28222 0,-0.0353 0.0705,-0.21167 0.14111,-0.38805 0.0705,-0.17639 0.14111,-0.35278 0.17639,-0.38806 0.10583,-0.10583 0.49388,-1.79917 0.42333,-1.83444 0,-0.0353 0,-0.21167 0,-0.38806 0.0353,-0.17639 0.0353,-0.35278 0,-0.35278 0,-0.0353 0,-0.14111 0,-0.24694 0,-0.14111 0,-0.21167 -0.0353,-0.24695 0,0 -0.0353,-0.0353 -0.0353,-0.10583 0,-0.0706 0,-0.10583 -0.0353,-0.14111 -0.0353,0 -0.0706,0.0705 -0.17639,0.49389 -0.10584,0.52916 -0.3175,1.19944 -0.42334,1.30528 0,0.0353 -0.0705,0.21166 -0.14111,0.35277 -0.0705,0.14111 -0.14111,0.3175 -0.14111,0.3175 -0.0353,0.0353 -0.10583,0.17639 -0.17639,0.3175 -0.21166,0.42334 -0.24694,0.49389 -0.3175,0.56445 0,0.0353 -0.0705,0.14111 -0.10583,0.21166 -0.10583,0.21167 -0.59972,1.02306 -0.635,1.02306 0,0.0353 -0.0353,0 0,-0.0353 0,-0.0353 0.0353,-0.10583 0.0353,-0.10583 0.0705,0 0.21166,-0.59972 0.21166,-0.88195 0,-0.10583 0.0353,-0.35277 0.0706,-0.52916 0.0353,-0.35278 0.0353,-0.52917 -0.0353,-1.02306 0,-0.24694 -0.0353,-0.35278 -0.10583,-0.38805 0,0 -0.0706,0.24694 -0.14111,0.52916 -0.0706,0.28223 -0.14111,0.59973 -0.17639,0.70556 -0.0706,0.10583 -0.14111,0.3175 -0.21167,0.45861 -0.0353,0.17639 -0.10583,0.3175 -0.14111,0.35278 -0.0353,0.0353 -0.0706,0.10583 -0.0706,0.17639 -0.0353,0.0353 0,-0.17639 0.0353,-0.49389 0.0706,-0.3175 0.10584,-0.59972 0.10584,-0.635 -0.0353,-0.0353 0.0353,-0.35278 0.0705,-0.67028 0.0706,-0.35278 0.10583,-0.67028 0.0706,-0.67028 0,0 0,-0.21166 0.0353,-0.45861 0.0353,-0.21167 0.0353,-0.45861 0.0353,-0.52917 0,-0.0705 0,-0.28222 0.0353,-0.49388 0.0353,-0.635 0.0353,-1.48167 0,-1.51695 0,0 0,-0.14111 0,-0.3175 0.0353,-0.14111 0,-0.28222 0,-0.28222 0,0 0,-0.10583 0,-0.24695 0,-0.14111 0,-0.28222 -0.0353,-0.3175 0,-0.0353 0,-0.14111 0,-0.28222 0,-0.21166 -0.0353,-0.3175 -0.0705,-0.3175 -0.0353,0 -0.0706,0.0353 -0.0706,0.10584 0,0.0705 -0.0353,0.14111 -0.0705,0.10583 0,0 -0.10584,0.28222 -0.21167,0.59972 -0.10583,0.3175 -0.17639,0.56445 -0.21167,0.59972 0,0 -0.10583,0.3175 -0.21166,0.635 -0.10584,0.35278 -0.21167,0.67028 -0.24695,0.67028 0,0.0353 -0.14111,0.38806 -0.24694,0.77611 -0.14111,0.42334 -0.24695,0.77611 -0.24695,0.77611 -0.0353,0 -0.10583,0.28223 -0.21166,0.59973 -0.0706,0.35277 -0.17639,0.635 -0.17639,0.635 0,-0.0353 -0.0706,0.14111 -0.10584,0.38805 -0.0353,0.21167 -0.10583,0.38806 -0.10583,0.38806 -0.0353,0.0353 -0.17639,0.45861 -0.3175,0.98777 -0.14111,0.56445 -0.28222,1.05834 -0.3175,1.16417 0,0 -0.0706,0.17639 -0.0706,0.17639 0,0 0.0353,-0.3175 0.0353,-0.3175 0.0353,-0.17639 0.0353,-0.35278 0,-0.35278 0,0 0,-0.14111 0,-0.35278 0.0353,-0.17638 0.0353,-0.35277 0.0353,-0.38805 -0.0353,0 0,-0.21167 0,-0.45861 0.0353,-0.21167 0.0706,-0.42334 0.0353,-0.45861 0,-0.10584 0.10583,-1.05834 0.21166,-1.69334 0.10584,-0.59972 0.70556,-3.175 0.77612,-3.24555 0.0353,-0.0353 0.14111,-0.35278 0.24694,-0.67028 0.10583,-0.3175 0.17639,-0.59972 0.21167,-0.59972 0,0 0.0705,-0.17639 0.14111,-0.38806 0.10583,-0.24694 0.17639,-0.45861 0.17639,-0.45861 0.0353,0 0.10583,-0.17639 0.17639,-0.35278 0.0706,-0.17639 0.14111,-0.3175 0.14111,-0.3175 0.0353,0 0.0705,-0.14111 0.14111,-0.28222 0.0705,-0.17639 0.14111,-0.3175 0.14111,-0.3175 0.0353,-0.0353 0.10583,-0.14111 0.14111,-0.24694 0.0706,-0.14111 0.14111,-0.24695 0.14111,-0.28222 0.0353,0 0.0706,-0.0706 0.10583,-0.14112 0.0353,-0.10583 0.0706,-0.17638 0.10584,-0.24694 0.0353,-0.0353 0.10583,-0.14111 0.14111,-0.21167 0.0353,-0.0705 0.0705,-0.14111 0.10583,-0.17639 0,0 0.0706,-0.0705 0.10584,-0.17638 0.0353,-0.0706 0.10583,-0.17639 0.14111,-0.21167 0,-0.0353 0.10583,-0.21167 0.21166,-0.38806 0.14111,-0.17639 0.24695,-0.35277 0.28223,-0.38805 0.0353,-0.0353 0.0706,-0.10584 0.0706,-0.14111 0,-0.0353 0.0706,-0.10584 0.14111,-0.21167 0.10584,-0.10583 0.14111,-0.21167 0.17639,-0.24694 0,0 0.0353,-0.0353 0.0353,-0.0353 0.0353,0 0.0353,-0.0353 0.0353,-0.10584 0,-0.0705 0,-0.0705 -0.14111,0.0353 -0.0706,0.0706 -0.17639,0.17639 -0.21167,0.21167 0,0.0353 -0.0706,0.10583 -0.14111,0.14111 -0.21167,0.24694 -0.38806,0.42333 -0.88195,1.05833 -0.70555,0.88195 -0.77611,0.9525 -0.81139,1.05834 0,0.0353 -0.0353,0.0353 -0.0353,0.0353 -0.0353,0 -0.0706,0.0706 -0.14111,0.17639 0,0 -0.14112,0.21167 -0.14112,0.21167 0,0 0.0353,-0.21167 0.0353,-0.21167 0.0353,-0.28222 -0.10583,-0.52916 -0.42333,-0.77611 0,0 -0.10583,-0.0705 -0.10583,-0.0705 0,0 0.21166,-0.0706 0.21166,-0.0706 0.10584,-0.0353 0.28222,-0.10583 0.38806,-0.17639 0.17639,-0.10583 0.21166,-0.10583 0.24694,-0.38805 0.0706,-0.21167 0.0706,-0.28223 0,-0.42334 -0.17639,-0.45861 -0.56444,-0.56444 -1.05833,-0.35277 -0.21167,0.0705 -0.35278,0.17638 -0.52917,0.38805 -0.0353,0.0353 -0.0353,0 0,-0.21167 0.0353,-0.24694 0,-0.59972 -0.10583,-0.77611 -0.0706,-0.17639 -0.14111,-0.24694 -0.17639,-0.24694 -0.0706,0 -0.0706,-0.0353 -0.0706,-0.0706 0,-0.0353 -0.3175,-0.10583 -0.35277,-0.0705 0,0 -0.0706,0.0353 -0.14111,0.0353 -0.0353,0 -0.17639,0.0353 -0.28223,0.10583 0,0 -0.21166,0.10583 -0.21166,0.10583 0,0 -0.0706,0.28222 -0.0706,0.28222 -0.0353,0.24695 -0.0353,0.3175 0,0.45862 0.0353,0.10583 0.10583,0.21166 0.10583,0.24694 0.0706,0.0706 -0.0353,0.0706 -0.28222,0 -0.17639,-0.0353 -0.3175,-0.0353 -0.35278,-0.0353 0,0.0353 -0.0705,0.0353 -0.10583,0.0353 -0.0353,0 -0.14111,0 -0.21167,0.0706 -0.0705,0.0353 -0.10583,0.10583 -0.14111,0.14111 -0.0353,0.14111 -0.0705,0.10583 -0.0705,-0.0353 0,-0.0706 0,-0.17639 0,-0.21167 -0.0353,-0.0706 -0.0353,-0.21166 0,-0.3175 0,-0.14111 0,-0.24694 -0.0353,-0.28222 0,0 0,-0.10583 0,-0.14111 0,-0.21167 -0.0706,-0.52917 -0.14111,-0.52917 0,0 -0.0353,0.0706 -0.0706,0.17639 -0.21166,1.27 -0.59972,3.10445 -0.77611,3.45722 -0.0353,0.0706 -0.14111,0.45861 -0.28222,0.84667 -0.10583,0.42333 -0.21167,0.77611 -0.24694,0.77611 0,0 -0.10584,0.28222 -0.17639,0.56444 -0.10584,0.28223 -0.21167,0.52917 -0.21167,0.56445 -0.0353,0 -0.10583,0.21167 -0.17639,0.45861 -0.10583,0.21167 -0.17639,0.42333 -0.17639,0.45861 -0.0353,0 -0.0353,0.0353 -0.0705,0.10583 0,0 -0.0706,0.14112 -0.0706,0.14112 0,0 -0.14111,-0.0706 -0.14111,-0.0706 -0.24694,-0.17639 -0.52917,-0.3175 -0.88194,-0.49389 0,0 -0.24695,-0.10583 -0.24695,-0.10583 0,0 0.17639,-0.88195 0.17639,-0.88195 0.14111,-0.74083 0.24694,-1.30527 0.24694,-1.37583 -0.0353,-0.0353 0,-0.38806 0.0706,-0.74083 0.0706,-0.35278 0.10583,-0.67028 0.10583,-0.70556 -0.0353,-0.0353 0,-0.28222 0.0353,-0.56444 0.0353,-0.24695 0.0706,-0.49389 0.0353,-0.52917 0,-0.0353 0,-0.24694 0.0353,-0.45861 0,-0.21167 0.0353,-0.56444 0.0353,-0.77611 0,-0.21167 0,-0.52917 0.0353,-0.67028 0,-0.17639 0,-0.35278 -0.0353,-0.42333 0,-0.0353 0,-0.17639 0,-0.28222 0.0353,-0.45862 0,-0.635 -0.0705,-0.635 0,0 -0.24695,0.9525 -0.635,2.61055 -0.35278,1.44639 -0.635,2.61056 -0.67028,2.64583 0,0 -0.0705,0.21167 -0.14111,0.42334 -0.0353,0.21166 -0.10583,0.42333 -0.10583,0.38805 -0.0353,0 -0.0706,0.17639 -0.14111,0.38806 -0.0353,0.17639 -0.10584,0.35278 -0.10584,0.35278 -0.0353,0 -0.0705,-0.0706 -0.0705,-0.17639 0,-0.10584 -0.0353,-0.17639 -0.0353,-0.21167 0,0 -0.0353,-0.0353 0,-0.0706 0,-0.0353 -0.0353,-0.14111 -0.0353,-0.24694 -0.0353,-0.14111 -0.0705,-0.28222 -0.0705,-0.3175 0,-0.0706 0,-0.10583 -0.0353,-0.10583 0,0 0,-0.0353 0,-0.0706 0,-0.0353 -0.17639,-0.77611 -0.21167,-0.88194 -0.0353,0 -0.0353,-0.0706 -0.0353,-0.10584 0.0353,-0.0353 -0.0353,-0.0705 -0.0705,0 -0.10584,0.38806 -0.35278,1.5875 -0.45861,2.2225 0,0 0,0.14111 0,0.14111 0,0 -0.10584,-0.0353 -0.10584,-0.0353 0,0 -0.21166,-0.10584 -0.21166,-0.10584 0,0 0.10583,-0.49389 0.10583,-0.49389 0.10583,-0.38805 0.17639,-0.81138 0.14111,-0.81138 0,-0.0353 0,-0.17639 0.0353,-0.3175 0.0705,-0.28223 0.14111,-0.77611 0.17639,-1.02306 0,0 0,-0.14111 0,-0.14111 0,0 0.0353,-0.0353 0.0353,-0.0353 0.0353,-0.17639 0.10583,-0.3175 0.17638,-0.52916 0.28223,-0.98778 0.42334,-1.83445 0.42334,-3.06917 0.0353,-1.23472 -0.3175,-2.64583 -0.88195,-3.66889 -0.74083,-1.27 -2.43416,-3.13972 -3.66888,-4.05694 -1.09362,-0.81139 -1.44639,-0.98778 -2.71639,-1.37584 -1.44639,-0.45861 -2.18723,-0.52916 -3.175,-0.38805 -0.38806,0.0705 -0.88195,0.10583 -1.09361,0.14111 -0.38806,0 -1.27,-0.24695 -1.94028,-0.59972 -0.24695,-0.10584 -0.84667,-0.38806 -1.30528,-0.56445 -1.16417,-0.52917 -1.41111,-0.52917 -4.374445,-0.38805 -0.388055,0 -0.881944,-0.0353 -1.305277,-0.14112 -0.211667,-0.0705 -0.423334,-0.0705 -0.635,-0.10583 0,0 -0.141112,0 -0.141112,0 0,0 -0.105833,-0.17639 -0.105833,-0.17639 -0.03528,-0.10583 -0.07055,-0.17639 -0.07055,-0.21166 0,0 -0.03528,-0.0353 -0.03528,-0.0706 -0.03528,-0.0353 -0.07056,-0.10583 -0.07056,-0.14111 0,-0.0353 -0.03528,-0.0706 -0.07055,-0.0706 -0.105834,0 -0.105834,0.0353 -0.03528,0.24695 0.03528,0.0705 0.07055,0.24694 0.105833,0.35278 0,0 0,0.0705 0,0.0705 0,0 -0.141111,0.0353 -0.141111,0.0353 -0.388055,0.0353 -0.740833,0.14111 -1.128889,0.3175 -0.564444,0.3175 -0.705555,0.45861 -1.023055,0.98778 -0.141111,0.28222 -0.352778,0.49389 -0.705556,0.70555 -0.599722,0.38806 -1.058333,0.9525 -0.987778,1.23472 0,0.10584 0.07056,0.28223 0.141112,0.38806 0.03528,0.0353 0.07055,0.14111 0.105833,0.28222 0,0 0.03528,0.14111 0.03528,0.14111 0,0 -0.03528,-0.10583 -0.03528,-0.10583 -0.03528,-0.0706 -0.07056,-0.10583 -0.07056,-0.10583 -0.03528,0 -0.07055,-0.0706 -0.105833,-0.14111 -0.03528,-0.0706 -0.07056,-0.10584 -0.105833,-0.10584 -0.07056,0 -0.07056,0.0353 0,0.21167 0.03528,0.10583 0.105833,0.24694 0.141111,0.38805 0.07055,0.10584 0.105833,0.28223 0.176389,0.38806 0.105833,0.35278 0.211666,0.67028 0.246944,0.84667 0,0.10583 0.03528,0.17639 0.03528,0.17639 0.03528,0 0.07056,0.10583 0.07056,0.28222 0.03528,0.17639 0.07056,0.3175 0.07056,0.3175 0.03528,0.0353 0.141111,0.635 0.246944,1.30528 0.03528,0.28222 0.07056,0.52916 0.07056,0.56444 0.03528,0.0706 0.105833,1.30528 0.105833,1.72861 0,0 0,0.38806 0,0.38806 0,0 -0.211666,-0.3175 -0.211666,-0.3175 -0.105834,-0.14111 -0.246945,-0.38806 -0.352778,-0.49389 0,0 -0.141111,-0.21167 -0.141111,-0.21167 0,0 -0.03528,-0.56444 -0.03528,-0.56444 -0.03528,-0.3175 -0.07056,-0.59973 -0.07056,-0.59973 -0.03528,-0.0353 -0.07055,-0.21166 -0.07055,-0.38805 -0.03528,-0.17639 -0.07056,-0.35278 -0.07056,-0.35278 -0.03528,-0.0353 -0.07055,-0.17639 -0.105833,-0.28222 0,-0.14111 -0.03528,-0.28222 -0.07056,-0.28222 0,-0.0353 -0.03528,-0.10584 -0.03528,-0.17639 -0.03528,-0.0706 -0.07056,-0.21167 -0.105834,-0.28222 -0.03528,-0.10584 -0.07056,-0.17639 -0.07056,-0.17639 0,-0.0353 -0.03528,-0.14111 -0.105834,-0.24695 -0.03528,-0.10583 -0.07056,-0.21166 -0.07056,-0.24694 0,-0.0353 -0.03528,-0.0706 -0.03528,-0.0706 -0.03528,0 -0.07055,-0.0705 -0.105833,-0.17639 -0.105834,-0.14111 -0.141111,-0.21166 -0.3175,-0.49389 -0.105834,-0.14111 -0.493889,-0.56444 -0.529167,-0.56444 -0.03528,0 0,0.21167 0.07056,0.38806 0.03528,0.10583 0.105833,0.21166 0.105833,0.28222 0.03528,0.0353 0.03528,0.10583 0.07056,0.10583 0,0.0353 0.03528,0.10583 0.03528,0.17639 0.03528,0.0706 0.07056,0.17639 0.07056,0.24694 0.07055,0.10584 0.141111,0.3175 0.211667,0.70556 0.03528,0.10583 0.07056,0.17639 0.07056,0.21167 0.03528,0 0.07056,0.14111 0.07056,0.3175 0.03528,0.14111 0.07055,0.3175 0.07055,0.3175 0.03528,0.0353 0.03528,0.0706 0.105834,0.45861 0,0.17639 0.03528,0.35278 0.07055,0.38805 0,0.0353 0.03528,0.14111 0.03528,0.21167 0,0 0,0.14111 0,0.14111 0,0 -0.07056,-0.10583 -0.07056,-0.10583 -0.07055,-0.0353 -0.105833,-0.0706 -0.105833,-0.0353 -0.03528,0 -0.07056,-0.0706 -0.105833,-0.14111 -0.03528,-0.10583 -0.105834,-0.28222 -0.176389,-0.38806 -0.07056,-0.14111 -0.105834,-0.24694 -0.105834,-0.28222 0,0 -0.03528,-0.0353 -0.03528,-0.0353 -0.03528,0 -0.03528,-0.0353 -0.03528,-0.0705 0,-0.0353 -0.03528,-0.10584 -0.07056,-0.14111 -0.03528,-0.0706 -0.105833,-0.21167 -0.176389,-0.3175 -0.07055,-0.10584 -0.141111,-0.21167 -0.141111,-0.24695 -0.07055,-0.0705 -0.07055,-0.35278 -0.07055,-1.905 -0.03528,-1.02305 -0.03528,-1.86972 -0.07056,-1.97555 0,-0.10584 -0.03528,-0.3175 -0.07055,-0.49389 -0.03528,-0.14111 -0.07056,-0.28222 -0.07056,-0.35278 -0.03528,-0.0353 -0.07056,-0.17639 -0.07056,-0.3175 -0.03528,-0.10583 -0.07056,-0.24694 -0.07056,-0.28222 -0.03528,0 -0.03528,-0.0706 -0.07055,-0.14111 0,-0.0706 -0.07056,-0.21167 -0.105834,-0.28223 -0.03528,-0.10583 -0.07055,-0.17638 -0.07055,-0.21166 0,-0.0353 0,-0.0353 -0.03528,-0.0353 -0.07056,0.0353 -0.07056,0.635 -0.03528,0.70556 0.03528,0.0353 0.03528,2.57527 0,2.82222 0,0.10583 -0.03528,0.38805 -0.03528,0.67028 -0.03528,0.28222 -0.03528,0.52916 -0.07055,0.52916 0,0 -0.105834,-0.10583 -0.211667,-0.21166 -0.9525,-1.02306 -1.128889,-1.12889 -0.846667,-0.45862 0.07056,0.0706 0.105834,0.21167 0.105834,0.21167 0,0.0353 0,0.10583 0.03528,0.14111 0.03528,0.0353 0.07055,0.14111 0.07055,0.21167 0.03528,0.0706 0.03528,0.14111 0.07056,0.14111 0,0 0.03528,0.0706 0.07055,0.17639 0.03528,0.10583 0.07056,0.17639 0.07056,0.21167 0.03528,0.0353 0.03528,0.10583 0.07055,0.21166 0.03528,0.10584 0.07056,0.21167 0.07056,0.24695 0.03528,0 0.07055,0.14111 0.105833,0.24694 0,0.10583 0.03528,0.21167 0.07056,0.21167 0,0 0.03528,0.10583 0.07055,0.24694 0.03528,0.28222 0,0.635 -0.141111,1.44639 -0.03528,0.24695 -0.03528,0.28222 -0.07055,0.14111 0,-0.21166 -0.03528,-0.3175 -0.07056,-0.35278 -0.03528,0 -0.07055,0.0353 -0.07055,0.0706 0,0.0353 0,0.0706 -0.03528,0.10583 0,0 -0.03528,0.14111 -0.07056,0.28223 -0.03528,0.10583 -0.07055,0.24694 -0.07055,0.24694 0,0 -0.03528,0.14111 -0.07056,0.28222 -0.141111,0.49389 -0.211667,0.77611 -0.211667,0.74084 0,0 -0.03528,-0.35278 -0.03528,-0.81139 -0.03528,-0.42334 -0.07056,-0.81139 -0.105834,-0.84667 0,-0.0353 -0.03528,-0.35278 -0.07055,-0.70556 0,-0.3175 -0.03528,-0.59972 -0.07056,-0.59972 0,-0.0353 -0.03528,-0.10583 -0.03528,-0.17639 0,-0.10583 -0.03528,-0.3175 -0.03528,-0.49389 -0.03528,-0.17638 -0.105834,-0.52916 -0.141111,-0.74083 0,-0.21167 -0.03528,-0.38805 -0.07056,-0.38805 0,-0.0353 -0.03528,-0.17639 -0.07056,-0.35278 -0.07055,-0.49389 -0.176388,-0.91722 -0.211666,-0.91722 0,-0.0353 -0.03528,-0.14112 -0.07056,-0.3175 -0.03528,-0.14112 -0.03528,-0.28223 -0.07055,-0.28223 0,0 -0.03528,-0.10583 -0.07056,-0.24694 -0.03528,-0.14111 -0.07055,-0.28222 -0.07055,-0.28222 0,-0.0353 -0.03528,-0.14111 -0.07056,-0.24695 -0.03528,-0.10583 -0.07056,-0.24694 -0.105833,-0.3175 0,0 0,-0.0353 0,-0.0353 0,0 0.07055,0 0.07055,0 0.07056,-0.0353 0.105834,-0.0705 0.141111,-0.10583 0.246945,-0.21167 0.3175,-0.74083 0.141111,-0.9525 -0.141111,-0.17639 -0.246944,-0.24694 -0.458611,-0.24694 0,0 -0.141111,-0.0353 -0.141111,-0.0353 0,0 0,-0.0706 0,-0.0706 0.3175,-0.59972 0.776111,-1.48166 1.058334,-2.04611 0.211666,-0.3175 0.352777,-0.56444 0.352777,-0.59972 0.03528,0 0.105834,-0.14111 0.176389,-0.24694 0.07056,-0.14112 0.141111,-0.28223 0.141111,-0.28223 0,0 0.03528,-0.0353 0.07056,-0.0705 0,-0.0706 0.03528,-0.14111 0.07055,-0.14111 0.07056,-0.10584 0.211667,-0.35278 0.211667,-0.35278 0,-0.0353 0.03528,-0.0706 0.03528,-0.0706 0.03528,0 0.07055,0 0.07055,-0.0353 0,-0.0353 0.03528,-0.10584 0.07056,-0.14112 0.03528,-0.0705 0.176389,-0.21166 0.246944,-0.35277 0.105834,-0.17639 0.211667,-0.28223 0.211667,-0.3175 0.03528,0 0.07056,-0.10584 0.141111,-0.21167 0.176389,-0.21167 0.176389,-0.21167 0.282222,-0.35278 0.03528,-0.0353 0.141111,-0.14111 0.176389,-0.21166 0.07056,-0.0706 0.176389,-0.21167 0.246945,-0.28223 0.07055,-0.10583 0.176389,-0.21166 0.211666,-0.24694 0.141111,-0.17639 0.493889,-0.59972 0.705556,-0.81139 0.211667,-0.24694 0.246944,-0.3175 0.176389,-0.3175 -0.03528,0 -0.105834,0.0706 -0.776111,0.74083 -0.388056,0.42334 -0.776111,0.84667 -1.058334,1.19945 -0.03528,0.0353 -0.105833,0.10583 -0.176388,0.17639 -0.07056,0.14111 -0.211667,0.28222 -0.529167,0.74083 -0.03528,0.0353 -0.105833,0.10583 -0.141111,0.14111 -0.03528,0.0353 -0.07056,0.10583 -0.07056,0.10583 0,0.0353 -0.03528,0.0706 -0.07055,0.14112 -0.07056,0.0353 -0.141111,0.14111 -0.176389,0.17638 -0.03528,0.0706 -0.105834,0.17639 -0.176389,0.28223 -0.07056,0.0706 -0.211667,0.24694 -0.282222,0.42333 -0.105834,0.14111 -0.211667,0.28222 -0.246945,0.3175 0,0.0353 -0.07055,0.10583 -0.141111,0.21167 -0.07055,0.10583 -0.141111,0.21166 -0.141111,0.21166 0,0 -0.03528,0 -0.03528,0.0353 0,0.0353 -0.07055,0.14111 -0.352778,0.59972 -0.03528,0.0353 -0.105833,0.17639 -0.176388,0.28223 -0.07056,0.10583 -0.105834,0.21166 -0.141112,0.24694 0,0 -0.03528,0.0706 -0.07055,0.10583 0,0 0,0.0353 0,0.0353 0,0 -0.03528,-0.0705 -0.03528,-0.0705 -0.03528,-0.14112 -0.246944,-0.38806 -0.388055,-0.42334 -0.07056,0 -0.105834,-0.0353 -0.141112,-0.0706 0,0 -0.07055,-0.0353 -0.176388,-0.0353 -0.211667,0 -0.423334,0.14111 -0.493889,0.28222 -0.03528,0.0353 -0.07056,0.10583 -0.105834,0.14111 -0.03528,0.0353 -0.07055,0.10584 -0.07055,0.17639 0,0.0706 -0.03528,0.14111 -0.07056,0.14111 0,0 -0.03528,0.0353 -0.03528,0.0706 0,0.0705 0,0.0705 -0.07055,-0.0353 -0.105833,-0.10583 -0.282222,-0.28222 -0.388056,-0.38806 -0.141111,-0.14111 -0.458611,-0.14111 -0.670277,-0.0353 -0.246945,0.14111 -0.423334,0.42333 -0.423334,0.67027 0,0.24695 0.282223,0.59973 0.635,0.81139 0.105834,0.0353 0.176389,0.10584 0.176389,0.10584 0,0.0353 -0.03528,0.0353 -0.105833,0.0705 -0.282222,0.0353 -0.670278,0.3175 -0.811389,0.52917 -0.176389,0.28222 0,0.81139 0.352778,0.98778 0.246944,0.14111 0.564444,0.0353 0.881944,-0.24695 0.141111,-0.10583 0.176389,-0.14111 0.176389,-0.0705 0,0.10583 0.07056,0.38805 0.141111,0.56444 0,0 0.03528,0.0353 0.03528,0.0353 0,0 -0.07056,0.14111 -0.07056,0.14111 -0.03528,0.0353 -0.07055,0.17639 -0.141111,0.28222 -0.03528,0.10584 -0.105833,0.3175 -0.176389,0.42334 -0.03528,0.14111 -0.105833,0.28222 -0.105833,0.3175 -0.03528,0.0705 -0.07055,0.14111 -0.07055,0.17638 0,0 -0.03528,0.10584 -0.07056,0.17639 -0.03528,0.10584 -0.07056,0.17639 -0.07056,0.21167 0,0.0353 -0.03528,0.10583 -0.07055,0.21167 -0.03528,0.0705 -0.105833,0.21166 -0.105833,0.24694 0,0.0706 -0.03528,0.14111 -0.07056,0.14111 0,0.0353 -0.03528,0.14111 -0.07056,0.24695 0,0.10583 -0.03528,0.21166 -0.07055,0.21166 0,0.0353 -0.03528,0.14111 -0.07056,0.21167 -0.03528,0.10583 -0.03528,0.21167 -0.07055,0.24694 0,0 -0.03528,0.10584 -0.03528,0.17639 -0.03528,0.0706 -0.07056,0.17639 -0.105833,0.21167 0,0.0706 -0.07056,0.17639 -0.07056,0.28222 -0.141111,0.52917 -0.176389,0.635 -0.211667,0.635 -0.03528,0 -0.07055,-0.0705 -0.07055,-0.17639 0,-0.10583 -0.03528,-0.21166 -0.07056,-0.24694 0,0 -0.03528,-0.14111 -0.07055,-0.28222 -0.03528,-0.14111 -0.03528,-0.28223 -0.07056,-0.3175 0,0 -0.03528,-0.14111 -0.07055,-0.28223 -0.03528,-0.14111 -0.07056,-0.24694 -0.07056,-0.28222 -0.03528,0 -0.03528,-0.0705 -0.07055,-0.17639 0,-0.0705 -0.03528,-0.17639 -0.07056,-0.24694 -0.03528,-0.0706 -0.03528,-0.14111 -0.03528,-0.14111 0,-0.10584 -0.07055,-0.24695 -0.07055,-0.24695 -0.03528,0 -0.07056,-0.10583 -0.105834,-0.24694 0,-0.14111 -0.03528,-0.24695 -0.07055,-0.24695 0,0 -0.03528,-0.10583 -0.07056,-0.21166 -0.03528,-0.10584 -0.07055,-0.21167 -0.07055,-0.21167 0,0 -0.03528,-0.0353 -0.03528,-0.10583 -0.03528,-0.0706 -0.07056,-0.17639 -0.105833,-0.28222 -0.03528,-0.0706 -0.07056,-0.17639 -0.07056,-0.17639 0,0 -0.03528,-0.0706 -0.07056,-0.17639 -0.03528,-0.0706 -0.105833,-0.21167 -0.141111,-0.28222 -0.105833,-0.3175 -0.564444,-1.16417 -0.564444,-1.19945 -0.03528,0 -0.07056,-0.0705 -0.105833,-0.14111 -0.07056,-0.14111 -0.07056,-0.17639 -0.282223,-0.49389 -0.105833,-0.21167 -0.211666,-0.24694 -0.176389,-0.0706 0,0.0706 0.03528,0.21166 0.07056,0.28222 0.07056,0.14111 0.176389,0.35278 0.246944,0.635 0.03528,0.10583 0.07056,0.21166 0.07056,0.21166 0.03528,0.0353 0.07056,0.10584 0.07056,0.17639 0,0.0706 0.03528,0.14111 0.07056,0.14111 0,0 0.03528,0.10584 0.07056,0.21167 0,0.14111 0.03528,0.24695 0.07055,0.24695 0,0.0353 0.03528,0.14111 0.07056,0.24694 0.03528,0.10583 0.07055,0.21167 0.07055,0.24694 0,0 0.03528,0.10584 0.07056,0.21167 0.03528,0.14111 0.07055,0.24695 0.07055,0.28222 0.03528,0 0.07056,0.10584 0.07056,0.24695 0.03528,0.10583 0.07056,0.21166 0.105833,0.24694 0,0.0706 0,0.10584 0,0.14111 -0.03528,0 -0.07056,0.10584 -0.105833,0.21167 0,0.10583 -0.03528,0.21167 -0.07056,0.21167 0,0.0353 -0.03528,0.14111 -0.07055,0.28222 -0.03528,0.10583 -0.07056,0.24694 -0.07056,0.24694 -0.03528,0.0353 -0.07055,0.17639 -0.07055,0.3175 -0.03528,0.14111 -0.07056,0.28223 -0.07056,0.3175 -0.03528,0 -0.07055,0.17639 -0.07055,0.35278 -0.03528,0.21167 -0.07056,0.35278 -0.07056,0.38806 -0.03528,0 -0.07056,0.17639 -0.07056,0.38805 -0.03528,0.21167 -0.07056,0.49389 -0.105834,0.635 0,0.14111 -0.03528,0.77611 0,1.41111 0,0 0,1.19945 0,1.19945 0,0 -0.282222,0.42333 -0.282222,0.42333 0,0 -0.352778,0.56445 -0.352778,0.56445 0,0 -0.07055,0 -0.07055,0 0,0 -0.246945,0 -0.246945,0 0,0 0,-0.0706 0,-0.0706 0.07056,-0.0353 0.07056,-3.06917 0,-3.175 0,-0.0706 -0.03528,-0.3175 -0.07055,-0.59972 -0.03528,-0.24695 -0.07056,-0.49389 -0.07056,-0.49389 -0.03528,-0.0353 -0.07055,-0.21167 -0.07055,-0.38806 -0.03528,-0.17639 -0.07056,-0.3175 -0.07056,-0.3175 -0.03528,-0.0353 -0.07055,-0.10583 -0.07055,-0.21166 0,-0.10584 -0.03528,-0.21167 -0.07056,-0.28223 -0.03528,-0.0705 -0.07056,-0.17638 -0.105833,-0.28222 0,-0.10583 -0.03528,-0.17639 -0.07056,-0.21166 -0.07055,-0.14112 -0.211667,-0.49389 -0.211667,-0.52917 0,-0.0353 -0.03528,-0.0706 -0.07055,-0.0706 -0.03528,-0.0353 -0.07056,-0.10583 -0.07056,-0.17639 0,-0.0353 -0.03528,-0.10583 -0.07055,-0.10583 0,0 0,0 0,-0.0353 0,-0.14111 -0.705556,-0.98777 -0.811389,-0.98777 -0.03528,0 -0.03528,0.10583 0.03528,0.24694 0.105833,0.17639 0.176389,0.42333 0.246944,0.70556 0.03528,0.10583 0.07056,0.17638 0.105833,0.21166 0,0.0353 0.03528,0.10584 0.03528,0.21167 0.03528,0.0706 0.07056,0.14111 0.07056,0.17639 0.03528,0 0.07055,0.10583 0.07055,0.21166 0.03528,0.10584 0.07056,0.24695 0.07056,0.24695 0.03528,0.0353 0.07055,0.17639 0.07055,0.3175 0.03528,0.17639 0.07056,0.3175 0.105834,0.3175 0,0.0353 0.03528,0.21167 0.07055,0.38805 0,0.21167 0.03528,0.38806 0.07056,0.38806 0,0 0.03528,0.24694 0.07055,0.56444 0.03528,0.3175 0.07056,0.59973 0.07056,0.635 0.03528,0.14112 0.03528,2.25778 0,2.36362 -0.03528,0.0353 -0.03528,0.24694 -0.07056,0.45861 0,0.14111 0,0.24694 -0.03528,0.3175 0,0 0,0.0705 0,0.0705 0,0 -0.458611,-0.0353 -0.458611,-0.0353 0,0 0,-0.0705 0,-0.0705 0.03528,0 0.141111,-0.77611 0.105833,-0.81139 0,0 0.03528,-0.0353 0.07055,-0.0353 0.03528,-0.0353 0.07056,-1.905 0,-1.94028 -0.03528,0 -0.07055,-0.14111 -0.105833,-0.3175 0,-0.17638 -0.03528,-0.35277 -0.07055,-0.35277 0,-0.0353 -0.03528,-0.14111 -0.07056,-0.28223 -0.03528,-0.10583 -0.07056,-0.21166 -0.07056,-0.21166 -0.03528,0 -0.03528,-0.0353 -0.03528,-0.0706 -0.03528,-0.0353 -0.03528,-0.10583 -0.07056,-0.10583 -0.07055,0 -0.07055,0.0353 -0.07055,0.45861 0,0.49389 -0.07056,1.41111 -0.141112,1.41111 0,0 -0.03528,0.10583 -0.03528,0.24695 -0.03528,0.3175 -0.105834,0.28222 -0.141111,-0.0706 -0.03528,-0.14111 -0.07056,-0.3175 -0.105834,-0.35278 0,-0.0705 -0.03528,-0.17639 -0.07055,-0.28222 -0.03528,-0.28222 -0.141111,-0.35278 -0.141111,-0.10583 0,0.0705 -0.03528,0.14111 -0.03528,0.14111 0,0 -0.03528,0.0705 0,0.21166 0,0.10584 -0.03528,0.21167 -0.03528,0.21167 -0.03528,0 -0.07056,0.17639 -0.07056,0.42333 0,0.24695 -0.03528,0.45862 -0.03528,0.45862 -0.03528,0 -0.03528,0.10583 -0.03528,0.24694 0,0.14111 0,0.24694 -0.03528,0.24694 0,0 -0.03528,0.10584 -0.03528,0.24695 0,0.35278 -0.07055,0.45861 -0.105833,0.14111 0,-0.24694 -0.07056,-0.74083 -0.105833,-0.81139 -0.03528,-0.0705 -0.141111,-0.49389 -0.105834,-0.52917 0,-0.0353 0,-0.0353 -0.03528,0 0,0 -0.03528,-0.0353 -0.07056,-0.10583 0,-0.10583 -0.07056,-0.17639 -0.105833,-0.17639 -0.03528,0 -0.03528,0.0353 -0.07056,0.49389 0,0.28222 0,0.59972 -0.03528,0.74083 0,0 -0.105833,0.77612 -0.105833,0.77612 0,0 -0.105833,-0.0353 -0.105833,-0.0353 0,0 0,0 0,0 0,0 0,-0.21167 0,-0.21167 -0.03528,-0.3175 -0.03528,-0.56444 -0.07056,-0.56444 0,0 -0.03528,-0.3175 -0.07055,-0.67028 -0.03528,-0.38806 -0.07056,-0.70556 -0.07056,-0.70556 -0.03528,-0.0353 -0.07056,-0.24694 -0.07056,-0.49389 -0.03528,-0.28222 -0.07055,-0.49388 -0.07055,-0.49388 -0.03528,0 -0.07056,-0.17639 -0.07056,-0.38806 -0.03528,-0.21167 -0.07055,-0.42333 -0.105833,-0.42333 0,-0.0353 -0.03528,-0.17639 -0.07056,-0.35278 0,-0.17639 -0.03528,-0.35278 -0.07055,-0.35278 0,-0.0353 -0.03528,-0.17639 -0.07056,-0.3175 -0.03528,-0.14111 -0.03528,-0.28222 -0.07055,-0.28222 0,-0.0353 -0.03528,-0.14111 -0.07056,-0.21167 0,-0.10583 -0.03528,-0.28222 -0.07055,-0.38805 -0.176389,-0.56445 -0.246945,-0.74084 -0.246945,-0.81139 0,-0.0706 -0.07055,-0.14111 -0.105833,-0.10584 -0.03528,0 -0.03528,0.17639 -0.03528,0.3175 -0.03528,0.17639 -0.03528,0.3175 -0.07055,0.3175 0,0 -0.03528,0.17639 -0.03528,0.38806 -0.03528,0.21167 -0.07056,0.49389 -0.105834,0.67028 0,0.17639 -0.03528,0.45861 -0.07055,0.67028 0,0.21166 -0.03528,0.45861 -0.03528,0.56444 -0.03528,0.10583 -0.07055,0.52917 -0.105833,0.91722 -0.03528,0.42334 -0.07056,0.91722 -0.07056,1.09361 -0.03528,0.17639 -0.07055,0.635 -0.07055,0.98778 0,0.17639 -0.03528,0.35278 -0.03528,0.45861 0,0 -0.03528,0.24695 -0.03528,0.24695 0,0 -0.564444,-0.0706 -0.564444,-0.0706 0,0 0,-0.0353 0,-0.0353 -0.03528,-0.24694 -0.105834,-0.81139 -0.105834,-1.02305 0,-0.0706 0,-0.14111 -0.03528,-0.14111 -0.07056,-0.0353 -0.07056,-3.52778 0,-3.66889 0.03528,-0.0353 0.07055,-0.35278 0.07055,-0.70556 0.03528,-0.3175 0.07056,-0.59972 0.07056,-0.635 0.03528,0 0.07056,-0.14111 0.07056,-0.28222 0,-0.14111 0.03528,-0.35278 0.07056,-0.42333 0,-0.0706 0.07055,-0.28223 0.07055,-0.42334 0.105834,-0.45861 0.211667,-0.91722 0.211667,-0.9525 0.03528,-0.0353 0.07056,-0.17639 0.07056,-0.3175 0.03528,-0.14111 0.07055,-0.24694 0.07055,-0.28222 0.03528,-0.0353 0.07056,-0.14111 0.07056,-0.24694 0.03528,-0.14111 0.07055,-0.24695 0.105833,-0.28223 0,0 0.03528,-0.14111 0.07056,-0.24694 0.03528,-0.14111 0.03528,-0.24694 0.07055,-0.24694 0,0 0.03528,-0.10584 0.07056,-0.21167 0.03528,-0.14111 0.07055,-0.24695 0.07055,-0.24695 0,0 0.03528,-0.0705 0.07056,-0.17638 0.03528,-0.10584 0.07055,-0.24695 0.105833,-0.28223 0.03528,-0.0705 0.03528,-0.14111 0.03528,-0.17639 0,-0.0353 0.03528,-0.0705 0.03528,-0.0705 0.03528,-0.0353 0.07055,-0.10583 0.105833,-0.21167 0.03528,-0.17639 0.105833,-0.35278 0.211667,-0.59972 0.07055,-0.14111 0.07055,-0.21167 0,-0.17639 -0.03528,0.0353 -0.07056,0.0353 -0.07056,0.0353 0,0 0,0 0,0.0353 0,0.0353 -0.03528,0.10583 -0.07055,0.14111 -0.07056,0.0705 -0.105834,0.14111 -0.105834,0.17639 -0.03528,0.0353 -0.03528,0.10583 -0.07055,0.10583 0,0 -0.03528,0.0353 -0.07056,0.10583 -0.03528,0.0706 -0.07055,0.14111 -0.07055,0.14111 0,0 -0.105834,0.17639 -0.211667,0.35278 -0.105833,0.21167 -0.176389,0.38806 -0.211667,0.38806 0,0 -0.03528,0.0705 -0.07055,0.14111 0,0.10583 -0.03528,0.14111 -0.07056,0.14111 0,0 -0.03528,0.0706 -0.07055,0.17639 -0.03528,0.0705 -0.07056,0.14111 -0.07056,0.14111 -0.03528,0 -0.03528,0 -0.03528,0.0353 0,0 -0.03528,0.10583 -0.07055,0.24694 -0.07056,0.10584 -0.105834,0.21167 -0.141111,0.28222 0,0.0706 -0.03528,0.10584 -0.03528,0.10584 -0.03528,0 -0.03528,0.0353 -0.07056,0.10583 0,0.0353 -0.03528,0.17639 -0.105833,0.24695 -0.03528,0.10583 -0.07056,0.17638 -0.07056,0.17638 0,0.0353 -0.03528,0.10584 -0.07056,0.17639 -0.03528,0.10584 -0.07056,0.17639 -0.07056,0.21167 0,0.0353 0,0.0706 -0.03528,0.10583 0,0 -0.03528,0.10584 -0.07056,0.21167 -0.03528,0.10583 -0.07056,0.21167 -0.07056,0.24694 -0.03528,0 -0.07055,0.10584 -0.07055,0.21167 -0.03528,0.10583 -0.07056,0.21167 -0.07056,0.21167 -0.03528,0.0353 -0.07055,0.14111 -0.07055,0.28222 -0.03528,0.10583 -0.07056,0.21167 -0.105834,0.24694 0,0.0353 -0.03528,0.14112 -0.07055,0.28223 -0.03528,0.14111 -0.03528,0.28222 -0.07056,0.28222 0,0.0353 -0.07056,0.28222 -0.211666,1.02305 0,0.17639 -0.03528,0.38806 -0.03528,0.45862 0,0.10583 -0.03528,0.17638 -0.03528,0.17638 -0.03528,0 -0.07055,0.3175 -0.07055,0.70556 -0.03528,0.38806 -0.07056,0.70556 -0.07056,0.67028 -0.03528,0 -0.07056,-0.0706 -0.07056,-0.17639 0,-0.10583 -0.03528,-0.17639 -0.03528,-0.17639 -0.03528,0 -0.07056,-0.10583 -0.105834,-0.21167 0,-0.14111 -0.03528,-0.24694 -0.07055,-0.28222 0,-0.0353 -0.03528,-0.10583 -0.07056,-0.21167 -0.03528,-0.10583 -0.03528,-0.21166 -0.07056,-0.24694 0,0 -0.03528,-0.0706 -0.03528,-0.14111 -0.03528,-0.10583 -0.211667,-0.56445 -0.246945,-0.635 -0.03528,0 -0.07055,-0.10583 -0.07055,-0.21167 -0.03528,-0.10583 -0.07056,-0.17639 -0.105833,-0.17639 0,0 -0.03528,-0.0353 -0.03528,-0.10583 -0.03528,-0.0706 -0.03528,-0.10583 -0.07056,-0.10583 0,0 -0.03528,-0.0353 -0.03528,-0.0353 0,-0.10583 -0.388055,-0.81139 -0.423333,-0.81139 -0.07055,0 -0.07055,0.10583 0,0.24694 0.03528,0.10584 0.141111,0.45862 0.141111,0.56445 0,0 0.03528,0.0353 0.03528,0.0353 0,0.0353 0.03528,0.10583 0.03528,0.21166 0.03528,0.0706 0.03528,0.14111 0.07055,0.14111 0,0 0.03528,0.14112 0.07056,0.3175 0.03528,0.14112 0.07055,0.28223 0.07055,0.28223 0.03528,0 0.03528,0.14111 0.07056,0.28222 0.03528,0.14111 0.07056,0.28222 0.07056,0.3175 0.03528,0.0353 0.141111,0.49389 0.211666,0.9525 0.03528,0.17639 0.07056,0.3175 0.105834,0.35278 0,0.0353 0.03528,0.21166 0.07055,0.42333 0.03528,0.17639 0.03528,0.35278 0.07056,0.38806 0.03528,0.0353 0.105833,0.56444 0.211666,1.23472 0.03528,0.21166 0.07056,0.45861 0.07056,0.49389 0.03528,0.0705 0.07055,0.24694 0.07055,0.38805 0,0 0,0.10584 0,0.10584 0,0 -0.599722,-0.0706 -0.599722,-0.0706 0,0 -0.141111,-0.21167 -0.141111,-0.21167 -0.246944,-0.49389 -0.282222,-0.59972 -0.3175,-0.635 0,0 -0.07056,-0.10583 -0.141111,-0.24694 -0.07056,-0.10583 -0.141111,-0.21167 -0.176389,-0.21167 0,-0.0353 0,-0.0353 0,-0.0705 0,-0.0353 -0.03528,-0.0706 -0.105833,-0.10584 -0.03528,-0.0353 -0.07056,-0.0353 -0.07056,0.0353 0,0.0353 0.03528,0.10583 0.03528,0.14111 0.03528,0.0353 0.07056,0.14111 0.105833,0.24695 0.03528,0.0705 0.105834,0.3175 0.176389,0.49389 0.07056,0.17638 0.141111,0.35277 0.141111,0.35277 0,0 0.03528,0.0353 0.03528,0.0706 0,0 0.03528,0.14111 0.03528,0.14111 0,0 -0.599722,-0.0353 -0.599722,-0.0353 0,0 -0.07056,-0.0353 -0.07056,-0.0353 0,0 -0.03528,-0.10583 -0.03528,-0.10583 -0.03528,-0.28222 -0.07055,-0.59972 -0.105833,-0.635 -0.07056,-0.56444 -0.211667,-3.91583 -0.141111,-4.09222 0.03528,-0.0353 0.03528,-0.17639 0.03528,-0.3175 0.03528,-0.14111 0.03528,-0.3175 0.03528,-0.42333 0.03528,-0.14112 0,-0.17639 -0.03528,-0.21167 -0.03528,0 -0.03528,0 -0.07056,0.0353 0,0 -0.03528,0.14111 -0.03528,0.14111 0,0 0.105834,-1.05834 0.105834,-1.05834 0.105833,-1.16416 0.141111,-2.15194 0.03528,-3.21027 -0.141111,-1.41111 -0.176388,-1.72861 -0.282222,-2.2225 -0.141111,-0.59973 -0.141111,-0.59973 0.03528,-0.67028 0.246944,-0.0706 0.458611,0.0353 0.670278,0.3175 0.176389,0.24694 0.458611,0.45861 0.564444,0.38805 0,0 0.03528,-0.14111 0.03528,-0.24694 0,-0.10583 0.03528,-0.21167 0.03528,-0.21167 0,0 0.141111,0.10584 0.3175,0.21167 0.141111,0.14111 0.282222,0.21167 0.3175,0.21167 0,0 0.03528,-0.0353 0.03528,-0.14111 0,-0.0706 0,-0.10584 0.03528,-0.10584 0,0 0.105834,0.0706 0.211667,0.10584 0.141111,0.0705 0.246944,0.10583 0.246944,0.0705 0.07056,-0.0705 -0.388055,-1.16417 -0.564444,-1.34055 -0.07056,-0.0706 -0.352778,-0.28223 -0.670278,-0.49389 -0.564444,-0.38806 -1.199444,-1.02306 -1.905,-1.905 -0.599722,-0.74084 -0.599722,-0.70556 -0.564444,-1.55223 0,0 0,-0.70555 0,-0.70555 0,0 -0.211667,-0.635 -0.211667,-0.635 -0.705555,-1.94028 -0.917222,-2.68111 -0.987778,-3.175 -0.03528,-0.49389 -0.141111,-0.88195 -0.282222,-0.98778 -0.03528,-0.0353 -0.105833,-0.17639 -0.211666,-0.3175 -0.07056,-0.14111 -0.282223,-0.52917 -0.493889,-0.84667 -0.529167,-0.84666 -0.705556,-1.19944 -0.670278,-1.44638 0.07055,-0.28223 0.211667,-0.52917 0.564444,-0.98778 0.3175,-0.42334 0.670278,-0.77611 1.199445,-1.23472 0.388055,-0.3175 0.635,-0.84667 0.776111,-1.76389 0.03528,-0.14111 0.07055,-0.21167 0.246944,-0.24695 0.141111,-0.0705 0.211667,-0.14111 0.246945,-0.28222 0.211666,-0.77611 0.282222,-1.83444 0.141111,-2.15194 -0.141111,-0.35278 -0.352778,-0.42334 -0.881945,-0.38806 -0.282222,0 -0.635,0.0353 -0.811388,0.0706 -0.3175,0.0353 -0.811389,-0.0353 -1.446389,-0.21167 0,0 -0.388056,-0.10583 -0.388056,-0.10583 0,0 -0.246944,0.10583 -0.246944,0.10583 -0.211667,0.10583 -0.282223,0.14111 -0.740834,0.10583 -0.635,-0.0705 -0.846666,0 -1.552222,0.49389 -0.599722,0.38806 -0.987778,0.59972 -1.552222,0.81139 -0.740833,0.3175 -1.234722,0.70556 -1.552222,1.30528 -0.176389,0.3175 -0.423334,0.9525 -0.493889,1.27 -0.03528,0.10583 -0.105833,0.28222 -0.141111,0.45861 -0.141111,0.56444 -0.599722,2.92805 -0.705556,3.77472 -0.03528,0.3175 -0.105833,0.59972 -0.3175,1.27 -0.105833,0.28222 -0.282222,1.02306 -0.3175,1.37583 -0.07055,0.52917 -0.07055,1.12889 0.03528,2.2225 0.105833,0.88195 0.105833,1.09362 0.07056,2.11667 -0.105834,2.01083 -0.176389,4.97417 -0.105834,6.06778 0.07056,1.55222 0.211667,3.81 0.3175,5.18583 0,0.14111 0.03528,0.3175 0.03528,0.49389 0,0 0,0.21167 0,0.21167 0,0 -0.246944,-0.28222 -0.246944,-0.28222 -0.246945,-0.28223 -0.599723,-0.635 -0.740834,-0.70556 -0.07055,-0.0706 -0.105833,-0.0706 -0.141111,-0.0353 0,0.0353 0.03528,0.10584 0.03528,0.14111 0.03528,0.0706 0.105833,0.24695 0.176389,0.38806 0.03528,0.14111 0.105833,0.28222 0.141111,0.35278 0.07056,0.14111 0.3175,0.88194 0.352778,1.05833 0.03528,0.0706 0.07055,0.17639 0.07055,0.17639 0.03528,0.0353 0.07056,0.14111 0.07056,0.24694 0.03528,0.14111 0.07055,0.21167 0.07055,0.21167 0.03528,0 0.07056,0.10583 0.07056,0.24694 0.03528,0.14112 0.07056,0.24695 0.105833,0.28223 0,0 0.03528,0.14111 0.07056,0.24694 0,0 0,0.0353 0,0.0353 0,0 -0.03528,0.9525 -0.03528,0.9525 0,0.38805 0,0.67028 -0.03528,0.74083 -0.07055,0.21167 -0.141111,0.38806 -0.3175,0.52917 0,0 0,0 0,0 0,0 0,-0.0706 0,-0.0706 0,-0.28222 -0.07055,-1.02305 -0.105833,-1.09361 -0.03528,-0.0705 -0.07056,-0.24694 -0.07056,-0.45861 -0.03528,-0.17639 -0.07055,-0.35278 -0.07055,-0.35278 -0.03528,0 -0.07056,-0.14111 -0.07056,-0.28222 -0.03528,-0.17639 -0.07056,-0.3175 -0.07056,-0.35278 -0.03528,0 -0.07056,-0.10583 -0.105834,-0.24694 0,-0.10583 -0.03528,-0.24695 -0.07056,-0.24695 0,-0.0353 -0.03528,-0.10583 -0.03528,-0.17638 -0.03528,-0.0706 -0.07055,-0.17639 -0.07055,-0.24695 -0.03528,-0.0705 -0.105834,-0.24694 -0.176389,-0.38805 -0.03528,-0.14112 -0.105834,-0.35278 -0.141111,-0.42334 -0.07056,-0.10583 -0.07056,-0.17639 -0.07056,-0.21166 0,0 -0.03528,-0.0353 -0.03528,-0.0353 -0.03528,0 -0.07056,-0.0353 -0.07056,-0.10584 -0.03528,-0.0706 -0.07056,-0.21166 -0.105834,-0.28222 -0.07055,-0.10583 -0.105833,-0.21166 -0.105833,-0.21166 0,-0.0353 0,-0.0706 -0.03528,-0.0706 0,0 -0.07055,-0.14111 -0.141111,-0.24694 -0.07055,-0.14112 -0.141111,-0.3175 -0.176389,-0.35278 -0.03528,-0.0706 -0.105833,-0.17639 -0.141111,-0.28222 -0.07056,-0.0706 -0.141111,-0.17639 -0.176389,-0.24695 -0.03528,-0.0705 -0.105833,-0.17639 -0.141111,-0.21167 -0.105833,-0.24694 -0.246944,-0.24694 -0.141111,0 0.03528,0.0706 0.07056,0.17639 0.105833,0.24695 0.03528,0.0705 0.07056,0.17639 0.07056,0.17639 0.03528,0.0353 0.03528,0.14111 0.07055,0.21166 0.03528,0.10584 0.07056,0.17639 0.07056,0.17639 0.03528,0 0.07056,0.10584 0.07056,0.21167 0.03528,0.14111 0.07056,0.24694 0.07056,0.24694 0.03528,0.0353 0.07056,0.17639 0.105833,0.3175 0,0.14112 0.03528,0.24695 0.07056,0.24695 0,0 0.03528,0.14111 0.07056,0.28222 0,0.17639 0.03528,0.35278 0.07055,0.35278 0.03528,0.0705 0.141111,0.635 0.211667,1.12889 0,0.24694 0.07055,0.49389 0.07055,0.59972 0.03528,0.10583 0.07056,0.42333 0.07056,0.74083 0,0.28223 0.03528,0.52917 0.07055,0.56445 0,0 0,0.24694 0,0.52916 0,0.45862 0,0.49389 -0.03528,0.38806 -0.03528,-0.0706 -0.07056,-0.24694 -0.07056,-0.38806 0,-0.14111 0,-0.24694 -0.03528,-0.28222 0,-0.0353 -0.03528,-0.24694 -0.07055,-0.49389 -0.03528,-0.24694 -0.03528,-0.49389 -0.07056,-0.49389 0,0 -0.03528,-0.14111 -0.07055,-0.3175 -0.03528,-0.14111 -0.07056,-0.3175 -0.07056,-0.3175 -0.03528,-0.0353 -0.03528,-0.10583 -0.07055,-0.17638 -0.03528,-0.21167 -0.176389,-0.67028 -0.246945,-0.81139 -0.03528,-0.0706 -0.07056,-0.10584 -0.07056,-0.14111 0,-0.0353 -0.282223,-0.67028 -0.3175,-0.70556 0,0 -0.03528,-0.0706 -0.07056,-0.10583 -0.03528,-0.0706 -0.07056,-0.14111 -0.07056,-0.14111 -0.03528,0 -0.07055,-0.0353 -0.07055,-0.0706 0,-0.0353 -0.03528,-0.10583 -0.07056,-0.14111 -0.03528,-0.0353 -0.105833,-0.10583 -0.141111,-0.17639 -0.141111,-0.14111 -0.3175,-0.35278 -0.352778,-0.35278 -0.07056,0 -0.07056,0.14111 0.03528,0.3175 0.03528,0.0706 0.07056,0.21167 0.07056,0.24695 0.03528,0.0706 0.07055,0.10583 0.07055,0.10583 0,0 0.03528,0.10583 0.07056,0.21167 0.03528,0.10583 0.07055,0.21166 0.07055,0.21166 0.03528,0 0.07056,0.10584 0.07056,0.24695 0.03528,0.10583 0.07056,0.24694 0.105833,0.24694 0,0 0,0.0353 0,0.10584 0,0.0353 0.03528,0.14111 0.105834,0.28222 0.03528,0.10583 0.07055,0.28222 0.07055,0.35278 0.03528,0.10583 0.03528,0.21166 0.07056,0.21166 0,0.0353 0.03528,0.17639 0.07055,0.35278 0.03528,0.17639 0.07056,0.35278 0.07056,0.38806 0.03528,0.14111 0.07055,0.52916 0.03528,0.52916 0,0 -0.07056,-0.0705 -0.105834,-0.10583 -0.03528,-0.0706 -0.105833,-0.14111 -0.141111,-0.21167 -0.07055,-0.0705 -0.176389,-0.17639 -0.282222,-0.28222 -0.07056,-0.10583 -0.176389,-0.17639 -0.211667,-0.17639 0,0 -0.03528,0 -0.03528,-0.0353 0,0 -0.03528,-0.10583 -0.07056,-0.21166 -0.246944,-0.49389 -0.423333,-0.88195 -0.458611,-0.88195 0,0 -0.03528,-0.0705 -0.07056,-0.14111 -0.03528,-0.0705 -0.07055,-0.14111 -0.07055,-0.17639 0,0 -0.07056,-0.0705 -0.105834,-0.14111 0,0 -0.105833,-0.17639 -0.105833,-0.17639 0,0 0.03528,-1.41111 0.03528,-1.41111 0,-1.34055 -0.03528,-2.50472 -0.105833,-2.61055 -0.03528,0 -0.07056,-0.17639 -0.105834,-0.38806 0,-0.21167 -0.03528,-0.38806 -0.07055,-0.38806 0,0 -0.03528,-0.0705 -0.03528,-0.17638 -0.03528,-0.10584 -0.07056,-0.24695 -0.07056,-0.28223 -0.03528,-0.0705 -0.07055,-0.17639 -0.07055,-0.21166 -0.07056,-0.14111 -0.176389,-0.42334 -0.176389,-0.42334 0,0 -0.03528,0.9525 -0.03528,2.08139 0,1.62278 0,2.08139 -0.03528,2.08139 -0.03528,0 -0.03528,0.10583 -0.03528,0.3175 0,0.3175 -0.03528,0.35278 -0.141111,0.21167 -0.03528,-0.10584 -0.599723,-0.67028 -0.881945,-0.88195 -0.141111,-0.14111 -0.211667,-0.17639 -0.211667,-0.14111 0,0.0706 0.07056,0.3175 0.105834,0.3175 0.03528,0 0.03528,0.0353 0.03528,0.10584 0.03528,0.0705 0.07055,0.21166 0.105833,0.28222 0.03528,0.10583 0.07055,0.17639 0.07055,0.17639 0,0.0353 0.03528,0.10583 0.07056,0.14111 0.07056,0.14111 0.458611,1.37583 0.564444,1.69333 0.03528,0.21167 0.07056,0.42333 0,0.45861 0,0 -0.03528,0.14111 -0.03528,0.28222 -0.03528,0.17639 -0.07056,0.42334 -0.07056,0.56445 -0.03528,0.10583 -0.07055,0.28222 -0.07055,0.35278 -0.03528,0.0353 -0.03528,0 -0.03528,-0.14111 0,-0.14112 -0.03528,-0.24695 -0.07056,-0.28223 -0.07055,-0.0705 -0.07055,-0.0705 -0.07055,0.0353 0,0.0353 -0.03528,0.10583 -0.03528,0.10583 -0.03528,0 -0.07056,0.14112 -0.105833,0.28223 -0.141112,0.59972 -0.176389,0.81139 -0.211667,0.84666 0,0 -0.03528,0.14111 -0.07056,0.28223 -0.03528,0.14111 -0.07056,0.24694 -0.07056,0.24694 0,0 0,0.0353 -0.03528,0.0706 0,0 0,0.0705 0,0.0705 0,0 -0.141111,-0.0705 -0.141111,-0.0705 0,0 0,0 0,0 0,0 -0.03528,-0.24695 -0.03528,-0.24695 0,-0.24694 -0.03528,-0.45861 -0.03528,-0.45861 -0.03528,-0.0353 -0.07055,-0.3175 -0.07055,-0.635 -0.03528,-0.3175 -0.07056,-0.59972 -0.105834,-0.59972 0,-0.0353 -0.03528,-0.24695 -0.07055,-0.49389 0,-0.24695 -0.03528,-0.45861 -0.07056,-0.49389 0,0 -0.03528,-0.21167 -0.07055,-0.38806 -0.03528,-0.21166 -0.07056,-0.38805 -0.07056,-0.38805 0,0 -0.03528,-0.14111 -0.07055,-0.35278 -0.03528,-0.17639 -0.07056,-0.3175 -0.07056,-0.35278 -0.03528,0 -0.07055,-0.14111 -0.07055,-0.28222 -0.03528,-0.14111 -0.07056,-0.28222 -0.07056,-0.3175 -0.03528,-0.0705 -0.07056,-0.21167 -0.211667,-0.70555 0,-0.10584 -0.03528,-0.17639 -0.07055,-0.21167 0,-0.0353 -0.03528,-0.14111 -0.07056,-0.24695 -0.03528,-0.10583 -0.07055,-0.24694 -0.105833,-0.28222 0,-0.0705 -0.03528,-0.14111 -0.03528,-0.17639 0,0 -0.03528,-0.10583 -0.07055,-0.14111 -0.03528,-0.10583 -0.07056,-0.24694 0,-0.24694 0,0 0.03528,-0.0353 0.07055,-0.10584 0.03528,-0.0705 0.141111,-0.17638 0.246945,-0.3175 0.564444,-0.56444 0.599722,-0.635 0.599722,-0.70555 -0.03528,-0.0353 -0.141111,0.0705 -0.529167,0.45861 -0.282222,0.28222 -0.529167,0.52917 -0.529167,0.49389 -0.03528,0 -0.07056,-0.0706 -0.07056,-0.14111 0,-0.0706 -0.03528,-0.14111 -0.07056,-0.21167 -0.03528,-0.0353 -0.07055,-0.14111 -0.105833,-0.21167 -0.03528,-0.10583 -0.03528,-0.17638 -0.07056,-0.17638 0,0 -0.03528,-0.0353 -0.07055,-0.14112 -0.03528,-0.0705 -0.07056,-0.14111 -0.07056,-0.14111 -0.03528,0 -0.03528,0 -0.03528,-0.0353 0,-0.10584 -0.211667,-0.49389 -0.282223,-0.52917 -0.07056,0 -0.07056,0.0353 -0.03528,0.17639 0,0.0705 0.03528,0.17639 0.03528,0.17639 0.03528,0.0353 0.07056,0.14111 0.105834,0.28222 0,0.10583 0.03528,0.21167 0.07055,0.24694 0,0.0353 0.03528,0.14111 0.07056,0.28223 0.03528,0.17638 0.07055,0.28222 0.07055,0.28222 0,0.0353 0.03528,0.14111 0.07056,0.28222 0,0 0.07055,0.28222 0.07055,0.28222 0,0 -0.141111,0.14111 -0.141111,0.14111 -0.246944,0.28223 -0.282222,0.35278 -0.493889,0.59973 -0.105833,0.14111 -0.211666,0.28222 -0.246944,0.3175 -0.03528,0.0353 -0.105833,0.10583 -0.141111,0.14111 -0.03528,0.0705 -0.458611,0.59972 -0.564444,0.77611 0,0 -0.07056,0.10583 -0.141112,0.21166 -0.07055,0.10584 -0.141111,0.17639 -0.176388,0.21167 0,0 -0.141112,0.24695 -0.352778,0.49389 -0.176389,0.28222 -0.352778,0.52917 -0.352778,0.56444 -0.03528,0.0353 -0.07056,0.0706 -0.07056,0.0706 0,0.0353 0,0.0706 -0.03528,0.10583 -0.03528,0 -0.07056,0.10584 -0.105834,0.14111 -0.03528,0.0706 -0.07055,0.14112 -0.105833,0.17639 -0.03528,0.0353 -0.07056,0.0706 -0.03528,0.10584 0,0 0,0 -0.03528,0 0,0 -0.03528,-0.0706 -0.07055,-0.21167 -0.03528,-0.10583 -0.07056,-0.17639 -0.07056,-0.21167 -0.03528,0 -0.07055,-0.10583 -0.105833,-0.21166 -0.03528,-0.21167 -0.03528,-0.21167 0.03528,-0.38806 0.105833,-0.17639 0.141111,-0.56444 0.07055,-0.56444 -0.03528,0 -0.03528,-0.0706 -0.07055,-0.17639 0,-0.10584 -0.03528,-0.21167 -0.07056,-0.28222 -0.03528,-0.0353 -0.07055,-0.10584 -0.105833,-0.14112 -0.03528,-0.10583 -0.03528,-0.10583 0.105833,-0.0705 0.07056,0 0.176389,0.0353 0.246945,0.0353 0.03528,0 0.141111,0 0.176389,0.0353 0.07056,0.0353 0.105833,0.0353 0.246944,0 0.105833,0 0.246944,-0.0353 0.3175,-0.0705 0.141111,0 0.352778,-0.28222 0.388056,-0.42333 0,-0.0706 0.03528,-0.10584 0.07056,-0.14112 0.03528,0 0.03528,-0.45861 0,-0.56444 -0.03528,-0.0353 -0.07056,-0.10583 -0.105833,-0.17639 -0.03528,-0.14111 -0.246945,-0.3175 -0.458611,-0.3175 -0.105834,-0.0353 -0.176389,-0.0353 -0.176389,-0.0705 -0.03528,-0.0353 -0.564445,-0.0353 -0.599722,0 -0.07056,0.0705 -0.458612,0.10583 -0.458612,0.0353 0,0 0,-0.0353 0.03528,-0.0353 0.03528,0 0.246945,-0.42334 0.246945,-0.52917 0,-0.0353 0.03528,-0.0706 0.03528,-0.0706 0.07056,0 0.141112,-0.52916 0.105834,-0.70555 -0.03528,-0.21167 -0.176389,-0.38806 -0.458611,-0.52917 -0.105834,-0.10583 -0.176389,-0.10583 -0.493889,-0.10583 -0.246945,0 -0.352778,0 -0.352778,0.0353 0,0.0353 -0.03528,0.0705 -0.07056,0.0705 -0.07055,0 -0.246944,0.17639 -0.246944,0.3175 -0.03528,0.0353 -0.03528,0.0706 -0.07056,0.0706 -0.03528,0 -0.105833,0.45861 -0.105833,0.67027 0,0.17639 0,0.17639 -0.07055,0.10584 -0.105834,-0.14111 -0.493889,-0.42334 -0.564445,-0.42334 0,0 -0.03528,-0.0353 -0.03528,-0.0353 0,-0.0353 -0.246944,-0.14111 -0.423333,-0.14111 -0.423333,0 -0.881944,0.49388 -0.881944,0.98777 0,0.14111 0.03528,0.24695 0.07055,0.28223 0.105834,0.17638 0.352778,0.42333 0.423334,0.42333 0,0 0.03528,0 0.03528,0.0353 0,0 0.07056,0.0705 0.176389,0.10583 0.07056,0.0353 0.141111,0.10583 0.141111,0.10583 0,0.0353 -0.03528,0.0706 -0.141111,0.10584 -0.211666,0.10583 -0.529166,0.35277 -0.635,0.49389 -0.07055,0.10583 -0.07055,0.17638 -0.07055,0.42333 0,0.24694 0,0.3175 0.105833,0.45861 0.105833,0.17639 0.3175,0.38806 0.423333,0.42333 0.211667,0.0706 0.776111,0 0.776111,-0.0705 0,0 0.03528,-0.0353 0.105834,-0.0706 0.07056,-0.0353 0.211666,-0.14111 0.352777,-0.28222 0,0 0.246945,-0.24694 0.246945,-0.24694 0,0 0,0.35277 0,0.35277 0.03528,0.21167 0.03528,0.38806 0.07056,0.42334 0.105834,0.14111 0.141112,0.35277 0.07056,0.67027 0,0.17639 -0.03528,0.35278 -0.07056,0.38806 -0.03528,0.10583 -0.105833,0.77611 -0.105833,1.02306 0,0.10583 -0.03528,0.21166 -0.03528,0.21166 -0.03528,0 -0.07055,2.11667 0,2.15195 0.03528,0.0353 0.07056,0.38805 0.03528,0.59972 0,0 0,0.0353 0,0.0353 0,0 -0.07055,0 -0.07055,0 0,0 -0.03528,-0.17639 -0.03528,-0.17639 0,-0.14111 -0.03528,-0.35278 -0.07056,-0.49389 0,-0.17639 -0.03528,-0.38806 -0.07055,-0.52917 0,-0.17639 -0.03528,-0.28222 -0.03528,-0.3175 -0.03528,-0.0353 -0.07056,-0.17639 -0.105833,-0.35278 0,-0.14111 -0.03528,-0.28222 -0.07056,-0.28222 0,0 -0.03528,-0.0705 -0.03528,-0.14111 -0.03528,-0.17639 -0.176389,-0.70555 -0.282222,-0.84667 0,-0.0705 -0.03528,-0.17638 -0.07056,-0.21166 0,-0.0706 -0.03528,-0.10584 -0.03528,-0.10584 -0.03528,0 -0.07056,-0.0706 -0.07056,-0.10583 0,-0.0705 -0.03528,-0.14111 -0.07055,-0.17639 0,-0.0353 -0.07056,-0.14111 -0.141112,-0.24694 -0.07055,-0.10584 -0.141111,-0.24695 -0.176388,-0.28222 -0.03528,-0.0353 -0.07056,-0.10584 -0.105834,-0.17639 -0.03528,-0.0353 -0.105833,-0.10584 -0.141111,-0.17639 -0.03528,-0.0353 -0.07055,-0.0706 -0.07055,-0.0706 0,-0.0705 -0.211667,-0.28222 -0.282223,-0.28222 -0.03528,0 -0.03528,0.14111 0.03528,0.3175 0.03528,0.0706 0.07056,0.14111 0.07056,0.17639 0,0.0353 0.03528,0.10583 0.07055,0.14111 0.03528,0.0353 0.07056,0.14111 0.07056,0.21167 0,0.0705 0.03528,0.14111 0.07055,0.17639 0,0 0,0.0353 0,0.0705 0,0.0706 0,0.0706 0,0.0706 0.03528,-0.0353 0.07056,0.0353 0.07056,0.10583 0.03528,0.10583 0.03528,0.17639 0.07056,0.17639 0,0 0.03528,0.10583 0.07055,0.24694 0.03528,0.14111 0.07056,0.28223 0.07056,0.28223 0.03528,0 0.07056,0.14111 0.07056,0.28222 0.03528,0.14111 0.07056,0.28222 0.07056,0.3175 0.03528,0 0.07055,0.17639 0.07055,0.35278 0.03528,0.21166 0.07056,0.35277 0.105834,0.38805 0,0 0.03528,0.24695 0.03528,0.49389 0.03528,0.24694 0.07056,0.52917 0.105834,0.59972 0,0.0706 0.03528,0.35278 0.03528,0.59972 0,0 0,0 0,0 0,0 -0.246944,0 -0.246944,0 0,0 -0.03528,0 -0.03528,0 0,-0.0353 0,-0.0353 -0.03528,-0.0705 -0.03528,0 -0.07055,-0.0353 -0.07055,-0.0353 0,-0.0353 -0.03528,-0.10583 -0.07056,-0.17639 -0.07055,-0.0705 -0.141111,-0.14111 -0.176388,-0.21166 -0.03528,-0.0353 -0.105834,-0.10584 -0.141112,-0.14112 -0.105833,-0.14111 -0.141111,-0.3175 -0.211666,-0.59972 0,-0.17639 -0.03528,-0.3175 -0.07056,-0.35278 0,-0.0353 -0.03528,-0.17638 -0.07055,-0.3175 -0.03528,-0.17638 -0.03528,-0.3175 -0.07056,-0.35277 0,-0.0353 -0.03528,-0.17639 -0.07056,-0.3175 -0.141112,-0.59973 -0.352778,-1.34056 -0.388056,-1.37584 0,-0.0353 -0.03528,-0.14111 -0.03528,-0.24694 -0.03528,-0.0706 -0.03528,-0.17639 -0.07055,-0.17639 0,0 -0.03528,-0.10583 -0.07056,-0.21167 -0.03528,-0.14111 -0.07055,-0.24694 -0.07055,-0.24694 0,0 -0.03528,-0.10583 -0.07056,-0.21167 -0.03528,-0.14111 -0.07056,-0.24694 -0.07056,-0.24694 -0.03528,-0.0353 -0.07055,-0.14111 -0.07055,-0.24695 -0.03528,-0.10583 -0.07056,-0.21166 -0.07056,-0.21166 -0.03528,-0.0353 -0.07055,-0.14111 -0.105833,-0.21167 0,-0.10583 -0.07056,-0.24694 -0.07056,-0.28222 -0.03528,-0.0706 -0.07055,-0.17639 -0.07055,-0.21167 -0.03528,-0.0705 -0.03528,-0.14111 -0.07056,-0.14111 0,0 -0.03528,-0.0353 -0.03528,-0.10583 -0.03528,-0.0706 -0.07056,-0.17639 -0.07056,-0.24695 -0.03528,-0.0705 -0.105833,-0.21166 -0.141111,-0.3175 -0.07056,-0.14111 -0.141111,-0.3175 -0.176389,-0.45861 -0.07056,-0.10583 -0.105833,-0.21167 -0.141111,-0.24694 -0.03528,-0.10584 -0.105833,-0.3175 -0.246945,-0.59973 -0.03528,-0.10583 -0.105833,-0.28222 -0.176388,-0.42333 -0.07056,-0.14111 -0.105834,-0.24694 -0.105834,-0.28222 0,-0.0353 -0.141111,-0.0706 -0.141111,-0.0706 -0.03528,0.0353 0.03528,0.45861 0.07056,0.52917 0.03528,0.0706 0.07055,0.21167 0.105833,0.38806 0,0.17638 0.03528,0.35277 0.07056,0.35277 0,0.0353 0.03528,0.21167 0.07055,0.42334 0.105833,0.67027 0.176389,0.91722 0.211667,1.09361 0.03528,0.0705 0.03528,0.24694 0.07056,0.38805 0,0.17639 0.03528,0.28223 0.03528,0.28223 0.03528,0 0.07056,0.21166 0.07056,0.45861 0.03528,0.21166 0.07055,0.42333 0.105833,0.45861 0,0.0353 0.03528,0.24694 0.07056,0.49389 0,0.28222 0.03528,0.49389 0.07055,0.52916 0,0 0.03528,0.24695 0.07056,0.56445 0.03528,0.28222 0.07055,0.56444 0.07055,0.56444 0,0.0353 0.03528,0.3175 0.07056,0.635 0.03528,0.3175 0.07055,0.59972 0.07055,0.635 0.03528,0 0.141111,1.37584 0.105834,1.37584 0,0.0353 -0.03528,0 -0.03528,-0.0353 0,-0.0353 0,-0.10584 -0.03528,-0.17639 -0.03528,-0.0706 -0.141111,-0.35278 -0.246944,-0.59972 -0.105834,-0.28223 -0.246945,-0.59973 -0.3175,-0.74084 -0.07056,-0.17639 -0.141111,-0.28222 -0.141111,-0.3175 0,-0.0353 0,-0.0353 -0.03528,-0.0353 0,-0.0353 -0.07056,-0.14112 -0.141111,-0.28223 -0.07056,-0.17639 -0.141111,-0.28222 -0.176389,-0.28222 0,0 0,-0.0353 0,-0.0353 0,-0.0353 -0.03528,-0.10583 -0.105834,-0.17639 -0.03528,-0.0705 -0.141111,-0.24694 -0.211666,-0.35277 -0.141111,-0.21167 -0.493889,-0.70556 -0.635,-0.88195 -0.03528,-0.0353 -0.282222,-0.28222 -0.529167,-0.56444 -0.493889,-0.49389 -0.635,-0.59972 -0.599722,-0.38806 0.03528,0.0706 0.03528,0.10584 0.07055,0.14111 0.03528,0 0.03528,0.0353 0.03528,0.0353 0,0.0353 0.07056,0.3175 0.105834,0.3175 0,0 0.03528,0.10583 0.07055,0.17639 0.03528,0.10583 0.07056,0.21167 0.07056,0.21167 0.03528,0 0.03528,0.0353 0.07055,0.14111 0,0.0705 0.03528,0.17639 0.07056,0.24694 0.03528,0.0706 0.07055,0.17639 0.105833,0.28222 0,0.0706 0.03528,0.17639 0.07056,0.17639 0,0.0353 0.03528,0.14111 0.07056,0.24695 0.03528,0.10583 0.03528,0.21166 0.07056,0.21166 0,0.0353 0.03528,0.14112 0.07055,0.24695 0.03528,0.10583 0.07056,0.21167 0.07056,0.24694 0.03528,0 0.03528,0.10584 0.07055,0.17639 0,0.0706 0.03528,0.21167 0.07056,0.28222 0.03528,0.0353 0.07056,0.17639 0.07056,0.24695 0.03528,0.0705 0.07055,0.24694 0.105833,0.35278 0.03528,0.10583 0.07056,0.3175 0.07056,0.45861 0,0.14111 0,0.24694 0.03528,0.24694 0,0 0.03528,0.17639 0.03528,0.49389 0,0 -0.03528,0.28222 -0.03528,0.28222 0,0 -0.458611,0.0353 -0.458611,0.0353 0,0 -0.176389,-0.52917 -0.176389,-0.52917 -0.03528,-0.0705 -0.07056,-0.14111 -0.105833,-0.17638 0,0 0,-0.0353 0,-0.0706 0,-0.0353 -0.03528,-0.10583 -0.07056,-0.21167 -0.176389,-0.3175 -0.282222,-0.59972 -0.282222,-0.635 0,-0.0353 0,-0.0353 -0.03528,-0.0353 -0.03528,0 -0.03528,-0.0353 -0.03528,-0.0353 0,-0.0353 -0.03528,-0.14111 -0.105834,-0.24695 -0.03528,-0.10583 -0.07055,-0.21166 -0.07055,-0.24694 0,0 -0.03528,-0.0706 -0.07056,-0.0706 0,-0.0353 -0.07056,-0.10583 -0.07056,-0.17639 -0.07056,-0.14111 -0.141111,-0.14111 -0.141111,0.0353 0,0.0706 0.03528,0.14111 0.07055,0.14111 0,0.0353 0,0.10584 0,0.14111 0,0.0353 0.03528,0.21167 0.07056,0.35278 0.105833,0.42334 0.211666,0.9525 0.246944,1.23472 0.03528,0.17639 0.07056,0.3175 0.07056,0.3175 0,0 0.03528,0.0353 0.03528,0.10584 0,0 0,0.14111 0,0.14111 0,0 -0.141111,0 -0.141111,0 0,0 0,-0.0353 0,-0.0353 -0.03528,0 -0.03528,-0.17639 -0.07055,-0.35278 -0.03528,-0.17639 -0.07056,-0.35277 -0.07056,-0.35277 -0.03528,0 -0.07056,-0.14112 -0.07056,-0.28223 -0.03528,-0.14111 -0.07056,-0.28222 -0.105834,-0.28222 0,0 -0.03528,-0.0705 -0.03528,-0.17639 -0.03528,-0.14111 -0.211667,-0.70555 -0.246945,-0.77611 0,0 -0.03528,-0.0705 -0.07055,-0.14111 0,-0.0706 -0.03528,-0.14111 -0.07056,-0.21167 -0.211667,-0.45861 -0.211667,-0.56444 -0.176389,-0.77611 0,-0.10583 0.03528,-0.21166 0.03528,-0.24694 0.03528,-0.0353 0.07055,-0.42334 0.176389,-1.48167 0.03528,-0.38805 0.03528,-2.82222 0,-3.21028 -0.03528,-0.14111 -0.07056,-0.49389 -0.07056,-0.74083 -0.03528,-0.24694 -0.07055,-0.59972 -0.105833,-0.77611 -0.03528,-0.14111 -0.07056,-0.38806 -0.07056,-0.52917 0,-0.14111 -0.03528,-0.24694 -0.07055,-0.28222 0,-0.0353 0,-0.0706 0,-0.10583 -0.03528,-0.14111 -0.105834,-0.67028 -0.141111,-0.70556 0,0 -0.03528,-0.14111 -0.07056,-0.3175 -0.03528,-0.17639 -0.07055,-0.35278 -0.07055,-0.38805 -0.03528,-0.0353 -0.07056,-0.17639 -0.07056,-0.3175 -0.03528,-0.14112 -0.07056,-0.28223 -0.07056,-0.28223 -0.03528,0 -0.03528,-0.10583 -0.07055,-0.21166 0,-0.10584 -0.03528,-0.17639 -0.07056,-0.17639 -0.03528,0.0353 -0.07055,0.3175 -0.03528,0.42333 0.03528,0.0353 0.07055,0.35278 0.105833,0.67028 0.03528,0.88194 0.03528,0.84667 0.07055,0.91722 0.07056,0.0706 0.07056,3.35139 0.03528,4.02167 -0.07055,1.09361 -0.246944,2.50472 -0.3175,2.46944 0,0 -0.07055,-0.14111 -0.141111,-0.24694 -0.07055,-0.14111 -0.176389,-0.28222 -0.246944,-0.35278 -0.07056,-0.10583 -0.07056,-0.10583 -0.105834,-0.0353 0,0.0353 0,0.0706 0,0.0706 0.03528,0.0353 0.07056,0.10583 0.105834,0.17639 0,0.0705 0.07055,0.17639 0.105833,0.24694 0,0.0706 0.03528,0.10583 0.03528,0.14111 0,0.0353 0.03528,0.10584 0.07056,0.17639 0.105834,0.21167 0.105834,0.38806 0.07056,0.70556 -0.03528,0.17639 -0.03528,0.3175 -0.07056,0.35277 0,0 -0.03528,0.17639 -0.07056,0.3175 -0.03528,0.17639 -0.07056,0.3175 -0.07056,0.35278 -0.03528,0 -0.07055,0.14111 -0.07055,0.28222 -0.03528,0.17639 -0.07056,0.28223 -0.07056,0.28223 -0.03528,0 -0.07055,0.14111 -0.07055,0.28222 -0.03528,0.14111 -0.07056,0.28222 -0.07056,0.28222 -0.03528,0 -0.07056,0.10583 -0.105833,0.21167 0,0.10583 -0.03528,0.21166 -0.07056,0.24694 0,0.0353 -0.03528,0.10584 -0.03528,0.17639 -0.03528,0.0706 -0.03528,0.14111 -0.07055,0.14111 0,0.0353 -0.176389,-0.0353 -0.176389,-0.10583 0,-0.10583 -0.599722,-1.27 -0.917222,-1.76389 -0.03528,-0.0353 -0.07056,-0.14111 -0.105834,-0.21167 -0.03528,-0.0353 -0.07055,-0.10583 -0.105833,-0.10583 0,-0.0353 -0.07056,-0.10583 -0.141111,-0.21167 -0.141111,-0.21166 -0.176389,-0.24694 -0.282222,-0.35277 -0.03528,-0.0706 -0.03528,-0.17639 -0.07056,-0.98778 0,-0.52917 0,-1.05834 0,-1.23472 -0.07056,-0.42334 -0.176389,-1.12889 -0.211667,-1.23473 0,-0.0353 -0.03528,-0.17639 -0.07055,-0.3175 -0.03528,-0.17639 -0.07056,-0.28222 -0.07056,-0.28222 0,0 -0.03528,-0.0706 -0.07055,-0.14111 0,-0.0706 -0.03528,-0.21167 -0.07056,-0.28222 -0.03528,-0.10584 -0.07055,-0.17639 -0.07055,-0.21167 0,-0.0353 -0.03528,-0.0353 -0.07056,-0.0353 -0.03528,0.0353 -0.03528,0.10584 -0.03528,0.35278 0.03528,0.67028 0.03528,3.03389 0,3.28083 0,0 -0.03528,0.24695 -0.03528,0.24695 0,0 -0.176389,-0.17639 -0.176389,-0.17639 -0.176389,-0.17639 -0.3175,-0.24694 -0.282222,-0.0706 0.03528,0.0353 0.07055,0.0706 0.07055,0.10584 0,0.0353 0.03528,0.10583 0.07056,0.17639 0.03528,0.10583 0.07055,0.17639 0.07055,0.21166 0.03528,0 0.07056,0.0706 0.07056,0.17639 0.03528,0.0706 0.07055,0.17639 0.105833,0.17639 0.03528,0.0706 0.03528,0.74083 -0.03528,0.77611 0,0.0353 -0.03528,0.10584 -0.03528,0.17639 0,0.28222 -0.03528,0.45861 -0.07056,0.42333 -0.03528,0 -0.07056,-0.0353 -0.07056,-0.0705 0,-0.10583 -1.27,-1.48167 -1.375833,-1.48167 0,0 -0.03528,0.0353 -0.03528,0.0353 0,0 0,0.0353 0,0.0353 0,0 0,-6.24417 0,-6.24417 0,0 0,-0.10583 0,-0.10583 0,-0.0353 0.03528,-0.17639 0.03528,-0.28222 0,-0.0706 0,-0.14112 -0.03528,-0.17639 0,0 0,-0.0706 0,-0.0706 0,0 0,-125.236107 0,-125.236107 z M 47.234194,160.92634 c 0.03528,0.17639 0.07056,0.35278 0.07056,0.35278 0,0 0.03528,0.17638 0.07055,0.35277 0,0.10584 0.03528,0.21167 0.03528,0.28223 0,0 0.03528,0.10583 0.03528,0.10583 0,0 -0.388056,0 -0.388056,0 0,0 0,-0.0353 0,-0.0353 -0.03528,-0.0353 -0.07055,-0.21167 -0.105833,-0.3175 0,-0.10583 -0.03528,-0.21167 -0.07056,-0.24694 0,-0.0353 -0.03528,-0.17639 -0.07055,-0.3175 -0.03528,-0.14111 -0.07056,-0.35278 -0.105833,-0.42334 -0.03528,-0.17639 0,-0.45861 0.03528,-0.45861 0.03528,0 0.03528,0 0.03528,-0.0353 0,-0.0353 0.03528,-0.10583 0.105833,-0.21166 0,0 0.07056,-0.17639 0.07056,-0.17639 0,0 0.07056,0.17639 0.07056,0.17639 0.03528,0.10583 0.07055,0.24694 0.07055,0.35278 0.03528,0.10583 0.03528,0.24694 0.07056,0.24694 0,0.0353 0.03528,0.17639 0.07055,0.35278 z m 34.748611,0.10583 c -0.03528,0.10583 -0.07056,0.3175 -0.07056,0.3175 -0.03528,0 -0.07056,0.14111 -0.07056,0.35278 -0.03528,0.17639 -0.07056,0.35278 -0.105833,0.35278 0,0 -0.03528,0.0353 -0.03528,0.0705 0,0.14111 -0.03528,0.3175 -0.07055,0.3175 0,0 -0.03528,-0.14111 -0.07056,-0.3175 -0.03528,-0.17639 -0.07055,-0.35278 -0.07055,-0.35278 -0.03528,-0.0353 -0.03528,-0.0353 0,-0.0705 0.03528,0 0.105833,-0.14111 0.211666,-0.35278 0.03528,-0.0705 0.07056,-0.14111 0.07056,-0.14111 0.03528,-0.0353 0.07056,-0.10583 0.105833,-0.17639 0.03528,-0.0353 0.07056,-0.10583 0.07056,-0.10583 0.03528,0.0353 0.03528,0.0353 0.03528,0.10583 z m 0.529166,2.50472 c 0,0 -0.141111,-0.0353 -0.141111,-0.0353 0,0 0,0 0,0 0.03528,-0.0706 0.03528,-0.14112 0.03528,-0.21167 0,0 0.03528,-0.24695 0.03528,-0.24695 0,0 0,0.21167 0,0.21167 0,0.10583 0.03528,0.21167 0.03528,0.21167 0,0 0.03528,0.0705 0.03528,0.0705 z m -0.423333,-3.06916 c 0,0 0,0 -0.03528,0 0,0 0,0.0353 -0.03528,0.0353 -0.03528,0.0353 -0.141111,0.10584 -0.423333,0.3175 -0.211667,0.21167 -0.246944,0.21167 -0.282222,0.10584 0,-0.0353 -0.03528,-0.24695 -0.03528,-0.49389 -0.03528,-0.24695 -0.07056,-0.49389 -0.07056,-0.52917 -0.07055,-0.14111 -0.105833,-1.76389 -0.07055,-2.54 0.03528,-0.67028 0.03528,-0.81139 0.07055,-0.70555 0.03528,0.0706 0.141112,0.52916 0.176389,0.74083 0.03528,0.14111 0.105834,0.35278 0.105834,0.45861 0.03528,0.14111 0.07055,0.24695 0.07055,0.28222 0,0.0353 0.03528,0.0706 0.03528,0.0706 0,0 0.03528,0.0353 0.03528,0.0705 0,0.14112 0.105833,0.635 0.141111,0.635 0,0 0.03528,0.17639 0.07056,0.35278 0,0.21167 0.03528,0.35278 0.07056,0.35278 0,0 0.03528,0.17639 0.07056,0.38806 0,0.21166 0.07055,0.38805 0.07055,0.42333 0,0.0353 0.03528,0.0353 0.03528,0.0353 z m -13.193889,0.10583 c 0,-0.0353 0.03528,-0.10583 0.03528,-0.14111 0,0 0,-0.0706 0,-0.0706 0,0 0.176389,-0.24694 0.176389,-0.24694 0.07055,-0.10583 0.176389,-0.24695 0.282222,-0.38806 0,0 0,-0.0353 0,-0.0353 0,0 0,0.28222 0,0.28222 -0.03528,0.42333 -0.03528,0.91722 -0.03528,1.19944 0,0 0.03528,0.21167 0.03528,0.21167 0,0 -0.211667,-0.24695 -0.211667,-0.24695 -0.105833,-0.10583 -0.176388,-0.21166 -0.246944,-0.3175 0,0 0,0 0,0 0,0 -0.03528,-0.10583 -0.03528,-0.10583 0,-0.0353 0,-0.10583 0,-0.14111 z m 0.564445,1.79917 c 0,0 -0.211667,0 -0.211667,0 0,0 0,-0.0353 0,-0.0353 0,0 -0.03528,-0.0353 -0.03528,-0.0353 0,0 0.246945,-0.0705 0.246945,-0.0705 0,0 0,0 0,0 0,0 0,0.14111 0,0.14111 z M 55.87725,161.80828 c 0,0 0,0.0353 0,0.0353 0,0 -0.07056,0 -0.07056,0 0,0 -0.03528,-0.14111 -0.03528,-0.14111 -0.03528,-0.10583 -0.03528,-0.21167 -0.07055,-0.24695 0,-0.0353 0,-0.0705 -0.03528,-0.10583 -0.03528,-0.17639 -0.105833,-0.42333 -0.105833,-0.45861 -0.03528,0 -0.03528,-0.10583 -0.07056,-0.24694 -0.03528,-0.10584 -0.07056,-0.24695 -0.07056,-0.28223 -0.03528,-0.0353 -0.105833,-0.21166 -0.176388,-0.42333 -0.07056,-0.21167 -0.141112,-0.38806 -0.141112,-0.38806 0,0 -0.03528,-0.0353 -0.03528,-0.0705 0,-0.0706 0.07055,0 0.105833,0.0705 0.03528,0.0706 0.105833,0.17639 0.176389,0.28223 0.07055,0.10583 0.211667,0.35277 0.3175,0.56444 0,0 0.176389,0.38806 0.176389,0.38806 0,0 0.03528,0.635 0.03528,0.635 0,0.17639 0,0.28222 0,0.38805 z m -1.799167,-0.14111 c 0,0 -0.176389,-0.0353 -0.176389,-0.0353 0,0 -0.423333,-0.10583 -0.423333,-0.10583 0,0 0.105833,-0.67028 0.105833,-0.67028 0.03528,-0.21166 0.07056,-0.38805 0.07056,-0.38805 0.03528,-0.0353 0.03528,-0.0706 0.03528,-0.14111 0,-0.10584 0,-0.10584 0.03528,0.0353 0.03528,0.0706 0.07056,0.17639 0.07056,0.21167 0.03528,0.0353 0.07055,0.17639 0.105833,0.3175 0,0.14111 0.03528,0.24694 0.07056,0.28222 0,0.0353 0.03528,0.14111 0.07055,0.24695 0,0 0.03528,0.24694 0.03528,0.24694 z m -2.786944,-1.09361 c 0,0 -0.03528,-0.0353 -0.03528,-0.0353 0,0 -0.529167,-0.3175 -0.529167,-0.3175 0,0 0,-0.21166 0,-0.21166 0,-0.10584 0,-0.14112 -0.03528,-0.14112 0,0 -0.03528,0.0353 -0.07055,0.0706 0,0 -0.07056,0.17639 -0.07056,0.17639 0,0 -0.246944,-0.17639 -0.246944,-0.17639 -0.211667,-0.10583 -0.352778,-0.14111 -0.493889,-0.21167 0,0 -0.246945,-0.0705 -0.246945,-0.0705 0,0 -0.07056,-0.35278 -0.07056,-0.35278 0,-0.0353 -0.03528,-0.21167 -0.07056,-0.38806 -0.03528,-0.21166 -0.07055,-0.38805 -0.07055,-0.42333 0,-0.0353 -0.03528,-0.17639 -0.07056,-0.35278 -0.03528,-0.17639 -0.07055,-0.3175 -0.07055,-0.3175 -0.03528,0 -0.07056,-0.14111 -0.07056,-0.28222 -0.03528,-0.3175 -0.105833,-0.45861 -0.176389,-0.45861 0,0 -0.03528,0.0706 -0.03528,0.14111 0,0.10583 0,0.17639 -0.03528,0.21167 0,0 -0.03528,0.28222 -0.07056,0.635 -0.03528,0.35278 -0.07055,0.635 -0.07055,0.635 0,0 -0.03528,0.3175 -0.07056,0.74083 0,0 -0.03528,0.42333 -0.03528,0.42333 0,0 0,0.0353 0,0.0353 -0.03528,0.0353 -0.07055,0.10584 -0.07055,0.17639 0,0 0.03528,0.17639 0.03528,0.17639 0,0 -0.03528,0.24694 -0.03528,0.24694 0,0.14112 -0.03528,0.38806 -0.03528,0.59973 -0.03528,0.24694 -0.03528,0.49389 -0.03528,0.635 0,0 -0.03528,0.24694 -0.03528,0.24694 0,0 -0.352777,0 -0.352777,0 0,0 0,0 0,0 -0.03528,-0.21167 -0.03528,-0.38805 -0.07056,-0.38805 0,-0.0353 -0.03528,-0.17639 -0.07055,-0.35278 -0.03528,-0.17639 -0.07056,-0.35278 -0.07056,-0.35278 -0.03528,-0.0353 -0.03528,-0.17639 -0.07056,-0.3175 -0.03528,-0.17639 -0.07055,-0.3175 -0.07055,-0.3175 -0.03528,-0.0353 -0.07056,-0.17639 -0.07056,-0.3175 -0.03528,-0.14111 -0.07055,-0.28222 -0.105833,-0.28222 0,-0.0353 -0.03528,-0.17639 -0.07056,-0.28222 0,-0.14112 -0.03528,-0.28223 -0.07055,-0.28223 0,0 -0.03528,0 -0.03528,-0.0353 0,-0.0706 0.03528,-0.28223 0.176389,-0.49389 0.07056,-0.17639 0.141111,-0.35278 0.176389,-0.35278 0,0 0.105833,-0.17639 0.211667,-0.38806 0.105833,-0.21166 0.211666,-0.38805 0.246944,-0.42333 0.03528,-0.0353 0.07056,-0.0706 0.07056,-0.14111 0,-0.0353 0.03528,-0.0706 0.07056,-0.0706 0,0 0.03528,-0.0353 0.03528,-0.0705 0,0 0.03528,-0.0706 0.07055,-0.14111 0.07056,-0.0706 0.105834,-0.14111 0.105834,-0.17639 0,0 0.03528,-0.0706 0.03528,-0.10584 0.03528,-0.0353 0.141111,-0.17638 0.246944,-0.3175 0.07055,-0.14111 0.211667,-0.35277 0.3175,-0.45861 0.07055,-0.14111 0.141111,-0.24694 0.141111,-0.24694 0,0 0,-0.0353 0.03528,-0.0706 0.03528,-0.0353 0.105833,-0.14111 0.176389,-0.24694 0.246944,-0.3175 0.670277,-0.88195 0.705555,-0.91722 0.03528,0 0.03528,0.0705 0.07056,0.17639 0,0.10583 0.03528,0.17638 0.03528,0.21166 0.03528,0 0.07055,0.10584 0.07055,0.21167 0,0.14111 0.03528,0.24694 0.07056,0.3175 0.03528,0.10583 0.07055,0.35278 0.211666,0.98778 0.03528,0.21166 0.07056,0.38805 0.07056,0.38805 0,0 0.03528,0.17639 0.07055,0.42334 0.03528,0.21166 0.07056,0.38805 0.07056,0.42333 0.03528,0 0.07056,0.24694 0.07056,0.49389 0.03528,0.24694 0.07055,0.45861 0.07055,0.45861 0.03528,0 0.07056,0.24694 0.07056,0.52917 0.03528,0.3175 0.07055,0.56444 0.105833,0.59972 0,0 0.03528,0.3175 0.07056,0.67028 0,0 0,0.24694 0,0.24694 z m -5.362223,-2.8575 c 0,0 0.246945,-0.0353 0.246945,-0.0353 0.211667,0 0.246944,0 0.246944,0.0353 0,0.0353 0,0.10583 0.03528,0.10583 0,0.0353 0.03528,0.14111 0.07056,0.24695 0.03528,0.14111 0.07055,0.24694 0.07055,0.28222 0,0.0353 0.03528,0.17639 0.07056,0.28222 0.03528,0.14111 0.07055,0.24695 0.105833,0.28222 0,0.0706 0,0.10584 -0.07055,0.17639 0,0.0353 -0.03528,0.0706 -0.03528,0.0706 -0.03528,0.0353 -0.03528,0.0705 -0.03528,0.0705 0,0.0353 -0.03528,0.0706 -0.07056,0.10584 -0.03528,0.0705 -0.03528,0.0705 -0.03528,-0.28222 0,-0.21167 0,-0.38806 0,-0.42334 -0.03528,-0.0353 -0.105834,0.0353 -0.141111,0.17639 -0.03528,0.10583 -0.07056,0.21167 -0.105834,0.24695 -0.03528,0.0705 -0.07055,0.17638 -0.07055,0.24694 -0.03528,0.0706 -0.03528,0.14111 -0.07056,0.14111 0,0 -0.03528,0.0353 -0.03528,0.10583 0,0.0706 0,0.0706 0,-0.0353 -0.03528,-0.0706 -0.03528,-0.10584 -0.07055,-0.10584 0,0 -0.03528,-0.28222 -0.03528,-0.59972 -0.03528,-0.3175 -0.03528,-0.70555 -0.03528,-0.84667 0,0 -0.03528,-0.24694 -0.03528,-0.24694 z m -3.915833,4.40972 c 0,0 0,0 -0.03528,-0.0353 0,0 0,-0.0353 -0.03528,-0.0353 0,0 0,-0.0353 0.03528,-0.0353 0,0 0,0.0353 0.03528,0.0705 0,0 0,0.0353 0,0.0353 z m -4.198055,0.24695 c 0,0 -0.599722,0.0353 -0.599722,0.0353 0,0 -0.211667,0.0353 -0.211667,0.0353 0,0 0,-0.0353 0,-0.0353 0,-0.0353 0,-0.0705 0,-0.14111 0.03528,-0.0705 0.03528,-0.10583 0.07055,-0.14111 0,-0.0353 0,-0.0353 0,-0.0353 0.03528,0 0.07056,-0.10583 0.07056,-0.21166 0.03528,-0.10584 0.07056,-0.21167 0.105833,-0.28222 0.03528,-0.0353 0.07056,-0.14112 0.07056,-0.24695 0.03528,-0.0705 0.03528,-0.14111 0.07055,-0.14111 0,0 0.03528,-0.14111 0.07056,-0.28222 0.03528,-0.14111 0.07056,-0.24695 0.07056,-0.24695 0.03528,0 0.03528,-0.0706 0.03528,-0.10583 0.03528,-0.10583 0.03528,-0.0706 0.03528,0.0353 0,0.0706 0.03528,0.14111 0.03528,0.14111 0.03528,0.0353 0.07055,0.3175 0.07055,0.635 0.03528,0.3175 0.07056,0.59972 0.07056,0.635 0.03528,0 0.03528,0.0705 0.03528,0.17639 0,0 0,0.17639 0,0.17639 z m 180.410552,3.175 c 0,0 2.11667,-2.50473 2.11667,-2.50473 0,0 -4.48028,-2.18722 -4.48028,-2.18722 0,0 -1.83445,-0.14111 -1.83445,-0.14111 -0.0705,-0.0353 -2.75166,-1.44639 -4.93888,-1.02305 -3.91584,0.84666 -1.12889,0.24694 -5.15056,1.12888 -1.44639,1.34056 -2.32833,2.15195 -2.89278,2.71639 -1.65805,-2.75166 7.54945,-5.99722 10.19528,-5.22111 0,0 12.17083,3.59834 12.17083,3.59834 0.10584,0.0353 4.05695,1.02305 4.72722,1.19944 -0.59972,1.19944 -1.34055,0.67028 -1.41111,0.84667 -4.72722,-0.74084 -8.39611,1.62277 -8.50194,1.5875 z m -100.75333,7.09083 c 0.0705,0.0353 0.14111,0.0705 0.17639,0.10583 0,0 0.3175,0.24695 0.3175,0.24695 0,0 -0.0706,0.14111 -0.0706,0.14111 0,0 -0.28222,0.59972 -0.28222,0.59972 0,0 -0.38806,-0.24694 -0.38806,-0.24694 0,0 -0.3175,-0.21167 -0.3175,-0.21167 0,0 0,-0.0706 0,-0.0706 0,-0.0353 0.0353,-0.14111 0.0706,-0.24694 0,0 0.10583,-0.56445 0.10583,-0.56445 0,0 0.14111,0.0706 0.14111,0.0706 0.10584,0.0706 0.17639,0.10583 0.24695,0.17639 z m -2.82222,-4.7625 c 0,0 -0.0353,0.17639 -0.0353,0.17639 -0.0706,0.17639 -0.10584,0.35278 -0.14111,0.45861 0,0 -0.0706,0.14111 -0.0706,0.14111 0,0 0,-0.0353 0,-0.0353 -0.0705,-0.14111 -0.0353,-0.3175 0.10583,-0.56444 0,0 0.14112,-0.17639 0.14112,-0.17639 z m -1.30528,2.89278 c 0,0 -0.10584,0.56444 -0.10584,0.56444 0,0 -0.635,-0.3175 -0.635,-0.3175 -1.65805,-0.74083 -3.42194,-1.44639 -5.25638,-2.11667 0,0 -0.98778,-0.3175 -0.98778,-0.3175 0,0 0.0353,0 0.0353,0 0.59972,0 1.19944,0.17639 3.70416,1.02306 1.27,0.42333 2.50472,0.88194 3.21028,1.16417 0,0 0.0353,0 0.0353,0 z m -8.81945,-3.88056 c 0,0 -0.35277,0.17639 -0.35277,0.17639 -0.21167,0.10583 -0.52917,0.24695 -0.70556,0.3175 -0.17639,0.0353 -0.28222,0.10583 -0.35278,0.14111 0,0 0,0.0353 0,0.0353 0,0 -0.10583,-0.0353 -0.10583,-0.0353 0,0 -1.12889,-0.3175 -1.12889,-0.3175 0,0 0.49389,-0.0353 0.49389,-0.0353 0.88194,-0.10583 1.48167,-0.35277 1.79917,-0.74083 0,0 0.24694,-0.24694 0.24694,-0.24694 0,0 0.0353,0.35277 0.0353,0.35277 0,0 0.0705,0.35278 0.0705,0.35278 z m -6.244162,-2.08139 c 0,0 -0.105834,0.3175 -0.105834,0.3175 -0.07055,0.21167 -0.176389,0.38806 -0.3175,0.45861 -0.07055,0.0706 -0.141111,0.10584 -0.211666,0.0706 0,0 0,0 0,0 0,0 0,-1.02306 0,-1.02306 0,0 0.635,0.17639 0.635,0.17639 z m -3.175,-1.44639 c 0,0 -0.07056,0 -0.07056,0 0,0 -0.03528,-0.28222 -0.03528,-0.28222 0,0 0,-0.0353 0,-0.0353 0,-0.0353 0,-0.0353 0,-0.0353 0.03528,0 0.07056,0.14111 0.105834,0.3175 0,0 0,0.0353 0,0.0353 z m -0.282223,-1.02305 c 0,0.17639 -0.07055,0.42333 -0.105833,0.42333 0,0 0,-0.21166 0,-0.49389 0,-0.49389 0.03528,-0.52916 0.105833,-0.0705 0,0.0353 0,0.0705 0,0.14111 z m -0.776111,-1.41111 c 0,0.45861 0,0.84666 -0.03528,0.88194 0,0.0353 -0.03528,0.17639 -0.03528,0.38806 0,0.28222 -0.03528,0.3175 -0.105834,0.3175 -0.246944,-0.0353 -0.352777,-0.0706 -0.352777,-0.10584 0,-0.0353 -0.246945,-0.0353 -0.282223,0 0,0.0353 -0.03528,0.0353 -0.105833,0.0353 -0.07055,0 -0.07055,0 -0.105833,-0.17639 0,-0.0705 -0.03528,-0.24694 -0.03528,-0.3175 0,-0.0705 -0.03528,-0.38805 -0.07056,-0.70555 0,-0.28222 -0.03528,-0.52917 -0.07055,-0.52917 0,0 -0.03528,-0.10583 -0.03528,-0.24694 0,-0.14111 -0.07055,-0.38806 -0.105833,-0.52917 -0.03528,-0.17639 -0.07056,-0.3175 -0.07056,-0.35278 0,-0.0705 0,-0.10583 -0.03528,-0.10583 0,-0.0353 -0.03528,-0.14111 -0.07055,-0.28222 -0.03528,-0.10584 -0.07056,-0.24695 -0.07056,-0.24695 0,-0.0353 -0.03528,-0.14111 -0.07055,-0.24694 -0.03528,-0.10584 -0.07056,-0.21167 -0.07056,-0.24695 0,0 -0.07055,-0.17639 -0.07055,-0.17639 0,0 0.3175,0.17639 0.3175,0.17639 0.705555,0.42334 1.023055,0.56445 1.411111,0.74084 0,0 0.07055,0.0353 0.07055,0.0353 0,0 0,0.24695 0,0.24695 0.03528,0.38805 0.03528,0.9525 0,1.44639 z m -2.328333,2.18722 c -0.03528,0 -0.105833,0 -0.246944,0 0,0 -0.282223,0 -0.282223,0 0,0 0,-0.67028 0,-0.67028 0,-0.38805 0,-0.635 0.03528,-0.59972 0,0.0353 0.03528,0.0706 0.03528,0.0706 0.03528,0 0.03528,0.0353 0.07056,0.0705 0,0.0706 0.03528,0.17639 0.07056,0.28222 0.07056,0.0706 0.07056,0.17639 0.07056,0.17639 0,0.0353 0.03528,0.10584 0.07055,0.17639 0.03528,0.0706 0.07056,0.17639 0.105833,0.28222 0,0.0706 0.03528,0.14111 0.07056,0.17639 0,0 0,0 0,0.0353 z m -1.375833,-2.99861 c 0,0.0705 0,0.0705 -0.07056,0 -0.03528,-0.0706 -0.03528,-0.10583 -0.03528,-0.14111 0,-0.0353 0,-0.0353 0.03528,0 0.03528,0.0353 0.07056,0.10583 0.07056,0.14111 z m -0.564445,4.445 c 0,0 -0.3175,-0.0353 -0.3175,-0.0353 0,0 0,-0.24694 0,-0.24694 0,-0.10584 -0.03528,-0.17639 -0.07055,-0.21167 -0.03528,0 -0.03528,-0.59972 0,-0.67028 0.03528,-0.0353 0.03528,-0.0705 0.03528,-0.10583 -0.03528,-0.0706 -0.141111,-0.0706 -0.141111,0.0353 0,0.0353 0,0.0705 -0.03528,0.0705 0,0 -0.03528,0.0706 -0.07056,0.17639 -0.03528,0.10583 -0.07056,0.17639 -0.07056,0.17639 0,0 -0.03528,0.10583 -0.07056,0.21167 -0.03528,0.14111 -0.07056,0.24694 -0.07056,0.28222 0,0 -0.03528,0.0353 -0.03528,0.10583 0,0 -0.03528,0.0706 -0.03528,0.0706 0,0 -0.211667,-0.0353 -0.211667,-0.0353 0,0 -0.07055,-0.3175 -0.07055,-0.3175 0,-0.17639 -0.03528,-0.35278 -0.07056,-0.35278 0,-0.0353 -0.03528,-0.17639 -0.07055,-0.35278 0,-0.14111 -0.03528,-0.21166 -0.03528,-0.3175 0,-0.0705 0.03528,-0.17638 0.03528,-0.28222 0.03528,-0.17639 0.07055,-0.3175 0.07055,-0.35278 0,0 0,-0.0353 0,-0.0353 0.03528,-0.0353 0.07056,-0.21167 0.07056,-0.42334 0.03528,-0.21166 0.07055,-0.42333 0.105833,-0.42333 0,0 0.03528,-0.21167 0.07056,-0.45861 0,0 0.03528,-0.45861 0.03528,-0.45861 0,0 0.07056,0.24694 0.07056,0.24694 0,0.10584 0.03528,0.21167 0.07055,0.24695 0,0 0.03528,0.14111 0.07056,0.28222 0.03528,0.14111 0.07056,0.28222 0.07056,0.28222 0,0.0353 0.03528,0.14111 0.07056,0.3175 0.03528,0.14111 0.07056,0.28222 0.07056,0.3175 0.03528,0 0.07055,0.14111 0.07055,0.3175 0.03528,0.14111 0.07056,0.28222 0.07056,0.3175 0.03528,0 0.07055,0.14111 0.105833,0.3175 0,0.14111 0.03528,0.28222 0.07056,0.3175 0,0 0.03528,0.14111 0.07055,0.3175 0,0.17639 0.03528,0.3175 0.07056,0.35278 0,0 0.03528,0.10583 0.03528,0.17639 0,0 0.03528,0.14111 0.03528,0.14111 z m -2.998611,-1.23472 c 0,0.21166 -0.03528,0.45861 -0.03528,0.67027 0,0 -0.03528,0.10584 -0.03528,0.10584 0,0 0,0 0,0 0,0 -0.176389,-0.0353 -0.176389,-0.0353 0,0 -0.03528,-0.14111 -0.03528,-0.14111 -0.03528,-0.0706 -0.07056,-0.14111 -0.07056,-0.21167 -0.03528,-0.10583 -0.176388,-0.49389 -0.246944,-0.88194 -0.03528,-0.14111 -0.07056,-0.3175 -0.105833,-0.35278 -0.07056,-0.17639 -0.211667,-1.44639 -0.176389,-1.83444 0,-0.28223 0,-0.3175 -0.03528,-0.3175 -0.03528,0.0353 -0.105833,0.10583 -0.141111,0.21166 0,0.0706 -0.07056,0.17639 -0.07056,0.17639 -0.03528,0 -0.141111,0.38806 -0.105833,0.42333 0,0 0,0 -0.03528,0 0,0 -0.03528,0.14112 -0.07055,0.3175 -0.03528,0.14112 -0.07056,0.3175 -0.105834,0.35278 -0.03528,0.14111 -0.03528,1.86972 0,1.905 0.03528,0 0.03528,0.0706 0.03528,0.10584 0,0 0.03528,0.0705 0.03528,0.0705 0,0 -0.211667,0 -0.211667,0 0,0 -0.03528,-0.14111 -0.03528,-0.14111 0,-0.17639 -0.03528,-0.3175 -0.07055,-0.35278 0,-0.0353 -0.03528,-0.3175 -0.07056,-0.635 -0.03528,-0.35278 -0.03528,-0.67028 -0.07055,-0.70555 0,-0.0353 -0.03528,-0.3175 -0.07056,-0.635 -0.03528,-0.3175 -0.07055,-0.59973 -0.07055,-0.635 -0.03528,-0.0353 -0.03528,-0.24695 -0.07056,-0.49389 -0.03528,-0.24695 -0.07055,-0.45861 -0.07055,-0.49389 -0.03528,-0.0353 -0.07056,-0.21167 -0.07056,-0.38806 -0.03528,-0.21166 -0.07056,-0.38805 -0.07056,-0.38805 -0.03528,-0.0353 -0.07055,-0.14111 -0.07055,-0.28222 -0.105833,-0.49389 -0.282222,-1.16417 -0.3175,-1.16417 -0.03528,0 -0.03528,0.0705 -0.03528,0.14111 0,0.10583 -0.03528,0.17639 -0.03528,0.17639 -0.03528,0 -0.03528,0.17639 -0.07055,0.35278 0,0.21166 -0.03528,0.56444 -0.07056,0.74083 -0.03528,0.17639 -0.07055,0.49389 -0.07055,0.70556 0,0.21166 -0.03528,0.49388 -0.07056,0.56444 0,0.10583 -0.03528,0.52917 -0.07055,0.9525 -0.03528,0.38806 -0.07056,0.91722 -0.105834,1.09361 0,0.21167 -0.03528,0.67028 -0.07055,1.05833 0,0 0,0.28223 0,0.28223 0,0 -0.3175,-0.0353 -0.3175,-0.0353 0,0 -0.07056,-0.45861 -0.07056,-0.45861 0,-0.17639 -0.03528,-0.42334 -0.07055,-0.56445 -0.03528,-0.17639 -0.07056,-0.42333 -0.07056,-0.59972 -0.03528,-0.14111 -0.03528,-0.3175 -0.07055,-0.3175 -0.07056,-0.10583 -0.07056,-0.9525 0,-0.98778 0.03528,-0.0353 0.105833,-0.28222 0.211666,-0.81139 0.03528,-0.14111 0.07056,-0.24694 0.07056,-0.28222 0,0 0.03528,-0.14111 0.07055,-0.24694 0.03528,-0.14111 0.105834,-0.38806 0.141111,-0.52917 0.03528,-0.14111 0.105834,-0.38805 0.141112,-0.52917 0.03528,-0.14111 0.07055,-0.28222 0.105833,-0.3175 0.03528,-0.0705 0.03528,-0.17638 0.07055,-0.28222 0,-0.10583 0.03528,-0.17639 0.03528,-0.17639 0.03528,0 0.07056,-0.10583 0.105834,-0.24694 0,-0.14111 0.03528,-0.24695 0.07055,-0.24695 0,0 0.03528,-0.0705 0.07056,-0.21166 0,-0.10584 0.03528,-0.21167 0.07055,-0.21167 0,0 0.03528,-0.10583 0.07056,-0.21167 0.03528,-0.14111 0.07055,-0.24694 0.07055,-0.24694 0.03528,-0.0353 0.03528,-0.10583 0.07056,-0.17639 0.03528,-0.0705 0.105833,-0.3175 0.176389,-0.56444 0.105833,-0.24695 0.211666,-0.49389 0.211666,-0.56445 0,0 0.03528,-0.0705 0.03528,-0.0705 0,0 0.03528,0 0.03528,0 0.03528,0 0.07055,0 0.07055,0 0.03528,-0.0353 0.141112,-0.0706 0.211667,-0.10584 0.07056,0 0.141111,-0.0706 0.211667,-0.10583 0.07055,-0.0706 0.105833,-0.14111 0.141111,-0.21167 0.03528,-0.14111 -0.03528,-0.635 -0.07056,-0.74083 -0.07055,-0.10583 -0.07055,-0.10583 0.07056,-0.10583 0,0 0.176389,0.0705 0.176389,0.0705 0,0 0,0.0353 0,0.0353 0.03528,0.17639 0.07055,0.3175 0.07055,0.3175 0,0.0353 0.03528,0.17639 0.07056,0.35278 0.03528,0.14111 0.07055,0.3175 0.07055,0.3175 0.03528,0.0353 0.07056,0.21166 0.07056,0.38805 0.03528,0.21167 0.07056,0.38806 0.105833,0.38806 0,0.0353 0.03528,0.21167 0.07056,0.38805 0,0.17639 0.03528,0.35278 0.07055,0.42334 0,0.0353 0.03528,0.24694 0.07056,0.45861 0.03528,0.21167 0.03528,0.38805 0.07056,0.42333 0,0 0.03528,0.17639 0.03528,0.35278 0.03528,0.17639 0.07056,0.38806 0.07056,0.45861 0.03528,0.0706 0.07055,0.3175 0.07055,0.59972 0.03528,0.24695 0.07056,0.49389 0.07056,0.52917 0.03528,0 0.07056,0.38806 0.07056,0.81139 0.03528,0.42333 0.07055,0.77611 0.105833,0.81139 0,0 0.105833,2.04611 0.105833,2.71639 z m 27.446108,8.46666 c 0,0 0.0353,-0.10583 0.0353,-0.10583 0.0706,-0.17639 0.14111,-0.38806 0.14111,-0.42333 0,0 0.0353,-0.0353 0.0353,-0.0353 0,0 0,0 0,0 0.24694,0.10583 0.49389,0.21166 0.70555,0.24694 0,0 0.10584,0.0706 0.10584,0.0706 0,0 0,0.28222 0,0.28222 0,0 0,0.49389 0,0.49389 0,0 -0.24695,-0.10583 -0.24695,-0.10583 0,0 -0.77611,-0.42334 -0.77611,-0.42334 z m 6.80861,4.37445 c 0,0 -0.38805,-0.3175 -0.38805,-0.3175 0,0 0,-0.0706 0,-0.0706 -0.0353,-0.0353 -0.0353,-0.21167 0,-0.38805 0,-0.28223 0,-0.42334 -0.0706,-0.35278 0,0 -0.0353,0.0705 -0.10583,0.17639 0,0 -0.14111,0.38805 -0.14111,0.38805 0,0 -0.10584,-0.0705 -0.10584,-0.0705 0,0 -0.0353,-0.0353 -0.0353,-0.0353 0,0 0,-0.0353 0,-0.0353 0,-0.21167 0,-0.45861 0.0353,-0.74083 0,0 0,-0.0353 0,-0.0353 0,0 0.0353,0 0.0353,0 0.0706,0.0353 0.14111,0.0353 0.17639,0.0353 0.21167,0 0.35278,-0.14111 0.38806,-0.38806 0,0 0,-0.10583 0,-0.10583 0,0 0.0353,0.0353 0.0353,0.0353 0,0.0705 0,0.14111 0,0.17639 0,0.0353 0,0.10583 0,0.14111 0.0353,0.0705 0.0353,0.17639 0.0353,0.24694 0,0.0706 0,0.17639 0.0353,0.24695 0,0.0705 0.0353,0.28222 0.0353,0.45861 0,0.21166 0.0353,0.42333 0.0353,0.49389 0,0 0.0353,0.14111 0.0353,0.14111 z m -1.86972,-1.41111 c 0,0 0,-0.0353 0,-0.0353 0.0353,-0.14111 0.0353,-0.24695 0,-0.28222 0,-0.0353 0,-0.21167 0.0353,-0.42334 0,0 0,-0.0353 0,-0.0353 0,0 0.21167,0.17639 0.21167,0.17639 0,0 0,0.17639 0,0.17639 -0.0353,0.14111 -0.0353,0.28222 -0.0706,0.38806 0,0 0,0.14111 0,0.14111 0,0 -0.0706,-0.0353 -0.0706,-0.0353 0,0 -0.10583,-0.0705 -0.10583,-0.0705 z m 72.39,-3.38667 c -0.635,-0.0353 -0.74083,-0.10583 -0.84667,-0.17639 -0.17639,-0.21167 -0.0353,-0.10583 -0.17639,-0.91722 -6.10305,-0.88195 -8.74888,-1.72861 -8.92527,-1.79917 0.84666,-0.52917 7.40833,0.45861 8.36083,0.74083 0.0706,0 1.97556,0.98778 2.43417,2.2225 -0.35278,0 -0.635,-0.0353 -0.84667,-0.0705 z m 6.10306,10.30111 c -0.42334,-0.0353 -1.27,-0.0353 -1.41112,-0.0353 -1.83444,-7.54944 -4.40972,-6.73805 -4.30388,-8.43139 0.0353,-0.3175 0.28222,-0.59972 0.49388,-0.81139 0.0706,-0.0705 0.14112,-0.14111 0.21167,-0.17638 0.3175,0.49388 1.23472,2.71638 2.75167,3.38666 0.24694,0.10584 0.42333,0.0353 0.59972,0.14111 0.0353,0 1.05833,0.67028 1.09361,0.70556 0.35278,0.38805 0.49389,3.73944 0.56445,5.22111 z M 122.9403,171.05106 c -0.0705,0.24694 -0.14111,0.42333 -0.14111,0.42333 -0.0353,0.0353 -0.0705,0.10584 -0.10583,0.24695 0,0 -0.0353,0.17639 -0.0353,0.17639 0,0 0,-0.14112 0,-0.14112 0,-0.0705 0,-0.17638 -0.0353,-0.21166 0,-0.0706 0,-0.21167 0,-0.3175 0,-0.10584 0,-0.21167 -0.0353,-0.21167 0,0 0,-0.0705 0,-0.14111 0,-0.10583 0,-0.21167 -0.0353,-0.28222 0,-0.0353 -0.0353,-0.17639 -0.0353,-0.24695 0.0353,-0.0705 0,-0.10583 0,-0.14111 -0.0353,0 -0.0353,-0.0353 -0.0353,-0.10583 0,-0.0706 0,-0.17639 -0.0353,-0.28222 0,-0.10584 -0.0353,-0.21167 -0.0353,-0.21167 0,-0.0353 0,-0.10583 -0.10584,-0.52917 0,-0.17639 -0.0353,-0.28222 -0.0353,-0.3175 0,-0.0353 0,-0.0353 0,-0.0353 -0.0353,-0.0353 -0.0706,-0.17639 -0.10584,-0.3175 -0.0706,-0.35278 -0.17639,-0.42334 -0.17639,-0.17639 0,0.10583 0,0.17639 0,0.21166 0.0353,0.0353 0.0353,0.14111 0.0353,0.28223 0,0.10583 0,0.24694 0,0.24694 0,0.0353 0.0353,0.17639 0,0.3175 0,0.10583 0,0.24694 0.0353,0.28222 0,0 0,0.14111 0,0.3175 0,0.14111 0,0.38806 0,0.56445 0,0.17639 0,0.45861 0,0.59972 0,0.14111 0,0.3175 0,0.38805 0.0353,0.0353 0.0353,0.17639 0,0.28223 0,0.14111 0,0.24694 0,0.24694 0.0353,0 0.0353,0.21167 0,0.38806 -0.0353,0.21166 -0.0353,0.38805 0,0.38805 0,0 0,0.17639 -0.0353,0.42334 -0.0353,0.21166 -0.0353,0.42333 -0.0353,0.42333 0.0353,0.0353 0,0.24694 -0.0353,0.49389 0,0.21166 -0.0353,0.45861 -0.0353,0.49389 0.0353,0.0353 0,0.3175 -0.0353,0.59972 -0.0353,0.28222 -0.0706,0.635 -0.0706,0.77611 -0.0353,0.17639 -0.0705,0.42333 -0.10583,0.59972 0,0 -0.0353,0.21167 -0.0353,0.21167 0,0 -0.0353,-0.0706 -0.0353,-0.0706 0,0 0,0 0,0 -0.0353,-0.0705 -0.0353,-0.17639 -0.0353,-0.24694 0,-0.0353 -0.0353,-0.14111 -0.0353,-0.24695 -0.0353,-0.0705 -0.0706,-0.28222 -0.0706,-0.42333 -0.10583,-0.56444 -0.38805,-1.86972 -0.42333,-1.86972 -0.0353,0 -0.0353,-0.0706 -0.0353,-0.14111 -0.0353,-0.0706 -0.0353,-0.14111 -0.0706,-0.14111 0,-0.0353 -0.0353,-0.0353 -0.0353,-0.0706 0.0353,-0.0353 -0.10583,-0.38805 -0.14111,-0.42333 -0.0353,0 -0.0706,0.0353 -0.0706,0.10583 0,0.0353 0,0.0706 0,0.0706 0.0353,0.0353 0.0353,0.10583 0.0353,0.24694 0,0 0,0.0353 0,0.0353 0,0 -0.0353,-0.17639 -0.0353,-0.17639 -0.0353,-0.10583 -0.10583,-0.24694 -0.17639,-0.38806 0,0 -0.10583,-0.24694 -0.10583,-0.24694 0,0 0,0 0,0 -0.0353,-0.17639 0.77611,-3.77472 0.88195,-3.84528 0.0705,-0.0353 0.0705,-0.10583 0,-0.14111 -0.0706,0 -0.0706,0 -0.10584,0.0706 0,0.0353 -0.0353,0.0705 -0.0353,0.0705 -0.0353,0 -0.0705,0.10584 -0.14111,0.17639 -0.0353,0.10583 -0.10583,0.21167 -0.14111,0.24695 -0.0353,0.0705 -0.10583,0.17638 -0.14111,0.28222 -0.0353,0.0705 -0.0705,0.17639 -0.10583,0.17639 0,0 -0.0706,0.14111 -0.14111,0.3175 -0.0706,0.14111 -0.14111,0.3175 -0.14111,0.35277 -0.0706,0.0706 -0.28223,0.74084 -0.35278,1.02306 -0.0353,0.14111 -0.0706,0.21167 -0.10584,0.21167 0,0 0,0.0353 -0.0353,0.0705 0,0 0,0.0706 0,0.0706 0,0 -0.24695,-0.28222 -0.24695,-0.28222 0,0 -0.0353,-0.0353 -0.0353,-0.0353 0,0 0.0353,-0.0353 0.0353,-0.0353 0.10584,-0.28222 0.17639,-0.49389 0.17639,-0.49389 0.0353,0 0.10583,-0.24694 0.21167,-0.59972 0.10583,-0.3175 0.21166,-0.635 0.24694,-0.67028 0.0353,-0.0353 0.3175,-0.98778 0.59972,-2.01083 0,-0.0706 0.10584,-0.56445 0.21167,-1.09361 0.0706,-0.52917 0.17639,-0.9525 0.17639,-0.9525 0,0 0.0353,0.0705 0.0706,0.14111 0,0 0.0705,0.14111 0.0705,0.14111 0,0 0.38806,0.10583 0.38806,0.10583 0.24694,0.0353 0.38805,0.0706 0.42333,0.0353 0.0706,-0.0353 0.0706,-0.0353 0.0706,0 0,0.0353 -0.0353,0.0353 -0.0353,0.0353 -0.0353,0 -0.0706,0.0705 -0.14111,0.14111 -0.0353,0.0706 -0.0706,0.14111 -0.10584,0.17639 0,0 -0.0705,0.14111 -0.0705,0.24694 -0.0706,0.24695 -0.0706,0.24695 0.0353,0.42334 0.14111,0.28222 0.49388,0.45861 0.77611,0.42333 0.17639,-0.0353 0.35277,-0.17639 0.42333,-0.28222 0,-0.0353 0.0353,-0.10584 0.0706,-0.10584 0,0 0.0705,-0.14111 0.10583,-0.28222 0,0 0.10583,-0.28222 0.10583,-0.28222 0,0 0.10584,0.21167 0.10584,0.21167 0.0705,0.0705 0.17638,0.24694 0.28222,0.3175 0.0705,0.0705 0.14111,0.14111 0.14111,0.14111 0.0353,0.0705 0.42333,0.14111 0.49389,0.10583 0.0353,-0.0353 0.14111,-0.10583 0.21166,-0.14111 0.10584,-0.0706 0.17639,-0.10583 0.17639,-0.0706 0,0 -0.0353,0.0353 -0.0353,0.0353 -0.0353,0 -0.0706,0.10584 -0.14112,0.21167 -0.0353,0.10583 -0.10583,0.17639 -0.10583,0.17639 0,0 -0.0705,0.0705 -0.10583,0.21166 -0.0706,0.10584 -0.14111,0.21167 -0.14111,0.21167 -0.0353,0.0353 -0.10584,0.14111 -0.14111,0.24694 -0.0706,0.14112 -0.10584,0.24695 -0.14112,0.24695 0,0 -0.10583,0.21167 -0.21166,0.42333 -0.10584,0.24695 -0.24695,0.45861 -0.28222,0.52917 -0.0353,0.0705 -0.10584,0.28222 -0.17639,0.45861 -0.0706,0.17639 -0.17639,0.42333 -0.21167,0.52917 -0.0353,0.10583 -0.14111,0.38805 -0.21167,0.59972 z"
       style="fill:#2b2b2b;fill-opacity:0;stroke-width:0.447;stroke-miterlimit:4;stroke-dasharray:none" />
  </g>
</svg>
