<?xml version="1.0" encoding="UTF-8" standalone="no"?>
<!-- Created with Inkscape (http://www.inkscape.org/) -->

<svg
   width="297mm"
   height="210mm"
   viewBox="0 0 297 210"
   version="1.1"
   id="svg1189"
   xmlns="http://www.w3.org/2000/svg"
   xmlns:svg="http://www.w3.org/2000/svg">
  <defs
     id="defs1186">
    <linearGradient
       id="LinearGradient0"
       x1="-970.66079"
       y1="-147.22793"
       x2="-970.66079"
       y2="-736.37057"
       gradientTransform="scale(1.1547288,0.86600419)"
       gradientUnits="userSpaceOnUse">
      <stop
         offset="0%"
         stop-color="#FFFF30"
         stop-opacity="1"
         id="stop965" />
      <stop
         offset="25.1937985420227%"
         stop-color="#FFFF30"
         stop-opacity="1"
         id="stop967" />
      <stop
         offset="37.2093021869659%"
         stop-color="#FA0D00"
         stop-opacity="1"
         id="stop969" />
      <stop
         offset="49.2248058319092%"
         stop-color="#E02680"
         stop-opacity="1"
         id="stop971" />
      <stop
         offset="53.8759708404541%"
         stop-color="#C600E4"
         stop-opacity="1"
         id="stop973" />
      <stop
         offset="65.1162803173065%"
         stop-color="#811280"
         stop-opacity="1"
         id="stop975" />
      <stop
         offset="79.4573664665222%"
         stop-color="#0D18AE"
         stop-opacity="1"
         id="stop977" />
      <stop
         offset="100%"
         stop-color="#2707F8"
         stop-opacity="1"
         id="stop979" />
    </linearGradient>
  </defs>
  <g
     id="layer1">
    <g
       id="Group ID: 1"
       transform="matrix(0.35277777,0,0,0.35277777,544.54957,236.32401)">
      <path
         id="Path9"
         stroke-width="0"
         stroke="none"
         stroke-opacity="0"
         fill="url(#LinearGradient0)"
         stroke-linecap="round"
         stroke-linejoin="round"
         d="m -780.7,-637.7 c 0,0 0,510.2 0,510.2 0,0 -680.3,0 -680.3,0 0,0 0,-510.2 0,-510.2 0,0 680.3,0 680.3,0 z m -455.1,68.2 c -0.1,1.5 -2.3,1.6 -2.6,0.2 -0.3,-1.7 2.6,-2 2.6,-0.2 z m -147.6,-11.5 c 0,2.8 -4.6,3.6 -5.2,0.4 -0.7,-3.6 5.3,-4 5.2,-0.4 z m 337.6,-21.9 c 0,-2.4 3.5,-2.9 4,-0.4 0.6,3.3 -4,3.3 -4,0.4 z m -25.9,4.5 c 0.1,-1.9 3,-2 3.3,-0.2 0.4,2.4 -3.4,2.4 -3.3,0.2 z m -75.1,9 c 0,-3.3 4.5,-3.7 5.2,-0.6 0.7,3.7 -5.2,4.8 -5.2,0.6 z m 72,36.1 c 0,-1.3 2,-1.9 2.4,-0.2 0.3,1.7 -2.4,2.1 -2.4,0.2 z m 16.1,-23 c 0,-3.3 4.5,-3.8 5.1,-0.6 0.8,3.9 -5,4.6 -5.1,0.6 z m 48.6,-26.5 c 0,1.7 -2.4,2.1 -2.8,0.3 -0.5,-2.2 2.8,-2.6 2.8,-0.3 z m 19.8,14.6 c 0,3.1 -3.9,2.9 -4.4,0.4 -0.6,-3.1 4.4,-3.9 4.4,-0.4 z m -404.1,-16.2 c 0.1,-2.1 3.3,-2.3 3.7,-0.3 0.4,2.6 -3.7,2.8 -3.7,0.3 z m 131.6,41.5 c 0,-2.2 3.4,-2.4 3.8,-0.3 0.5,2.7 -3.9,2.9 -3.8,0.3 z m -98.3,4.5 c 0,2.1 -3.3,2.2 -3.6,0.2 -0.5,-2.6 3.7,-2.7 3.6,-0.2 z m 132.6,-38.3 c 0.2,-3.2 5.3,-3.6 5.8,-0.2 0.7,4.1 -6.1,4.2 -5.8,0.2 z m -0.6,34.3 c 29,-12.4 56,28 28,48.9 -33.3,24.9 -67.3,-32 -28,-48.9 z m -44.7,42.6 c -3.2,0.4 -4.1,-4.3 -0.8,-4.8 3.3,-0.4 4.2,4.3 0.8,4.8 z m -17.6,-49.5 c 0.1,-2.2 3.4,-2.4 3.8,-0.3 0.5,2.7 -3.9,2.7 -3.8,0.3 z m -35.1,34.7 c -0.1,3.6 -5.6,3.8 -6.2,0.4 -0.8,-4.3 6.3,-4.7 6.2,-0.4 z m 39.1,-8.2 c 1.4,-0.3 2.2,1.4 0.9,2.2 -1.7,1.1 -2.9,-1.9 -0.9,-2.2 z m 99.7,-64.4 c 0.1,-2.3 3.7,-2.4 4.1,-0.1 0.4,2.8 -4.3,2.9 -4.1,0.1 z m -0.2,28.6 c -0.2,2.4 -3.8,2.4 -4.1,0.2 -0.5,-2.8 4.2,-3 4.1,-0.2 z m 22.7,5.7 c 0.1,-1.9 2.9,-2.2 3.6,-0.4 1,2.7 -3.8,3.1 -3.6,0.4 z m 3.7,19.4 c 2.7,0.1 2.8,3.8 0.2,4.2 -3.2,0.5 -3.5,-4.3 -0.2,-4.2 z m -151.2,-1.7 c 0,2.1 -3.1,2.1 -3.5,0.3 -0.4,-2.4 3.6,-2.7 3.5,-0.3 z"
         style="fill:url(#LinearGradient0)" />
      <path
         id="Path10"
         stroke-width="0"
         stroke="none"
         stroke-opacity="0"
         fill="#1b7cb8"
         fill-opacity="1"
         fill-rule="evenodd"
         stroke-linecap="round"
         stroke-linejoin="round"
         d="m -1224.3,-322.2 c 11.3,13.1 31.7,58.7 89.3,86 22.2,10.6 40.5,0.1 62,1 31.5,1.4 62.6,7 62.6,-27.5 0,-24.1 -34.7,-43.8 -67.6,-76.4 -15.2,-15 -70.7,-24.7 -85.4,-41.4 -11.9,-13.4 35.1,-34.8 20.7,-41.1 -22.2,-9.8 -72.7,-2.8 -87.2,-2.8 -60.8,0 -32.3,58.1 5.6,102.2 z" />
    </g>
  </g>
</svg>
