<?xml version="1.0" encoding="UTF-8" standalone="no"?>
<!-- Created with Inkscape (http://www.inkscape.org/) -->

<svg
   width="297mm"
   height="210mm"
   viewBox="0 0 297 210"
   version="1.1"
   id="svg1189"
   xmlns="http://www.w3.org/2000/svg"
   xmlns:svg="http://www.w3.org/2000/svg">
  <defs
     id="defs1186" />
  <g
     id="layer1">
    <path
       id="Path6"
       stroke-width="0.246944"
       stroke="#2b2b2b"
       stroke-opacity="1"
       fill="#404040"
       fill-opacity="1"
       fill-rule="evenodd"
       stroke-linecap="round"
       stroke-linejoin="round"
       d="m 266.51028,13.440523 c 0,0 -120.015,0 -120.015,0 0,0 -119.979718,0 -119.979718,0 0,0 0,90.028887 0,90.028887 0,0 0,89.99361 0,89.99361 0,0 119.979718,0 119.979718,0 0,0 120.015,0 120.015,0 0,0 0,-89.99361 0,-89.99361 0,0 0,-90.028887 0,-90.028887 z M 190.69834,140.36996 c 0,-0.17639 0.14111,-0.38805 0.21166,-0.59972 0.24695,-0.77611 0.0353,-1.12889 0.28223,-1.12889 0.0705,0.0706 0.14111,0.52917 -0.0706,1.16417 -0.10583,0.28222 -0.17639,0.74083 -0.42333,0.635 0,-0.0353 0,-0.0353 0,-0.0706 z m 47.48388,19.93195 c 0,0 -0.24694,0.35278 -0.24694,0.35278 -0.3175,0.52916 -0.91722,0.74083 -1.41111,0.49388 -0.24695,-0.14111 -0.45861,-0.635 -0.45861,-1.05833 0,-0.0353 0,-0.10583 0,-0.14111 0.14111,-0.70556 0.42333,-1.44639 0.52916,-1.44639 0.3175,0 0.98778,0.635 1.27,1.19945 0,0 0.3175,0.59972 0.3175,0.59972 z m -51.32916,-28.36334 c -0.70556,-0.98777 -0.70556,-2.39888 -0.59972,-2.50472 0.14111,0.21167 0.3175,1.41111 0.91722,2.11667 0.91722,1.19944 1.5875,1.19944 2.57528,1.16417 0.45861,0.56444 -1.41111,0.67027 -2.57528,-0.38806 -0.10583,-0.10583 -0.21167,-0.24694 -0.3175,-0.38806 z m 4.23333,10.33639 c 0,0 0,-0.0353 0,-0.0353 -0.21166,-0.24695 -0.35278,-0.59973 0,-0.52917 0.0706,0.0353 0.17639,0.17639 0.24695,0.35278 0,0 0.0353,0.0705 0.0353,0.0705 0,0 -0.28222,0.14111 -0.28222,0.14111 z m 5.29167,-2.92805 c 0,0 0.42333,-4.19806 0.42333,-4.19806 -0.14111,-0.0353 -0.28222,-0.21166 0.0706,-1.69333 0.0705,-0.17639 0.24694,-0.77611 0.59972,-1.51695 0.42333,-0.81138 -0.0353,-1.02305 0.3175,-2.04611 0.67028,-1.94027 0.77611,-1.09361 1.16417,-2.15194 0.67027,-1.79917 0.0353,-2.92806 0.14111,-3.06917 0.0353,0 0.81139,-0.42333 0.98777,-1.02305 0.0706,-0.17639 0.14112,-0.21167 -0.0353,-0.38806 0,0 -0.28223,-0.24694 -0.14111,-0.38805 0.0353,-0.0706 0.17638,-0.10584 0.28222,-0.0706 0.17639,0.10583 -0.0706,0.17639 0.3175,0.56444 0.17639,0.21167 0.49389,0.28223 0.59972,0.21167 -0.0353,-0.10583 -0.3175,-0.24694 -0.42333,-0.52917 -0.10584,-0.24694 -0.0353,-0.38805 0.14111,-0.35277 0.10583,0.17639 0.81139,1.05833 1.23472,0.59972 0,-0.0353 0.49389,-0.91722 0.49389,-0.9525 0.0353,-0.10583 -0.17639,-1.79917 -0.21167,-1.86972 -0.35278,-1.12889 0.21167,-1.51695 0.35278,-1.94028 0.21167,-0.59972 -0.24694,-1.02306 0.10583,-2.11667 0.21167,-0.59972 0.0353,-0.52916 0.10584,-0.88194 0.10583,-0.38806 0.3175,-0.52917 0.35277,-0.635 0.0353,-0.21167 -0.28222,-0.17639 -0.10583,-0.59972 0.10583,-0.21167 0.21167,-0.24695 0.24695,-0.42334 0.0353,-0.21166 -0.0706,-0.24694 -0.0706,-0.35278 0,-0.10583 0.21167,-0.3175 0.17639,-0.45861 0,-0.10583 -0.21167,-0.21166 -0.0353,-0.52916 0.28222,-0.49389 -0.10583,-0.635 -0.0705,-0.98778 0.14111,-0.81139 0.24694,0.0353 -0.10584,-0.81139 -0.14111,-0.35278 0.14111,-0.49389 0.14111,-0.59972 0,-0.17639 -0.3175,-0.17639 -0.24694,-0.52917 0.14111,-0.84666 -0.24695,-0.35278 -0.91722,-1.23472 -0.28223,-0.38806 0.0353,-0.49389 -0.45861,-0.81139 -0.38806,-0.21167 -0.81139,0.14111 -1.05834,-0.10583 -0.21166,-0.24695 -0.49389,-0.70556 -0.74083,-0.70556 -0.10583,0 -0.24695,0.17639 -0.45861,0.28222 -0.0353,-0.0353 -0.14111,-0.3175 -0.3175,-0.28222 -0.17639,0.0353 -0.35278,0.38806 -0.42334,0.38806 -0.0705,0 -0.10583,-0.0706 -0.17638,-0.10584 -0.21167,-0.0353 -0.3175,0.28223 -0.91723,0.10584 -0.3175,-0.10584 -0.42333,-0.49389 -0.77611,-0.67028 -0.67027,-0.38806 -0.35277,-0.84667 -1.37583,-0.45861 -1.48167,-0.45861 -1.12889,0.17639 -1.79917,0 -0.635,-0.17639 -1.44639,0.0353 -1.94027,0.24694 -0.70556,0.3175 -1.72862,1.19945 -1.62278,1.37584 0.14111,0.24694 0.56444,-0.35278 1.69333,-0.635 0.77611,-0.21167 2.01083,0.0353 2.43417,0.21166 1.05833,0.52917 1.69333,1.05834 1.86972,1.34056 -0.10583,0.14111 -0.88194,0.67028 -1.16417,1.12889 -0.21166,0.35278 -0.3175,0.49389 -0.3175,0.59972 0.0706,0.24694 1.83445,-1.16417 2.29306,-0.98778 0.28222,0.10584 1.19944,2.32833 1.51694,3.28083 0.0706,0.28223 0.3175,1.12889 0.38806,1.65806 0.3175,1.79917 0.42333,1.34056 0.49389,2.15194 -0.17639,0.14112 -0.14111,0.14112 -0.52917,0.14112 -0.42333,-0.45862 0,-0.59973 -0.38806,-0.81139 -0.35277,-0.17639 -0.70555,0.49389 -0.74083,0.59972 -0.38805,1.02305 0.28222,1.72861 -0.10583,2.11667 -0.14111,-0.14112 -0.35278,-0.38806 -0.35278,-1.37584 -0.24694,-0.0353 -1.94028,0.98778 -2.89278,1.72861 -0.74083,0.59973 -2.43416,1.37584 -2.78694,1.94028 -0.3175,0.52917 -0.81139,1.30528 -1.62278,1.69333 -0.21167,0.0706 -0.84667,0.70556 -1.83444,0.88195 -0.91723,0.14111 -1.34056,0.98778 -1.5875,1.37583 -0.49389,0.77611 -1.30528,2.61056 -1.34056,3.59834 -0.14111,2.2225 0.56445,2.82222 0.52917,4.40972 0,0.0705 -0.14111,1.86972 0.0705,2.68111 0.28223,1.19944 0.17639,1.62278 -0.0705,2.29305 -0.24695,0.70556 0.17639,1.55223 0.0353,2.2225 -0.21167,1.16417 0.10583,1.83445 -0.10584,2.82223 0,0 -0.24694,1.09361 -0.24694,1.09361 0,0 -0.35278,0.17639 -0.35278,0.17639 -0.3175,0.17639 -0.635,0.42333 -0.91722,0.67027 -0.42334,0.45862 -0.52917,0.59973 -0.52917,0.91723 0,0.28222 -0.10583,0.45861 -0.45861,0.77611 -0.24694,0.24694 -0.635,0.56444 -0.84667,0.74083 -0.28222,0.21167 -0.38805,0.38806 -0.45861,0.74083 -0.0353,0.21167 -0.21166,0.88195 -0.42333,1.44639 -0.67028,1.97556 -1.55222,3.81 -4.7625,9.77195 -2.92806,5.50333 -3.91583,7.58472 -4.26861,9.24277 -0.17639,0.70556 -0.17639,0.74084 -0.59972,0.9525 -0.24695,0.10584 -0.52917,0.21167 -0.59973,0.21167 -0.0705,0 -0.56444,-0.35278 -1.12889,-0.77611 -0.56444,-0.45861 -1.5875,-1.23472 -2.32833,-1.72861 -0.74083,-0.52917 -1.34055,-0.9525 -1.34055,-0.98778 0,-0.14111 0.98777,-0.635 1.62277,-0.81139 0.42334,-0.10583 0.59973,-0.21166 0.52917,-0.28222 -0.14111,-0.14111 -0.91722,-0.28222 -1.65806,-0.28222 -0.45861,0 -0.59972,-0.0706 -0.59972,-0.17639 0,-0.21167 1.41111,-1.69333 1.86972,-1.97556 0.45862,-0.28222 0.45862,-0.45861 0.0353,-0.38805 -0.52916,0.10583 -1.19944,0.45861 -2.08139,1.09361 -0.42333,0.3175 -0.77611,0.56444 -0.77611,0.52917 0,0 0.10584,-0.28223 0.21167,-0.59973 0.10583,-0.35277 0.21167,-0.67027 0.21167,-0.74083 0,-0.0706 -0.24695,0.0706 -0.52917,0.3175 -0.28222,0.24694 -0.52917,0.42333 -0.59972,0.42333 -0.0353,0 -0.0353,-0.21166 0,-0.45861 0.0705,-0.52916 0.42333,-1.27 0.84666,-1.86972 0.35278,-0.45861 0.35278,-0.59972 -0.0353,-0.35278 -0.35278,0.21167 -0.91723,0.91722 -1.44639,1.76389 0,0 -0.3175,0.52917 -0.3175,0.52917 0,0 -0.0706,-0.635 -0.0706,-0.635 -0.0353,-0.3175 -0.14111,-0.81139 -0.24694,-1.02306 0,0 -0.17639,-0.42333 -0.17639,-0.42333 0,0 -0.21167,0.635 -0.21167,0.635 -0.10583,0.35278 -0.3175,0.77611 -0.45861,0.9525 0,0 -0.24694,0.3175 -0.24694,0.3175 0,0 -0.0706,-0.3175 -0.0706,-0.3175 -0.14111,-0.67028 -0.3175,-1.16417 -0.42333,-1.19945 -0.0706,-0.0353 -0.17639,0.17639 -0.24695,0.45862 -0.21166,0.70555 -0.38805,0.59972 -0.3175,-0.28223 0.0706,-0.70555 0.38806,-1.5875 0.81139,-2.04611 0.14111,-0.17639 0.14111,-0.17639 -0.0705,-0.17639 -0.3175,0 -0.81139,0.45862 -1.41112,1.34056 -0.3175,0.42333 -0.59972,0.77611 -0.635,0.77611 -0.0353,0 -0.10583,-0.28222 -0.17638,-0.59972 -0.17639,-0.84667 -0.28223,-1.02306 -0.45862,-0.635 -0.0353,0.17639 -0.10583,0.35278 -0.10583,0.42333 0,0.10584 -0.10583,0.42334 -0.21167,0.74083 0,0 -0.24694,0.59973 -0.24694,0.59973 0,0 -0.74083,-0.38806 -0.74083,-0.38806 -0.9525,-0.45861 -1.05834,-0.56444 -2.36361,-1.86972 -1.23473,-1.19944 -1.23473,-1.09361 -0.21167,-1.79917 0.35278,-0.24694 0.56444,-0.45861 0.52917,-0.52916 -0.14112,-0.10584 -1.23473,0.17639 -1.76389,0.49389 -0.24695,0.14111 -0.49389,0.21166 -0.56445,0.17638 -0.0705,-0.0353 -0.14111,-0.45861 -0.10583,-1.05833 0,-0.84667 -0.0706,-1.16417 -0.28222,-1.86972 -0.42334,-1.23472 -0.52917,-1.34056 -0.45861,-0.38806 0.0705,0.74084 -0.10584,2.39889 -0.24695,2.50473 -0.0706,0.0353 -0.14111,-0.17639 -0.24694,-0.42334 -0.0706,-0.28222 -0.14111,-0.49389 -0.21167,-0.52916 -0.0706,-0.0706 -0.3175,0.59972 -0.3175,0.88194 0,0.0706 -0.0706,0.10583 -0.14111,0.0706 -0.10583,-0.0353 -0.17639,-0.17639 -0.17639,-0.3175 0,-0.59973 -0.67028,-2.11667 -1.16417,-2.54 0,0 -0.24694,-0.21167 -0.24694,-0.21167 0,0 0.10583,0.24694 0.10583,0.24694 0.0353,0.14111 0.10584,0.70556 0.10584,1.27 0.0705,0.84667 0.0353,0.98778 -0.10584,0.98778 -0.10583,0 -0.21166,-0.14111 -0.24694,-0.3175 -0.0706,-0.38805 -0.28222,-0.45861 -0.38806,-0.14111 -0.10583,0.35278 -0.42333,0.14111 -0.77611,-0.45861 -0.42333,-0.70556 -0.635,-0.74083 -0.52917,-0.14111 0.0706,0.3175 0.0353,0.42333 -0.0705,0.38805 -0.0706,-0.0353 -0.88195,-0.24694 -1.76389,-0.52916 -1.19944,-0.35278 -1.5875,-0.49389 -1.5875,-0.635 0.0353,-0.10584 -0.0705,-0.14111 -0.38805,-0.10584 0,0 -0.45862,0.0353 -0.45862,0.0353 0,0 -0.0353,-0.77611 -0.0353,-0.77611 0,0 -0.0353,-0.77611 -0.0353,-0.77611 0,0 -0.35278,0.635 -0.35278,0.635 -0.24694,0.49389 -0.38805,0.67028 -0.49389,0.59972 -0.3175,-0.10583 -0.10583,-0.9525 0.59972,-2.46944 0.28223,-0.59973 0.49389,-1.12889 0.45862,-1.12889 -0.14112,-0.14111 -1.30528,1.27 -1.69334,2.01083 -0.45861,0.84667 -0.59972,0.98778 -0.59972,0.56445 0,-0.42334 -0.17639,-0.42334 -0.38806,0.0353 -0.0705,0.24695 -0.21166,0.42334 -0.28222,0.42334 -0.10583,0 -0.0353,-1.37584 0.10584,-1.905 0.0705,-0.24695 0.0705,-0.24695 -0.21167,0.0705 -0.14111,0.14111 -0.38806,0.56445 -0.49389,0.84667 -0.14111,0.3175 -0.24694,0.56444 -0.3175,0.56444 -0.0353,0 -0.21167,-0.21166 -0.42333,-0.45861 -0.45862,-0.59972 -0.635,-0.67028 -0.42334,-0.14111 0.0353,0.14111 0.10584,0.35278 0.14111,0.49389 0,0 0.0706,0.28222 0.0706,0.28222 0,0 -3.21027,-0.52916 -3.21027,-0.52916 -1.76389,-0.28223 -3.24556,-0.52917 -3.24556,-0.56445 -0.10583,-0.0705 0.3175,-0.74083 0.77611,-1.30528 0.56445,-0.635 0.45861,-0.77611 -0.35278,-0.49389 -0.98777,0.35278 -0.98777,0.35278 -0.91722,-0.0705 0.10583,-0.56445 -0.10583,-0.59972 -0.59972,-0.10583 0,0 -0.42333,0.38805 -0.42333,0.38805 0,0 -0.14112,-0.21167 -0.14112,-0.21167 -0.24694,-0.3175 -0.3175,-0.3175 -0.49388,0.0353 -0.14112,0.28222 -0.14112,0.24695 -0.21167,-0.67028 -0.0705,-0.9525 -0.35278,-1.83444 -0.45861,-1.51694 0,0 -0.24695,0.70556 -0.24695,0.70556 0,0 0,-0.98778 0,-0.98778 0,-1.27 0.0705,-2.82222 0.17639,-3.42195 0.10584,-1.02305 0.10584,-1.16416 -0.28222,-2.04611 -0.35278,-0.84666 -0.42333,-1.12889 -0.49389,-3.70416 -0.10583,-2.8575 0.0353,-4.51556 0.67028,-7.69056 0,0 0.21167,-1.12889 0.21167,-1.12889 0,0 -0.67028,-0.9525 -0.67028,-0.9525 -0.84667,-1.12889 -1.27,-1.51694 -2.01084,-1.62278 -0.28222,-0.0353 -0.88194,-0.21166 -1.30527,-0.38805 -1.02306,-0.38806 -2.82223,-0.77611 -6.10306,-1.34056 -9.70139,-1.5875 -11.7475,-1.5875 -14.46389,0 -1.41111,0.84667 -1.72861,0.9525 -3.56305,1.27 -0.70556,0.14111 -1.34056,0.28222 -1.37584,0.3175 -0.28222,0.17639 -0.49388,-0.38805 -0.38805,-1.05833 0.14111,-1.05833 -0.3175,-0.88195 -0.670279,0.28222 -0.176389,0.49389 -0.246944,0.56445 -0.529166,0.45861 -0.176389,-0.0705 -0.740834,-0.10583 -1.27,-0.0705 -1.305278,0.0353 -1.869723,-0.17639 -2.645834,-1.09361 -0.388055,-0.42334 -0.740833,-0.70556 -0.846666,-0.635 -0.105834,0.0705 -0.105834,0.17638 -0.03528,0.28222 0.07055,0.10583 0.176389,0.35278 0.246944,0.56444 0.07056,0.38806 0.776111,1.16417 1.5875,1.79917 0,0 0.493889,0.35278 0.493889,0.35278 0,0 -0.493889,0.77611 -0.493889,0.77611 -0.493889,0.70555 -0.529166,0.81139 -0.458611,1.86972 0.03528,1.09361 0,1.23472 -0.493889,2.18722 -0.599722,1.05834 -0.670278,1.72861 -0.3175,2.08139 0.3175,0.35278 1.552222,0.49389 2.116667,0.28222 0.246944,-0.10583 0.740833,-0.24694 1.128889,-0.3175 0.352778,-0.0705 1.058333,-0.3175 1.516944,-0.52916 0.246945,-0.0706 0.458611,-0.17639 0.635001,-0.21167 0.17639,-0.0706 0.28222,-0.0706 0.3175,-0.0706 0.0353,0.0706 0.0706,0.42334 0.0706,0.81139 0,1.12889 0.21166,1.51695 0.81139,1.51695 0.28222,0 0.67027,-0.14111 0.84666,-0.28222 0.28223,-0.24695 0.28223,-0.3175 0.14111,-1.12889 -0.17638,-1.05834 -0.0706,-1.27 0.38806,-0.635 0.635,0.84666 1.37583,1.62277 1.69333,1.72861 0.49389,0.21166 0.45861,0.45861 -0.24694,1.51694 -0.74083,1.16417 -0.77611,1.76389 -0.14111,2.99861 0.24694,0.49389 0.59972,1.27 0.74083,1.72861 0.0705,0.14112 0.10583,0.24695 0.17639,0.38806 0,0 0.0705,0.17639 0.0705,0.17639 0,0 -0.3175,-0.10583 -0.3175,-0.10583 0,0 -0.49389,-0.14112 -0.49389,-0.14112 0,0 -0.0353,0 -0.0353,0 -0.0353,0.0353 -0.0706,0.0353 -0.10583,0.0353 -0.24695,0 -2.92806,-0.52916 -2.99861,-0.56444 -0.0353,-0.0706 0.21166,-0.81139 0.49389,-1.37584 0.14111,-0.28222 0.24694,-0.52916 0.24694,-0.56444 0,-0.17639 -0.45861,0 -0.98778,0.38806 0,0 -0.59972,0.42333 -0.59972,0.42333 0,0 -0.0706,-0.42333 -0.0706,-0.42333 -0.0353,-0.24695 -0.14111,-0.42334 -0.21167,-0.42334 -0.0706,0 -0.24694,0.17639 -0.388051,0.42334 -0.3175,0.45861 -0.352778,0.49388 -0.635,0.24694 -0.176389,-0.17639 -0.211667,-0.17639 -0.3175,0.17639 -0.07056,0.17639 -0.141111,0.3175 -0.141111,0.28222 -0.03528,-0.0353 -0.105833,-0.3175 -0.211667,-0.635 -0.176389,-0.70555 -0.635,-1.65805 -0.811389,-1.65805 -0.03528,0 -0.105833,0.21166 -0.105833,0.49388 0,0.74084 -0.141111,1.09362 -0.458611,1.09362 -0.211667,0 -0.282222,0.0353 -0.3175,0.42333 -0.105833,0.635 -0.282222,0.49389 -0.282222,-0.21167 0,-0.70555 -0.105834,-0.81139 -0.458611,-0.35278 0,0 -0.211667,0.24695 -0.211667,0.24695 0,0 -0.3175,-0.35278 -0.3175,-0.35278 -0.352778,-0.49389 -0.564445,-0.49389 -0.635,0 -0.105833,0.635 -0.176389,0.77611 -0.352778,0.77611 -0.211667,0 -0.176389,-1.34055 0.07056,-1.905 0.282222,-0.635 0.03528,-0.59972 -0.529167,0.0706 0,0 -0.458611,0.52916 -0.458611,0.52916 0,0 -0.423333,-0.21166 -0.423333,-0.21166 -0.246945,-0.10584 -0.423334,-0.17639 -0.458611,-0.17639 0,0 -0.03528,0.24694 -0.07056,0.52917 -0.105833,0.74083 -0.141111,0.77611 -0.458611,0.52916 -0.246945,-0.28222 -0.458611,-0.21166 -0.458611,0.10584 0,0.35277 -0.141111,0.21166 -0.529167,-0.45862 -0.282222,-0.635 -0.987778,-1.44638 -1.093611,-1.34055 -0.03528,0.0353 -0.03528,0.28222 0.03528,0.56444 0.03528,0.28223 0.07055,0.70556 0.07055,0.9525 0,0 0.03528,0.42334 0.03528,0.42334 0,0 -0.881944,-0.0706 -0.881944,-0.0706 -2.645834,-0.21167 -2.398889,-0.14111 -2.681111,-0.635 -0.3175,-0.52917 -0.423334,-1.69333 -0.3175,-2.99861 0,0 0.105833,-0.84667 0.105833,-0.84667 0,0 0.635,-0.14111 0.635,-0.14111 0.670278,-0.14111 0.881944,-0.35278 0.881944,-0.88194 0,-0.10584 0.211667,-0.35278 0.458612,-0.56445 0.493888,-0.42333 0.917222,-0.49389 2.010833,-0.24694 0.564444,0.10583 0.635,0.10583 0.846666,-0.0706 0.246945,-0.24694 0.246945,-0.49389 0,-0.9525 -0.105833,-0.17639 -0.246944,-0.56444 -0.282222,-0.84666 -0.03528,-0.3175 -0.141111,-0.77611 -0.282222,-1.05834 -0.105833,-0.28222 -0.176389,-0.635 -0.176389,-0.77611 0,-0.21166 -0.07055,-0.24694 -0.458611,-0.28222 -0.246944,-0.0353 -0.635,-0.0706 -0.881944,-0.0353 -0.352778,0.0353 -0.423334,0.0706 -0.458611,0.3175 -0.03528,0.3175 -0.03528,0.3175 -1.058334,0.0706 -0.670278,-0.17639 -1.305278,-0.21167 -3.633611,-0.24695 -1.552222,-0.0353 -3.598333,-0.10583 -4.586111,-0.21166 -0.9525,-0.0706 -1.869722,-0.0706 -2.046111,-0.0353 -0.670278,0.17639 -0.881944,1.62278 -0.493889,3.13972 0.105834,0.42333 0.211667,0.98778 0.211667,1.23472 0,0.42334 -0.03528,0.52917 -0.670278,1.37584 -0.211667,0.28222 -0.705555,3.31611 -0.635,3.81 0.07056,0.35277 0.03528,0.38805 -0.246944,0.38805 -0.846667,0 -1.728611,-0.14111 -1.728611,-0.28222 0,-0.0706 0.246944,-0.42333 0.564444,-0.74083 0.352778,-0.3175 0.599722,-0.635 0.599722,-0.70556 0,-0.14111 -0.493889,0 -1.375833,0.38806 -0.423333,0.21166 -0.776111,0.38805 -0.811389,0.38805 -0.211667,0 0.246945,-1.94028 0.599722,-2.68111 0.105834,-0.24694 0.211667,-0.49389 0.176389,-0.56444 -0.105833,-0.24695 -0.917222,0.81139 -1.411111,1.83444 -0.282222,0.59972 -0.564444,1.05833 -0.599722,1.05833 -0.03528,0.0353 -0.07056,-0.24694 -0.105833,-0.56444 -0.105834,-0.88194 -0.246945,-0.91722 -0.458612,-0.21167 -0.105833,0.3175 -0.246944,0.59973 -0.3175,0.59973 -0.07056,0 -0.176388,-0.21167 -0.282222,-0.49389 -0.176389,-0.42334 -0.176389,-0.74084 -0.141111,-1.55223 0.03528,-0.91722 0.03528,-0.98777 -0.105833,-0.77611 -0.246945,0.28223 -0.388056,0.84667 -0.423334,1.79917 -0.105833,1.19944 -0.141111,1.23472 -0.493888,0.59972 -0.282223,-0.45861 -0.881945,-1.05833 -0.987778,-0.9525 -0.03528,0.0353 0,0.21167 0.03528,0.42334 0.07055,0.17638 0.105833,0.52916 0.105833,0.77611 0,0.38805 0,0.38805 -0.282222,0.3175 -0.176389,-0.0353 -0.423334,-0.21167 -0.599722,-0.38806 -0.388056,-0.35278 -0.529167,-0.38805 -0.458612,-0.0705 0.07056,0.21166 -0.07055,0.24694 -0.3175,0.10583 -0.246944,-0.14111 -0.388055,-0.9525 -0.282222,-1.65806 0,0 0.03528,-0.635 0.03528,-0.635 0,0 -0.246944,0.28223 -0.246944,0.28223 -0.246945,0.24694 -0.493889,1.05833 -0.493889,1.55222 0,0.17639 -0.211667,0.14111 -2.2225,-0.35278 -1.234722,-0.28222 -2.257778,-0.56444 -2.293056,-0.59972 -0.03528,-0.0353 0.07056,-0.3175 0.211667,-0.59972 0.352778,-0.635 0.282222,-0.77612 -0.176389,-0.52917 -0.176389,0.10583 -0.352778,0.14111 -0.423333,0.10583 -0.03528,-0.0353 -0.141111,-0.35278 -0.246945,-0.70555 -0.105833,-0.3175 -0.211666,-0.59973 -0.246944,-0.59973 -0.07056,0 -0.141111,0.24695 -0.176389,0.56445 -0.07056,0.81139 -0.282222,1.41111 -0.388056,1.27 -0.211666,-0.17639 -0.211666,-2.25778 -0.07055,-3.21028 0.105833,-0.49389 0.141111,-0.91722 0.141111,-0.9525 -0.03528,-0.0353 -0.141111,0.0353 -0.211667,0.17639 -0.352778,0.45861 -0.705555,1.34056 -0.846666,2.2225 -0.105834,0.49389 -0.176389,0.9525 -0.211667,0.9525 0,0.0353 -0.105833,-0.0706 -0.176389,-0.21167 -0.07055,-0.14111 -0.176389,-0.28222 -0.211667,-0.28222 -0.105833,0 -0.211666,0.38806 -0.211666,0.74083 -0.03528,0.45862 -0.423334,-0.56444 -0.493889,-1.23472 -0.03528,-0.3175 -0.105833,-0.56444 -0.141111,-0.56444 -0.105834,0 -0.3175,0.81139 -0.3175,1.30528 0,0.28222 -0.03528,0.49388 -0.105834,0.49388 -0.07055,0 -0.352777,-0.14111 -0.599722,-0.3175 -0.564444,-0.38805 -0.670278,-0.35277 -0.352778,0.10584 0.141112,0.17639 0.211667,0.35278 0.176389,0.38805 -0.03528,0.0353 -1.27,-0.10583 -2.716388,-0.35277 -2.469445,-0.35278 -2.681112,-0.42334 -2.681112,-0.59973 0,-0.14111 -0.246944,-0.52916 -0.564444,-0.91722 -0.811389,-0.9525 -1.128889,-1.94028 -1.128889,-3.45722 0,0 0,-1.12889 0,-1.12889 0,0 0.282222,0.17639 0.282222,0.17639 0.352778,0.14111 0.493889,0.10583 0.9525,-0.21167 0.388056,-0.3175 0.529167,-0.24694 1.058334,0.52917 0.3175,0.49389 0.352777,0.635 0.352777,1.23472 0,0.38806 -0.07056,0.9525 -0.141111,1.30528 -0.246944,0.9525 -0.246944,0.91722 0.352778,0.88194 0.458611,0 0.493889,-0.0353 0.564445,-0.35277 0,0 0.03528,-0.3175 0.03528,-0.3175 0,0 0.141111,0.38805 0.141111,0.38805 0.105834,0.21167 0.388056,0.56445 0.635,0.81139 0.246945,0.24694 0.529167,0.59972 0.635,0.81139 0.105834,0.17639 0.352778,0.42333 0.529167,0.52917 0.3175,0.17638 0.388056,0.17638 0.670278,0.0705 0.458611,-0.17639 0.599722,-0.56444 0.846666,-2.2225 0.105834,-0.84667 0.246945,-1.69333 0.3175,-1.905 0.07056,-0.21167 0.105834,-0.67028 0.105834,-1.05833 0,-0.77611 0.211666,-1.37584 0.493889,-1.41111 0.246944,0 0.493889,-0.17639 0.705555,-0.52917 0.282222,-0.45861 0.141111,-0.56444 -0.352778,-0.24694 -0.3175,0.21166 -0.493888,0.28222 -0.705555,0.21166 -0.176389,-0.0353 -0.564445,-0.10583 -0.881945,-0.14111 -0.352777,-0.0705 -0.599722,-0.17639 -0.705555,-0.28222 -0.388056,-0.49389 -1.728611,-3.42195 -2.293056,-5.00945 -0.599722,-1.69333 -0.599722,-1.69333 -1.305277,-2.36361 -0.388056,-0.35277 -1.058334,-0.84666 -1.516945,-1.12889 0,0 -0.811389,-0.49388 -0.811389,-0.49388 0,0 -2.610555,0 -2.610555,0 -3.421945,0 -7.478889,-0.14112 -8.5725,-0.3175 -0.458611,-0.0706 -1.164167,-0.14112 -1.622778,-0.10584 0,0 -0.740833,0 -0.740833,0 0,0 0,-48.083606 0,-48.083606 0,0 0,-48.083611 0,-48.083611 0,0 111.019172,0 111.019172,0 0,0 111.01916,0 111.01916,0 0,0 0,7.020278 0,7.020278 0,3.880556 0,7.020278 -0.0353,7.020278 -0.0353,0 -0.14111,-0.3175 -0.28222,-0.670278 -0.24694,-0.776111 -0.52917,-1.058333 -1.16417,-1.27 -0.49388,-0.141111 -0.88194,-0.03528 -2.99861,0.811389 0,0 -1.48166,0.564444 -1.48166,0.564444 0,0 -0.42334,0.740834 -0.42334,0.740834 -0.70555,1.164166 -1.44639,2.716388 -1.62277,3.351388 -0.14112,0.458612 -0.28223,0.635 -0.77612,1.023056 -0.74083,0.599722 -1.48166,1.516944 -1.65805,2.116667 -0.14111,0.529166 -0.42333,0.705555 -1.09361,0.776111 -0.56445,0.03528 -0.56445,0.03528 -0.45861,0.458611 0.14111,0.529166 0,0.740833 -0.74084,1.128889 -0.635,0.3175 -0.635,0.3175 -0.635,0.811389 0,0.246944 -0.0706,0.564444 -0.10583,0.705555 -0.14111,0.388056 -0.98778,1.340556 -1.44639,1.5875 -0.35278,0.211667 -0.42333,0.352778 -0.81139,1.340556 -0.10583,0.246944 -0.17639,0.493888 -0.28222,0.705555 -0.70555,1.5875 -1.62278,2.751667 -2.71639,3.457222 -0.56444,0.388056 -0.59972,0.388056 -0.38805,0.599722 0.21166,0.211667 0.21166,0.246945 0.0353,0.740834 -0.14111,0.529166 -0.42333,0.846666 -0.91722,1.023055 -0.49389,0.176389 -1.44639,2.786945 -2.92805,8.184445 -1.05834,3.704166 -1.79917,6.103055 -2.57528,7.761111 0,0 -0.24695,0.529166 -0.24695,0.529166 0,0 0.0353,-0.388055 0.0353,-0.388055 0.0353,-0.352778 0.0706,-0.564445 0.10584,-0.740834 0.3175,-1.5875 0.14111,-1.940277 0.21166,-2.116666 0.0353,-0.105834 0,-0.03528 0.0706,-0.07056 -0.0353,0 -0.0706,-0.03528 -0.0353,-0.07055 0,-0.03528 0.0353,0 0.0353,-0.03528 0,-0.03528 -0.0353,0 0,-0.07056 0,0 0,0 0.10583,-0.03528 -0.0353,-0.07055 -0.0706,-0.03528 -0.0353,-0.07055 0.0353,-0.07056 0.0353,0.03528 0.0706,-0.07056 0.0353,-0.03528 -0.0353,-0.105833 -0.0353,-0.141111 0.10583,-0.282222 -0.0353,-0.07055 0.10583,-0.282222 -0.0353,-0.105833 -0.0353,-0.03528 -0.0353,-0.105833 0,0 0.10583,-0.246945 0.17639,-0.3175 -0.0353,-0.07056 -0.0353,-0.07056 0,-0.141111 0.0353,-0.07056 0.0353,-0.03528 0.0705,-0.07056 -0.38805,-1.023055 0.14111,-0.776111 0.28222,-3.563055 0.0353,-0.07056 0.17639,-2.046112 -0.56444,-4.268611 -0.49389,-1.516945 -1.09361,-2.293056 -1.51695,-2.645834 -0.3175,-0.282222 -0.56444,-0.352777 -0.59972,-0.352777 -0.10583,0 -0.0353,0.03528 -0.10583,0.03528 -0.0353,0 -0.38806,-0.07055 -0.42333,-0.105833 -0.56445,-0.458611 -0.56445,-4.303889 -1.02306,-5.115278 0.10583,-0.246944 0.35278,-1.5875 0.42333,-2.046111 0.0353,-0.07055 0.38806,-1.869722 -1.23472,-2.575278 -0.28222,0.599723 -0.0353,2.504723 -0.38805,2.786945 -0.635,-0.211667 -0.88195,-0.282222 -0.98778,-0.458611 -0.10584,-0.03528 0,0 -0.17639,-0.03528 -0.84667,-3.139722 0.35278,-5.044722 0.91722,-4.833055 0.0706,0.07055 0.14111,0.141111 0.21167,0.423333 -0.0353,-1.411111 -1.09361,-0.564445 -1.5875,0.388055 -0.98778,1.940278 -0.35278,3.81 -0.42334,4.1275 -0.35277,-0.176389 -0.49388,-0.388055 -1.41111,-2.116666 -0.45861,-0.846667 -1.23472,-2.293056 -1.05833,-2.469445 0.10583,-0.105833 0.56444,0.176389 0.81139,0.246945 -0.45861,-0.458611 -0.84667,-0.635 -1.02306,-0.564445 -0.38805,0.176389 -0.17639,0.917223 0.3175,2.081389 0,0 0.28223,0.635 0.38806,0.846667 0.35278,0.846666 0.35278,0.705555 0.35278,0.917222 -0.67028,-0.388056 -0.59973,-0.846667 -1.05834,-1.305278 -0.14111,0.176389 -0.42333,0.458611 0.21167,1.5875 0.70556,1.305278 0.98778,1.305278 1.27,1.728611 -0.14111,0.03528 -0.10583,0.03528 -0.14111,0.07056 -0.21167,0.211667 -0.38806,0.670278 -0.635,1.023055 0.21167,0.03528 0,0 0.17639,0.03528 -0.0353,0.599722 0.14111,0.493889 0.14111,0.599722 0,0.03528 -0.10583,0.141111 0,0.776111 0,0.03528 -1.19945,1.763889 -1.19945,1.799167 0,1.516945 0.28223,1.058333 0.42334,1.305278 0.42333,0.740833 0.81139,0.881944 1.55222,0.423333 0.52917,-0.352778 1.09361,-0.246944 1.34056,-0.3175 0.21166,0.352778 0.35277,1.093611 0.3175,1.164167 -0.0353,0.105833 -0.91723,0.599722 -1.19945,1.340555 -0.0353,0.176389 -0.10583,0.529167 -0.52917,1.164167 -0.14111,0.176389 -1.05833,1.128889 -1.94027,2.8575 -0.0706,0.105833 -0.45861,0.9525 -0.49389,0.987778 -0.45861,0.987777 -0.49389,2.081389 -0.38806,2.575277 0.3175,1.128889 0.21167,2.504723 0.21167,2.54 0,0.03528 0.17639,1.799167 0.17639,1.834445 0,0.03528 0.0353,-0.03528 0.0705,0.141111 0.0353,0.211667 0,0.3175 -0.0353,0.352778 0.0353,0 0.0353,-0.03528 0.0705,0.03528 0.0706,0.141112 0.0706,0.776112 0.635,2.645834 0.70556,2.363611 0.81139,2.116666 0.77611,2.293055 0,0.07056 0,0.03528 -0.0353,0.03528 0.0353,0.07056 0.0706,0.07056 0.10584,0.3175 -0.0353,0 -0.0353,0.03528 -0.0706,0.03528 0,0 0,0 0,0 0,0 0,0.105833 0,0.105833 0,0 0.10584,-0.07055 0.10584,-0.07055 0,0 0.0353,0.141111 0.0353,0.176388 0,0.03528 0,0.03528 0,0.03528 0,0 -0.0705,0.07056 -0.0705,0.07056 0,0 0,0.03528 0,0.03528 0,0 0,0 0,0 0.0353,0 0.0705,0.03528 0.0705,0.105833 0,0 0,0.03528 0,0.03528 0,0.03528 0,0.03528 -0.0353,0.03528 0,0 0,0 0,0 0,0 0.45861,1.869716 0.45861,1.869716 0,0 -0.0353,0.0706 -0.0353,0.0706 -0.52917,0.88194 -1.44639,2.57528 -1.905,3.56306 -1.12889,2.36361 -1.97556,4.55083 -2.61056,6.91444 -0.81139,2.99861 -1.30527,6.27944 -1.65805,10.512779 -0.28222,3.28083 -0.45861,4.69194 -0.81139,5.96194 -0.14111,0.56445 -0.3175,1.02306 -0.3175,1.05834 -0.0353,0.0706 -0.21167,0.0353 -0.45861,0 -0.21167,-0.0353 -0.38806,-0.0706 -0.42334,-0.0706 0,0 0.0706,0.24694 0.14112,0.49389 0.21166,0.635 0.14111,1.27 -0.24695,1.86972 -0.24694,0.42333 -0.28222,0.45861 -0.67028,0.38806 0,0 -0.42333,-0.0353 -0.42333,-0.0353 0,0 0.0706,0.70555 0.0706,0.70555 0.0705,0.70556 0.0353,0.77611 -0.38806,1.86973 -0.28222,0.59972 -0.59972,1.41111 -0.74083,1.79916 -0.21167,0.59972 -0.84667,1.51695 -1.09361,1.55222 -0.0353,0 -0.21167,0 -0.42334,0.0353 -0.17639,0 -0.38805,0.0353 -0.49389,0.10584 -0.14111,0.10583 -0.10583,0.14111 0.10584,0.3175 0,0 0.24694,0.21166 0.24694,0.21166 0,0 -0.3175,0.3175 -0.3175,0.3175 -0.14111,0.17639 -0.35278,0.3175 -0.45861,0.3175 -0.38806,0 -1.16417,0.35278 -1.48167,0.67028 -0.67027,0.74083 -3.52777,6.06778 -4.72722,8.92528 -1.23472,2.89278 -2.04611,5.46805 -2.39889,7.58472 -0.10583,0.67028 -0.21166,1.27 -0.21166,1.34056 0,0.0353 -0.21167,0.0705 -0.45862,0.0705 -0.38805,-0.0353 -0.45861,-0.0353 -0.49388,0.21167 -0.0706,0.56444 -0.84667,1.09361 -3.175,2.25778 -0.635,0.3175 -1.12889,0.56444 -1.5875,0.77611 0,0 -0.35278,0.14111 -0.35278,0.14111 z m 4.23333,-27.83417 c -0.0353,-0.0706 -0.0706,-0.14111 -0.0706,-0.17639 0,-0.0705 0.17638,-0.38805 -0.0353,-0.52916 -0.0706,-0.0353 -0.45861,-0.10584 -0.49389,-0.52917 0,-0.35278 0.3175,-0.3175 -0.35278,-0.91722 0.0706,-1.12889 1.41111,0.10583 1.55222,1.62277 0.0353,0.70556 -0.0705,1.16417 0.0353,1.62278 0.14111,0.45861 -0.14111,0.35278 0.0353,0.91722 0.10583,0.38806 0.14111,-0.10583 0.21167,0.67028 0.0353,0.14111 0.45861,0.74084 0.35277,1.09361 -0.14111,0.49389 -0.28222,0.81139 -0.35277,0.77611 -0.17639,-0.0705 0.14111,-0.3175 -0.0706,-0.88194 -0.52917,-1.44639 -0.0706,-0.91722 -0.42333,-1.55222 -0.0706,-0.14111 -0.0353,0.10583 -0.10584,-1.37584 0,-0.0705 -0.21166,-0.49388 -0.28222,-0.74083 z m 1.62278,10.97139 c 0,0.0353 -0.0353,0.10583 -0.10583,0.14111 -0.24695,0.14111 -0.635,-0.45861 -0.56445,-0.67028 0.0353,-0.0353 0.10583,-0.0705 0.10583,-0.0705 0.17639,-0.0353 0.59973,0.35278 0.56445,0.59972 z m -2.78695,-3.88056 c 0,0.0706 0.0353,0.17639 0.14112,0.35278 0.21166,0.28222 0.49388,0.35278 0.45861,0.45861 0,0.0353 -0.0706,0.21167 -0.49389,0 -0.35278,-0.21166 -0.45861,-0.74083 -0.28222,-0.84666 0.0353,-0.0353 0.10583,0 0.14111,0 0,0.0353 0,0.0353 0.0353,0.0353 z m -1.23472,-10.86555 c 0,-0.0706 0.0706,-0.17639 0.21167,-0.21167 0.56444,0.14111 0.56444,0.59973 0.84667,0.81139 0.0705,0.0353 0.59972,0.38806 0.21166,0.635 -0.10583,-0.0353 0,0 -0.635,-0.56444 -0.10583,-0.10584 -0.59972,-0.45861 -0.635,-0.56445 0,-0.0353 -0.0353,-0.0705 0,-0.10583 z m 1.41111,10.795 c 0.0353,-0.0353 0.0353,-0.0706 0.10584,-0.10583 0.28222,-0.21167 0.74083,0.49388 0.59972,0.70555 -0.24695,0.28222 -0.77611,-0.28222 -0.70556,-0.59972 z m -73.55416,29.31583 c 0,0 0.10583,-0.21166 0.10583,-0.21166 0.14111,-0.28223 0.24695,-0.52917 0.38806,-0.77612 0.35277,-0.77611 0.67027,-1.55222 0.77611,-2.01083 0.14111,-0.77611 0.17639,-0.84667 0.3175,-0.52917 0.0706,0.21167 0.28222,1.05834 0.42333,1.86973 0.24695,1.19944 0.3175,1.79916 0.24695,2.92805 0,0 -0.0353,0.10584 -0.0353,0.10584 0,0 -0.14111,0.10583 -0.14111,0.10583 0,0 -0.21167,-0.42333 -0.21167,-0.42333 -0.14111,-0.24695 -0.28222,-0.45862 -0.35278,-0.49389 -0.0705,0 -0.24694,0.24694 -0.38805,0.56444 -0.3175,0.67028 -0.49389,0.77611 -0.49389,0.24695 0,-0.45862 0.21166,-1.05834 0.56444,-1.5875 0.17639,-0.21167 0.28222,-0.42334 0.24695,-0.45862 -0.0706,-0.0706 -0.56445,0.17639 -0.98778,0.52917 -0.21167,0.17639 -0.28222,0.21167 -0.42334,0.17639 0,0 -0.0353,-0.0353 -0.0353,-0.0353 z m -0.17639,-4.65666 c -0.17639,0.3175 -0.38806,0.635 -0.52917,0.91722 -0.52916,0.81139 -0.67028,1.09361 -0.70555,1.905 -0.0353,0.59972 0,1.41111 0.0353,2.11666 0,0 0.0353,0.24695 0.0353,0.24695 0,0 0,0 0,0 -0.0353,-0.0353 -0.0353,-0.0706 -0.0705,-0.14111 -0.14111,-0.35278 -0.24695,-0.3175 -0.45861,0.0353 -0.17639,0.3175 -0.17639,0.3175 -0.35278,-0.56445 -0.24695,-0.91722 -0.88195,-1.94028 -0.88195,-1.37583 0,0.3175 -0.21166,1.48166 -0.3175,1.62278 -0.0353,0.10583 -0.17638,0.10583 -0.49388,-0.0706 0,0 -0.17639,-0.10583 -0.17639,-0.10583 0,0 -0.0353,0 -0.0353,0 -0.35278,0.0353 -1.27,-0.3175 -1.72861,-0.635 0,0 -0.10584,-0.0706 -0.10584,-0.0706 0,0 -0.28222,-0.0705 -0.28222,-0.0705 0,0 -0.56444,-0.17639 -0.56444,-0.17639 0,0 0.17638,-0.21167 0.17638,-0.21167 0.3175,-0.35278 0.70556,-0.81139 1.19945,-1.34056 0,0 1.5875,-1.76388 1.5875,-1.76388 0,0 -0.0705,-0.77612 -0.0705,-0.77612 -0.0353,-0.77611 -0.0353,-0.77611 0.28222,-0.59972 0.28222,0.21167 0.35278,0.17639 0.49389,0 0.10583,-0.10583 0.17639,-0.38805 0.17639,-0.56444 -0.0353,-0.17639 -0.0353,-0.42334 -0.0353,-0.49389 0.0353,-0.21167 0.49389,0.28222 0.70555,0.77611 0.10584,0.28222 0.28223,0.49389 0.38806,0.49389 0.21167,0 0.74083,-0.56445 0.74083,-0.77611 0,-0.28222 1.23472,-1.34056 1.44639,-1.27 0.3175,0.10583 0.24695,1.16416 -0.0706,2.04611 -0.10583,0.21167 -0.24694,0.52917 -0.38805,0.84667 z M 232.5025,67.133299 c 0,0.03528 0,0.03528 0,0.03528 -0.0705,0.07056 -0.0705,0.07056 -0.0705,0.07056 0.0353,-0.176389 0.10583,-0.211667 0.10583,-0.211667 0,0 0,0 0,0 0,0.03528 0,0.07055 -0.0353,0.105833 z m -0.17639,10.512778 c 0,0 0,0.07055 0,0.07055 0,0 0,0.03528 -0.0353,0.03528 -0.0353,0 -0.0353,0 -0.0706,0 0,0 0,0 0,0 0,0 0.10583,-0.105833 0.10583,-0.105833 z m -1.27,0.917224 c 0,0 0.35278,0.91722 0.35278,0.91722 0,0 0.98778,0 0.98778,0 0,0 0,-1.834444 0,-1.834444 0,0 0,-0.03528 0,-0.03528 0,0 0.56444,-0.458611 0.56444,-0.458611 0.45861,-0.458611 0.74084,-0.811389 0.9525,-1.164167 0,0 0.24695,-0.493889 0.24695,-0.493889 0,0 -0.35278,-0.282222 -0.35278,-0.282222 0,0 -0.3175,-0.282222 -0.3175,-0.282222 0,0 1.05833,-0.776111 1.05833,-0.776111 0.59973,-0.423334 1.62278,-1.164167 2.25778,-1.658056 0.67028,-0.529166 1.27,-0.9525 1.41111,-0.987777 0.21167,-0.03528 0.24695,-0.141112 0.24695,-0.599723 0,-0.811389 0.17639,-1.340555 0.59972,-1.728611 0.42333,-0.423333 0.42333,-0.564444 0.0705,-0.987778 -0.28222,-0.352777 -0.49388,-0.423333 -0.70555,-0.176388 -0.45861,0.564444 -0.49389,0.599722 -0.9525,0.529166 -0.24695,-0.03528 -0.45861,-0.105833 -0.49389,-0.105833 0,0 0.3175,-0.811389 0.70556,-1.799167 0.49388,-1.305277 0.81138,-1.940277 1.09361,-2.2225 0.21166,-0.246944 0.59972,-0.740833 0.84666,-1.164166 0.42334,-0.635 0.52917,-0.705556 0.81139,-0.705556 0.17639,0 0.56445,-0.03528 0.81139,-0.07055 0,0 0.49389,-0.07056 0.49389,-0.07056 0,0 0,-0.423333 0,-0.423333 0,-0.776111 0.67028,-1.481667 1.51694,-1.622778 0.0706,-0.03528 0.14112,-0.03528 0.21167,-0.03528 0.9525,0 1.27,1.305278 0.98778,4.198056 -0.10583,1.023055 -0.14111,1.940277 -0.14111,2.081389 0.0353,0.211666 0.0705,0.176388 0.3175,-0.176389 0.21166,-0.388056 0.38805,-0.458611 1.30528,-0.811389 0.88194,-0.3175 1.05833,-0.423334 1.19944,-0.670278 0.45861,-0.917222 1.02305,-1.658056 1.48167,-1.905 0,0 0.49388,-0.282222 0.49388,-0.282222 0,0 -0.35277,0.599722 -0.35277,0.599722 -1.55222,2.786944 -5.36222,7.655278 -6.91445,8.819444 -0.49389,0.352778 -0.52916,0.423334 -0.45861,0.740834 0,0.03528 0,0.07055 0,0.105833 0,0.564444 -0.91722,1.375833 -2.8575,2.610555 -2.43416,1.552223 -4.65666,3.033891 -5.64444,3.845281 -1.76389,1.41111 -2.82222,2.78694 -2.82222,3.63361 0,0.74083 0.59972,1.41111 1.23472,1.41111 0.35278,0 0.52916,-0.14111 0.88194,-0.81139 0.3175,-0.56444 0.52917,-0.635 0.84667,-0.28222 0.52917,0.59972 -0.17639,1.09361 -2.54,1.69333 0,0 -1.41111,0.35278 -1.41111,0.35278 0,0 -0.84667,0.84667 -0.84667,0.84667 -0.52917,0.52917 -1.23472,1.09361 -1.76389,1.41111 -0.84666,0.49389 -1.16416,0.635 -0.91722,0.42333 0.9525,-0.77611 2.11667,-1.905 2.25778,-2.15194 0.24694,-0.49389 0.10583,-0.81139 -1.02306,-1.905 -1.19944,-1.12889 -1.37583,-1.51695 -0.9525,-1.97556 0.14111,-0.14111 1.23472,-0.91722 2.46945,-1.69333 0.98777,-0.635 1.79916,-1.19944 2.46944,-1.65806 0,0 0.28222,-0.21166 0.28222,-0.21166 z m 1.12889,-0.776113 c 0,0.03528 -0.0353,0.03528 -0.0705,0.03528 0,0 0,0 0,0 0,0 0.0705,-0.07056 0.0705,-0.07056 0,0 0,0.03528 0,0.03528 z m -4.51555,-1.093611 c 0,0 0.14111,-0.246945 0.14111,-0.246945 0.0353,-0.07055 0.0353,-0.105833 0.0705,-0.105833 0,0 0,0 0,0 0,0 0.0353,-0.07056 0.0353,-0.07056 0,0 0,0 0,0 0.0353,-0.141111 0.17639,-0.458611 0.24695,-0.635 0,0 0.0705,0 0.0705,0 0,0 0.0353,-0.07055 0.0353,-0.07055 0,0 0,-0.03528 0,-0.03528 0.0706,-0.458611 0.81139,-1.728611 0.98778,-2.54 0.0353,-0.211667 0.28222,-1.058333 0.35277,-1.093611 0.0706,-0.03528 0.0706,0.03528 0.10584,0 0.0353,0 0,0 0.10583,-0.03528 0,0 0.14111,0.670278 0.14111,0.705556 0,0.07055 0,0.03528 -0.0705,0.03528 0.14111,0.176388 0.17639,0.388055 0.10583,0.564444 0.10583,0.07056 0.0353,-0.03528 0.0706,0.105833 0.0353,0.141111 0.24694,0.987778 0.17638,1.234723 0.0706,0.03528 0.0706,0.176388 0.10584,0.388055 0,0 0,0.141111 0,0.141111 0,0 -0.0353,0.03528 -0.0353,0.03528 -0.52917,0.458611 -1.12889,0.846667 -1.86972,1.199444 -0.14111,0.105834 -0.3175,0.176389 -0.45861,0.246945 0,0 -0.3175,0.176389 -0.3175,0.176389 z m 3.10444,61.171663 c -0.0353,-0.0353 -0.0353,-0.0353 -0.0353,-0.0705 -0.0353,-0.0706 0.0706,-0.17639 0.24695,-0.35278 0.635,-0.56445 1.16416,-0.67028 1.30528,-0.24695 0.17638,0.42334 -0.0706,0.84667 -0.49389,0.98778 -0.0353,0 -0.10584,0 -0.17639,0 -0.10584,0 -0.35278,-0.0353 -0.52917,-0.14111 -0.17639,-0.0706 -0.28222,-0.10583 -0.3175,-0.17639 z m -0.0353,2.39889 c 0,0.0706 -0.3175,0.0353 -1.09361,-0.17639 -0.52916,-0.10583 -0.9525,-0.24694 -0.9525,-0.28222 0,-0.10583 0.17639,-0.3175 0.3175,-0.38806 0.0706,-0.0353 0.10584,-0.0353 0.14111,-0.0353 0.35278,0 1.12889,0.35277 1.41111,0.635 0.14112,0.14111 0.21167,0.21166 0.17639,0.24694 z m -3.98639,2.75167 c 0,-0.0353 0.0706,-0.0706 0.17639,-0.0706 1.05834,-0.21167 1.79917,-0.42333 2.36361,-0.70555 0,0 0.67028,-0.3175 0.67028,-0.3175 0,0 0.0706,0.38805 0.0706,0.38805 0.10583,0.56445 0.21166,0.77611 0.45861,0.77611 0.24694,0 0.56444,0.35278 0.88194,1.02306 0.17639,0.3175 0.28223,0.59972 0.28223,0.59972 0,0.0706 -0.42334,0.14111 -0.88195,0.17639 -0.17639,0 -0.35278,-0.0706 -0.49389,-0.24695 -0.21166,-0.17638 -0.3175,-0.21166 -1.09361,-0.21166 0,0 -0.88194,0 -0.88194,0 0,0 -0.0353,-0.35278 -0.0353,-0.35278 -0.0353,-0.42333 -0.17639,-0.52917 -0.98778,-0.84667 -0.38805,-0.14111 -0.56444,-0.17639 -0.52917,-0.21166 z m -5.32694,-36.58306 c -0.24694,0.59972 -0.42333,0.67028 -0.74083,0.35278 -0.28223,-0.24694 -0.56445,-0.84667 -0.81139,-1.65806 -0.49389,-1.69333 -0.0706,-2.43416 0.84666,-1.37583 0.56445,0.635 0.84667,1.37583 0.84667,2.04611 -0.0353,0.24695 -0.0705,0.45861 -0.14111,0.635 z m 7.26722,31.64417 c -0.24694,0.17639 -0.77611,0.35278 -1.48166,0.42333 -0.67028,0.10583 -0.9525,0.14111 -0.9525,0.0353 0,-0.10583 0.17638,-0.28222 0.49388,-0.59972 0.70556,-0.74084 0.91723,-1.09361 0.81139,-1.55223 -0.0353,-0.21166 0,-0.28222 0.21167,-0.38805 0.67028,-0.3175 1.34056,0.81139 1.05833,1.86972 0,0.0706 -0.0705,0.14111 -0.14111,0.21167 z m -2.18722,-64.981667 c 0,0.246945 -0.0353,0.705556 -0.0706,1.023056 -0.0353,0.282222 -0.0705,0.493889 -0.0705,0.493889 0,0.07055 0.0353,0 0.0353,0.07055 0,0.03528 -0.10584,0.987778 -0.24695,1.164167 0,0.352778 -0.52916,1.516945 -0.635,1.622778 0,0.211667 -0.0705,0.246944 -0.10583,0.246944 0,0 0,0 0,0 0,0 0,0.141111 -0.0706,0.211667 -0.0705,0.07055 -0.0705,0 -0.10583,0 0,0.141117 0,0.141117 0,0.141117 0,0 -0.10583,-0.0706 -0.14111,-0.176395 0,-0.07055 -0.0353,-0.105833 -0.0353,-0.176389 0,-0.599722 0.635,-1.622777 0.56445,-2.363611 -0.0706,-0.987778 -0.0353,-3.175 0.14111,-3.245555 0,0 0.52916,0.03528 0.52916,0.03528 0.0706,0 0,-0.03528 0.0706,0.07055 0.10583,0.03528 0.0353,0 0.10583,0 -0.0705,0.105833 -0.0705,0.105833 -0.0705,0.141111 0.0353,0.07056 0.0705,-0.03528 0.0705,0.07056 0,0.03528 -0.0705,0.07055 -0.10583,0.105833 0,0.07056 0,0 -0.0353,0.176389 0.0353,0 0,0 0.10583,0 -0.0353,0.105833 0,0.105833 0,0.105833 0,0 0,0 0,0 0.0353,0.03528 0.0353,0 0.0706,0.07056 0,0.03528 0,0.105833 0,0.211666 z m 18.59139,59.478327 c -0.17639,0 -0.38806,0 -0.67028,0.0353 -0.67028,0.0353 -1.16417,0.0353 -1.12889,-0.0353 0.0706,-0.0353 0.84667,-0.56444 1.76389,-1.16416 1.02306,-0.67028 1.55222,-0.9525 2.11667,-1.19945 0.21166,-0.10583 0.42333,-0.17639 0.635,-0.24694 0,0 1.09361,-0.35278 1.09361,-0.35278 0,0 -0.74084,0.74083 -0.74084,0.74083 -0.42333,0.42334 -1.02305,1.19945 -1.37583,1.72862 -0.3175,0.49388 -0.635,0.91722 -0.67028,0.91722 -0.0353,0 -0.17638,-0.10584 -0.28222,-0.21167 -0.14111,-0.17639 -0.21166,-0.21167 -0.74083,-0.21167 z m 12.48833,-91.722215 c 0,0.246945 0,0.564445 0,0.917223 0,0 0,2.504722 0,2.504722 0,0 -0.24694,0.03528 -0.24694,0.03528 -0.24695,0.03528 -1.16417,0 -2.15195,-0.105833 -0.17639,0 -0.3175,-0.03528 -0.42333,-0.03528 -0.0706,-0.03528 -0.14111,-0.07055 -0.14111,-0.07055 0,-0.03528 0.14111,-0.388056 0.35278,-0.776111 0.88194,-1.763889 1.02305,-2.892778 0.42333,-3.527778 -0.24695,-0.282222 -0.3175,-0.423333 -0.35278,-1.058333 -0.0353,-0.881945 -0.10583,-0.881945 1.27,-0.246945 1.19945,0.564445 1.27,0.458611 1.27,2.363611 z M 246.7547,107.4558 c -0.0353,0.0706 -0.0705,0.14111 -0.14111,0.17639 -0.24694,0.10583 -0.77611,0.0705 -1.34055,-0.10584 -0.28222,-0.0706 -0.52917,-0.17639 -0.52917,-0.24694 0,-0.24695 1.37583,-0.42333 1.79917,-0.21167 0.14111,0.0706 0.21166,0.24695 0.21166,0.38806 z m 10.16,53.86916 c 0,0 -7.26722,1.27 -7.26722,1.27 0,0 -2.8575,-3.84527 -2.8575,-3.84527 0,0 -1.51694,-4.86834 -1.51694,-4.86834 0,0 1.30528,-1.5875 1.30528,-1.5875 1.34055,-1.62278 2.11666,-2.29305 2.61055,-2.29305 0.24694,0 0.84667,-0.52917 3.24556,-2.89278 2.46944,-2.36361 4.86833,-4.55083 5.11527,-4.55083 0,0 0.0353,2.78694 0.0353,6.17361 0,3.38666 -0.0353,6.13833 -0.0705,6.13833 -1.05834,-0.56444 -2.2225,-1.05833 -2.68112,-1.16417 -0.3175,-0.0353 -1.62277,-0.14111 -2.8575,-0.21166 -1.27,-0.0706 -2.32833,-0.14111 -2.39888,-0.17639 -0.0353,-0.0706 0.0353,-0.35278 0.14111,-0.67028 0.24694,-0.635 0.24694,-1.23472 0,-1.41111 -0.0353,-0.0353 -0.14111,-0.0353 -0.28223,0 -0.42333,0.0705 -1.16416,0.42333 -1.76388,0.81139 -0.74084,0.52916 -1.23473,1.16416 -1.30528,1.76389 -0.0706,0.35277 -0.0353,0.45861 0.24694,0.74083 0.17639,0.17639 0.52917,0.38806 0.77611,0.45861 0.74084,0.17639 2.75167,0.24695 4.7625,0.17639 1.79917,-0.10583 1.86973,-0.10583 2.04611,0.10583 0.17639,0.24695 0.70556,0.42334 1.19945,0.42334 0.17639,0 0.67028,1.86972 1.51694,5.60916 z m -44.94388,-19.54389 c 0,0.0353 -0.0706,0.10584 -0.21167,0.21167 -0.28222,0.17639 -1.44639,0.52917 -1.79917,0.56445 -0.10583,0 -0.17639,-0.0353 -0.17639,-0.10584 0,-0.28222 1.76389,-0.91722 2.08139,-0.77611 0.0706,0.0353 0.10584,0.0706 0.10584,0.10583 z m -4.86834,4.1275 c 0.91722,-0.59972 1.83445,-1.05833 4.26861,-2.08138 3.175,-1.37584 4.02167,-1.905 4.02167,-2.46945 0,-0.14111 -0.0706,-0.35278 -0.17639,-0.42333 -0.28222,-0.24695 -0.67028,-0.17639 -1.55222,0.24694 -0.3175,0.17639 -0.635,0.28222 -0.67028,0.28222 -0.10583,-0.10583 0.38806,-0.70555 1.09361,-1.37583 0.38806,-0.35278 0.67028,-0.70555 0.67028,-0.81139 0,-0.21166 -0.45861,-0.42333 -0.88194,-0.42333 -0.17639,0 -0.35278,-0.24695 -0.81139,-1.12889 -0.56445,-1.12889 -1.19945,-1.86972 -1.5875,-1.86972 -0.0706,0 -0.49389,0.10583 -0.91723,0.21166 0,0 -0.77611,0.21167 -0.77611,0.21167 0,0 0,-0.24694 0,-0.24694 0,-0.28223 -0.21166,-0.52917 -0.59972,-0.70556 -0.35278,-0.21167 -1.30528,-0.42333 -1.76389,-0.42333 -0.35278,0 -0.35278,-0.0353 -0.10583,-1.27 0.28222,-1.16417 0.59972,-2.15195 1.55222,-4.65667 0.9525,-2.43417 0.98778,-2.54 0.77611,-2.96333 -0.17639,-0.3175 -0.24694,-0.35278 -0.67028,-0.35278 -0.49388,0 -0.59972,-0.10583 -0.35277,-0.56444 0.21166,-0.38806 1.86972,-2.25778 3.42194,-3.84528 1.44639,-1.48167 1.44639,-1.51695 1.34056,-1.83445 -0.0706,-0.17639 -0.10584,-0.42333 -0.0706,-0.56444 0.28222,-1.16417 3.4925,-2.71639 4.23333,-2.04611 0.10584,0.10583 0.21167,0.17639 0.21167,0.14111 0.0353,-0.0353 0.14111,-0.24695 0.24695,-0.45861 0.3175,-0.59972 1.12888,-1.41111 1.72861,-1.65806 0.45861,-0.24694 1.37583,-0.3175 1.62277,-0.17639 0.0353,0.0353 0.0353,0.0706 0.0353,0.10584 0,0.0705 -0.0353,0.14111 -0.10583,0.21166 -0.0706,0.14111 -0.17639,0.49389 -0.21167,0.77611 -0.0705,0.49389 -0.0705,0.52917 -0.70555,0.81139 -0.81139,0.42334 -1.76389,1.12889 -2.43417,1.79917 -0.49389,0.52917 -1.12889,1.65806 -1.12889,2.01083 0,0.35278 -0.28222,0.49389 -1.34055,0.56445 -0.52917,0.0353 -1.05834,0.10583 -1.12889,0.17639 -0.17639,0.10583 -0.0353,0.42333 0.42333,0.91722 0,0 0.38806,0.45861 0.38806,0.45861 0,0 1.19944,0 1.19944,0 1.23472,0 1.76389,0.10583 1.94028,0.42333 0.14111,0.3175 0.10583,0.84667 -0.10584,1.51695 -0.14111,0.35278 -0.21166,0.635 -0.21166,0.67028 0,0.0705 0.70555,0.0353 1.27,-0.0706 0.3175,-0.0706 0.67028,-0.21167 0.77611,-0.3175 0.35278,-0.3175 0.67028,-0.24694 1.02305,0.10583 0,0 0.3175,0.35278 0.3175,0.35278 0,0 0.88195,-0.0705 0.88195,-0.0705 0,0 0.91722,-0.0706 0.91722,-0.0706 0,0 0.0353,0.49389 0.0353,0.49389 0.10583,0.67028 0.3175,0.88194 0.84667,0.88194 0.38805,0 0.38805,0.0353 0.38805,0.35278 0,0.42333 -0.21167,0.77611 -0.67028,0.98778 -0.45861,0.24694 -1.76389,1.19944 -1.76389,1.34055 0,0.0353 0.59973,0.24695 1.30528,0.49389 0,0 1.27,0.38806 1.27,0.38806 0,0 -0.45861,0.10583 -0.45861,0.10583 -1.34055,0.35278 -2.43417,1.48167 -2.43417,2.46945 0,0.635 0.0706,0.635 1.83445,0.0705 2.75167,-0.91722 8.67833,-3.24555 11.71222,-4.65666 0.67028,-0.3175 0.81139,-0.35278 0.77611,-0.21167 -0.0353,0.10583 -0.21166,0.81139 -0.42333,1.55222 -0.52917,1.97556 -0.84667,2.46945 -1.55222,2.61056 0,0 -0.35278,0.0705 -0.35278,0.0705 0,0 0,-0.49389 0,-0.49389 0,-0.56444 -0.24695,-0.81139 -0.81139,-0.81139 -0.38806,0 -2.32833,0.77612 -6.17361,2.43417 -3.52778,1.55222 -3.59833,1.62278 -2.99861,2.15195 0.17639,0.14111 0.38805,0.3175 0.49389,0.38805 0.10583,0.0353 0.17639,0.10583 0.14111,0.14111 0,0.0353 -0.52917,0.17639 -1.12889,0.3175 -0.59972,0.17639 -1.55222,0.49389 -2.15195,0.74084 0,0 -1.05833,0.45861 -1.05833,0.45861 0,0 -0.74083,1.12889 -0.74083,1.12889 -0.38806,0.59972 -0.88195,1.37583 -1.05834,1.72861 -0.24694,0.42333 -0.49388,0.70555 -0.91722,0.9525 -0.49389,0.3175 -0.56444,0.38805 -0.67028,0.98777 -0.17638,0.77612 -0.70555,2.15195 -1.05833,2.78695 -0.14111,0.28222 -0.56444,0.91722 -0.9525,1.48167 -0.56444,0.81138 -0.67028,1.05833 -0.67028,1.44638 0,0.67028 0.28223,0.88195 1.44639,1.09362 0,0 0.9525,0.21166 0.9525,0.21166 0,0 0.35278,0.67028 0.35278,0.67028 0.38806,0.70556 0.38806,0.70556 0.91722,0.84667 1.37584,0.28222 4.19806,1.62277 4.93889,2.32833 0.49389,0.45861 0.49389,0.49389 -0.17639,2.2225 -0.24694,0.635 -0.49389,1.41111 -0.56444,1.72861 -0.14111,0.56445 -0.14111,0.635 0.0705,0.91722 0.17639,0.21167 0.3175,0.28223 0.59973,0.28223 0.3175,0 0.35277,-0.0353 0.67027,-0.635 0.28223,-0.56445 0.35278,-0.635 0.52917,-0.56445 0.10583,0.0353 0.28222,0.17639 0.38806,0.28222 0.28222,0.35278 0.38805,0.28223 0.42333,-0.35277 0.0705,-0.91723 0.635,-1.48167 1.5875,-1.62278 0.14111,0 0.28222,-0.0353 0.42333,-0.0353 0.74084,0 1.05834,0.17639 1.05834,0.52917 0,0.10583 -0.28223,0.45861 -0.59973,0.74083 0,0 -0.56444,0.52917 -0.56444,0.52917 0,0 0.3175,0.10583 0.3175,0.10583 0.17639,0.0706 0.49389,0.14111 0.70555,0.14111 0.17639,0 0.35278,0.0353 0.38806,0.10583 0.0353,0.0353 0,0.10584 -0.10583,0.10584 -0.3175,0 -1.23473,0.45861 -1.48167,0.74083 -0.17639,0.17639 -0.3175,0.635 -0.52917,1.62278 -0.14111,0.77611 -0.21166,1.44639 -0.17639,1.48166 0.21167,0.21167 0.9525,0.28223 1.76389,0.14112 0.49389,-0.0353 0.9525,-0.0706 1.02306,-0.0353 0.10583,0.0353 0.21167,0.21166 0.24694,0.38805 0.0353,0.28223 0.10584,0.3175 0.77611,0.42334 0.56445,0.10583 0.91723,0.10583 1.76389,0 0.56445,-0.0706 1.30528,-0.10584 1.5875,-0.0706 0.635,0.10583 2.11667,0.49389 2.25778,0.59972 0.0353,0.0353 0,0.35278 -0.10583,0.70556 -0.0706,0.35278 -0.17639,0.88194 -0.21167,1.16417 -0.10583,0.9525 -0.52917,1.79916 -1.12889,2.2225 -0.74083,0.56444 -7.19666,-0.0706 -7.40833,-0.52917 -0.28222,-0.59972 -1.09361,-1.34056 -1.62278,-1.48167 -0.45861,-0.10583 -0.45861,-0.10583 -0.59972,-0.77611 -0.17639,-0.74083 -0.56445,-1.19944 -1.27,-1.41111 -1.55222,-0.42333 -2.75167,0.49389 -4.05695,3.03389 -0.3175,0.635 -0.3175,0.67028 -1.27,1.09361 -0.52916,0.24694 -1.09361,0.49389 -1.23472,0.52917 -0.24694,0.0353 -0.52916,0.59972 -0.74083,1.44639 -0.0353,0.10583 -1.51695,-0.52917 -4.40972,-1.97556 0,0 0.56444,-0.635 0.56444,-0.635 0.3175,-0.3175 0.56445,-0.67028 0.56445,-0.77611 0,-0.14111 0.28222,-0.42333 0.91722,-0.81139 0,0 0.91722,-0.635 0.91722,-0.635 0,0 0,-1.34056 0,-1.34056 -0.0353,-1.05833 0,-1.44638 0.14111,-1.83444 0.49389,-1.23472 0.52917,-1.41111 0.45861,-2.39889 -0.0706,-0.9525 -0.3175,-2.43416 -0.38805,-2.54 -0.0706,-0.0705 -2.82223,0.21167 -3.24556,0.3175 -0.88194,0.24695 -1.65805,1.05834 -4.93889,5.43278 -1.27,1.69333 -2.57528,3.38667 -2.89278,3.73944 -0.59972,0.635 -1.16416,1.02306 -2.43416,1.34056 -1.27,0.35278 -3.21028,0.635 -6.52639,1.05833 -3.21028,0.42334 -4.09222,0.59972 -4.40972,0.88195 -0.24695,0.24694 -0.67028,1.02305 -1.86972,3.70416 -1.37584,2.99861 -5.92667,3.66889 -5.92667,3.4925 0,-0.14111 -1.37583,-1.09361 -1.69333,-1.48166 -0.14112,-0.21167 -0.635,-0.59973 -1.05834,-0.91723 -0.42333,-0.28222 -0.81139,-0.56444 -0.81139,-0.59972 0,0 0.21167,-0.3175 0.45861,-0.67028 0.67028,-1.02305 1.05834,-1.76388 1.05834,-2.2225 0,-0.84666 -0.635,-0.81138 -1.51695,0.10584 -0.77611,0.77611 -1.44639,1.97555 -1.86972,3.175 -0.14111,0.49389 -0.3175,0.9525 -0.3175,0.9525 -0.0353,0.0353 -0.28222,-0.17639 -0.52917,-0.49389 0,0 -0.52916,-0.56445 -0.52916,-0.56445 0,0 0.0353,-0.9525 0.0353,-0.9525 0,-0.88194 0.0353,-0.98777 0.28222,-1.23472 0.14111,-0.14111 0.45861,-0.3175 0.70555,-0.35278 0.52917,-0.14111 1.44639,-0.77611 1.94028,-1.41111 0,0 0.3175,-0.42333 0.3175,-0.42333 0,0 0.91722,0.0706 0.91722,0.0706 0.49389,0.0705 1.05834,0.10583 1.19945,0.10583 0.24694,0 0.38805,-0.14111 1.05833,-0.98778 0.38806,-0.56444 0.74083,-1.09361 0.74083,-1.16417 0,-0.10583 0.38806,-0.70555 0.88195,-1.37583 0,0 0.88194,-1.23472 0.88194,-1.23472 0,0 -0.24694,-0.52917 -0.24694,-0.52917 -0.38806,-0.88194 -0.59972,-1.97555 -0.52917,-2.96333 0.10584,-1.62278 0.98778,-2.78694 2.8575,-3.77472 1.30528,-0.70556 1.72861,-1.05834 2.15195,-2.01084 0.3175,-0.67027 0.45861,-0.81138 0.9525,-1.16416 0.3175,-0.17639 0.635,-0.49389 0.70555,-0.635 0.14111,-0.42334 0.10584,-1.34056 -0.14111,-2.71639 -0.49389,-2.71639 -0.21167,-4.65667 0.81139,-5.60917 0.52917,-0.52916 2.01083,-0.9525 4.30389,-1.30528 0.635,-0.10583 1.27,-0.24694 1.44639,-0.3175 0.17639,-0.0705 1.09361,-0.635 2.01083,-1.27 0.9525,-0.635 1.76389,-1.12888 1.83444,-1.12888 0.0706,0 0.17639,0.28222 0.21167,0.67027 0.45861,2.57528 0.56445,4.23334 0.3175,4.72723 -0.21167,0.38805 -1.05833,1.16416 -2.39889,2.25777 -2.08139,1.65806 -3.06916,2.82223 -4.02166,4.72723 -0.84667,1.76388 -1.30528,3.91583 -1.30528,6.24416 0,1.02306 0.0353,1.05834 0.91722,0.91722 1.94028,-0.3175 3.10445,-1.51694 3.45722,-3.4925 0.10584,-0.59972 0.10584,-0.81138 -0.0353,-1.05833 -0.0706,-0.14111 -0.14112,-0.3175 -0.17639,-0.35278 -0.0353,-0.0705 0.0353,-0.10583 0.10583,-0.10583 0.24694,0 1.5875,-0.67028 2.15194,-1.09361 0.91723,-0.635 2.32834,-2.15195 4.23334,-4.40972 2.43416,-2.89278 2.75166,-3.21028 3.56305,-3.77473 z m 14.56972,4.19806 c 0,0.21167 -0.56444,0.0706 -1.09361,-0.21167 -0.74083,-0.45861 -1.12889,-0.84666 -1.12889,-1.05833 0,-0.17639 0.21167,-0.24694 0.70556,-0.10583 0.28222,0.0705 0.59972,0.3175 0.9525,0.70555 0.3175,0.3175 0.56444,0.635 0.56444,0.67028 z m -28.53972,-9.525 c 0,0 -0.10583,-0.42333 -0.10583,-0.42333 -0.0706,0 -0.67028,-0.38806 -0.56444,-1.34056 0,-0.0353 0.28222,-1.41111 0.3175,-1.5875 0.17638,-0.67028 0.14111,-0.77611 0.3175,-0.77611 0,0 0,0.0706 0,0.0706 0,0 0.38805,-1.30528 0.38805,-1.30528 -0.0353,0 -0.0705,0 -0.10583,0 -0.0353,0 -0.0353,-0.0706 -0.0353,-0.45861 0,0 0,-0.56445 0,-0.59973 -0.0353,-1.94027 -0.17639,-2.29305 0.17639,-2.71638 0.17639,0.24694 -0.14111,0.88194 0.0705,0.98777 0.17639,0.0706 0.70556,-0.49389 0.98778,-0.49389 0.0706,0.17639 0.14111,0.91723 0.10584,1.72862 -0.0353,0.59972 -0.10584,0.59972 -0.10584,0.77611 0,0.24694 0.10584,0.42333 0.0706,0.635 0,0.0705 -0.0353,0.0353 -0.0353,0.0353 0,0 0.0353,4.97417 0.0353,4.97417 0,0 -0.14111,0.0706 -0.14111,0.0706 -0.28223,0.10583 -0.56445,0.17639 -0.88195,0.24694 -0.14111,0.0706 -0.28222,0.10583 -0.38805,0.14111 0,0 -0.10584,0.0353 -0.10584,0.0353 z m -2.92805,-9.27806 c -0.0353,-0.28222 0.14111,-0.42333 0.17639,-0.45861 0.0705,0.17639 -0.0353,0.35278 0.17639,0.59973 0.42333,0.56444 0.49388,0.42333 0.49388,1.51694 -0.0705,0.10583 -0.0705,0.0706 -0.0705,0.0706 -0.3175,-0.28223 0,-0.52917 -0.42333,-1.05834 -0.24695,-0.28222 -0.35278,-0.49389 -0.35278,-0.67028 z m -0.0706,7.9375 c 0.3175,0.74084 0.52917,1.44639 0.45861,1.62278 -0.0353,0.14111 0.17639,0.56445 0,0.9525 0,0 0.21167,0.56445 0.21167,0.56445 0,0 -0.59972,0.21166 -0.59972,0.21166 -0.98778,0.38806 -2.01084,0.635 -3.06917,0.77611 0,0 -0.10583,0 -0.10583,0 0,0 -0.0353,-0.14111 -0.0353,-0.14111 0,-0.10583 0,-0.28222 0,-0.52916 0,-0.0353 0.0353,-0.49389 0.0353,-0.635 0,-0.0706 0,-0.56445 0,-0.56445 0.14111,-3.06916 0.59972,-2.64583 0.49389,-3.21028 -0.0706,-0.38805 -0.0706,0.17639 0.10583,-1.905 0,-0.0353 0.14111,-1.905 0.28222,-2.01083 0.10584,-0.0353 0.28222,0.10583 0.56445,-0.0705 0.0705,-0.0353 0.14111,-0.17639 0.24694,-0.0706 0.0353,0.0353 0.38806,0.91722 0.38806,2.2225 0,1.30528 -0.56445,0.3175 0.28222,1.48167 0.28222,0.38805 0.52917,0.84666 0.74083,1.30527 z m 0.98778,-5.18583 c 0.10583,-0.0705 0.35278,0.70556 0.3175,1.5875 -0.0706,1.72861 0.21167,1.34056 0,1.83445 -0.21167,0.52916 -0.17639,0.84666 -0.35278,0.84666 -0.10583,0 -0.49389,-0.635 -0.49389,-1.34055 -0.0353,-0.49389 0.21167,-1.48167 0.24695,-1.55223 0.14111,-0.84666 0.24694,-1.34055 0.28222,-1.37583 z m 1.30528,5.99722 c 0.14111,0.0353 0.28222,0.35278 0.3175,0.42334 0.0353,0.0705 0.0705,0.17639 0.0705,0.28222 0,0 0.0353,0.24694 0.0353,0.24694 0,0 0,0.0353 0,0.0353 -0.0705,0.21167 -0.10583,0.3175 -0.21167,0.42333 0,0 0,0 0,0 0,0 -0.0353,-0.0705 -0.0353,-0.0705 -0.21167,-0.45861 -0.42334,-1.37583 -0.17639,-1.34056 z m 0.0705,1.51695 c 0,0 -0.10583,0.0705 -0.10583,0.0705 0,0 -0.17639,0.0706 -0.17639,0.0706 0,0 0,-0.0353 0,-0.0353 -0.0353,-0.0705 -0.0353,-0.10583 -0.0353,-0.10583 0,0 0.0353,-0.14111 0.10584,-0.17639 0.0353,0 0.10583,0 0.14111,0.0705 0,0 0.0705,0.10584 0.0705,0.10584 z M 180.891,161.00746 c 0,0 0.0353,-1.37583 0.0353,-1.37583 0,0 -0.38805,-0.3175 -0.38805,-0.3175 -0.17639,-0.17639 -0.56445,-0.42333 -0.84667,-0.56444 -0.28222,-0.14112 -0.52917,-0.3175 -0.52917,-0.35278 0,-0.14111 0.98778,-0.42334 1.51695,-0.42334 0.84666,0 1.27,0.52917 1.27,1.62278 0,0.52917 -0.35278,2.15195 -0.67028,3.24556 0,0 -0.24694,0.81139 -0.24694,0.81139 0,0 -0.0706,-0.635 -0.0706,-0.635 -0.0353,-0.35278 -0.0706,-1.27 -0.0706,-2.01084 z m 23.38917,4.93889 c -0.0706,-0.17639 1.65806,-1.86972 2.11667,-2.11667 0.38805,-0.21166 0.59972,-0.0705 0.59972,0.38806 0,0.0706 0,0.14111 0,0.21167 -0.0706,0.42333 -0.14111,0.56444 -0.56445,0.9525 -0.70555,0.635 -2.01083,0.98777 -2.15194,0.56444 z M 232.961,145.48524 c 0,-0.0353 0,-0.0705 0,-0.10583 0.10584,-0.21167 0.81139,-0.21167 1.23473,0 0.42333,0.21166 1.12888,1.23472 1.34055,1.94028 0.0353,0.0705 0.0353,0.10583 0.0353,0.14111 0.0353,0.10583 -0.0353,0.0705 -0.17639,-0.0353 -0.14111,-0.10583 -0.49389,-0.45861 -0.77611,-0.77611 -0.17639,-0.17639 -0.35278,-0.35278 -0.49389,-0.45861 -0.14111,-0.10584 -0.28222,-0.17639 -0.42333,-0.21167 -0.45861,-0.14111 -0.74084,-0.3175 -0.74084,-0.49389 z m -127.17627,-5.46805 c 0,-0.0706 0,-0.10584 0,-0.14112 0.0353,-0.35277 0.28222,-0.635 0.74083,-1.05833 0.70556,-0.635 1.05833,-0.77611 1.55222,-0.59972 0.0705,0.0353 0.14111,0.0705 0.14111,0.14111 0,0.10583 -0.0353,0.21167 -0.10583,0.42333 -0.10583,0.24695 -0.24694,0.635 -0.35278,0.81139 -0.10583,0.17639 -0.24694,0.77611 -0.28222,1.27 -0.0705,0.52917 -0.17639,1.12889 -0.24694,1.30528 -0.17639,0.49389 -0.42334,0.24694 -1.02306,-0.91722 -0.28222,-0.56445 -0.42333,-0.91722 -0.42333,-1.23472 z m 130.06916,10.19527 c 1.05833,-0.49389 2.36361,-1.02305 3.98639,-1.55222 1.12889,-0.38805 2.04611,-0.67028 2.08139,-0.67028 0.0353,0.0353 -0.9525,1.51695 -1.19945,1.79917 -0.24694,0.3175 -0.98777,0.49389 -3.81,0.98778 -2.96333,0.56444 -2.92805,0.52916 -2.64583,0.35278 0.42333,-0.3175 0.9525,-0.59973 1.5875,-0.91723 z m -116.62833,-9.8425 c -0.0353,0.45861 -0.21167,1.55223 -0.35278,2.39889 -0.24694,1.34056 -0.35278,1.65806 -0.9525,2.57528 -0.17639,0.24694 -0.3175,0.45861 -0.45861,0.67028 0,0 -0.0353,0 -0.0353,0 0,0 -0.21167,-0.0353 -0.21167,-0.0353 -0.10583,0 -0.21166,-0.0353 -0.35277,-0.0353 -0.38806,-0.0353 -0.88195,-0.14111 -1.09361,-0.21166 0,0 -0.35278,-0.14112 -0.35278,-0.14112 0,0 0.42333,-0.635 0.42333,-0.635 0.21167,-0.35277 0.59972,-0.84666 0.84667,-1.05833 0.49389,-0.45861 0.52916,-0.59972 0.24694,-0.59972 -0.28222,0 -0.88194,0.42333 -1.83444,1.27 -0.67028,0.635 -0.84667,0.74083 -0.81139,0.52917 0.14111,-0.49389 0.21167,-1.16417 0.10583,-1.16417 -0.0353,0 -0.24694,0.21167 -0.42333,0.49389 0,0 -0.0706,0.0705 -0.0706,0.0705 0,0 0,0.0353 0,0.0353 0.0353,0.0706 0.0706,0.10583 0.0353,0.14111 0,0.0353 -0.0706,0.0353 -0.10584,0.0353 0,0 -0.10583,-0.0353 -0.10583,-0.0353 0,0 -0.0353,0.0706 -0.0353,0.0706 -0.10583,0.10583 -0.17639,0.14111 -0.17639,0.14111 -0.0353,0 -0.0353,-0.0353 0,-0.10583 0,0 0.10584,-0.14112 0.10584,-0.14112 0,0 -0.0353,0 -0.0353,0 -0.28223,-0.14111 -0.70556,-0.38805 -0.98778,-0.59972 0,0 -0.14111,-0.14111 -0.14111,-0.14111 0,0 -0.0353,0 -0.0353,0 -0.0353,0.0353 -0.0705,0.0706 -0.10584,0.0353 0,0 -0.10583,-0.28222 -0.10583,-0.28222 0,0 -0.0353,-0.0706 -0.0353,-0.0706 -0.0353,-0.0353 -0.0353,-0.0353 -0.0353,-0.0705 0,0 0,0 0,0 0,0 -0.0706,-0.14112 -0.0706,-0.14112 -0.24694,-0.70555 -0.42333,-0.74083 -0.49389,-0.10583 -0.14111,0.74083 -0.35278,1.23472 -0.52916,1.12889 -0.10584,-0.0353 -0.17639,-0.10583 -0.17639,-0.17639 0,-0.17639 -0.45861,-1.02305 -0.56445,-1.02305 -0.0705,0 -0.14111,0.21166 -0.21166,0.67027 0,0.14111 -0.0706,0.21167 -0.14112,0.21167 -0.0353,0.0353 -0.10583,-0.3175 -0.14111,-0.74083 0,-0.70556 0.0353,-0.9525 0.45861,-1.97556 0.0705,-0.14111 0.0353,-0.17639 -0.0706,-0.17639 -0.24694,0 -0.70555,0.59972 -1.19944,1.55222 -0.10583,0.21167 -0.21167,0.42334 -0.3175,0.56445 0,0 -0.0706,0.14111 -0.0706,0.14111 0,0 0,-0.0353 0,-0.0353 0,-0.49389 0.14111,-0.84666 0.42333,-1.34055 0.21167,-0.38806 0.77612,-1.51695 1.19945,-2.50473 0.59972,-1.44638 0.81139,-1.79916 1.09361,-1.86972 0.17639,0 1.55222,0.38806 3.06917,0.91722 2.43416,0.84667 2.8575,0.9525 3.84527,0.91723 0,0 1.09361,0 1.09361,0 0,0 -0.10583,0.84666 -0.10583,0.84666 z M 225.44695,96.766631 c 0.10583,-0.24694 0.21166,-0.45861 0.38805,-0.67028 0.24695,-0.24694 0.38806,-0.56444 0.52917,-1.23472 0.42333,-1.94028 0.98778,-2.15194 2.75167,-0.91722 0,0 0.49388,0.3175 0.49388,0.3175 0,0 -0.59972,0.0705 -0.59972,0.0705 -0.67028,0.0706 -0.9525,0.35278 -0.9525,0.84667 0,0.24695 0.0706,0.35278 0.3175,0.49389 0,0 0.3175,0.21167 0.3175,0.21167 0,0 -0.67028,0.3175 -0.67028,0.3175 -1.05833,0.49389 -1.37583,1.16416 -0.84666,1.72861 0.14111,0.17639 0.14111,0.21166 -0.0353,0.52916 -0.14111,0.3175 -0.38806,0.52917 -0.67028,0.59973 -0.24694,0.0706 -0.52916,0.0353 -0.74083,-0.21167 -0.45861,-0.49389 -0.56445,-1.37583 -0.28222,-2.08139 z M 76.645283,139.77024 c 0,0 0,-0.45861 0,-0.45861 0,0 0.176389,0.35278 0.176389,0.35278 0.176389,0.45861 0.176389,0.56444 0,0.56444 -0.141111,0 -0.176389,-0.14111 -0.176389,-0.45861 z M 247.425,48.294966 c 0,0.246945 -0.21166,0.423334 -0.77611,0.705556 -0.59972,0.3175 -0.91722,0.670278 -1.09361,1.27 -0.10583,0.458611 -0.0353,1.763889 0.14111,1.763889 0.10583,0 2.61056,-1.5875 2.92806,-1.834445 0.49388,-0.423333 1.79916,-1.234722 1.86972,-1.164166 0.0353,0.03528 0.10583,0.493888 0.14111,0.987777 0.10583,1.093611 0.14111,0.987778 -1.16417,2.046111 -0.98778,0.811389 -1.83444,1.622778 -1.76389,1.693334 0.0353,0.03528 0.45861,0.176389 0.9525,0.352777 0.84667,0.282223 1.27,0.635 1.27,1.023056 0,0.211667 0.59973,1.375833 0.91723,1.763889 0.3175,0.352778 0.98777,0.705555 1.62277,0.811389 0.9525,0.141111 0.91723,0.105833 0.84667,0.670277 -0.0353,0.282223 -0.0353,0.599723 0,0.705556 0.0706,0.176389 0.14111,0.141111 0.35278,-0.246944 0.38805,-0.740834 0.70555,-0.670278 0.9525,0.246944 0.35278,1.340556 -0.74084,2.257778 -3.35139,2.716389 -1.41111,0.246944 -1.69333,0.282222 -2.08139,-0.03528 -0.0706,-0.03528 -0.14111,-0.105833 -0.21167,-0.141111 0,0 -0.42333,-0.423333 -0.42333,-0.423333 0,0 0.17639,-0.458611 0.17639,-0.458611 0.17639,-0.493889 0.0705,-1.305278 -0.24695,-2.363612 0,0 -0.21166,-0.564444 -0.21166,-0.564444 0,0 -1.05833,-0.352778 -1.05833,-0.352778 -0.59973,-0.211666 -1.30528,-0.388055 -1.65806,-0.388055 -0.59972,-0.03528 -0.635,-0.03528 -1.30528,-0.705556 0,0 -0.74083,-0.670278 -0.74083,-0.670278 0,0 0.635,0.07056 0.635,0.07056 0.3175,0.03528 0.77611,0.141111 0.98778,0.246944 0.38805,0.141112 0.38805,0.141112 0.81139,-0.141111 0.21166,-0.176389 0.52916,-0.423333 0.635,-0.599722 0.21166,-0.246944 0.21166,-0.282222 0,-0.493889 -0.28223,-0.352778 -0.9525,-0.458611 -2.75167,-0.458611 -2.32833,-0.03528 -2.71639,-0.211667 -1.41111,-0.564444 0.635,-0.176389 0.74083,-0.282223 0.45861,-0.388056 -0.38806,-0.141111 -0.17639,-0.670278 1.27,-2.786944 2.18722,-3.210278 2.50472,-3.527778 2.99861,-2.822222 0.17639,0.211666 0.28222,0.388055 0.28222,0.529166 z m 2.39889,58.031944 c -0.10583,0.38805 -0.21167,0.56444 -0.38806,0.70555 -0.24694,0.28223 -0.35277,0.28223 -0.98777,0.0353 -0.28223,-0.10583 -0.28223,-0.14111 -0.28223,-0.98778 0,-0.49388 0,-0.98777 -0.0706,-1.16416 -0.0706,-0.24695 -0.0353,-0.28222 0.35278,-0.42334 0.24694,-0.0705 0.56444,-0.28222 0.74083,-0.45861 0.42333,-0.49389 0.42333,-1.05833 0,-1.94027 -0.42333,-0.81139 -0.70556,-0.98778 -1.41111,-0.9525 -0.17639,0 -0.3175,0 -0.38806,0 -0.28222,-0.0706 -0.24694,-0.35278 0.0353,-1.234729 0.3175,-1.02305 0.52917,-1.34055 0.88195,-1.34055 0.3175,0 0.59972,0.42333 1.62277,2.363609 0.67028,1.27 0.74084,1.48167 0.635,1.72861 -0.0353,0.10583 -0.0705,0.3175 -0.14111,0.635 -0.0705,0.3175 -0.14111,0.74083 -0.21166,1.12889 -0.17639,0.98778 -0.28223,1.55222 -0.38806,1.905 z m -0.0353,4.33916 c 0.0353,0.14112 -0.10583,0.3175 -0.38805,0.52917 -0.77611,0.56445 -1.79917,0.84667 -1.94028,0.49389 0,-0.0353 -0.0353,-0.0706 0,-0.10583 0,-0.24695 0.38806,-0.59973 1.02305,-0.88195 0.70556,-0.35277 1.05834,-0.42333 1.23473,-0.17639 0.0353,0.0353 0.0705,0.0706 0.0705,0.14111 z m 0.84667,0.42334 c 0.0353,-0.0706 0.14111,-0.14111 0.24694,-0.14111 0.56445,-0.14111 1.05834,-0.42334 1.55223,-0.88195 0.24694,-0.24694 0.49388,-0.45861 0.52916,-0.42333 0.52917,0.59972 2.29306,2.92805 2.43417,3.21028 0.28222,0.56444 0.28222,1.23472 0,1.62277 -0.38806,0.52917 -1.51695,1.19945 -1.51695,0.91723 0,-0.0706 0.0353,-0.28223 0.10584,-0.49389 0.10583,-0.35278 0.0353,-0.59972 -0.10584,-0.74084 -0.24694,-0.14111 -0.635,-0.10583 -1.12888,0.21167 -0.28223,0.14111 -0.52917,0.24695 -0.56445,0.21167 0,-0.0353 0.0353,-0.24695 0.17639,-0.49389 0.14111,-0.3175 0.17639,-0.45861 0.0706,-0.52917 -0.0353,-0.0353 -0.24695,-0.24694 -0.38806,-0.45861 -0.21167,-0.24694 -0.52917,-0.49389 -0.9525,-0.70555 -0.56444,-0.24695 -0.635,-0.3175 -0.635,-0.59973 0,-0.35277 0.0706,-0.56444 0.17639,-0.70555 z m -7.62,25.64694 c 0,-0.28222 0.42333,-1.02305 0.77611,-1.34055 0.24695,-0.24695 0.3175,-0.28223 0.42333,-0.17639 0.0353,0.0353 0.0706,0.0706 0.0706,0.17639 -0.0353,0.21166 -0.28222,0.635 -0.70556,1.09361 -0.38805,0.45861 -0.56444,0.52916 -0.56444,0.24694 z m -0.14111,-13.47611 c 0,0.0353 0,0.0353 0,0.0706 -0.0353,0.0353 -0.52917,0.35277 -1.12889,0.67027 -0.59972,0.3175 -1.65806,0.88195 -2.32833,1.27 -1.27,0.74084 -1.48167,0.77612 -1.83445,0.38806 -0.10583,-0.14111 -0.28222,-0.56444 -0.38805,-0.98778 -0.24695,-0.77611 -0.24695,-0.88194 0.0705,-2.01083 0.0353,-0.17639 -0.0353,-0.17639 -0.70555,-0.17639 -0.52917,0 -0.77611,-0.0706 -0.91723,-0.17639 -0.14111,-0.14111 -0.3175,-0.17639 -0.9525,-0.10583 -0.74083,0.0353 -0.77611,0.0353 -0.84666,-0.17639 -0.0353,-0.10583 -1.02306,-1.16417 -2.15195,-2.32833 0,0 -2.08139,-2.11667 -2.08139,-2.11667 0,0 -1.05833,0 -1.05833,0 -1.23472,0 -1.55222,-0.0706 -1.55222,-0.28222 0,-0.17639 -0.35278,-0.17639 -1.44639,0 -0.70556,0.10583 -0.84667,0.0706 -0.91722,-0.0353 -0.0706,-0.0706 -0.24695,-0.42333 -0.45861,-0.77611 -0.21167,-0.35278 -0.35278,-0.635 -0.35278,-0.635 0.0353,-0.0353 0.56444,-0.21167 1.19944,-0.42334 2.36361,-0.81138 4.86834,-2.11666 6.59695,-3.38666 1.09361,-0.81139 1.48166,-0.98778 2.99861,-1.37584 0,0 1.27,-0.31749 1.27,-0.31749 0,0 -0.81139,-0.77612 -0.81139,-0.77612 -2.2225,-2.08138 -2.46944,-2.25777 -3.03389,-2.39888 -0.81139,-0.21167 -2.89278,-0.17639 -4.19805,0.10583 -0.59973,0.10583 -1.72862,0.42333 -2.46945,0.67028 -0.77611,0.28222 -1.41111,0.45861 -1.44639,0.45861 -0.0353,-0.0706 0.70556,-2.50472 1.19945,-3.81 0.52916,-1.44639 0.70555,-1.76389 0.98777,-1.76389 0.35278,0 3.175,-0.74083 4.69195,-1.23472 3.73944,-1.19945 7.44361,-2.963339 8.99583,-4.268609 0,0 0.3175,-0.24695 0.3175,-0.24695 0,0 -0.3175,0 -0.3175,0 -0.45861,0 -3.175,0.59972 -5.00944,1.12889 -3.03389,0.81139 -6.27945,2.010829 -7.65528,2.786939 -0.3175,0.17639 -0.56444,0.28223 -0.56444,0.24695 0,-0.0353 0.14111,-0.3175 0.3175,-0.635 0.67027,-1.199449 2.75166,-2.151949 8.71361,-4.056949 7.23194,-2.32833 8.60777,-2.89277 8.60777,-3.56305 0,-0.52917 -0.21166,-0.56445 -2.32833,-0.14111 -1.09361,0.24694 -2.04611,0.42333 -2.15194,0.38805 -0.0706,0 0.38805,-0.21166 1.05833,-0.45861 1.79917,-0.70555 1.86972,-0.74083 2.57528,-2.82222 0.38805,-1.12889 0.56444,-1.79917 0.49389,-1.86972 -0.0706,-0.0353 -0.77611,-0.10584 -1.72861,-0.10584 -0.91723,0 -1.65806,0 -1.65806,-0.0353 0,0 0.14111,-0.21167 0.3175,-0.42334 0.17639,-0.21166 0.35278,-0.49389 0.42333,-0.59972 0.10584,-0.21167 0.0706,-0.24694 -0.56444,-0.3175 -1.12889,-0.10583 -1.44639,-0.24694 -1.55222,-0.56444 -0.14111,-0.38806 -0.45861,-0.52917 -1.30528,-0.59973 -0.56445,-0.0705 -0.74083,-0.0353 -1.12889,0.17639 -0.49389,0.24695 -3.21028,1.23473 -4.09222,1.48167 -0.77611,0.24694 -0.88195,0.17639 -0.49389,-0.35278 0.59972,-0.84666 1.79917,-1.51694 3.66889,-2.18722 1.44639,-0.45861 2.96333,-0.84667 6.70278,-1.62278 4.05694,-0.81139 5.43277,-1.16416 6.38527,-1.65805 0.91722,-0.42334 1.16417,-0.70556 1.05834,-1.30528 -0.0706,-0.67028 -0.14112,-0.70556 -1.55223,-0.77611 -0.70555,-0.0353 -1.30527,-0.0706 -1.34055,-0.10584 -0.0353,-0.0353 0.17639,-0.59972 0.49389,-1.269995 1.09361,-2.575278 1.12889,-3.4925 0.14111,-3.81 -0.42333,-0.141111 -0.67028,-0.07056 -0.67028,0.211666 0,0.564445 -0.52917,0.9525 -1.51694,1.058334 0,0 -0.67028,0.07055 -0.67028,0.07055 0,0 -0.3175,0.881945 -0.3175,0.881945 -0.42333,1.023055 -0.635,1.411111 -0.74083,1.164166 -0.14112,-0.352777 0.17638,-1.234722 0.77611,-2.081389 0.635,-0.9525 0.81139,-1.093611 1.83444,-1.622777 0.9525,-0.458611 1.905,-1.093611 3.66889,-2.398889 1.37583,-1.023056 1.51694,-1.164167 1.83444,-1.799167 0.21167,-0.388055 0.38806,-0.846666 0.38806,-1.058333 0.0353,-0.352778 0.70555,-1.693333 0.91722,-1.799167 0.0706,-0.03528 0.42333,0.246945 0.84667,0.635 0.38805,0.388056 0.81139,0.705556 0.91722,0.705556 0.10583,-0.03528 0.67028,-0.105834 1.23472,-0.176389 0.59972,-0.07056 1.16417,-0.141111 1.27,-0.141111 0.17639,0 0.17639,0.3175 0.17639,5.750277 0,5.291673 0,5.785563 -0.17639,5.997223 -0.28222,0.3175 -0.88194,0.67028 -1.23472,0.67028 -0.52917,0 -0.77611,0.17639 -0.84667,0.56445 -0.10583,0.56444 -0.67027,1.5875 -1.05833,1.94027 -0.17639,0.17639 -0.59972,0.49389 -0.88194,0.67028 -0.67028,0.45861 -1.19945,0.9525 -1.37584,1.30528 -0.10583,0.17639 -0.52916,1.30528 -0.9525,2.50472 -0.84666,2.25778 -1.05833,2.64584 -1.69333,2.96334 -0.17639,0.10583 -0.45861,0.14111 -0.67028,0.10583 -0.38805,-0.0353 -0.45861,0.0706 -0.14111,0.24694 0.635,0.35278 -0.10583,2.36361 -2.32833,6.42056 -1.30528,2.39889 -1.34056,2.50472 -0.49389,3.633609 0.17639,0.21167 0.14111,0.21167 -0.98778,-0.0706 -0.14111,-0.0353 -0.3175,-0.0705 -0.45861,-0.10583 -0.49389,-0.10583 -0.91722,-0.21167 -1.09361,-0.21167 -1.09361,0 -2.15195,0.59973 -2.50472,1.48167 -0.67028,1.55222 -1.79917,4.86833 -1.76389,5.08 0.0705,0.24695 0.10583,0.24695 0.91722,0.24695 0.45861,0 0.84667,0.0353 0.84667,0.0705 0,0.0706 -0.10584,0.38806 -0.21167,0.74083 -0.10583,0.35278 -0.21167,0.81139 -0.17639,0.9525 0.0353,0.35278 0.24695,0.42334 1.34056,0.45862 0,0 0.70555,0.0353 0.70555,0.0353 0,0 -0.98778,0.3175 -0.98778,0.3175 0,0 -0.98777,0.3175 -0.98777,0.3175 0,0 -0.9525,2.89278 -0.9525,2.89278 -0.77611,2.3636 -2.29306,7.23194 -2.50473,7.9375 -0.10583,0.31749 0.24695,0.35277 1.41112,0.14111 1.27,-0.21167 1.23472,-0.21167 1.41111,0.59971 0.10583,0.38806 0.21166,0.52917 0.635,0.77611 0.24694,0.17639 0.81139,0.42334 1.23472,0.52917 0.70555,0.21167 1.23472,0.45861 1.27,0.635 z M 77.280283,139.34691 c 0,0 -0.529166,-0.45861 -0.529166,-0.45861 0,0 0.211666,-0.70556 0.211666,-0.70556 0.105834,-0.35278 0.282222,-0.77611 0.352778,-0.84667 0.105833,-0.17638 0.141111,-0.10583 0.141111,0.42334 0,0.35278 0.03528,0.77611 0.105833,0.91722 0,0 0.07056,0.3175 0.07056,0.3175 0,0 0.246944,-0.3175 0.246944,-0.3175 0.141112,-0.17639 0.246945,-0.38806 0.246945,-0.49389 0,-0.38805 0.211667,-0.28222 0.423333,0.21167 0.176389,0.45861 0.423334,1.30528 0.423334,1.55222 0,0.14111 -0.3175,-0.17639 -0.458612,-0.49389 -0.211666,-0.38805 -0.352777,-0.38805 -0.423333,0.0353 -0.03528,0.17639 -0.141111,0.3175 -0.211667,0.3175 -0.07055,-0.0353 -0.352777,-0.21167 -0.599722,-0.45861 z m 6.279445,0.91722 c 0,0 0.176388,-0.28222 0.388055,-0.635 0,0 0.423333,-0.56444 0.423333,-0.56444 0,0 0.07056,0.45861 0.07056,0.45861 0.03528,0.24694 0.105833,0.52916 0.141111,0.67027 0,0.0706 0,0.10584 0,0.14112 0,0.10583 -0.105833,0.10583 -0.458611,0.0353 -0.282222,-0.0353 -0.529167,-0.0705 -0.564444,-0.10583 z m 0,-1.09361 c -0.211667,0.14111 -0.388056,0.35278 -0.564445,0.52917 0,0 -0.564444,0.635 -0.564444,0.635 0,0 -0.176389,-0.84667 -0.176389,-0.84667 -0.07056,-0.45861 -0.282222,-1.05833 -0.423334,-1.34056 -0.282222,-0.56444 -1.234722,-1.905 -1.305277,-1.83444 -0.03528,0.0353 0.105833,0.38805 0.282222,0.84667 0.246944,0.67027 0.529167,1.905 0.493889,2.29305 0,0.0353 0,0.0706 0,0.10583 -0.03528,0.0353 -0.211667,-0.14111 -0.352778,-0.38805 -0.176389,-0.24695 -0.3175,-0.42333 -0.388056,-0.42333 -0.03528,0 -0.07055,0.28222 -0.07055,0.635 0,0 -0.03528,0.67027 -0.03528,0.67027 0,0 -0.282222,-0.56444 -0.282222,-0.56444 -0.176389,-0.28222 -0.458611,-0.70556 -0.599722,-0.88195 -0.176389,-0.21166 -0.246945,-0.3175 -0.246945,-0.635 -0.03528,-0.21166 0,-0.52916 0.03528,-0.98777 0.03528,-0.70556 0.07056,-1.41111 0.105833,-1.5875 0,0 0.07056,-0.28223 0.07056,-0.28223 0,0 0.282222,0.24695 0.282222,0.24695 0.176389,0.17639 0.458611,0.35278 0.670278,0.45861 0.211667,0.0706 0.493889,0.28222 0.635,0.45861 0.246944,0.38806 0.423333,0.42333 0.423333,0.10583 0,-0.35277 0.564445,-0.56444 1.693334,-0.56444 0,0 1.023055,0 1.023055,0 0,0 0.03528,0.88194 0.03528,0.88194 0.03528,0.49389 0.105833,1.12889 0.141111,1.34056 0.07055,0.45861 0.07055,0.45861 -0.388056,0.74083 -0.141111,0.0706 -0.3175,0.21167 -0.493888,0.38806 z m 2.434166,1.16417 c -0.03528,0.0705 -0.105833,0.10583 -0.246944,0.10583 -0.176389,0 -0.246945,-0.10583 -0.352778,-0.45861 -0.141111,-0.38806 -0.211667,-1.02306 -0.211667,-1.51695 0,-0.3175 0,-0.56444 0.07056,-0.70555 0,0 0.105833,-0.24695 0.105833,-0.24695 0,0 0.105833,0.28223 0.105833,0.28223 0.07056,0.17638 0.141112,0.67027 0.176389,1.09361 0.03528,0.38805 0.141111,0.88194 0.211667,1.02305 0.105833,0.21167 0.141111,0.35278 0.141111,0.42334 z M 252.8225,45.296355 c -0.0353,0.176389 -0.10583,0.352778 -0.28222,0.529167 -0.24695,0.246944 -0.35278,0.282222 -0.77611,0.211667 -0.28222,-0.03528 -0.84667,-0.246945 -1.27,-0.423334 -0.42334,-0.211666 -0.88195,-0.529166 -1.02306,-0.740833 0,0 -0.28222,-0.3175 -0.28222,-0.3175 0,0 0.21167,-0.211667 0.21167,-0.211667 0.3175,-0.246944 1.65805,-0.246944 2.39889,-0.03528 0.67027,0.211667 1.02305,0.599723 1.02305,0.987778 z M 44.824728,133.91413 c 0,-0.59972 0.176389,-1.51694 0.458611,-2.15194 0.246945,-0.59973 0.423334,-1.12889 0.881945,-2.61056 0.141111,-0.38806 0.282222,-0.74083 0.352777,-0.74083 0.176389,0 0.917223,1.23472 0.917223,1.44639 0,0.0705 0.176389,0.59972 0.352777,1.16416 0.423334,1.12889 0.705556,2.36361 0.705556,3.03389 0,0.3175 0.07056,0.45861 0.211667,0.52917 0.105833,0.0705 0.211666,0.21166 0.246944,0.38805 0.03528,0.24695 0.03528,0.28223 -0.282222,0.21167 -0.176389,-0.0353 -1.093611,-0.17639 -2.010833,-0.28222 -1.622778,-0.24695 -1.658056,-0.24695 -1.763889,-0.52917 -0.07056,-0.10583 -0.07056,-0.24694 -0.07056,-0.45861 z m -0.352778,-5.22111 c 0,0.17639 -0.07056,0.49389 -0.105833,0.70555 -0.07056,0.17639 -0.176389,0.91723 -0.211667,1.62278 -0.141111,1.27 -0.458611,2.64584 -0.635,2.78695 -0.07055,0 -0.07055,0.17639 -0.03528,0.38805 0,0.0706 0,0.10584 0,0.17639 0.03528,0.10583 -0.03528,0.10583 -0.246944,0.0706 -0.176389,-0.0353 -1.728611,-0.24695 -3.457222,-0.42334 -1.728611,-0.21166 -3.280833,-0.38805 -3.421945,-0.38805 -0.246944,0 -0.3175,-0.0706 -0.458611,-0.35278 -0.176389,-0.45861 -0.3175,-1.30528 -0.282222,-2.08139 0,-0.10583 0,-0.21167 0,-0.3175 0.03528,-0.52917 0.07056,-0.635 0.246945,-0.635 0.176388,0 0.3175,-0.28222 0.3175,-0.81139 0,-0.24694 0,-0.28222 0.105833,-0.14111 0.03528,0.0706 0.105833,0.24695 0.105833,0.35278 0,0.14111 0.07056,0.28222 0.141111,0.35278 0.105834,0.10583 0.176389,0.0353 0.3175,-0.45861 0.105834,-0.3175 0.282223,-0.67028 0.388056,-0.77612 0.3175,-0.24694 1.164167,-0.21166 2.116666,0.10584 1.023056,0.3175 1.869723,0.28222 3.245556,-0.0706 0.599722,-0.17639 1.234722,-0.3175 1.446389,-0.35278 0.388055,-0.0353 0.423333,-0.0353 0.423333,0.24695 z m -4.7625,34.14889 c 0,0 -0.493888,22.43666 -0.493888,22.43666 0,0 102.728888,0.24695 102.728888,0.24695 0,0 -11.85334,-9.06639 -11.85334,-9.06639 0,0 -22.50722,-7.12611 -22.50722,-7.12611 0,0 -18.803051,-5.96195 -18.803051,-5.96195 0,0 -49.071389,-0.52916 -49.071389,-0.52916 z m 217.76972,6.06777 c 0,0 0.45861,15.94556 0.45861,15.94556 0,0 -94.68555,0.17639 -94.68555,0.17639 0,0 8.29027,-3.42195 8.29027,-3.42195 0,0 23.38917,-8.11388 23.38917,-8.11388 0,0 17.32139,-4.23334 17.32139,-4.23334 0,0 45.22611,-0.35278 45.22611,-0.35278 z"
       style="fill:#404040;fill-opacity:0;stroke-width:0.447;stroke-miterlimit:4;stroke-dasharray:none" />
  </g>
</svg>
