<?xml version="1.0" encoding="UTF-8" standalone="no"?>
<!-- Created with Inkscape (http://www.inkscape.org/) -->

<svg
   width="297mm"
   height="210mm"
   viewBox="0 0 297 210"
   version="1.1"
   id="svg1189"
   xmlns="http://www.w3.org/2000/svg"
   xmlns:svg="http://www.w3.org/2000/svg">
  <defs
     id="defs1186" />
  <g
     id="layer1">
    <path
       id="Path1"
       stroke-width="0.246944"
       stroke="#2b2b2b"
       stroke-opacity="1"
       fill="#aaaaaa"
       fill-opacity="1"
       fill-rule="evenodd"
       stroke-linecap="round"
       stroke-linejoin="round"
       d="m 273.33705,192.92025 c 0,0 0,-179.98722 0,-179.98722 0,0 -239.994719,0 -239.994719,0 0,0 0,179.98722 0,179.98722 0,0 239.994719,0 239.994719,0 z M 58.883441,155.52581 c -0.07056,-0.0353 -0.141111,-0.0706 -0.246945,-0.14111 -0.352777,-0.42334 0.03528,-0.28223 -0.3175,-0.77612 -0.493888,-0.70555 -1.763888,-0.42333 -2.257777,-2.50472 1.799166,-0.88194 8.113888,-2.71639 13.687777,-2.89278 14.428611,-0.45861 15.945555,-0.70555 17.603611,-1.26999 3.81,-1.27 7.020277,-0.17639 9.101666,-1.30528 -0.07055,-0.17639 0.282223,-0.17639 -0.776111,-0.9525 2.398889,-0.52917 3.139722,0.0353 4.903608,-0.59972 -1.622775,-1.23473 -1.164163,-0.59973 -2.081386,-1.79917 1.305278,-0.24695 1.164167,-0.35278 1.199445,-0.38806 -0.917222,-1.44639 -3.633611,-2.11666 -4.515556,-2.46944 0.529167,-0.3175 0.635,-0.3175 0.705556,-0.52917 0.105833,-0.24694 0.105833,-0.24694 -0.141111,-0.98778 2.822222,-0.3175 0.917222,1.16417 11.747502,1.905 1.34055,0.10584 8.07861,0.77612 17.81528,-1.16416 2.57527,-0.52917 0.74083,-0.74084 4.1275,-1.02306 0,0 1.27,-0.0705 1.27,-0.0705 0,0 0,-7.02028 0,-7.02028 0,-0.0706 0,-0.14111 0,-0.21167 0,0 8.50194,-6.45583 8.50194,-6.45583 -0.42333,-0.24695 -2.08139,-1.79917 -4.93889,-4.65667 0,0 -2.64583,-2.64583 -2.64583,-2.64583 0,0 21.02556,-1.23472 21.02556,-1.23472 0.17638,1.51694 6.91444,1.65805 8.5725,1.19944 2.39888,-0.70555 7.3025,1.48167 8.89,-1.5875 0.45861,-0.88194 -3.91584,-4.1275 -4.05695,-5.00944 0,0 -3.84528,4.16277 -3.91583,3.95111 -0.14111,-0.38806 -0.35278,-1.12889 -0.38806,-1.94028 0,0 0,-0.24694 0,-0.24694 0,0 -0.0353,-0.0353 -0.0353,-0.0353 -0.24694,0.45861 -0.3175,0.98778 -0.59972,0.84666 -0.38805,-0.14111 -0.0705,-1.05833 -0.0705,-1.09361 -0.0353,-0.14111 -0.0353,-1.41111 -0.0353,-1.44639 -0.70556,-0.45861 -0.49389,0 -0.88195,-0.67027 0.3175,-0.38806 -0.10583,-0.0706 0.91723,-0.38806 -0.35278,-0.59972 -0.77611,-0.56444 -0.91723,-1.30528 -0.0705,-0.45861 0.10584,-0.45861 0.21167,-1.12889 -0.14111,-0.14111 -0.0353,-0.28222 -1.05833,-0.52916 -0.0353,-0.38806 -0.14111,-0.67028 -0.35278,-0.9525 0.0706,-0.10584 -0.0353,-0.21167 0.49389,-0.52917 -0.35278,-0.52917 -0.38806,-0.45861 -0.42333,-0.70555 0,-0.10584 0.635,-1.30528 0.67027,-1.34056 -0.88194,-1.12889 -0.88194,-1.05833 -0.91722,-1.05833 -0.17639,-0.28223 0,-0.67028 -0.3175,-3.033892 -0.0705,0.24694 -0.42333,1.693332 -0.42333,1.728612 0,0.24694 -0.38806,1.79917 -0.52917,1.83444 -0.0353,0.56445 -0.0353,0.635 0.0353,0.77611 0.0705,0.28223 0.56444,0.635 0.49389,0.88195 -0.0706,0.24694 -0.0706,0.0353 -0.74084,0.24694 0.21167,0.9525 0.81139,1.83445 0.74084,2.01084 -0.10584,0.21166 -0.84667,0.635 -0.84667,0.91722 0,0.17639 0.49389,0.81139 0.52917,0.9525 0.10583,0.49389 -0.0706,-0.0706 -0.0353,0.91722 -0.49389,0.17639 -2.18722,0.28222 -2.15194,-0.14111 0,-0.17639 0.635,-0.70556 0.56444,-0.84667 -0.14111,-0.35277 0.14111,-0.49389 0.10583,-0.74083 -0.0705,-0.3175 -0.14111,0.28222 -0.59972,-1.27 0.0353,-0.0353 0.14111,-0.3175 0.0353,-0.59972 -0.24695,-0.52917 -0.28222,-1.55222 -0.42333,-1.27 -0.0706,0.14111 -0.17639,0.21166 -0.38806,0.42333 0.3175,1.02306 0.10583,1.34056 -0.17639,1.44639 0.14111,0.52917 0.17639,0.56444 0.14111,0.67028 -0.10583,0.28222 -1.05833,0.17639 -1.12889,0.0706 -0.0353,-0.14111 0.10584,-0.88194 -0.0353,-1.09361 -0.38806,-0.635 0.14111,-1.76389 0.0705,-2.08139 -0.10583,-0.35277 -0.45861,-0.635 -0.24694,-1.34055 -0.635,-1.41111 0.0353,-1.02306 -0.38806,-2.04611 -0.10583,0.24694 -0.24694,2.04611 -0.70555,2.04611 0.42333,0.9525 0.38805,0.98778 -0.21167,1.16416 0.17639,0.67028 0.35278,0.74084 0.3175,0.98778 -0.0353,0.21167 0,0.10584 -0.42333,0.35278 0.49388,1.44639 0.635,1.12889 0.635,1.62278 -0.0353,0.9525 -0.98778,1.65805 -1.76389,2.57528 -0.10584,-0.45862 -0.10584,-0.21167 -0.0706,-2.08139 0.0353,-0.0353 0.14111,-0.10584 0.42333,-0.35278 -0.45861,-0.77611 -0.45861,-0.70556 -0.45861,-1.37583 -0.3175,1.05833 -0.56444,1.97555 -1.02305,1.62277 -0.28222,-0.21166 -0.14111,-0.45861 -0.67028,-0.70555 0.35278,-0.98778 0.52917,-0.9525 1.02306,-2.04611 -0.635,0.14111 -0.74084,0.59972 -0.98778,0.42333 -0.42333,-0.35278 0.28222,-0.70556 0.3175,-1.69333 -0.52917,-0.21167 -0.49389,-0.0353 -0.59972,-0.21167 -0.10584,-0.24694 0.14111,-0.52917 0.14111,-0.81139 0,-0.42333 -0.17639,-0.24694 -0.14111,-0.635 0,-0.14111 0.10583,-0.14111 0.35277,-0.88194 -0.49388,-0.0353 -0.28222,-0.0353 -0.45861,-0.14111 0.21167,-1.375842 0.38806,-1.305282 0.635,-2.116672 -0.56444,-0.0353 -0.3175,0.38805 -0.59972,0.21167 -0.35278,-0.21167 -0.45861,-1.27 -0.67028,-1.05834 0.10584,0.3175 0.21167,0.59973 0.14111,0.81139 -0.10583,0.3175 0.0353,0 -0.42333,0.49389 0.24695,0.70556 0.67028,0.9525 0.38806,1.270002 -0.14111,0.17639 -0.35278,0.0353 -1.02306,-0.423332 0.14111,1.093612 0.3175,1.128892 0.81139,1.587502 -0.3175,0.24694 -0.3175,0.24694 -0.35278,0.42333 -0.17639,0.77611 0.67028,0.67028 0.59972,1.23472 -0.0705,0.35278 -0.49388,0.28222 -0.52916,0.3175 -0.17639,0.10584 -0.59972,0.24695 -0.59972,0.24695 0.3175,1.30527 0.3175,0.59972 0.3175,1.34055 -0.0706,0 0.0705,0.10584 -0.9525,-0.21166 0.45861,1.62277 0.38805,1.16416 0.45861,1.62277 -0.10584,0.0706 0.10583,0.10584 -1.02306,0.17639 0.38806,0.91722 0.24695,1.30528 0,1.37584 -0.3175,0.0705 -1.905,1.62277 -1.79917,1.97555 0.0706,0.3175 -0.91722,0.91722 -0.9525,0.88195 -0.17638,-0.21167 -0.56444,-2.8575 -0.74083,-2.89278 -0.24694,-0.0706 -0.42333,-0.45861 0.14111,-1.05834 -0.17639,-0.14111 -0.21166,-0.0705 -0.21166,-0.35277 0,-0.24695 0.3175,-0.52917 0.56444,-0.77611 -0.70556,-0.10584 -0.56444,-0.10584 -0.635,-0.14112 0.0353,-0.74083 0.21167,-0.52916 0.17639,-0.84666 -0.0706,-0.28222 -0.38806,-0.28222 -0.49389,-0.49389 -0.10583,-0.17639 0.0706,-1.30528 0.0353,-1.55222 -0.0353,-0.14111 -0.14111,-0.24695 -0.56445,-0.9525 -0.0353,0.45861 -0.0353,0.91722 -0.21166,1.02305 -0.0706,0.0706 -0.0706,0.0353 -0.45861,-0.0705 -0.635,1.23472 -0.21167,1.44639 -1.09362,1.76389 -0.3175,-0.49389 -0.21166,-0.38806 -0.28222,-0.45862 -0.14111,-0.10583 -0.59972,-0.14111 -0.70555,-0.49388 -0.0353,-0.17639 0.21166,-0.88195 0.84666,-2.08139 -0.70555,-1.37584 -1.02305,0.14111 -1.37583,-0.0353 -0.3175,-0.17639 -0.10583,-0.52917 -0.10583,-0.74083 0,-0.17639 -0.17639,-0.635002 -0.14111,-0.881952 0.0353,-0.3175 -0.0353,0.0353 0.28222,-0.59972 -0.49389,-0.88194 -0.52917,-0.52917 -0.74084,-1.34056 0.56445,-0.74083 0.35278,0.14112 1.34056,-0.67027 -1.5875,-0.28223 -1.72861,-0.49389 -1.69333,-0.77611 0,-0.70556 1.34055,-0.21167 1.51694,-1.51695 -0.59972,-0.3175 -0.98778,0.0706 -1.23472,-0.14111 -0.59972,-0.49389 0.42333,-2.01083 -0.635,-4.02167 -0.24695,0.56445 -0.21167,0.56445 -0.28222,0.635 -0.10584,0.10584 0.0353,-0.0705 -0.45861,0.10584 0.21166,0.45861 0.52916,0.84666 0.28222,1.27 -0.0353,0.10583 -0.10584,0.10583 -0.56445,0.35277 0.45861,0.9525 1.12889,1.76389 0.88195,2.15195 -0.24695,0.38805 -1.12889,-0.24695 -1.51695,-0.38806 -0.0353,0.84667 0.56445,1.48167 0.70556,2.15195 -0.59972,0.21166 0.10583,0 -1.05834,0.0705 0.17639,0.70556 0.24695,0.84667 0.24695,1.05834 -0.0353,0.21166 -0.10584,0.3175 -0.52917,1.02305 1.09361,1.693332 1.05834,1.234722 1.02306,1.516952 -0.0706,0.3175 -0.42334,0.21166 -1.02306,0.10583 1.12889,1.76389 1.30528,1.86972 1.44639,2.18722 -0.35278,0.14111 -1.62278,0.35278 -1.79917,-0.3175 -0.0706,-0.3175 0.17639,-0.35278 0.0706,-0.67028 -0.10583,-0.24694 -0.77611,-0.52916 -0.84667,-0.91722 -0.0706,-0.28222 0.17639,-0.635 0.14112,-0.77611 -0.0705,-0.282222 -0.0705,0.0706 -0.24695,-0.352782 -0.0353,-0.0353 -0.49389,-1.41111 -0.49389,-1.44639 0,-0.3175 0.28222,-0.35277 0.35278,-0.49388 0.0353,-0.10584 0,-0.0353 0.0706,-0.84667 -0.88194,-1.65806 -0.35278,-1.19945 -0.70555,-3.03389 -0.52917,2.2225 -0.3175,2.36361 -0.52917,2.57528 -0.14111,0.14111 -0.45861,0.10583 -0.59972,0.10583 0,0.35278 0,1.19945 -0.3175,1.34056 -0.10584,0.0705 -0.10584,0.0353 -0.45861,-0.10584 -0.14112,0.77611 -0.17639,0.59973 -0.21167,0.67028 -0.0353,0 -0.42333,-0.17639 -0.52917,-0.59972 -0.0706,-0.24695 0.0353,-0.42333 -0.0353,-0.635 -0.0706,-0.17639 -0.67028,-0.45861 -0.635,-0.88195 0.0705,-0.42333 0.17639,0.0353 0.49389,-0.635 -0.35278,-0.52916 -0.88194,-0.635 -0.91722,-0.74083 -0.17639,-0.35278 0.14111,-0.0353 -0.0353,-0.52917 -0.0706,-0.24694 -0.56445,-0.52916 -0.67028,-0.635 -0.35278,-0.49388 -0.10583,-1.44638 -0.45861,-2.43416 -0.14111,0.635 -0.0353,0.70555 -0.17639,0.9525 -0.0706,0.10583 -0.81139,0.70555 -0.84667,0.74083 -0.45861,0.17639 -1.69333,-0.42333 -1.62277,-0.88194 0.0353,-0.21167 0.56444,-0.35278 0.70555,-0.42334 -0.45861,-0.56444 -0.10583,0 -0.81139,-0.52916 0.0353,-0.10584 -0.14111,-0.0706 0.59972,-0.67028 -0.28222,-1.02306 -0.38805,-0.49389 -0.42333,-0.9525 0,-0.14111 -0.0353,-0.10583 0.28222,-0.59972 -0.635,-0.45861 -0.42333,-0.21167 -0.56444,-0.70556 0.49389,-0.9525 0.35278,-0.14111 1.09361,-0.88194 -0.59972,-0.635004 -0.98778,0 -1.12889,-0.705559 -0.0705,-0.3175 0,-0.564445 -0.0353,-0.846667 -0.0706,-0.635 0.38806,-0.881944 0.35278,-1.128889 0,-0.141111 -0.9525,-1.023055 -0.70556,-2.363611 0,-0.07055 0.24695,-0.3175 -0.28222,-2.151944 -0.49389,1.023055 0,1.128889 -0.14111,2.2225 -0.17639,1.27 -0.67028,1.658055 -0.70555,1.728611 -0.0353,0.211667 0.3175,0.599722 0.0705,0.881944 -0.24695,0.3175 -0.70556,-0.246944 -1.23473,-0.282222 0.35278,1.411111 1.5875,1.552222 1.19945,2.187222 -0.28222,0.423335 -1.05834,-0.564444 -1.48167,-0.846666 0.0353,0.564444 0.21167,0.9525 0.21167,0.987777 0.0353,0.03528 0.70555,0.881944 0.91722,1.658054 -0.28222,0.0706 -1.41111,-0.42333 -2.01083,-0.98778 0.35277,-0.42333 -0.35278,-2.998607 -0.49389,-2.998607 -0.3175,-0.03528 0.0705,0.3175 -0.42334,1.234722 -0.56444,-1.164166 -0.0353,-3.316111 -0.38805,-4.374444 -0.3175,0.776111 -0.10583,1.516944 -0.24695,1.799167 -0.10583,0.352777 -0.3175,0.211666 -0.35277,0.529166 -0.0706,0.282222 0.21166,0.3175 0.24694,1.058334 -0.38805,0.3175 -0.28222,0.3175 -0.88194,0.03528 -0.17639,0.917223 0.10583,0.529167 0.14111,1.023056 0,0.03528 -0.28222,1.340556 -0.38806,1.481666 -0.10583,0.10583 -0.67028,0.14111 -1.16416,0 -0.74084,-2.398888 -0.67028,-2.151944 -0.70556,-2.222499 0,-0.423334 0.14111,-0.246945 0.3175,-0.987778 -0.52917,-0.599722 -1.09361,-0.670278 -1.19944,-1.058334 -0.21167,-0.917222 0.81138,-1.058333 1.12888,-1.340555 -0.38805,-0.599722 -1.34055,-0.599722 -1.27,-1.234722 0,-0.211667 0.21167,-0.3175 0.35278,-0.388056 -0.14104,-0.211729 -0.49381,-0.599785 -0.49381,-1.128952 0,-0.246944 0,-0.246944 0.17639,-0.599722 -0.10584,-0.493889 -0.17639,-0.599722 -0.10584,-0.846667 0.0353,-0.211666 0.10584,-0.211666 0.42334,-0.705555 0,-0.03528 -0.3175,-0.105833 -0.42334,-0.635 -0.0353,-0.352778 0.14111,0 0.0706,-2.434167 0.45861,-0.635 0.3175,-0.458611 0.38806,-0.599722 -0.0353,-0.07055 -0.49389,-1.869722 -0.49389,-1.905 -0.0706,-0.493889 0.10583,-0.07055 0.14111,-0.529167 0,-0.176388 -0.14111,-0.211666 -0.3175,-0.917222 -0.38805,1.023056 -0.42333,0.740834 -0.45861,0.987778 -0.0353,0.3175 0.24694,0.423333 0.0353,1.411111 -0.67028,0.141111 -0.91722,-0.211667 -1.05833,0.07056 -0.38806,0.670277 0.98777,1.869722 0.9525,2.610555 -0.17639,0.176389 0,0.282222 -0.98778,0.211667 -0.10584,0.352778 -0.56445,-0.07056 -0.635,-0.282222 -0.0706,-0.211667 -0.56445,-0.740834 -0.52917,-1.058334 0,-0.105833 0.0353,-0.141111 0.35278,-0.635 -0.21167,-0.211666 -0.24695,-0.211666 -0.3175,-0.352777 -0.38806,-1.058334 0.56444,-1.763889 -0.0353,-3.316111 -0.70556,1.023055 -0.14111,0.352777 -0.635,1.340555 0.17639,0.564444 0,1.516944 -0.14111,1.799167 -0.3175,0.740833 0.84667,2.187222 0.35278,2.610555 -0.35278,0.3175 -0.84667,-0.917222 -1.12889,-0.599722 -0.28222,0.3175 0.91722,2.575278 0.84666,2.681111 -0.0353,0.07056 -2.04611,-0.493889 -2.08138,-1.093611 -0.0353,-0.423333 0.14111,-0.246945 0.21166,-0.493889 0.38806,-1.128889 -0.28222,-2.716389 -0.28222,-2.786944 0.0353,-0.388056 0.28222,-0.176389 0.21167,-0.529167 -0.0706,-0.176389 -0.3175,-0.105833 -0.56445,-0.388056 -0.3175,-0.3175 -0.35278,-0.846666 -0.28222,-0.9525 0.14111,-0.352777 0.0706,0.176389 0.635,-0.423333 0.56444,0.07056 0.49389,0 0.52917,0 -1.55223,-1.481666 -2.18723,-2.8575 -2.08139,-3.175 0.0706,-0.176389 0.0353,-0.211666 0.74083,-0.211666 -0.0705,-0.9525 -0.0353,-0.846667 -0.0705,-0.917223 -0.0353,-0.03528 -1.09361,-0.635 -0.91722,-1.164166 0.0705,-0.176389 0.0705,-0.176389 0.77611,-0.3175 -0.24695,-0.211667 -0.70556,-0.564445 -0.74083,-0.776111 -0.0706,-0.3175 0.28222,-0.917223 0.59972,-1.093611 0.24694,-0.141112 0.45861,0 1.09361,-0.105834 -0.0353,-0.529166 -0.0353,-0.458611 -0.0353,-0.458611 0,-0.03528 0.24694,-0.246944 0.24694,-0.246944 -0.45861,-0.564445 -1.09361,-0.740834 -1.30527,-1.375834 -0.0353,-0.07055 -0.0706,-0.3175 -0.0706,-0.388055 0,-0.599722 0.21166,-0.246945 0.10583,-0.599722 -0.0353,-0.176389 -0.28222,-0.141111 -0.45861,-0.493889 -0.0706,-0.176389 -0.14111,-0.599722 -0.14111,-0.740834 0.10583,-0.564444 0.70555,-0.670277 0.56444,-1.128888 -0.10583,-0.3175 -0.24694,0 -0.45861,-0.352778 -0.0353,-0.105834 -0.28222,-3.175 -0.35278,-3.598333 -0.14111,0.670277 -0.14111,2.751666 -0.17639,2.857499 -0.14111,0.564445 -0.81138,0.987778 -0.88194,1.164167 -0.21167,0.529167 0.56444,0.811389 0.49389,1.199445 -0.0706,0.282222 -0.42333,0.211666 -0.77611,0.246944 0.14111,1.446389 0.74083,1.058333 0.56444,1.622778 -0.0353,0.176389 -0.21166,0.176389 -1.27,0.176389 0.52917,1.27 0.3175,1.093611 0.45861,1.340555 0.21167,0.352778 0.3175,0.03528 0.49389,0.811389 -0.77611,0.3175 -1.16416,-0.03528 -1.79916,-0.141111 -0.635,1.622778 1.44638,1.446389 1.09361,2.434167 -0.10584,0.3175 -0.45861,0.07055 -0.98778,0.176388 0.21167,1.622778 1.09361,1.27 1.41111,2.187223 -0.59972,0.917222 -1.97556,-0.105834 -2.25778,-0.141112 -0.24694,1.093612 1.30528,2.610556 1.27,2.786945 -0.10583,0.388055 -0.38805,0.03528 -1.5875,-0.141111 -0.0706,0.846666 0.10584,0.881944 -0.0706,1.023055 -0.21166,0.141111 -1.5875,-1.199444 -1.76389,-1.799166 -0.10583,-0.388056 0,-3.139723 -0.70555,-3.457223 -0.14111,-0.07055 -0.635,0.211667 -0.881947,0 -0.211666,-0.176388 -0.458611,-1.234722 -0.458611,-1.269999 0,-0.03528 0.246945,-0.670278 0.246945,-0.705556 0.07055,-0.105833 0.141111,-0.105833 0.352773,-0.246944 -0.141107,-0.246945 -0.388051,-0.705556 -0.282218,-0.881945 0.141111,-0.282222 0.317498,0.03528 1.128888,0.141111 -0.35278,-1.234722 -2.081388,-1.552222 -0.77611,-2.363611 -0.282222,-0.423333 -0.423333,-0.529166 -0.352778,-0.776111 0.03528,-0.246944 0.176389,-0.282222 1.093608,-0.352778 -0.24694,-0.458611 -0.3175,-0.599722 -0.3175,-0.811389 0,-0.352777 0.24695,-0.529166 0.21167,-0.670277 -0.10583,-0.599723 -0.881945,0.176389 -1.27,-0.811389 0.49389,-0.635 0.52917,-0.03528 1.12889,-0.917222 -0.49389,-0.529167 -1.270001,-0.670278 -1.023057,-1.305278 0.105834,-0.3175 0.246945,-0.141111 0.846667,-0.282222 -0.45861,-1.058334 -0.881945,-0.881945 -0.917222,-1.340556 0,-0.599722 0.388055,-0.105833 0.776112,-0.9525 -0.529168,-0.776111 -0.670279,-0.3175 -0.881946,-1.305278 0.352778,-0.670277 0.423334,-0.670277 0.423334,-0.811388 0,-0.282223 -0.599723,-0.670278 -0.635,-0.846667 -0.03528,-0.141111 0.176389,-0.599722 0.176389,-0.846667 0,-0.03528 -0.282223,-1.975555 -0.282223,-2.010833 0,0 -0.176389,1.199444 -0.246944,1.446389 -0.141111,0.352778 -0.3175,0.423333 -0.388056,0.493889 0.07056,0.423333 0.105834,1.940277 0.105834,1.975555 -0.03528,0.211667 0.03528,0.07056 -0.246945,0.423333 0.03528,0.493889 0.07056,0.599723 0.03528,0.740834 -0.07056,0.352778 -0.388055,0.352778 -0.423333,0.635 0,0.176389 0.388055,0.776111 0.282222,0.9525 -0.105833,0.176389 -0.3175,0.03528 -0.917222,0.105833 0.07055,1.234722 0.917222,1.234722 0.670278,1.799167 -0.07056,0.176389 -0.141112,0.03528 -0.670278,0.3175 0.529166,0.846666 0.141111,0.105833 0.846666,0.846666 -0.705555,0.493889 -0.493888,-0.105833 -1.164166,0.388056 0.07055,0.105833 1.481666,0.846667 -0.03528,2.187222 -0.176389,0.141111 1.199444,0.352778 0.881944,1.622778 -0.740833,0.282222 0.211667,1.763889 -0.07055,1.975555 0.03528,0.881945 -2.504722,-0.529166 -2.046111,-0.776111 -0.388056,-0.881944 -0.846667,-0.599722 -0.776111,-1.27 0,-0.105833 -0.105834,0.03528 0.493889,-0.917222 -0.458612,-0.458611 -0.881945,-0.635 -0.846667,-1.058333 0.03528,-0.352778 0.105833,-0.105834 0.423333,-0.670278 -0.564444,-0.776111 -0.458611,-0.07056 -0.776111,-0.987778 0.705556,-0.352778 0.458611,-0.246944 0.599722,-0.423333 -0.423333,-0.564445 -0.811389,-0.352778 -0.917222,-0.846667 -0.105833,-0.458611 0.282222,-0.740833 0.388056,-0.9525 0,-0.03528 0.282222,-1.128889 0.282222,-1.128889 0,-0.176388 -0.423333,-0.740833 -0.03528,-1.481666 0.03528,-0.105834 -0.03528,0.03528 0.3175,-0.458611 -0.529167,-0.776111 -0.352778,-0.3175 -0.846667,-1.27 0.141112,-0.811389 0.105834,-0.564445 0.211667,-1.164167 -0.246944,-0.423333 -0.564444,-0.881944 -0.599722,-1.340555 0,-0.246945 0.07055,-0.282223 0.211667,-0.811389 -0.246945,-1.552222 0.282222,-2.010834 0,-3.175 -0.141112,0.352778 -0.811389,1.869722 -0.811389,1.905 -0.141111,0.211666 -0.388056,0.3175 -0.458611,0.388055 0.176389,0.388056 0.07055,0.141111 0.388055,0.776111 -0.388055,0.635 -0.352778,0.635 -0.740833,0.881945 0.493889,0.776111 0.176389,0.141111 0.423333,0.705555 -0.07055,0.141111 0.141111,0.03528 -0.705555,0.9525 0.282222,1.023056 0.493889,1.234723 0.352777,1.516945 -0.105833,0.282222 -0.388055,0.211666 -0.9525,0.211666 0.423334,1.27 0.3175,0.352778 0.635,1.234723 -0.176388,0.211666 -0.03528,0.388055 -0.917222,0.211666 0.352778,0.776111 0.423334,0.670278 0.458611,0.740834 0,0.03528 0.105834,0.352777 0.07056,1.128888 -0.105833,0.07056 0.141111,0.07056 -1.411111,0.740834 0.211666,1.164166 1.763889,1.516944 1.093611,2.469444 -0.07056,0.141111 -0.917222,0.388056 -0.458611,1.128889 0.282222,0.423333 0.141111,1.693333 -0.105834,1.763889 -0.776111,0.3175 -1.234722,-4.303889 -1.375833,-4.550833 -0.388055,0.705555 -0.3175,2.469444 -0.740833,2.575277 -0.176389,0.07056 -0.846667,-0.635 -0.776111,-1.693333 0.03528,-0.246944 0.352777,-1.093611 0.388055,-1.093611 -0.3175,-0.423333 -0.282222,-0.388056 -0.3175,-0.493889 -0.03528,-0.141111 -0.03528,-3.951111 -0.03528,-4.021667 0.03528,-0.3175 0.105833,-1.340555 0,-1.128888 -0.458612,0.176389 0.07055,0.03528 -0.740834,0.141111 0.282222,0.529166 -0.246944,-0.176389 -0.03528,-0.105834 -0.246944,-0.423333 -0.564444,-1.058333 -0.493888,-1.305277 0.03528,-0.211667 0.03528,-0.105834 0.423333,-0.423334 -0.03528,-0.07055 0.105833,0.03528 -0.493889,-0.917222 0.246944,-0.529167 0.3175,-1.763889 0.3175,-1.799167 0,-0.352777 -0.282222,-0.529166 -0.3175,-0.776111 -0.105833,-0.670277 0.458611,-1.058333 0.705556,-1.27 -0.458612,-0.493888 -0.9525,-1.058333 -0.987778,-1.728611 0,-0.03528 0,-0.105833 0.07055,-0.599722 -0.246944,-0.493889 -0.211666,-0.493889 -0.246944,-0.564444 -0.03528,-0.3175 0.03528,-0.3175 0.141111,-0.493889 -0.388056,-0.9525 0.07056,-1.5875 -0.388056,-2.928056 -0.03528,0.811389 0.03528,1.905 -0.211666,2.293056 -0.176389,0.3175 -0.352778,0.176389 -0.493889,0.352778 -0.141111,0.282222 0,1.234722 -0.176389,1.552222 -0.105833,0.176389 -0.3175,0.176389 -0.740833,0.423333 0.352777,0.493889 0.3175,0.423333 0.352777,0.599722 0.105834,0.3175 -0.07056,0.3175 0.03528,0.635 0.03528,0.211667 0.176389,0.141111 0.493889,0.846667 -0.776111,0.246944 -0.141111,-0.07056 -0.881944,0.176389 0.282222,0.635 0.458611,1.305278 0.423333,1.481666 -0.105833,0.458612 -0.811389,0.493889 -1.058333,0.599723 0.352777,1.164166 1.058333,1.516944 1.023055,1.728611 -0.03528,0.599722 -1.27,-0.141111 -1.340555,-0.03528 -0.211667,0.246944 0.635,1.975556 0.352777,2.151944 -0.141111,0.07056 -0.705555,-0.917222 -0.740833,-0.9525 -0.07055,-0.3175 -0.246944,1.622778 -0.599722,2.187223 -0.282222,0.493888 -1.340556,0.811388 -1.481667,0.423333 -0.03528,-0.105833 -0.07055,-0.03528 0.211667,-0.458611 -0.388056,-0.917222 -1.411111,-1.693333 -1.093611,-2.151945 0.176389,-0.3175 0.246944,0.141112 0.846667,0.246945 -0.423334,-0.9525 -0.9525,-1.340556 -0.846667,-1.763889 0.105833,-0.493889 0.846667,-0.282222 1.446389,-0.564444 -0.917222,-1.164167 -1.375834,-0.705556 -1.622778,-1.763889 0.881944,-0.352778 0.141111,0.105833 0.9525,-0.246945 -0.3175,-0.987777 -1.446389,-1.375833 -1.340556,-1.799166 0.03528,-0.176389 0.282223,-0.176389 0.635,-0.211667 -0.3175,-0.529167 -0.705555,-1.199444 -0.740833,-1.27 -0.105833,-0.352778 -0.105833,-0.07056 0.07056,-0.493889 -1.27,-3.280833 -0.493889,-1.728611 -0.811389,-3.210278 -1.375833,2.504723 -1.552222,1.552223 -1.5875,1.905 -0.03528,0.352778 0.141111,-0.07055 0.776111,1.093611 -0.493889,1.305278 -0.282222,2.046112 -0.599722,1.905 -0.246945,-0.07055 -0.776111,0.9525 -0.776111,1.023056 0,0.529167 0.3175,0.388056 0.141111,0.776111 -0.07056,0.211667 -0.176389,0.141111 -0.635,0.211667 -0.07056,0.529166 -0.03528,0.564444 -0.211667,0.670277 -0.458611,0.282223 -0.846667,-1.658055 -0.9525,-3.174999 -0.352778,0.493888 -0.282222,0.529166 -0.423333,0.493888 -0.423334,-0.07055 -0.740834,-3.951111 -0.423334,-5.750277 -0.493888,-1.411111 -0.141111,-0.670278 -0.352777,-1.552222 -0.211667,0.458611 -0.07056,2.187222 -1.340556,2.822222 0.493889,0.987778 0.493889,1.128889 0.493889,1.305278 -0.07055,0.352777 -0.3175,0.529166 -0.670278,0.670277 -0.246944,0.670278 -0.105833,0.282222 -0.246944,0.599722 0.352778,0.670278 0.458611,0.599723 0.493889,0.740834 0.07055,0.211666 0.07055,1.023055 0,1.093611 -0.282222,0.423333 -1.622778,-0.881945 -1.975556,-1.058333 0.246945,0.811388 0.211667,0.423333 0.282222,0.705555 0.141112,0.740833 -0.388055,1.199445 -0.423333,1.199445 -0.07055,-0.07056 -0.987778,-2.010834 -1.128889,-2.645834 -0.07055,-0.388055 0.07056,-0.176389 0.03528,-0.564444 0,-0.493889 -0.599722,-1.481667 -0.493889,-1.940278 0.07056,-0.458611 0.176389,-0.246944 0.635,-0.740833 -0.458611,-0.740834 -0.3175,-0.176389 -0.776111,-0.846667 0.458611,-0.388055 0.388056,-0.141111 0.635,-0.3175 0.141111,-0.105833 0.705556,-0.635 0.917222,-0.846667 -0.07055,0 -0.917222,-0.388055 -1.023055,-0.529166 -0.141111,-0.282222 -0.03528,-0.493889 -0.07056,-0.635 -0.07055,-0.176389 -0.493889,-0.3175 -0.564444,-0.881945 -0.07056,-0.3175 0.282222,-1.375833 -0.07056,-2.398888 -0.3175,0.811388 0.07056,0.03528 -0.458611,1.869722 -0.423333,-0.03528 -1.128889,-0.07056 -1.305278,-0.352778 -0.176389,-0.282222 0.03528,-0.423333 -0.105833,-0.846667 -0.176389,-0.493889 -0.458611,-0.246944 -0.458611,-0.705555 0,-0.458611 0.282222,-0.105834 0.352778,-0.493889 0,-0.03528 -0.3175,-1.975556 -0.458611,-2.363611 0,0 -0.03528,-0.105833 -0.03528,-0.105833 0,0 -0.105834,13.088055 -0.105834,13.088055 0,0 -0.3175,1.058333 -0.3175,1.058333 -5.538611,-7.090833 -1.622777,-7.725833 -7.161388,-11.853333 -5.997222,-4.480278 -4.691945,-3.739444 -6.35,-4.409722 -1.728611,-0.635 -1.658056,-1.023056 -2.2225,-2.54 0,0 -0.740833,-2.151944 -0.740833,-2.151944 0,0 215.547218,0 215.547218,0 0,0 0,46.425554 0,46.425554 0,0 0,0 0,0 -0.84667,-0.811389 -1.02306,-0.776111 -1.19945,-0.776111 -1.12889,0.141111 -1.79916,3.175 -2.75166,2.998611 -0.98778,-0.176389 -4.1275,-9.066389 -4.69195,-10.548055 -1.34055,-3.4925 -3.4925,-9.242778 -5.57389,-13.052778 -3.13972,-5.856111 -5.08,-5.291666 -5.15055,-5.256389 -0.35278,0.211667 -0.74083,1.869723 -3.38667,7.584723 -0.77611,1.728611 -2.61055,5.644444 -4.37444,8.643055 -4.93889,8.501944 -7.62,9.666111 -9.03111,11.324166 -0.74084,0.846667 -1.79917,2.610556 -2.75167,4.691945 -0.67028,1.552222 -1.55222,3.845277 -2.15194,5.221111 -2.43417,5.468055 -2.11667,1.763889 -5.29167,4.550833 -0.10583,0.105833 -0.21167,0.176389 -0.3175,0.282222 -3.42195,3.139722 -6.10306,7.866945 -6.45583,7.972775 -0.0353,0 -2.57528,-1.05833 -2.61056,-1.09361 -0.45861,-0.35278 -0.88194,-1.23472 -1.27,-2.64583 -0.84667,-3.210279 -1.34056,-7.761113 -2.15194,-8.184446 -0.98778,-0.529167 -2.75167,2.610556 -3.21028,3.421944 -1.55222,2.681112 -3.84528,7.514162 -4.72722,7.866942 -0.635,0.24695 -2.32834,5.43278 -2.8575,5.78556 -0.98778,0.74083 3.81,1.44639 -4.16278,5.573882 -0.67028,0.35278 -3.4925,3.91584 -3.42195,6.56167 0,0.38806 -0.42333,1.02306 -0.42333,1.41111 0.24695,4.62139 -6.24417,5.85611 -10.51278,9.525 -3.03389,2.61056 -6.42055,2.8575 -7.72583,6.17361 -0.74083,1.905 15.66333,2.71639 2.57528,6.87917 -4.37445,1.37583 14.11111,0 14.2875,0 0.42333,0 16.33361,-13.335 16.36889,-13.335 0.0353,0 3.66888,0.0353 3.70416,0.0353 0.0706,0 2.96334,0.0353 2.99861,0.0353 1.905,0.0353 9.41917,0.17638 9.48973,1.16416 0.0705,0.74084 -2.99862,1.72861 -3.52778,1.94028 -2.68111,1.05833 -5.67972,7.62 -5.32695,8.60778 0.24695,0.81139 4.86834,-2.61056 9.45445,-2.50472 0.0353,0 4.58611,0.24694 5.04472,0.24694 0.0353,0 2.61056,0.49389 3.95111,0.49389 0,0 4.55083,-1.09361 4.55083,-1.09361 2.64584,0 5.29167,-0.10584 5.3975,-0.10584 0,0 3.66889,-2.04611 3.66889,-2.04611 0.0706,0 3.70417,0 4.90361,0 0,0 4.445,-0.0705 4.445,-0.0705 0,0 14.21695,-0.21167 14.21695,-0.21167 0,0 0,57.50278 0,57.50278 0,0 -222.003051,0 -222.003051,0 0,0 0,-19.93195 0,-19.93195 0,0 0.705555,-0.0353 0.705555,-0.0353 6.279444,-0.38806 8.678333,-1.41112 8.748889,-1.44639 2.187222,-0.59973 5.891388,-0.14111 7.655277,-0.81139 -0.07055,-0.17639 0.141111,0 -0.529166,-1.16417 2.751666,-0.42333 2.398888,-0.0353 4.233333,-0.38805 -0.881945,-0.81139 -1.940278,-1.41112 -1.905,-1.76389 0.07055,-0.49389 0.881944,-0.14111 0.881944,-0.77611 -0.03528,-0.35278 -0.635,-0.49389 -1.516944,-1.16417 -1.093611,-0.84667 -1.481667,-0.84667 -1.728611,-0.91722 z"
       style="fill:#aaaaaa;fill-opacity:0;stroke-width:0.447;stroke-miterlimit:4;stroke-dasharray:none" />
  </g>
</svg>
