<?xml version="1.0" encoding="UTF-8" standalone="no"?>
<!-- Created with Inkscape (http://www.inkscape.org/) -->

<svg
   width="297mm"
   height="210mm"
   viewBox="0 0 297 210"
   version="1.1"
   id="svg1189"
   xmlns="http://www.w3.org/2000/svg"
   xmlns:svg="http://www.w3.org/2000/svg">
  <defs
     id="defs1186" />
  <g
     id="layer1">
    <path
       id="Path2"
       stroke-width="0.246944"
       stroke="#2b2b2b"
       stroke-opacity="1"
       fill="#eaeaea"
       fill-opacity="1"
       fill-rule="evenodd"
       stroke-linecap="round"
       stroke-linejoin="round"
       d="m 270.71136,192.92025 c 0,0 0,-179.987219 0,-179.987219 0,0 -239.994708,0 -239.994708,0 0,0 0,179.987219 0,179.987219 0,0 239.994708,0 239.994708,0 z M 261.71553,90.367751 c 0,0 0,93.556669 0,93.556669 0,0 -222.003045,0 -222.003045,0 0,0 0,-81.42111 0,-81.42111 0,0 0.03528,0 0.03528,0 0.846666,0.0705 1.446388,0.10583 1.763888,0.17639 -0.07056,0 -0.03528,0.0353 0.141112,0.0353 5.115277,-0.10584 119.909157,-12.629451 148.836937,-13.476118 3.88055,-0.105833 27.41083,3.386667 27.6225,3.280834 0.0705,-0.07056 23.07166,-1.234722 42.05111,-2.081389 0,0 1.55222,-0.07056 1.55222,-0.07056 z m 0,-13.264444 c 0,0 -2.25778,-1.023055 -2.25778,-1.023055 -8.11389,-3.81 -18.66194,-9.066389 -28.85722,-14.111111 -11.60639,-5.715 -15.45167,-12.276667 -18.55611,-11.359444 -0.88194,0.246944 -2.39889,7.725833 -13.19389,5.891388 -4.69194,-0.776111 -5.82083,-3.915833 -8.78416,-3.633611 -1.79917,0.176389 -3.21028,2.469445 -5.53862,3.175 -2.11666,-0.599722 -5.15055,-2.928055 -14.85194,-8.819444 -5.43278,-3.316111 -13.6525,-7.761111 -15.45167,-7.514166 -2.96333,0.352777 -5.64444,9.207499 -16.43944,6.808611 -2.29305,-0.564445 -11.60638,-3.033889 -21.87222,-7.866945 -17.356663,-8.255 -15.27527,-11.394722 -18.591385,-11.359444 -3.139722,0.07056 -4.515556,5.573889 -11.676945,9.630833 -0.141111,-0.07056 -0.529166,-0.352778 -0.952499,-0.388055 -1.164167,-0.03528 -3.4925,2.151944 -8.113889,6.314722 -0.105834,0.105833 -3.951111,3.527777 -4.727222,4.233333 -2.963334,2.645833 -5.3975,4.903611 -7.761111,6.985 -3.986389,3.633611 -4.233333,3.845277 -4.339167,3.951111 -1.128889,1.023055 -1.164166,0.917222 -1.5875,1.023055 -0.105833,0.03528 -5.009444,1.164167 -5.679722,1.305278 -5.291667,1.199445 -10.195278,2.293056 -10.653889,2.257778 -0.352778,-0.03528 -1.023055,0.07055 -2.010833,0.282222 0,0 -0.105833,0.03528 -0.105833,0.03528 0,0 0,-40.992777 0,-40.992777 0,0 222.003045,0 222.003045,0 0,0 0,55.174443 0,55.174443 z"
       style="fill:#eaeaea;fill-opacity:0;stroke-width:0.447;stroke-miterlimit:4;stroke-dasharray:none" />
  </g>
</svg>
