<?xml version="1.0" encoding="UTF-8" standalone="no"?>
<!-- Created with Inkscape (http://www.inkscape.org/) -->

<svg
   width="297mm"
   height="210mm"
   viewBox="0 0 297 210"
   version="1.1"
   id="svg1189"
   xmlns="http://www.w3.org/2000/svg"
   xmlns:svg="http://www.w3.org/2000/svg">
  <defs
     id="defs1186" />
  <g
     id="layer1">
    <path
       id="Path3"
       stroke-width="0"
       stroke="none"
       stroke-opacity="0"
       fill="#aaaaaa"
       fill-opacity="1"
       fill-rule="evenodd"
       stroke-linecap="round"
       stroke-linejoin="round"
       d="m 260.73379,196.07106 c 0,0 0,-179.987212 0,-179.987212 0,0 -239.994723,0 -239.994723,0 0,0 0,179.987212 0,179.987212 0,0 239.994723,0 239.994723,0 z M 29.770177,71.893291 c 0,0 0.388056,0.141111 0.388056,0.141111 1.940278,0.705556 5.926667,1.940278 17.180277,3.104444 5.362223,4.727223 10.759722,5.362223 15.310556,5.3975 9.524999,0.03528 11.818055,2.257778 17.462499,2.469445 -15.028333,-7.761111 -15.416388,-3.81 -24.800277,-6.420556 -7.055555,-2.010833 -19.05,-6.455833 -20.178888,-7.761111 1.622777,-3.210277 4.833055,-0.07055 15.874999,-4.339166 3.245556,-1.234722 3.915833,-2.575278 5.644445,-3.598333 2.363611,-1.375834 2.539999,-0.493889 4.656666,-2.363611 8.431389,1.446388 8.255,1.411111 8.431389,1.446388 8.325555,1.375834 8.925277,1.340556 9.278055,1.375834 -2.892778,-1.411111 -21.025555,-6.808611 -8.5725,-11.853333 10.653889,-4.303889 7.126111,-5.326945 15.098889,-10.689167 3.81,-2.575278 6.208889,-1.093611 11.465277,3.915833 18.16806,4.621389 14.35806,6.208889 18.13278,7.267222 2.50472,0.705556 0.45861,-2.151944 15.48694,4.833056 -2.50472,2.928055 -2.50472,1.305278 -5.57388,3.139722 -1.905,1.128889 -5.99723,4.903611 -8.78417,6.702778 -3.24556,0 -5.36222,-0.705556 -9.59556,3.457222 6.84389,-0.105833 13.79361,-3.245556 20.49639,-6.103056 -4.62139,7.514167 0.0353,2.963334 -0.45861,9.172222 -0.3175,3.845278 -4.19805,4.903611 -2.11667,11.147778 4.1275,-3.774722 -0.42333,-6.455833 11.71223,-18.026944 11.18305,-10.689166 10.26583,-7.443611 10.16,-17.603611 6.17361,0 11.71222,7.62 13.61722,8.854722 1.41111,-0.705555 0.49389,-0.670278 1.86972,-1.340555 1.5875,0.846666 5.32694,3.704166 6.13833,4.374444 -3.77472,1.658056 -6.52639,3.563056 -8.18444,7.090833 -11.07722,6.314722 -21.87222,9.771944 -25.78806,13.229167 3.28084,-0.388056 15.34584,-5.221111 15.66334,-5.362222 7.62,-3.069167 11.50055,-7.443611 16.43944,-10.653889 0.91722,7.267222 0.10583,8.043333 -3.98639,12.453055 -4.62139,5.009444 -9.17222,8.678333 -9.98361,12.841109 0.38806,-0.24694 -0.0353,0.35278 5.25639,-5.079998 0,0 7.58472,-7.761111 7.58472,-7.761111 6.52639,-6.702777 1.5875,-5.185833 4.65667,-10.16 0.74083,-1.199444 8.74889,-5.503333 10.30111,-6.208888 7.05555,1.658055 -0.67028,4.515555 16.86278,3.457222 -3.63361,4.162777 -22.11917,13.017499 -24.48278,18.732499 2.29306,0.9525 5.3975,-5.362222 15.48694,-8.643055 12.3825,-3.986389 16.65111,-0.670278 18.59139,0.458611 6.24417,3.563056 12.3825,2.786944 20.49639,5.08 0.81139,0.246944 5.715,1.693333 6.6675,1.975555 5.67972,1.693334 6.49111,1.975556 6.91444,2.081389 0.56445,0.141111 0.56445,0.105834 0.77612,0.141111 -6.94973,-4.868333 -9.2075,-4.374444 -25.11778,-8.396111 -8.32556,-2.081388 -10.97139,-4.268611 -11.46528,-4.409722 -1.19944,-0.352777 -6.06778,0 -10.40694,-0.705555 4.55083,-3.245556 9.91305,-7.055556 12.7,-8.995833 3.28083,2.187222 2.82222,3.845277 6.35,5.185833 0,0 9.56027,3.527778 9.56027,3.527778 3.10445,1.164166 11.32417,5.044722 13.79361,6.173611 9.31334,-0.705556 8.18445,-0.705556 9.31334,-0.670278 -1.27,1.305278 -0.67028,0 -2.11667,1.234722 0.84667,0.211667 1.19945,0.176389 1.23472,0.211667 0.77611,0.846666 -0.17639,0.776111 1.16417,0.670277 -0.91722,0.881945 -1.02306,0.881945 -0.9525,1.128889 0.10583,0.3175 0.81139,0.141111 1.37583,0.105834 -1.37583,0.670277 -1.48166,0.740833 -1.48166,0.776111 -0.0706,0.388055 0.56444,-0.3175 0.70555,0.07055 0.0706,0.141111 -0.81139,1.023056 -0.81139,1.023056 -0.14111,0.176389 -0.67027,1.375833 -0.59972,1.446389 0.10583,0.141111 0.24695,-0.105834 1.37583,-0.3175 -0.98777,1.305277 -0.49388,0.282222 -1.02305,1.411111 1.27,-0.211667 0.10583,-0.176389 1.30528,-0.176389 -0.45861,0.635 0.0705,0.282222 -2.08139,1.305278 0.0705,0.211666 0.21166,0.458611 0.14111,0.635 -0.0706,0.141111 -0.59972,0.458611 -0.635,0.493888 0.42333,0.246945 -0.0353,-0.07055 0.45861,0.246945 -0.81139,0.246944 -0.59972,0.211667 -0.74083,0.3175 1.16416,1.305278 0,-0.211667 -0.91723,1.728611 0.70556,0.282222 -0.21166,0.105833 2.04612,0.352778 -1.905,1.340555 -1.37584,0.952495 -1.72862,1.234715 1.76389,0.10584 0.45862,-0.10583 1.62278,0.10584 -1.05833,0.49388 -0.0353,0 -2.96333,0.35277 1.86972,0.38806 0.38805,-0.0353 1.72861,0.3175 -1.55222,1.16417 -0.52917,-0.0706 -1.97556,1.19945 0.9525,0.17639 -0.24694,0.10583 2.50473,-0.14111 -2.25778,1.05833 -0.42334,-0.21167 -2.29306,0.98777 -1.97555,0 -6.59694,0.0353 -8.21972,-0.14111 -0.28222,-0.24694 0.14111,0.0706 -1.34056,-1.23472 1.19945,-1.16417 1.02306,-1.05833 1.16417,-1.19944 -1.09361,-1.269999 -1.55222,-0.14111 -2.71639,-1.693332 0.98778,-0.740833 0.88195,-0.352778 0.98778,-0.493889 0.10583,-0.176389 0.21167,-0.105833 -0.21167,-0.811389 0.52917,-0.246944 0.81139,-0.3175 0.77611,-0.564444 -0.0353,-0.423333 -1.27,-0.564445 -1.41111,-0.670278 -0.635,-0.529166 0.14111,-0.246944 -0.42333,-0.811389 -0.10583,-0.105833 -1.05833,-0.352777 -1.34056,-0.740833 -0.42333,-0.564444 0.14112,-0.105833 -0.45861,-1.305278 -0.88194,0.846667 -0.14111,0.458611 -0.59972,1.058334 -0.21167,0.246944 -0.77611,0.388055 -0.81139,0.493888 -0.28222,0.3175 0.42334,0.211667 -0.84666,1.128889 1.76388,1.093611 -1.16417,1.164167 0.84666,1.728611 -1.19944,0.846667 -0.0353,-0.03528 -1.65805,0.740834 1.65805,1.375836 -1.19945,0.952506 0.635,2.257776 -1.27,0.98777 -1.37584,0.0705 -1.19945,1.37583 -1.5875,-0.14111 -1.41111,-0.28222 -1.23472,-1.19944 0,-0.0353 0.0353,-0.0353 -0.74083,-0.49388 0.28222,-1.05834 0.35277,-0.98778 0.28222,-1.305286 -0.10583,-0.635 -0.84667,-0.881945 -1.19945,-1.552223 -0.70555,-1.375833 0.67028,-2.328333 -0.91722,-3.421944 -1.02305,2.716389 -1.23472,3.280833 -1.69333,4.691944 0.70555,1.340559 0.38805,0.740839 0.59972,1.234729 -1.51694,2.11667 -1.79917,1.86972 -2.50472,0.635 0.70555,-0.35278 0.67028,-0.42333 0.70555,-0.59972 0.0706,-0.35278 -0.28222,-0.67028 -1.05833,-1.164175 0.14111,-0.3175 0.45861,-1.058334 0.45861,-1.058334 -0.84666,-2.151944 -1.30528,-2.610555 -1.37583,-2.716388 -1.55222,1.375833 -0.9525,2.2225 -1.37583,2.963333 -0.56445,0.9525 -1.97556,0.881944 -2.04612,1.622784 -0.0705,0.67028 0.3175,-0.0353 0.81139,1.30528 -1.5875,-0.59973 -0.42333,-0.35278 -1.79916,-1.44639 -0.35278,1.41111 -0.3175,1.86972 -0.77611,2.29305 -0.38806,0.38806 -1.05834,0.42334 -1.19945,0.45861 0.67028,-0.59972 0.88195,-0.74083 0.91722,-0.9525 0.0706,-0.45861 -1.62277,-2.2225 -1.79916,-2.892779 -0.28223,-1.058333 0.52916,-0.141111 -0.14111,-1.234722 -0.45862,0.493889 -0.59973,0.105834 -1.12889,3.527781 -1.72861,1.16417 -2.8575,1.79917 -3.10445,1.55222 -0.17639,-0.17638 0.0353,-0.56444 0.24695,-1.19944 -0.77611,-0.74083 -0.59973,-0.42333 -0.70556,-0.635 -0.28222,-0.52917 0.45861,-0.49389 -0.52917,-1.411116 -0.74083,1.340556 -1.09361,3.386676 -1.94027,3.316116 -0.42334,-0.0353 -0.91723,-1.12889 -1.30528,-1.23472 -0.14111,-0.0353 -0.17639,-0.21167 -0.77611,0.3175 -2.04611,-0.74084 -1.23472,-0.45861 -1.83445,-0.70556 0.14111,-0.70555 0.14111,-0.59972 0.0353,-0.77611 -0.42333,-0.70555 -0.84667,-0.635 0.0353,-0.81139 -1.23472,-0.917225 -1.48167,-0.776114 -1.5875,-1.16417 -0.10583,-0.352777 0,-0.141111 0.3175,-1.128889 -1.19945,-2.645833 -2.08139,-3.386666 -2.15195,-3.421944 0,0.03528 -0.10583,-0.246944 -0.0353,2.2225 -1.69334,2.257778 -1.30528,2.504722 -1.30528,2.54 1.27,0.705556 0.14111,0.07056 1.16417,0.670278 -1.55223,0.635005 -0.84667,0.105833 -1.76389,0.740835 1.65805,0.59973 0.24694,-0.10583 1.76389,0.35278 -2.15195,1.5875 -0.52917,-0.35278 -2.50473,1.34056 1.37584,0.28221 1.16417,0.38805 1.19945,0.42332 -0.98778,0.84667 -2.99861,0.52917 -5.04472,-0.35277 0.56444,-0.74084 0.70555,-0.77612 0.70555,-0.91723 0,-0.21166 -0.0353,-0.17638 -0.49389,-0.59972 0.0353,-0.14111 0,0.0706 0.14111,-0.4586 -0.38805,-0.740842 0.10584,0.17638 -1.62277,-2.822231 -1.05834,1.305278 -0.70556,1.516945 -0.98778,1.905 -0.21167,0.3175 -0.10584,-0.03528 -1.05834,0.952491 0.35278,0.52917 -0.14111,-0.0705 0.77612,0.98778 -0.84667,1.7639 -1.76389,1.41111 -2.04612,1.02307 -0.21166,-0.3175 -0.10583,-0.14111 0.0353,-0.67029 -0.74083,-1.05833 0.0353,-0.38806 -0.88194,-1.02306 0.0353,0.14112 0.0705,0.81139 0.0705,0.84667 -0.9525,1.05833 -0.0353,0 -1.12888,1.09361 0.42333,0.88195 0.38805,0.63501 0.24694,0.88195 -0.0353,0.0353 -0.91722,0.8114 -2.43417,-0.88195 0.0353,-0.10583 -0.0353,-0.10583 0.45861,-0.635 -1.02305,-0.81139 -1.12888,-0.84666 -1.23472,-1.02305 -0.17639,-0.35278 0.24695,-0.10584 -0.45861,-1.587499 -0.45861,0.458612 -0.24694,0.105834 -1.02305,1.234719 0.42333,0.74083 0.38805,0.67029 0.38805,0.67029 -0.52917,0.67027 -0.42333,0.56444 -0.42333,0.635 -0.0353,0.38805 0.84666,0.59972 -0.52917,1.30527 -0.88194,-1.27 -0.45861,-1.72862 -0.91722,-1.69334 -0.74083,0 0.10583,2.46945 -0.70556,2.75168 -1.51694,0.49388 -0.74083,-3.31611 -2.68111,-3.56307 -0.42333,1.23472 -0.21166,0.81139 -0.81139,1.62279 -2.8575,-2.29306 -0.14111,0.67028 -4.02166,-2.857505 2.32833,0.246944 1.44639,0.423333 2.71639,0.07055 -2.15195,-1.375833 -2.71639,-0.881944 -2.71639,-2.398889 1.69333,0 0.10583,0.246945 1.69333,-0.03528 -1.51694,-1.446389 -1.23472,-0.246945 -2.2225,-2.010834 1.44639,-0.105833 0.35278,0.07056 1.44639,-0.105833 -2.50472,-2.081389 -0.24695,0.246945 -2.92806,-2.681111 -0.635,0.917222 -0.35277,0.811389 -0.49389,0.987778 -0.35277,0.423333 -0.24694,-0.03528 -1.5875,0.776111 0.88195,0.705555 0.67028,0.599722 0.77612,0.670278 -0.81139,0.846666 0.14111,-0.105834 -1.34056,1.058333 0.10583,0.07056 -0.14111,0.07056 0.81139,0.529167 0.24694,0.635 -0.0353,0.211666 0.67028,1.058333 -0.98778,0.246944 -2.64584,0.493889 -2.61056,1.058333 0.0353,0.3175 0.14111,0.3175 2.36361,0.529167 -0.0705,0.105833 -0.42333,0.670278 -0.635,0.846667 -0.42333,0.317505 -1.86972,0.388055 -3.31611,1.552225 2.04611,0.9525 1.34056,-0.24694 3.03389,0.84667 -3.06917,0.59972 -4.02167,1.05833 -3.95111,1.48166 0.0353,0.38806 0.59972,0.42334 1.55222,0.635 -1.55222,1.905 -7.40833,0.24695 -7.69055,-0.28222 -0.38806,-0.70555 0.24694,-0.3175 0.0353,-0.77611 -0.0353,-0.10583 -0.10583,-0.0353 -1.55222,-1.02306 0.24695,-0.67027 0.17639,-0.45861 0.10583,-0.74083 -0.0705,-0.21167 -0.70555,-0.635 -0.67027,-0.84667 0.0353,-0.14111 0,-0.0705 0.67027,-0.42333 -3.06916,-2.504724 -2.01083,-2.786947 -2.54,-2.928058 -0.38805,-0.105833 -1.16416,1.128889 -1.23472,1.622778 -0.10583,0.493889 -0.0353,0.211667 0.14111,0.635 -1.19944,0.74084 -0.56444,0.352778 -1.09361,0.74084 0.49389,0.70555 0.0353,0.0705 0.49389,0.59972 -0.14111,1.34055 0.45861,0.70555 0.24695,1.19944 -0.0706,0.17639 -1.94028,0.81139 -2.82223,1.05834 -0.49389,-0.635 -0.24694,-0.45861 -1.41111,-1.23473 1.86972,-1.12888 1.16417,-0.38805 -0.38805,-1.940277 0.91722,-0.776111 0.74083,-0.635 0.84666,-0.705555 -0.45861,-0.811389 -0.3175,-0.529167 -0.42333,-0.705556 0.14111,-0.352777 -0.0706,0.03528 0.24694,-0.529166 -0.59972,-1.128889 -0.52916,-1.023056 -0.52916,-1.023056 -0.17639,-0.493889 -0.24695,0 0.0705,-0.740833 -0.59972,-0.493889 -0.52916,-0.423333 -0.56444,-0.423333 0.21167,-0.811389 0.0353,-0.670278 -0.0706,-0.776112 -0.91722,-0.881944 -0.21166,0.599723 -1.30527,1.552223 -0.17639,0.176389 -0.0706,0.105833 -0.81139,0.423333 0.77611,1.340555 1.12889,0.211667 0.17639,2.681111 -0.0353,0.03528 0.0705,-0.03528 -0.70556,0.458611 0.28222,0.38806 0.45861,0.17639 0.17639,0.59973 -0.10583,0.14111 -0.24695,-0.0353 -1.55222,0.91722 0.9525,-0.0353 -0.0353,0.0353 1.09361,-0.0706 -0.14111,0.10584 0.21166,0.0353 -1.27,0.81139 -1.23472,-0.635 -1.12889,-0.67028 -1.30528,-0.77611 0.38806,-1.44639 -0.9525,-0.91722 0.45861,-1.41111 -0.67028,-0.458615 -0.70555,-0.458615 -0.74083,-0.493893 -0.38806,-0.458611 0.21166,-0.246945 -1.02306,-1.27 0.88195,-0.282222 0.67028,-0.282222 -0.17639,-1.023056 -0.0705,-0.599722 -0.0353,-0.811389 -0.49389,-0.811389 -0.77611,0 -0.3175,0.881945 -0.3175,0.917223 -0.49388,0.493888 -0.45861,0.458611 -0.45861,0.458611 0.24695,0.529166 0.17639,0.352777 0.21167,0.493889 -0.74083,0.423333 -0.59972,0.352777 -0.67028,0.388055 0.3175,0.635 0.17639,0.599722 0.17639,0.635 -0.98778,0.49389 -0.77611,0.423333 -1.23472,0.88195 0.0353,0 0.10583,0.0705 1.12889,0.3175 -0.70556,0.77611 -1.5875,1.55222 -2.32833,1.37583 -1.23473,-0.24694 -2.82223,-4.339169 -3.45723,-5.291669 -0.42333,0.423334 -0.14111,-0.176389 -0.56444,0.987778 -0.49389,0.423333 0.0705,-0.03528 -0.59972,0.529167 0.10583,0.07055 -0.0353,0.03528 1.05833,0.670277 -0.59972,0.211667 -0.52917,0.211667 -0.56444,0.211667 0,0.07056 0,0 -0.10584,0.564445 -0.0705,0.03528 0,0.03528 -0.70555,0.388055 0.35277,0.56445 0.3175,0.52917 0.0353,0.67028 -1.09361,0.52917 -1.72861,-2.857502 -2.68111,-3.421947 -0.10583,0.211667 -0.35277,-0.03528 -0.0706,0.776112 -0.74084,0.564444 -0.42334,0.388055 -0.3175,0.811388 -0.56445,0.211667 -0.59972,0.176389 -0.635,0.3175 -0.14111,0.282223 0.35278,0.176389 -0.635,1.058337 -0.9525,-1.411114 -0.0353,-0.24694 -0.81139,-1.516948 -1.51695,0.740834 -0.74083,1.340558 -1.55222,1.693338 -1.41111,0.635 -1.41111,-1.940282 -2.08139,-3.104449 -1.5875,1.058334 -0.35278,1.975556 -1.12889,2.328334 -0.42333,0.176388 -2.36361,-1.340556 -2.43417,-1.693334 -0.10583,-0.670278 0.42334,-0.07056 0.24695,-0.705555 -0.0353,-0.07056 -0.0706,-0.07056 -0.91723,-0.776111 -0.21166,-1.023056 -0.3175,-0.846667 -0.35277,-0.881945 -1.51695,1.128889 -0.98778,1.834445 -0.45861,2.504722 -1.65806,0.987778 -0.52917,0.388056 -1.72862,1.164167 -1.05833,-0.458611 -2.46944,-1.446389 -0.635,-1.552222 -0.17639,-0.176389 -1.5875,-1.799167 -1.79916,-1.975556 0.67027,-0.246944 0.56444,-0.3175 0.56444,-0.352777 -0.9525,-1.552223 -0.84667,-1.234723 -0.9525,-1.340556 -0.17639,0.176389 -0.3175,-0.246944 -0.67028,1.834444 -0.77611,0.670278 -0.91722,0.776112 -0.9525,0.811389 -0.21166,0.388056 -0.10583,0.07056 -0.0353,0.705556 -1.44639,1.164166 -0.98778,0.811389 -1.30528,1.058333 -6.103051,0.3175 -5.856107,-0.03528 -7.408329,-0.564444 2.257777,-0.740834 -1.375834,-1.058334 -1.234722,-1.763889 0.03528,-0.211667 0.211666,-0.105833 1.023055,-0.3175 -1.234722,-0.740833 0.105833,0.07055 -1.834444,-0.881945 0.705555,-0.211666 0.423333,-0.388055 -0.211667,-0.635 2.398889,-0.881944 -1.234722,-0.564444 -1.975555,-2.398888 -0.246945,-0.635 0.282222,-0.599723 -0.211667,-0.917223 -0.3175,-0.246944 -0.529167,-0.03528 -1.658056,0.635 0.176389,0.529167 -0.740833,1.023056 0.176389,1.834445 -1.340555,0.635 -0.105833,0.176389 -0.246944,1.340555 -0.07056,0.07056 0.141111,0 -0.670278,0.635 0.670278,0.599723 -0.635,0.811389 0.670278,0.987778 -1.622778,1.093611 -1.446389,0.9525 -1.481667,0.987778 -0.211667,0.599722 0.776111,0.282222 0.105833,0.9525 -1.269999,1.164166 -0.740833,-1.940278 -3.139722,-3.915833 -0.9525,1.27 -0.987777,1.905 -1.128889,2.751666 0.987778,0.9525 0.529167,0.458611 0.987778,1.058333 -0.9525,0.987778 -0.987778,0.670278 -1.058333,0.846667 -0.282222,0.458611 0.423333,0.740833 -0.211667,0.91723 -0.564444,0.14111 -0.529166,-0.740841 -0.987778,-1.23473 -0.211666,-0.211667 -0.740833,-0.458611 -1.375833,-0.846667 0.493889,-0.670277 0.3175,-0.423333 0.3175,-0.705555 0,-0.3175 -1.552222,-2.363611 -1.622778,-2.751667 -0.07055,-0.564444 0.423334,-1.164166 -0.105833,-1.375833 -0.352778,-0.105833 -0.3175,-0.07056 -1.234722,1.658056 0.388055,0.282222 0.211667,0.141111 0.388055,0.246944 -0.141111,0.3175 -0.493888,0.07056 0.07056,0.9525 -0.599722,0.776111 -0.141111,0.141111 -0.635,0.811389 0.705556,0.493889 0.529167,0.458611 0.599722,0.493889 -1.023055,0.776111 -0.881944,0.881944 0.388056,1.128889 -1.411111,0.9525 -0.740834,0.493888 -1.305278,0.846666 0.493889,0.529167 0.458611,0.529167 0.458611,0.564445 -0.07055,0.388054 -1.234722,0.564444 -1.340555,0.917224 -0.141111,0.49389 0.388055,0.21167 0.352777,0.70556 -0.246944,1.97555 -15.628055,0.14111 -20.002499,-0.3175 -0.246945,-0.0353 -5.961944,-0.70556 -6.067778,-0.70556 -1.340555,-0.14111 -9.454444,-0.28222 -12.982222,-2.645835 -4.268611,-2.8575 -6.385277,-1.093611 -9.807222,-4.303889 2.116667,-0.564445 1.5875,-0.564445 3.774722,-0.211667 0.07056,2.257778 5.997222,1.834445 6.808611,1.658056 -0.987777,-1.234723 -0.423333,-0.3175 -7.972777,-3.81 0.352778,-0.07056 0.705555,-0.105834 0.740833,-0.388056 0.141111,-0.564444 -1.5875,-1.164166 -3.280833,-1.763889 0,0 -0.740834,-0.282222 -0.740834,-0.282222 0,0 0,-1.199444 0,-1.199444 0,0 0.388056,0.03528 0.388056,0.03528 1.411111,0.141112 2.257778,0.846667 2.681111,0.9525 0.141111,0.03528 1.905,0.211667 3.527778,-0.529166 -1.763889,-0.846667 -3.774722,-1.446389 -5.503333,-1.940278 0,0 -1.093612,-0.282222 -1.093612,-0.282222 0,0 0,-0.811389 0,-0.811389 z M 168.90573,89.249962 c 2.18722,0.0705 -0.14111,0.0353 2.25778,0.24694 -0.14111,1.48167 -0.49389,1.51694 -2.25778,-0.24694 z m 82.83222,4.23333 c 0,0 0,93.591938 0,93.591938 0,0 -221.967773,0 -221.967773,0 0,0 0,-81.42111 0,-81.42111 0,0 0.211667,0 0.211667,0 4.974167,0.21167 8.360833,0.35278 8.643056,0.35278 0,0 8.678333,0.17639 8.678333,0.17639 0,0 11.359444,0.14111 11.359444,0.14111 0,0 8.854722,4.72722 8.854722,4.72722 0,0 9.560277,3.56306 9.560277,3.56306 0,0 14.993056,2.68111 14.993056,2.68111 0,0 15.134168,6.35 15.134168,6.35 8.74889,2.01083 2.25778,0.3175 21.94278,-5.92667 11.28889,-3.56305 24.87083,5.99722 30.97389,-0.56444 0,0 4.7625,-5.18584 4.7625,-5.18584 0.35277,0 5.75027,-4.58611 5.85611,-4.58611 1.27,0 1.34055,-2.18722 1.30527,-2.29305 -2.18722,-3.95111 7.12612,-5.503338 6.35,-5.573888 -0.14111,0 -7.16138,-0.77611 -7.3025,-0.77611 -12.31194,-1.37584 -19.19111,-2.43417 -21.09611,-3.42195 3.4925,-1.55222 11.43,0.42334 19.01473,0.56445 -3.35139,-2.11667 -3.03389,-0.9525 -3.52778,-2.29306 1.97555,-1.09361 17.88583,0.45861 22.33083,0.88195 0,0 8.71361,0.84666 8.71361,0.84666 6.77333,0.635 2.2225,0.21167 6.17361,0.56445 0,0 9.27806,0.88194 9.27806,0.88194 14.78139,1.34056 23.8125,1.83445 26.42305,1.55222 -11.85333,-2.75166 -12.17083,-2.78694 -12.98222,-3.88055 1.51695,-1.5875 12.55889,-0.9525 19.05,-0.88195 1.48167,0 2.75167,0 3.59833,-0.0705 -0.70555,-1.02306 0,-0.0706 -1.34055,-1.30528 3.4925,0.35278 3.03389,0.81139 4.65666,1.23472 0,0 0.35278,0.0706 0.35278,0.0706 z m 0,-25.329445 c 0,0 -0.91722,-0.458611 -0.91722,-0.458611 0,0 0.56444,-0.282223 0.56444,-0.282223 -1.55222,-1.199444 -0.42333,-0.564444 -1.48166,-1.905 -2.15195,3.280834 -1.94028,2.751667 -2.99861,3.704167 1.69333,-0.3175 0.45861,-0.458611 1.83444,-0.282222 -1.44639,1.199444 -2.54,1.058333 -2.36361,1.481666 0.17639,0.352778 0.14111,-0.246944 1.79917,-0.105833 -0.77611,0.493889 -0.59973,0.352778 -0.70556,0.423333 0,0 -0.10583,0.635 -0.10583,0.670278 -0.10584,0.141111 0,-0.246944 -1.23472,0.705556 1.19944,0 1.05833,-0.246945 1.09361,-0.07056 0.0353,0.176389 -0.98778,0.811389 -1.30528,1.058333 -7.33778,0.635 -19.05,-5.115277 -23.45972,-7.231944 -3.91584,-1.905 -7.58472,-3.774722 -13.19389,-8.184444 -3.4925,-2.751667 -5.85611,-4.7625 -7.19667,-4.092222 -0.52916,0.3175 -3.95111,9.031111 -14.78139,5.538611 -3.59833,-1.164167 -4.69194,-3.563056 -7.16138,-3.245556 -2.04612,0.246945 -2.18723,1.940278 -5.53862,3.139722 -4.445,-1.446388 -22.18972,-14.393333 -29.35111,-16.192499 -6.06777,-1.552222 -2.43416,11.641666 -23.53027,4.938889 -11.85334,-3.774723 -23.353894,-9.242778 -29.456949,-14.181667 -9.348611,-7.584722 -4.021667,-0.987778 -16.545278,6.35 -0.246944,-0.105833 -0.635,-0.388056 -0.9525,-0.388056 -1.023055,-0.07055 -3.104444,1.763889 -8.149166,6.314723 -0.740834,0.670277 -2.892778,2.610555 -6.35,5.714999 -0.493889,0.423334 -0.493889,0.423334 -1.622778,1.481667 -0.917222,0.776111 -4.409722,3.951111 -4.480278,4.021667 -1.411111,1.27 -4.162777,3.774722 -4.339166,3.951111 -1.27,1.093611 -0.141111,0.705555 -7.267222,2.293055 -0.423334,0.105834 -7.020278,1.5875 -7.161389,1.622778 -0.987778,0.211667 -2.54,1.058333 -5.362222,0.282222 0,0 -0.246945,-0.07055 -0.246945,-0.07055 0,0 0,-2.293056 0,-2.293056 0,0 0,0 0,0 0,0 0,0 0,0 0,0 0,-37.782499 0,-37.782499 0,0 221.967773,0 221.967773,0 0,0 0,43.074166 0,43.074165 z"
       style="fill:#aaaaaa;fill-opacity:0;stroke:#2b2b2b;stroke-opacity:1;stroke-width:0.4;stroke-miterlimit:4;stroke-dasharray:none" />
  </g>
</svg>
