<?xml version="1.0" encoding="UTF-8" standalone="no"?>
<!-- Created with Inkscape (http://www.inkscape.org/) -->

<svg
   width="297mm"
   height="210mm"
   viewBox="0 0 297 210"
   version="1.1"
   id="svg1189"
   xmlns="http://www.w3.org/2000/svg"
   xmlns:svg="http://www.w3.org/2000/svg">
  <defs
     id="defs1186" />
  <g
     id="layer1">
    <path
       id="Path0"
       stroke-width="0.246944"
       stroke="#2b2b2b"
       stroke-opacity="1"
       fill="#5553a4"
       fill-opacity="1"
       fill-rule="evenodd"
       stroke-linecap="round"
       stroke-linejoin="round"
       d="m 27.565831,8.7143085 c 0,0 239.994719,0 239.994719,0 0,0 0,180.0224915 0,180.0224915 0,0 -239.994719,0 -239.994719,0 0,0 0,-180.0224915 0,-180.0224915 z M 188.07972,32.914864 c 0,0.529166 0.81139,0.564444 0.88194,0.07055 0.10584,-0.599722 -0.91722,-0.705555 -0.88194,-0.07055 z m 52.03472,-4.056945 c 0.0353,1.023056 1.65805,1.27 1.86972,0.141111 0.21167,-1.27 -1.905,-1.411111 -1.86972,-0.141111 z M 121.01666,21.167364 c 0.0353,-0.881945 -1.23472,-1.058334 -1.41111,-0.176389 -0.21167,1.164167 1.41111,1.199444 1.41111,0.176389 z m 9.17223,1.552222 c -0.0353,-0.670278 -1.05834,-0.705556 -1.16417,-0.07056 -0.14111,0.846667 1.16417,0.846667 1.16417,0.07056 z m 26.45833,3.175 c 0,-1.164167 -1.5875,-1.305278 -1.79917,-0.211667 -0.24694,1.305278 1.79917,1.693334 1.79917,0.211667 z m -25.4,12.735277 c 0,-0.458611 -0.70556,-0.670277 -0.81139,-0.07055 -0.14111,0.635 0.81139,0.740833 0.81139,0.07055 z m -5.67972,-8.113888 c 0,-1.164167 -1.5875,-1.340556 -1.79917,-0.211667 -0.28222,1.375833 1.79917,1.622778 1.79917,0.211667 z m -17.145,-9.348611 c 0,0.635 0.88194,0.776111 1.02305,0.105833 0.14111,-0.776111 -1.02305,-0.881944 -1.02305,-0.105833 z m -6.985,5.150555 c 0,1.093611 1.37583,1.023056 1.55222,0.176389 0.21166,-1.128889 -1.55222,-1.411111 -1.55222,-0.176389 z m 142.55749,-5.715 c -0.0353,-0.740833 -1.16416,-0.811389 -1.30527,-0.105833 -0.14111,0.917222 1.34055,0.987778 1.30527,0.105833 z m -13.68777,45.261388 c -2.61056,0.03528 -6.59695,0.846667 -9.45445,5.115278 -6.38528,2.257778 -27.65777,26.669999 -16.33361,65.651935 -1.41111,4.93889 -9.17222,11.57111 -11.18305,16.29834 0,0 -92.85111,0 -92.85111,0 0.52916,-9.2075 0.35277,-8.74889 -7.972781,-22.5425 2.610555,-24.765 -12.347222,-51.611386 -18.7325,-55.668331 -2.716389,-1.693333 -13.864166,-5.326944 -22.648333,2.645834 -0.282222,0.246944 -9.630833,10.089444 -9.701388,16.121944 -0.07056,3.033888 0.03528,5.503337 0,5.820837 -0.141112,0.987766 -0.776112,9.489716 -0.776112,9.701376 0,0 0,7.16139 0,7.16139 0,0.45861 -0.352777,1.62278 -0.388055,3.42195 -0.03528,3.06916 0.07055,5.53861 0,5.89139 0,0.21166 -0.352778,1.05833 -0.352778,2.78694 0,0 0,14.85194 0,14.85194 -0.776111,1.62278 -1.975555,4.58612 -2.257778,9.80723 -0.211666,0 -1.023055,0 -1.128888,0 0,0 0,24.65916 0,24.65916 0,0 222.108883,0 222.108883,0 0,0 0,-24.65916 0,-24.65916 -0.28222,0 -2.50472,0 -2.78694,0 0,-0.0353 0.0706,-0.52917 0.0706,-1.5875 0,0 0,-24.80028 0,-24.80028 0,-1.69333 0.77611,-6.45583 0.77611,-7.72583 0,0 0,-17.00389 0,-17.00389 0,-0.3175 -0.9525,-7.055553 -1.51694,-15.345831 -0.0353,-0.282222 0,-3.704167 0,-6.596944 -0.10583,-17.003889 -11.25361,-16.227778 -15.27528,-14.781389 -1.05833,-0.423333 -4.86833,-1.834444 -9.59555,0.776111 z m -32.7025,-30.62111 c -0.0353,-0.740834 -1.23472,-0.846667 -1.37584,-0.07056 -0.17638,0.917222 1.37584,0.987778 1.37584,0.07056 z m 34.64277,1.5875 c 0.0353,0.740833 1.16417,0.811389 1.30528,0.07055 0.14111,-0.917222 -1.34055,-0.9525 -1.30528,-0.07055 z M 185.50444,23.354586 c -0.0706,-1.164167 -1.86972,-1.27 -2.08139,-0.105833 -0.21167,1.446388 2.15195,1.481666 2.08139,0.105833 z m 0.17639,12.065 c -10.19528,-4.374445 -19.72028,9.877777 -9.87778,17.250833 11.78278,8.784166 23.74195,-11.253611 9.87778,-17.250833 z M 201.45,50.447919 c 1.12888,0.141111 1.44638,-1.516945 0.28222,-1.693334 -1.12889,-0.141111 -1.48167,1.516945 -0.28222,1.693334 z m 6.20888,-17.4625 c 0,-0.776111 -1.19944,-0.846667 -1.34055,-0.105833 -0.17639,0.9525 1.37583,0.9525 1.34055,0.105833 z m 12.3825,12.241389 c 0.0353,1.27 1.97556,1.340555 2.18723,0.141111 0.3175,-1.516945 -2.2225,-1.658056 -2.18723,-0.141111 z M 206.24777,42.33403 c -0.45861,-0.105833 -0.74083,0.493889 -0.3175,0.776111 0.59972,0.388056 1.02306,-0.670278 0.3175,-0.776111 z M 171.07583,19.615142 c -0.0353,-0.811389 -1.30528,-0.846667 -1.41111,-0.03528 -0.17639,0.987778 1.48166,1.023055 1.41111,0.03528 z m 0.10583,10.089444 c 0.0353,0.846666 1.30528,0.846666 1.41111,0.07055 0.17639,-0.987777 -1.48166,-1.058333 -1.41111,-0.07055 z m -8.00805,2.046111 c -0.0353,-0.705556 -1.05834,-0.811389 -1.27,-0.176389 -0.35278,0.9525 1.30527,1.093611 1.27,0.176389 z m -1.30528,6.808611 c -0.9525,0.03528 -0.98778,1.375833 -0.10583,1.481666 1.12888,0.176389 1.27,-1.516944 0.10583,-1.481666 z m 53.30472,-0.564445 c 0,0.740834 1.12889,0.740834 1.23472,0.07056 0.14111,-0.846667 -1.23472,-0.9525 -1.23472,-0.07056 z"
       style="fill:#5553a4;fill-opacity:0;stroke-width:0.447;stroke-miterlimit:4;stroke-dasharray:none" />
  </g>
</svg>
