<?xml version="1.0" encoding="UTF-8" standalone="no"?>
<!-- Created with Inkscape (http://www.inkscape.org/) -->

<svg
   width="297mm"
   height="210mm"
   viewBox="0 0 297 210"
   version="1.1"
   id="svg1189"
   xmlns="http://www.w3.org/2000/svg"
   xmlns:svg="http://www.w3.org/2000/svg">
  <defs
     id="defs1186" />
  <g
     id="layer1">
    <path
       id="Path4"
       stroke-width="0.246944"
       stroke="#2b2b2b"
       stroke-opacity="1"
       fill="#7f7f7f"
       fill-opacity="1"
       fill-rule="evenodd"
       stroke-linecap="round"
       stroke-linejoin="round"
       d="m 269.13596,192.41276 c 0,0 0,-180.022503 0,-180.022503 0,0 -239.994723,0 -239.994723,0 0,0 0,180.022503 0,180.022503 0,0 239.994723,0 239.994723,0 z m -80.46861,-81.52695 c 0,0.0353 -0.0706,0.0706 -0.14111,0.14111 -0.0706,0.0353 -0.24695,0.14111 -0.38806,0.24695 -0.35278,0.21166 -0.38806,0.24694 -0.38806,0.17639 0,-0.0706 0.10584,-0.21167 0.38806,-0.49389 0.17639,-0.14111 0.3175,-0.28222 0.35278,-0.28222 0.10583,-0.0353 0.21166,0.0705 0.17639,0.21166 z m 0.0705,0.84667 c 0.0353,-0.0353 0.0706,-0.0706 0.10584,-0.10583 0.10583,-0.0706 0.21166,-0.14112 0.3175,-0.28223 0.17638,-0.21166 0.24694,-0.3175 0.38805,-0.3175 0.0706,-0.0353 0.0706,0 0.21167,0.17639 0.14111,0.21167 0.24694,0.38806 0.21166,0.45861 0,0 0,0 0,0 -0.0353,0.0706 -0.24694,0.14111 -0.45861,0.24695 -0.21166,0.0705 -0.635,0.3175 -0.74083,0.38805 -0.0706,0.0706 -0.10583,0.0706 -0.14111,-0.0705 -0.0706,-0.10584 -0.0706,-0.17639 -0.0706,-0.24695 0,-0.10583 0.0353,-0.17639 0.17639,-0.24694 z m -0.98778,-1.97556 c -0.0353,0.67028 -0.10583,1.34056 -0.14111,1.48167 0,0.0353 -0.0353,0.17639 -0.0706,0.24694 -0.0353,0.17639 -0.0706,0.3175 -0.3175,0.91723 -0.0353,0 -0.0353,0.0353 0,0.0353 0,0 0.0353,0.0353 0.0353,0.0353 0,0 -2.29306,-0.84666 -2.29306,-0.84666 -0.10583,1.37583 0.91722,6.42055 -0.98778,8.255 -4.30389,4.09222 -11.04194,9.525 -11.04194,9.73666 0.10583,0.98778 -6.985,6.0325 -5.36222,13.0175 0,0 0.3175,0.9525 0.3175,0.9525 0.91722,2.18722 5.00944,11.25361 8.78416,11.46528 4.30389,0.24694 19.47334,0.10583 45.68472,-21.23722 7.54945,-6.13834 23.14223,-3.03389 36.195,-7.44361 0,0 1.55222,-0.38806 1.55222,-0.38806 0,0 -0.0353,6.91445 -0.0353,6.91445 0,0 0.0705,0 0.0705,0 0,0 0,50.48249 0,50.48249 0,0 -222.003049,0 -222.003049,0 0,0 0,-19.86138 0,-19.86138 0,0 1.446388,-0.0353 1.446388,-0.0353 0.811389,-0.0353 1.305278,-0.0706 1.340556,-0.10584 0.105833,-0.0353 1.411111,-0.24694 2.963334,-0.45861 1.516944,-0.17639 3.104444,-0.52916 3.563055,-0.77611 0.599722,-0.35278 1.5875,-0.49389 4.233333,-0.52916 1.940278,-0.0353 3.598333,-0.14112 3.704167,-0.24695 0.07055,-0.14111 -0.03528,-0.45861 -0.282222,-0.77611 -0.282223,-0.28222 -0.388056,-0.52917 -0.246945,-0.56444 0.105833,0 0.388056,-0.0706 0.599722,-0.10584 0.211667,-0.0353 1.128889,-0.0705 2.046111,-0.10583 0,0 1.658056,-0.0706 1.658056,-0.0706 0,0 -0.9525,-0.67027 -0.9525,-0.67027 -1.093611,-0.77612 -1.446389,-1.48167 -0.740833,-1.51695 0.881944,0 0.811389,-0.56444 -0.105834,-0.9525 -0.493889,-0.21167 -0.917222,-0.52917 -0.917222,-0.67028 0,-0.14111 -0.141111,-0.28222 -0.282222,-0.24694 -0.141111,0 -0.670278,-0.21167 -1.199445,-0.42333 -0.740833,-0.3175 -0.881944,-0.45862 -0.564444,-0.67028 0.282222,-0.21167 0.141111,-0.35278 -0.705555,-0.74084 -0.670278,-0.28222 -1.234723,-0.77611 -1.516945,-1.34055 -0.246944,-0.49389 -0.423333,-0.91722 -0.352778,-0.98778 0.07056,-0.0353 1.411111,-0.42333 3.033889,-0.84667 1.5875,-0.42333 3.633611,-1.05833 4.515556,-1.34055 1.481666,-0.52917 2.469444,-0.59972 9.842499,-0.74083 8.643056,-0.17639 13.193889,-0.59973 14.463889,-1.30528 0.564444,-0.3175 1.693333,-0.45861 4.550833,-0.52917 3.951111,-0.10583 4.938889,-0.38805 3.845278,-1.09361 -0.3175,-0.21167 -0.564445,-0.42333 -0.564445,-0.49389 0,-0.10583 1.128889,-0.21166 2.469445,-0.24694 1.375833,-0.0706 2.504722,-0.14111 2.575278,-0.21167 0.03528,-0.0353 -0.3175,-0.28222 -0.776112,-0.49389 -0.458611,-0.24694 -0.987777,-0.67028 -1.164166,-0.98778 -0.282222,-0.49388 -0.282222,-0.56444 0.282222,-0.56444 1.058333,0 0.987778,-0.45861 -0.105833,-0.91722 -0.564445,-0.24695 -1.023056,-0.52917 -1.023056,-0.67028 0,-0.10583 -0.635,-0.35278 -1.411111,-0.52917 -1.375833,-0.3175 -1.940278,-0.84666 -0.917222,-0.84666 0.635,0 0.670278,-0.77611 0.07055,-1.02306 -0.3175,-0.14111 -0.176388,-0.24694 0.564445,-0.35278 0.776111,-0.14111 1.27,-0.0353 2.046111,0.42334 0.388056,0.24694 1.164167,0.45861 2.116667,0.67027 4.268615,0.88195 12.911665,1.44639 16.968605,0.88195 8.74889,-1.16417 9.17223,-1.23472 9.8425,-1.76389 0.28223,-0.21167 1.48167,-0.38806 3.63362,-0.52917 1.23472,-2.78694 14.53445,-2.29305 7.62,-7.05555 -0.56445,-0.38806 -0.77612,-0.67028 -0.77612,-0.9525 0.10583,-2.08139 16.33361,-0.88195 16.75694,-2.8575 1.05835,-4.97417 -21.27249,-0.70556 -3.98637,-9.48972 0.635,-0.3175 4.19804,-0.35278 4.97415,-0.70556 0.91723,-0.42333 -7.09082,-3.84528 -8.74889,-3.91583 0,0 -1.12887,-0.0353 -1.12887,-0.0353 0,0 -0.0353,-0.0706 -0.0353,-0.0706 -0.0353,-0.0705 -0.0353,-0.10583 -0.0353,-0.10583 0.0353,-0.10583 -0.0706,-0.28222 -0.21167,-0.42333 -0.21166,-0.17639 -0.21166,-0.24695 -0.10583,-0.35278 0.10583,-0.10583 0.10583,-0.17639 0,-0.21167 -0.38806,-0.21166 -1.09361,-0.98778 -1.09361,-1.16416 0.0353,-0.14112 0,-0.24695 -0.0706,-0.24695 -0.0353,0 -0.24693,-0.21167 -0.4586,-0.49389 -0.38806,-0.45861 -0.38806,-0.635 0,-0.24694 0.24695,0.21166 0.67028,0.24694 0.67028,0.0353 0,-0.0706 -0.0706,-0.14112 -0.10583,-0.14112 -0.0706,0 -0.10584,0 -0.0706,-0.0705 0.0353,-0.0353 0.45861,0.0353 0.91722,0.14111 1.05834,0.24694 0.98778,0.24694 0.9525,0.0353 0,-0.10584 -0.38805,-0.52917 -0.84666,-0.91722 -0.49389,-0.42334 -0.88195,-0.77612 -0.88195,-0.81139 0,-0.0706 0.0706,-0.17639 0.10584,-0.24695 0.10583,-0.10583 0.0705,-0.21166 -0.14112,-0.38805 -0.14111,-0.14111 -0.24694,-0.3175 -0.28222,-0.38806 0,-0.10583 -0.17639,-0.3175 -0.38805,-0.49389 -0.49389,-0.35278 -0.77611,-0.74083 -0.84667,-1.12889 -0.0706,-0.21166 -0.0353,-0.24694 0.17639,-0.17639 0.28221,0.0706 0.31749,-0.14111 0.0705,-0.49388 -0.1411,-0.24695 -0.1411,-0.28223 0.0353,-0.28223 0.10584,0 0.31749,0.10584 0.4586,0.21167 0.3175,0.21167 0.59973,0.28222 0.56445,0.10583 0,-0.10583 -0.635,-0.84666 -1.30528,-1.51694 0,0 -0.24694,-0.24695 -0.24694,-0.24695 0,0 0.21166,-0.24694 0.21166,-0.24694 0,0 -1.12889,-2.928062 -1.12889,-2.928062 0,0 -0.0353,0.14112 -0.0353,0.14112 -0.0706,0.141112 -0.10584,0.176382 -0.14112,0.176382 -0.10583,0 -0.3175,-0.317502 -0.52916,-0.705552 -0.17639,-0.38806 -0.38806,-0.74083 -0.42334,-0.74083 -0.0353,0 -0.24694,0.35277 -0.45861,0.81138 -0.35277,0.740842 -0.84666,1.375842 -1.19944,1.587502 -0.10582,0.0353 -0.0353,0.10584 0.21167,0.21167 0.17638,0.0706 0.28222,0.14111 0.17638,0.14111 -0.24694,0.0353 -0.38805,0.3175 -0.28222,0.52917 0.0706,0.14111 0.0353,0.24694 -0.14111,0.38805 -0.1411,0.14112 -0.24693,0.3175 -0.24693,0.42334 0,0.10583 -0.21167,0.38805 -0.45861,0.635 -0.24696,0.21166 -0.45862,0.49389 -0.45862,0.635 0,0.10583 -0.0705,0.24694 -0.17639,0.3175 -0.24695,0.17639 -0.49389,0.56444 -0.49389,0.70555 0,0.0353 0.10583,0.0706 0.28222,0.0353 0.14111,-0.0353 0.3175,0 0.35278,0.0706 0.0353,0.10583 0.21167,0.10583 0.38806,0.0706 0.42334,-0.14111 0.3175,0.10584 -0.38806,0.74084 -0.28222,0.24694 -0.49389,0.52916 -0.45861,0.59972 0.0353,0.14111 0.52917,0.0705 0.91723,-0.10584 0.10583,-0.0705 0.10583,0 -0.0353,0.17639 -0.21167,0.24695 -0.56445,0.49389 -1.30528,0.91723 -0.17639,0.0705 -0.21167,0.17638 -0.17639,0.3175 0.10583,0.38805 -0.14111,0.45861 -0.59973,0.17638 -0.24694,-0.17638 -0.635,-0.42333 -0.88194,-0.56444 -0.38806,-0.21167 -0.42333,-0.28222 -0.21167,-0.3175 0.35278,-0.0706 0.24695,-0.28222 -0.35277,-0.77611 -0.35278,-0.3175 -0.56445,-0.56445 -0.52917,-0.67028 0.0353,-0.10583 -0.0706,-0.24694 -0.21167,-0.35278 -0.24694,-0.14111 -0.3175,-0.35277 -0.10583,-0.45861 0.0706,-0.0353 -0.24695,-0.28222 -0.67028,-0.56444 -0.17639,-0.10584 -0.28222,-0.17639 -0.38805,-0.24695 -0.3175,-0.24694 -0.38806,-0.35277 -0.35278,-0.49389 0.0353,-0.17638 -0.0705,-0.35277 -0.35278,-0.56444 -0.21167,-0.14111 -0.38806,-0.3175 -0.38806,-0.35278 0,-0.0353 0.21167,0 0.52917,0.0353 0.49389,0.0706 0.49389,0.0706 0.3175,-0.14111 -0.21167,-0.21167 -0.21167,-0.21167 0.10583,-0.21167 0.14112,-0.0353 0.45862,0.0353 0.70556,0.10584 0.21167,0.0705 0.67028,0.14111 1.02306,0.21166 0.77611,0.10584 0.77611,-0.0705 0,-0.56444 -0.98778,-0.67028 -1.65806,-1.30528 -1.48167,-1.44639 0.10583,-0.10583 0.0706,-0.17639 -0.0705,-0.3175 -0.10583,-0.14111 -0.3175,-0.21167 -0.45861,-0.21167 -0.10584,0 -0.49389,-0.211662 -0.81139,-0.423332 -0.3175,-0.21167 -0.635,-0.42333 -0.56445,-0.49389 0,-0.0353 0.17639,0 0.35278,0.0706 0.38806,0.17638 0.91722,0.21166 0.91722,0.0353 0,-0.0353 -0.21166,-0.24694 -0.45861,-0.42333 -0.21166,-0.17639 -0.56444,-0.45861 -0.77611,-0.635 0,0 -0.35278,-0.35278 -0.35278,-0.35278 0,0 0.45862,0.0706 0.45862,0.0706 0.3175,0.0705 0.49388,0.0353 0.49388,-0.0706 0,-0.10583 0.10584,-0.10583 0.35278,-0.0705 0.49389,0.14111 0.45861,-0.24695 -0.0353,-0.56445 -0.17639,-0.10583 -0.38805,-0.3175 -0.42333,-0.45861 0,-0.14111 -0.28222,-0.45861 -0.59972,-0.67028 -0.3175,-0.24694 -0.52917,-0.49388 -0.49389,-0.59972 0.0353,-0.10583 -0.10584,-0.28222 -0.3175,-0.38805 -0.28222,-0.17639 -0.3175,-0.28223 -0.24695,-0.42334 0.10584,-0.21166 0,-0.38805 -0.28222,-0.52916 -0.10583,-0.0353 -0.0353,-0.10584 0.14111,-0.10584 0.3175,0 0.635,-0.28222 0.35278,-0.28222 -0.24694,0 -1.19944,-1.02305 -1.62278,-1.72861 0,0 -0.45861,-0.74083 -0.45861,-0.74083 0,0 -0.17639,0.3175 -0.17639,0.3175 -0.38805,0.88194 -1.44639,2.2225 -1.86972,2.39889 -0.35278,0.17638 -0.14111,0.35277 0.42333,0.35277 0.38806,0 0.45861,0.0353 0.3175,0.10584 -0.10583,0.0705 -0.24694,0.24694 -0.35277,0.35277 -0.0706,0.14112 -0.24695,0.35278 -0.38806,0.45862 -0.17639,0.10583 -0.28222,0.28222 -0.28222,0.38805 0,0.0706 -0.42334,0.52917 -0.91722,0.98778 -0.49389,0.42333 -0.88195,0.84667 -0.88195,0.91722 0,0.17639 0.3175,0.14111 0.74083,-0.10583 0.17639,-0.10584 0.42334,-0.21167 0.52917,-0.21167 0.14111,0 0.14111,0.0353 -0.0353,0.3175 -0.3175,0.45861 -0.28222,0.56444 0.14111,0.42333 0,0 0.35278,-0.0705 0.35278,-0.0705 0,0 -0.21167,0.49389 -0.21167,0.49389 -0.17639,0.35277 -0.38805,0.59972 -0.81139,0.88194 -0.35277,0.24695 -0.56444,0.45861 -0.56444,0.59972 0,0.105842 -0.0706,0.211672 -0.17639,0.246952 -0.10583,0.0353 -0.24694,0.10583 -0.3175,0.21166 -0.14111,0.10584 -0.10583,0.17639 0.0353,0.3175 0.14111,0.14112 0.10583,0.21167 -0.38806,0.67028 -0.3175,0.24695 -0.77611,0.635 -1.05833,0.84667 -0.74083,0.52917 -0.74083,0.67028 0,0.56444 0.35278,-0.0705 0.84667,-0.17639 1.05833,-0.24694 0.21167,-0.0706 0.49389,-0.14111 0.59973,-0.14111 0.17639,0 0.17639,0 0,0.21166 -0.17639,0.21167 -0.17639,0.21167 0.35277,0.14112 0,0 0.52917,-0.0706 0.52917,-0.0706 0,0 -0.35278,0.35278 -0.35278,0.35278 -0.21166,0.21166 -0.35277,0.45861 -0.35277,0.59972 0,0.21167 -0.17639,0.38806 -0.67028,0.70556 -0.35278,0.21166 -0.67028,0.42333 -0.74084,0.42333 0,0 -0.0353,0 -0.0353,0 0,0 -0.0353,0.0353 -0.0353,0.0353 0,0 -0.28222,-0.67028 -0.28222,-0.67028 -2.18722,-4.374452 -5.32694,-5.750282 -5.67972,-7.478892 -0.88194,-0.67028 -0.74083,-0.56444 -0.91722,-0.74083 -1.69333,-1.48167 -0.91722,-0.67028 -1.65806,-1.30528 -1.44639,-1.19944 -0.3175,-0.635 -2.57527,-2.92806 -1.27,-0.42333 -1.09362,-0.3175 -1.905,-1.37583 -1.51695,-2.04611 -1.48167,-1.164166 -1.97556,-2.645833 -0.9525,-0.564444 -0.59972,-0.599722 -1.23472,-1.375833 0,0 -0.14111,-0.141111 -0.14111,-0.141111 0,0 1.09361,0.141111 1.09361,0.141111 0,0 -0.0706,-0.07055 -0.0706,-0.07055 -0.28222,-0.246945 -0.28222,-0.3175 -0.14111,-0.423334 0.17639,-0.176389 0.17639,-0.211666 -0.0353,-0.458611 -0.10584,-0.141111 -0.28223,-0.246944 -0.38806,-0.246944 -0.14111,0 -0.17639,-0.03528 -0.0353,-0.211667 0.10583,-0.141111 0.10583,-0.211667 -0.14111,-0.282222 -0.3175,-0.105833 -1.27,-1.023056 -1.27,-1.234722 0,-0.07056 -0.10583,-0.246945 -0.21167,-0.423334 -0.21166,-0.246944 -0.21166,-0.246944 0.24695,-0.141111 0.56444,0.105834 0.635,-0.03528 0.24694,-0.423333 -0.42333,-0.423333 -0.28222,-0.529167 0.24695,-0.211667 1.30527,0.740834 1.16416,0.105834 -0.28223,-1.164166 -0.3175,-0.282223 -0.59972,-0.635 -0.59972,-0.776112 0,-0.141111 -0.14111,-0.317499 -0.317498,-0.423333 -0.176388,-0.07055 -0.3175,-0.246944 -0.3175,-0.352778 0,-0.105833 -0.105833,-0.282222 -0.282222,-0.423333 -0.246944,-0.176389 -0.211666,-0.176389 0.282222,-0.105833 0.282223,0.03528 0.529168,0.03528 0.529168,-0.03528 0,-0.07056 -0.388056,-0.564444 -0.81139,-1.058333 -0.458611,-0.493889 -0.9525,-1.199445 -1.093611,-1.516945 -0.141111,-0.3175 -0.3175,-0.564444 -0.388055,-0.564444 -0.07056,0 -0.246945,0.246944 -0.423334,0.564444 -0.352778,0.705556 -1.481666,1.905 -1.763889,1.905 -0.423333,0 0.07056,0.282222 0.529167,0.282222 0,0 0.388056,0 0.388056,0 0,0 -0.352778,0.246945 -0.352778,0.246945 -0.423334,0.282222 -0.458611,0.423333 -0.141111,0.493889 0.176389,0.03528 0.105833,0.105833 -0.282223,0.352778 -0.282222,0.176388 -0.458611,0.388055 -0.423333,0.493888 0.03528,0.105834 -0.105833,0.352778 -0.352778,0.529167 0,0 -0.03528,0.03528 -0.03528,0.03528 0,0 -0.740834,-0.635 -0.740834,-0.635 -0.352777,-0.282222 -0.635,-0.529167 -0.811389,-0.740833 -0.493888,-0.493889 -1.234722,-0.881945 -1.799166,-0.987778 -1.023056,-0.141111 -1.305278,-0.529167 -3.633611,-5.256389 -1.446389,-2.928056 -3.316111,-5.432778 -5.150556,-6.949722 -1.940277,-1.5875 -2.293055,-2.081389 -2.716389,-4.056944 -0.776111,-3.668889 -1.164166,-4.303889 -4.092222,-6.808611 -1.093611,-0.9525 -2.469444,-2.257778 -3.033888,-2.928056 -3.704167,-4.303889 -6.385278,-7.549444 -8.219723,-9.913055 -1.128888,-1.481667 -2.187222,-2.716389 -2.363611,-2.786945 -0.141111,-0.03528 -0.458611,0.635 -0.635,1.516945 0,0 -0.388055,1.552222 -0.388055,1.552222 0,0 -0.811389,-0.917222 -0.811389,-0.917222 -1.164167,-1.305278 -2.504722,-4.1275 -3.069167,-6.420556 -0.529166,-2.363611 -1.023055,-2.928055 -4.409722,-5.291666 -1.411111,-0.987778 -2.822222,-2.081389 -3.104444,-2.469445 -0.3175,-0.352777 -1.164167,-0.846666 -1.940278,-1.058333 -1.658055,-0.493889 -2.081389,-0.9525 -2.610555,-2.751666 -0.105834,-0.282223 -0.246945,-0.811389 -0.458611,-1.411112 0,0 -0.3175,-0.917222 -0.3175,-0.917222 0,0 215.476659,0 215.476659,0 0,0 0,83.820005 0,83.820005 0,0 -0.67028,-0.14111 -0.67028,-0.14111 -8.53722,-1.5875 -26.84638,-0.635 -26.84638,-0.70556 -5.32695,1.62278 -4.445,-0.67027 -6.31473,-0.38805 -4.65666,0.70555 -1.55222,2.89278 -7.19666,1.69333 -0.45861,0.17639 -0.88195,0.3175 -1.27,0.45861 0,0 -0.28222,0.10584 -0.28222,0.10584 0,0 0,-0.0353 0,-0.0353 0,-0.74084 0,-1.94028 -0.0353,-2.61056 -0.0353,-2.18722 -0.0706,-5.326942 -0.0353,-5.362222 0,0 0.49389,-0.0353 1.05833,-0.0353 0.98778,-0.0353 1.23473,-0.0706 1.30528,-0.14111 0,0 0.0353,-0.0705 0.0706,-0.14111 0.0353,-0.0706 0.0705,-0.17639 0.10583,-0.21167 0.0706,-0.10583 0.10583,-0.21166 0.0353,-0.28222 -0.0353,-0.10583 -0.21167,-0.24694 -1.79917,-1.55222 -0.81139,-0.67028 -1.79917,-1.51694 -2.36361,-1.94028 -0.17639,-0.14111 -0.3175,-0.28222 -0.35278,-0.28222 0,0 0,-0.0353 0,-0.0353 0,0 -0.10583,-0.10583 -0.10583,-0.10583 0,0 -0.10583,-0.10583 -0.10583,-0.10583 0,0 -0.0353,0 -0.0353,0 -0.0353,0 -0.24695,-0.17639 -1.02306,-0.77612 -0.14111,-0.14111 -0.38805,-0.35277 -0.52916,-0.45861 -0.10584,-0.10583 -0.3175,-0.24694 -0.42334,-0.35277 -0.35278,-0.3175 -0.28222,-0.28223 -1.09361,-0.35278 -0.28222,-0.0353 -0.59972,-0.0353 -0.74083,-0.0706 -0.10584,0 -0.45861,-0.0353 -0.74084,-0.0706 -0.28222,0 -0.635,-0.0353 -0.74083,-0.0353 -0.10583,-0.0353 -0.3175,-0.0353 -0.38805,-0.0353 -0.10584,0 -0.28223,0 -0.35278,-0.0353 -0.10584,0 -0.24695,0 -0.3175,-0.0353 -0.0706,0 -0.14111,0 -0.17639,0 0,-0.0353 0,-0.17639 -0.0353,-0.3175 0,-0.21167 -0.0353,-0.3175 -0.0353,-0.3175 -0.14111,-0.10584 -1.65805,-0.0706 -1.79916,0.0353 0,0.0353 -0.0353,0.10584 -0.0353,0.21167 0,0.21167 -0.0353,0.24694 -0.14111,0.24694 -0.0706,0 -0.59972,-0.0705 -1.05834,-0.10583 -0.17638,0 -0.59972,-0.0353 -0.9525,-0.0705 -1.12888,-0.0706 -1.27,-0.0706 -2.11666,-0.14112 -1.94028,-0.14111 -1.94028,-0.14111 -2.8575,-0.21166 -0.77611,-0.0706 -1.12889,-0.0706 -1.44639,-0.10584 -0.14111,-0.0353 -0.38806,-0.0353 -0.52917,-0.0353 -0.28222,0.0353 -0.28222,0.0353 -1.48166,0.59972 -0.3175,0.14111 -0.56445,0.24694 -0.56445,0.24694 0,0 -0.21166,0.10584 -0.42333,0.21167 0,0 -0.45861,0.21167 -0.45861,0.21167 0,0 -0.0353,0 -0.0353,0 -0.14111,0.10583 -0.3175,0.21166 -0.49389,0.28222 0,0 -0.14111,0.0705 -0.14111,0.0705 0,0 -0.0706,0.0706 -0.0706,0.0706 -0.0705,0.0706 -0.14111,0.14111 -0.21166,0.28222 -0.17639,0.28222 -1.05834,1.65806 -1.5875,2.46945 -0.10584,0.17639 -0.17639,0.3175 -0.21167,0.38805 0,0 -0.0353,0 -0.0353,0 0,0 -0.35277,0.56445 -0.35277,0.56445 0,0 -0.21167,0.35277 -0.21167,0.35277 0,0 0,0.0353 0,0.0353 -0.0353,0.0353 -0.0706,0.0706 -0.0706,0.14111 -0.14111,0.17639 -0.28222,0.42334 -0.38805,0.59973 0,0 -0.0706,0.14111 -0.0706,0.14111 0,0 0.45861,-0.0353 0.45861,-0.0353 0.9525,-0.0353 2.25778,0.10583 2.25778,0.3175 0,0.0705 -0.0353,0.10583 -0.0706,0.10583 0,0 0,0 0,0 0,0 -0.3175,5.291672 -0.3175,5.291672 0,0 0,0 0,0 0,0 0,0.0353 0,0.0353 0,0 -0.0353,0.9525 -0.0353,0.9525 0,0 0,-0.0353 0,-0.0353 0,0 0,0.0353 0,0.0705 0,0.0706 0,0.24695 0,0.45861 0,0.28223 -0.0353,0.84667 -0.0353,1.23473 -0.0706,1.62277 -0.0706,1.83444 -0.0706,1.86972 -0.0353,0.0353 -5.22111,0.45861 -5.22111,0.49389 -0.0705,0.0353 -0.17639,1.19944 -0.17639,1.97555 z m 18.16806,-11.606392 c 0,0.24695 0,0.635 0,1.30528 -0.0353,0.881952 -0.0706,1.940282 -0.0353,1.940282 0,0 -1.27,0.0353 -1.27,0.0353 0,0 0,-0.28222 0,-0.28222 0,0 0.0353,-1.12889 0.0353,-1.12889 0,-0.211672 0,-0.423342 0,-0.740842 0.0353,-0.35277 0.0353,-0.84666 0.0353,-1.05833 0,0 0.0353,-0.38806 0.0353,-0.38806 0,0 0.56445,0 0.56445,0 0.3175,-0.0353 0.59972,0 0.635,0 0,0 0,0.0706 0,0.3175 z m 0.10583,11.818062 c 0.0706,-0.0353 0.3175,-0.0706 0.52917,-0.10583 0.21167,-0.0353 1.23472,-0.24695 1.55222,-0.3175 0.81139,-0.14111 1.23472,-0.24695 1.44639,-0.28223 0.14111,0 0.28222,-0.0353 0.35278,-0.0353 0.0705,-0.0353 0.24694,-0.0353 0.38805,-0.0706 0.14111,0 0.38806,-0.0353 0.56445,-0.0706 1.02305,-0.10584 1.65805,-0.14112 3.52778,-0.17639 0.28222,0 0.56444,-0.0353 0.67027,-0.0353 0.0353,0 0.0706,0 0.10584,0 0,0 0.0353,0 0.0353,0 0,0 0,0.0353 0,0.0353 0,0 -0.0353,0 -0.0353,0 0,0 -0.10584,0.0705 -0.10584,0.0705 -0.14111,0.0706 -0.28222,0.14111 -0.52916,0.21167 0,0 -0.45861,0.21167 -0.45861,0.21167 0,0 -0.81139,0.21166 -0.81139,0.21166 -1.12889,0.28222 -2.57528,0.52917 -4.37445,0.81139 0,0 -2.18722,0.35278 -2.18722,0.35278 0,0 -0.0706,0 -0.0706,0 -0.10583,0 -0.3175,0.0353 -0.59972,0.0353 -0.24694,0.0353 -0.635,0.0705 -0.88194,0.0705 -0.24695,0.0353 -0.52917,0.0353 -0.67028,0.0706 -0.10583,0 -0.35278,0.0353 -0.52917,0.0353 -0.17639,0 -0.56444,0.0353 -0.84666,0.0705 -0.3175,0.0353 -0.81139,0.0706 -1.09361,0.10583 -0.3175,0.0353 -0.59973,0.0353 -0.635,0.0706 -0.0353,0 -0.21167,0 -0.35278,0.0353 -0.17639,0 -0.56445,0.0353 -0.91722,0.0705 -0.3175,0.0353 -0.77612,0.0706 -0.98778,0.10584 -0.21167,0.0353 -0.56445,0.0705 -0.74084,0.0705 -0.17638,0.0353 -0.38805,0.0353 -0.42333,0.0353 -0.10583,0 -0.635,0.0353 -0.74083,0.0706 0,0.0353 -0.0706,0.0353 -0.14111,0.0353 -0.0706,0 -0.24695,0 -0.42334,0.0353 -0.17638,0.0353 -0.52916,0.0706 -0.81138,0.10583 -0.28223,0 -0.59973,0.0353 -0.70556,0.0706 -0.3175,0.0353 -0.3175,0.0353 -0.59972,-0.14111 -0.28222,-0.21167 -0.35278,-0.28222 -0.35278,-0.42333 0,-0.17639 0,-0.17639 -0.56444,-0.21167 -0.35278,0 -0.635,0 -0.9525,0 -0.49389,0.0353 -0.38806,0.0706 -0.98778,-0.35278 -0.21167,-0.17639 -0.635,-0.49389 -0.98778,-0.74083 -0.56444,-0.38806 -0.67028,-0.49389 -0.9525,-0.70556 -0.38806,-0.24694 -1.05833,-0.77611 -1.30528,-0.91722 -0.14111,-0.10583 -0.24694,-0.17639 -0.24694,-0.21167 0,0 0.10583,-0.0353 0.17639,-0.0353 0.10583,0 4.72722,-0.42334 4.69194,-0.42334 -0.28222,0.0706 0.59972,0.45861 1.65806,0.70556 2.01083,0.49389 2.18722,0.52916 3.13972,0.88194 0.3175,0.10584 0.70555,0.24695 0.84666,0.3175 0.17639,0.0353 0.38806,0.14111 0.49389,0.17639 0.14111,0.0353 1.30528,0.52917 1.37584,0.52917 0.21166,-0.0353 1.23472,-0.10584 1.5875,-0.10584 0.17639,0 0.56444,0 0.84666,-0.0353 0.3175,0 0.81139,-0.0353 1.16417,-0.0353 0.3175,-0.0353 0.70556,-0.0353 0.81139,-0.0706 0.10583,0 0.35278,-0.0353 0.56444,-0.0353 0.21167,-0.0353 0.42334,-0.0706 0.49389,-0.0706 z m -1.02305,-13.335002 c -0.67028,0 -1.48167,-0.0353 -1.86973,-0.0705 -0.74083,-0.0706 -0.70555,-0.0706 -0.84666,-0.10584 -0.17639,-0.10583 -0.24695,-0.17639 -0.59972,-0.52916 -0.14112,-0.14112 -0.28223,-0.28223 -0.35278,-0.35278 -0.0353,-0.0353 -0.21167,-0.21167 -0.42334,-0.42334 -0.17638,-0.17638 -0.38805,-0.38805 -0.49388,-0.49388 -0.56445,-0.56445 -0.81139,-0.81139 -0.91723,-0.91723 -0.0706,-0.10583 -0.17639,-0.21166 -0.24694,-0.24694 -0.0706,-0.0706 -0.17639,-0.17639 -0.24695,-0.24695 -0.0705,-0.0706 -0.21166,-0.21166 -0.28222,-0.28222 0,0 -0.14111,-0.14111 -0.14111,-0.14111 0,0 0.0706,-0.0705 0.0706,-0.0705 0.0353,-0.0353 0.17639,-0.14112 0.28222,-0.21167 0.10583,-0.10583 0.3175,-0.28222 0.45861,-0.38806 0,0 0.28222,-0.24694 0.28222,-0.24694 0,0 0.35278,0.0353 0.35278,0.0353 0.59972,0.0353 2.61056,0.17639 3.06917,0.21166 0.10583,0 0.28222,0.0353 0.38805,0.0353 0.10584,0 0.3175,0.0353 0.49389,0.0353 0.21167,0 0.45861,0.0353 0.56445,0.0353 0.10583,0 0.35277,0.0353 0.52916,0.0353 0.45861,0 1.16417,0.0706 1.41111,0.0706 0.14111,0.0353 0.35278,0.0353 0.45861,0.0353 0.14112,0 0.28223,0.0353 0.3175,0.0353 0,0 0.0706,0 0.0706,0 0,0 0,0.35277 0,0.35277 0.0353,0.21167 0.0353,0.38806 0.0353,0.38806 0,0.0353 0.0706,0.0706 0.10583,0.10583 0.10583,0.0706 0.45861,0.35278 0.74083,0.56445 0.10584,0.10583 0.17639,0.17639 0.21167,0.17639 0.0706,0.0353 0.38806,0.0353 0.49389,0 0.0353,0 0.0353,-0.0353 0.0706,-0.14112 0,-0.10583 0,-0.42333 0,-0.74083 -0.0353,-0.3175 -0.0353,-0.56444 0,-0.59972 0,0 0.17638,0 0.42333,0.0353 0.21167,0 0.52917,0.0353 0.67028,0.0353 0.38805,0.0353 1.44639,0.0706 1.76389,0.10584 0.14111,0 0.28222,0.0353 0.35277,0.0353 0.21167,0 0.21167,0 1.09361,0.635 0.24695,0.17638 0.56445,0.38805 0.67028,0.45861 0.10584,0.0705 0.24695,0.17639 0.28222,0.24694 0.0706,0.0353 0.14112,0.10583 0.17639,0.10583 0.0353,0 0.21167,0.14112 0.67028,0.45862 0.10583,0.0705 0.3175,0.24694 0.45861,0.35277 0.14111,0.10584 0.28222,0.21167 0.3175,0.21167 0.38806,0.28222 1.44639,1.05833 2.11667,1.48167 0.17639,0.14111 0.28222,0.21166 0.28222,0.24694 0,0.0706 -0.0705,0.10583 -0.21167,0.14111 -0.24694,0.0353 -1.27,0.0706 -2.11666,0.0353 -0.14111,0 -0.24695,0 -0.38806,0 -0.3175,-0.0353 -0.77611,-0.0353 -0.98778,-0.0706 -0.21166,0 -0.67027,-0.0353 -1.02305,-0.0353 -0.35278,0 -0.81139,-0.0353 -1.02306,-0.0353 -0.45861,-0.0353 -1.12889,-0.0706 -1.44639,-0.0706 -0.14111,0 -0.38805,0 -0.56444,-0.0353 -0.21167,0 -0.74083,-0.0353 -1.23472,-0.0353 -0.49389,-0.0353 -1.02306,-0.0353 -1.19945,-0.0706 -0.21166,0 -0.49389,0 -0.635,0 -0.17639,-0.0353 -0.45861,-0.0353 -0.59972,-0.0353 -0.42333,-0.0353 -0.98778,-0.0705 -1.83444,-0.10583 z m -0.67028,1.16417 c 0,0 0,0.38805 0,0.38805 -0.0706,1.19945 -0.0706,1.76389 -0.10583,2.081392 0,0 -0.0353,0.91722 -0.0353,0.91722 0,0 0,0 0,0 0,0.0706 0,0.10584 0,0.10584 0,0.10583 0,0.10583 -0.0706,0.14111 -0.0705,0 -1.19944,0.0353 -1.23472,0 0,0 0,-0.28222 0,-0.56445 0,0 0,-0.56444 0,-0.56444 0,0 0,-0.388062 0,-0.388062 0.0353,-0.38805 0.0706,-1.12889 0.0706,-1.5875 0,0 0.0353,-0.52916 0.0353,-0.52916 0,0 0.67028,0 0.67028,0 0,0 0.67028,0 0.67028,0 z m 3.91583,3.210272 c 0,-0.21166 0.0353,-0.59972 0.0353,-1.375832 0,-0.84667 0.0353,-1.5875 0.0353,-1.62278 0,0 0,-0.0353 0,-0.0353 0,0 0.59972,0 0.59972,0 0.35278,0 0.59972,0.0353 0.59972,0.0353 0,0 0.0353,0.17639 0.0353,0.45861 0,0.88195 -0.0353,2.575282 -0.0353,2.681122 0,0 -0.0353,0.10583 -0.0353,0.10583 0,0 -0.56444,0 -0.56444,0 -0.28222,0 -0.56444,0.0353 -0.56444,0.0353 0,0 -0.0353,-0.0353 -0.0706,-0.0353 0,0 -0.0353,-0.0353 -0.0353,-0.24695 z m 4.40972,7.26723 c 0,0.21166 -0.0353,0.21166 -0.10583,0.21166 -0.10583,0 -1.12889,0.10584 -1.19944,0.10584 -0.10584,0.0353 -0.24695,0.0353 -0.24695,0 -0.0353,-0.0353 -0.0353,-0.88195 -0.0353,-1.94028 -0.0353,-1.05833 -0.0353,-2.04611 -0.0705,-2.18722 0,0 0,-0.28223 0,-0.28223 0,0 0.10583,0 0.10583,0 0.0353,0 0.38806,-0.0353 0.74084,-0.0353 0,0 0.67027,0 0.67027,0 0,0 0.0353,0.3175 0.0353,0.3175 0,0.21166 0.0353,0.98777 0.0353,1.76389 0.0353,0.77611 0.0705,1.5875 0.0705,1.79916 0,0.10584 0,0.17639 0,0.24695 z m -5.92666,-7.69056 c 0,-0.28222 0,-0.635002 0.0353,-0.846672 0,-0.21166 0,-0.70555 0.0353,-1.09361 0,0 0,-0.70555 0,-0.70555 0,0 0.56445,0.0353 0.56445,0.0353 0.28222,0 0.56444,0 0.56444,0 0,0 0,0.0353 0,0.10583 0,0.49389 -0.0353,2.363612 -0.0705,2.892782 0,0 0,0.3175 0,0.3175 0,0 -0.3175,0 -0.3175,0 -0.17639,0 -0.42334,0 -0.56445,0 0,0 -0.21166,0.0353 -0.21166,0.0353 0,0 -0.0353,-0.10583 -0.0353,-0.10583 0,-0.0353 0,-0.3175 0,-0.635 z m -7.90222,5.00945 c 0,-0.88195 0,-1.72862 0,-1.72862 0,0 0.0705,0 0.17638,0 0.0706,0 0.24695,0.0353 0.38806,0.0353 0.14111,0.0353 0.28222,0.0353 0.28222,0.0353 0,0.0353 0,0.42333 0,0.88194 0,0.45862 0,1.02306 0,1.19945 0,0.21167 0,0.635 0,0.9525 -0.0353,0.67028 0,0.635 -0.24694,0.52917 -0.10584,0 -0.28222,-0.0706 -0.38806,-0.10584 -0.10583,0 -0.21166,-0.0353 -0.21166,-0.0705 0,0 -0.0353,-0.88195 0,-1.72861 z m -3.42195,-10.865562 c 0,-0.17639 0,-0.38805 0,-0.56444 0,-0.17639 0,-0.35278 0,-0.45861 0.0353,-0.59973 0.0353,-0.59973 0.45861,-0.59973 0.17639,0.0353 0.3175,0.0706 0.35278,0.0706 0.0706,0.0353 0.0353,1.905 -0.0353,2.2225 -0.0353,0.17639 -0.0353,0.17639 -0.17639,0.21167 -0.35277,0.0705 -0.45861,0.0353 -0.49388,-0.0706 -0.0353,-0.0706 -0.0706,-0.42333 -0.10584,-0.81139 z m 0.21167,11.853332 c 0,-0.10583 0,-0.84666 0,-1.62277 0,0 0,-1.44639 0,-1.44639 0.52917,0.0353 0.77611,0.0705 0.77611,0.0705 0,0.0353 0.0353,0.74084 0,1.97556 0,0.74083 0,1.37583 -0.0353,1.41111 0,0 0,0 -0.0353,0 -0.0353,0 -0.21166,-0.0706 -0.38805,-0.10583 0,0 -0.3175,-0.10584 -0.3175,-0.10584 0,0 0,-0.17639 0,-0.17639 z m 2.11667,-12.770552 c 0,0 0.0705,0.0353 0.14111,0.10583 0.91722,1.09361 0.9525,1.09361 0.91722,1.27 0,0.14111 0,0.14111 -0.35278,0.17639 -0.45861,0.0706 -0.56444,0.0706 -0.56444,0 -0.0353,-0.0706 -0.10584,-0.88194 -0.14111,-1.30528 0,-0.14111 0,-0.24694 0,-0.24694 z m 0.70555,10.018892 c 0.0353,0 0.0353,0.59972 0,1.27 0,1.69333 -0.0353,2.18722 -0.0706,2.18722 0,0 -0.10583,-0.0353 -0.24694,-0.0706 -0.35278,-0.10583 -0.35278,-0.10583 -0.38805,-0.17639 0,-0.0353 0,-0.28222 0,-0.56444 0,-0.9525 0.0353,-2.68111 0.0353,-2.68111 0,-0.0353 0.0353,-0.0706 0.10584,-0.0353 0.42333,0.0353 0.56444,0.0706 0.56444,0.0706 z m -3.95111,2.43416 c 0,-0.45861 0,-1.51694 0.0353,-2.64583 0,0 0,-0.17639 0,-0.17639 0.17639,0 0.3175,0 0.42333,0 0,0 0.3175,0.0353 0.3175,0.0353 0,0 0,0.56444 0,0.56444 0,0.21167 0,0.70556 0,1.02306 -0.0353,0.35278 -0.0353,0.84667 -0.0353,1.12889 -0.0353,0.35278 -0.0353,0.52916 -0.0705,0.52916 0,0 -0.14111,-0.0353 -0.3175,-0.10583 -0.17639,-0.0353 -0.3175,-0.0705 -0.35278,-0.10583 0,0 0,-0.0706 0,-0.24695 z M 208.3523,93.070538 c 0,0 -0.17639,-0.0353 -0.17639,-0.0353 -0.10584,0 -0.17639,0 -0.17639,-0.0353 -0.0353,0 -0.0706,-2.11667 -0.0353,-2.15194 0,0 0.0353,0 0.17639,0 0.0705,0 0.14111,0 0.14111,0 0,0 0.0353,0.42333 0.0353,0.9525 0,0.49388 0,0.98777 0.0353,1.09361 0,0 0,0.17639 0,0.17639 z m -10.51278,-1.905 c -0.0353,0.0353 -0.17639,0.17638 -0.35278,0.38805 -0.21167,0.21167 -0.45861,0.45861 -0.52917,0.52917 -0.10583,0.17639 -0.14111,0.17639 -0.45861,0.21166 -0.17639,0.0353 -1.23472,0.21167 -1.37583,0.24695 -0.14111,0 -0.17639,0.0353 -0.17639,0 0,0 0.0353,0 0.0353,-0.0353 0,0 0.14111,-0.0705 0.28222,-0.14111 0.14111,-0.0706 0.74083,-0.35278 1.37583,-0.635 0.59973,-0.3175 1.12889,-0.56444 1.16417,-0.56444 0.0353,0 0.0353,0 0.0353,0 z M 133.35174,109.7922 c 0,0 -0.35278,0.42333 -0.35278,0.42333 -0.17639,0.21167 -0.3175,0.45862 -0.24694,0.52917 0,0.0353 0,0.0353 0,0.0353 0,0.0705 -0.0706,0.14111 -0.14111,0.24694 0,0 -0.0353,0.0353 -0.0353,0.0353 0,0 -0.0706,0 -0.0706,0 -0.38806,-0.14111 -0.81139,-0.24694 -1.27,-0.35278 0,0 -0.84667,-0.17639 -0.84667,-0.17639 0,0 -0.0353,-0.0705 -0.0353,-0.0705 -0.14111,-0.14111 -0.3175,-0.3175 -0.49389,-0.49389 -0.59972,-0.56444 -0.98778,-0.9525 -1.12889,-1.16417 -0.14111,-0.24694 -0.10583,-0.35277 0.17639,-0.3175 0.38806,0.0706 0.38806,-0.17639 -0.0353,-0.67027 -0.3175,-0.42334 -0.35277,-0.42334 -0.10583,-0.42334 0.10583,0 0.45861,0.14111 0.77611,0.35278 0.38806,0.21167 0.59972,0.28222 0.70556,0.21167 0.10583,-0.10584 0.38805,-0.0353 0.88194,0.14111 0.74083,0.28222 0.74083,0.3175 0.56444,0.56444 -0.0705,0.14111 -0.38805,0.42334 -0.635,0.635 -0.81138,0.70556 -0.67027,0.77611 0.74084,0.38806 0.28222,-0.0706 0.59972,-0.14111 0.70555,-0.14111 0.0706,0 0.14111,0 0.14111,0.0353 0,0.0353 0,0.0706 -0.0706,0.17639 -0.14111,0.21167 -0.10583,0.24695 0.3175,0.14111 0,0 0.45862,-0.10583 0.45862,-0.10583 z m 0.14111,14.2875 c 0.35278,0.10583 0.52917,0.28222 0.52917,0.635 0,0.35278 -0.21167,0.56445 -0.635,0.59972 -2.75167,0.24695 -14.04056,-6.45583 -18.13278,-6.0325 -0.77611,0.0706 -0.17639,-2.89277 -1.44639,-4.09222 -1.83444,-1.76389 -3.56305,-2.25778 -5.92666,-5.11528 -0.35278,-0.42333 -0.70556,0.9525 -1.09362,0.49389 -0.56444,-0.74083 0.0705,-2.57528 -0.49388,-3.42194 -4.51556,-6.38528 -9.948337,-13.793612 -9.948337,-15.204722 0,-1.05834 3.845277,4.02166 6.103057,6.70277 0.70555,0.88195 1.83444,1.375842 1.86972,1.481672 2.01083,6.59694 8.04333,11.81806 10.4775,11.81806 0.3175,0 0.56444,0.3175 0.84667,0.81138 0.52916,1.02306 1.09361,2.82223 2.36361,4.02167 0.59972,0.56445 1.34055,1.02306 2.29305,1.23472 2.82223,0.635 4.69195,2.46945 6.70278,3.88056 2.99861,2.04611 5.43278,1.83444 6.49111,2.18722 z m -4.33916,-13.75833 c 0,0 -0.38806,-0.0353 -0.38806,-0.0353 0,0 0,-0.0353 0,-0.0353 -0.0353,-0.0353 -0.0353,-0.0353 -0.0353,-0.0706 0,0 0.0353,0 0.0353,0 0,0 0.38806,0.14111 0.38806,0.14111 z M 39.936237,21.38609 c 0,0 -0.211666,0.564445 -0.211666,0.564445 -0.529167,1.199444 -1.023056,2.575277 -1.411112,3.774722 0,0 -0.176388,0.599722 -0.176388,0.599722 0,0 0,-4.938889 0,-4.938889 0,0 1.799166,0 1.799166,0 z m 0.246945,5.468056 c 0.670277,-0.458611 1.234722,-0.776111 1.411111,-0.776111 0.211666,0 1.128889,0.529166 2.010833,1.199444 2.257778,1.728611 3.351389,2.716389 3.386667,4.021667 0.03528,1.128888 -0.740833,2.54 -2.257778,4.868333 -2.328333,3.527778 -3.563056,5.785555 -3.845278,6.843889 -0.176389,0.740833 -0.141111,0.811388 0.564445,1.093611 0.458611,0.141111 1.093611,0.282222 1.446389,0.282222 1.411111,-0.03528 1.446389,0.352778 0.282222,1.940278 -0.776111,1.023055 -2.257778,3.139722 -3.704167,5.291666 0,0 -1.340555,1.975556 -1.340555,1.975556 0,0 0,-25.258889 0,-25.258889 0,0 0.211666,-0.105833 0.211666,-0.105833 0.3175,-0.246944 0.740834,-0.564444 1.164167,-0.881944 0.246944,-0.176389 0.458611,-0.352778 0.670278,-0.493889 z M 118.04124,105.0297 c 0,0 0.0353,0 0.0353,0 0.0353,0.0353 0.0353,0.0353 0.0353,0.0706 0,0 0,0.0706 0,0.0706 0,0 -0.0353,-0.0706 -0.0353,-0.0706 0,0 -0.0353,-0.0706 -0.0353,-0.0706 z M 47.626793,50.560812 c 0,0 0,5.291666 0,5.291666 0,0 -0.03528,5.291667 -0.03528,5.291667 0,0 -1.693333,2.398889 -1.693333,2.398889 -2.257778,3.139722 -4.198056,5.609166 -7.231945,9.2075 0,0 -0.529166,0.635 -0.529166,0.635 0,0 0,-16.404167 0,-16.404167 0,0 0.811388,-0.599722 0.811388,-0.599722 2.786945,-2.010833 6.420556,-4.550833 7.337778,-5.08 0,0 1.340556,-0.740833 1.340556,-0.740833 z m 0.388055,18.944166 c 1.799167,-1.940278 3.527778,-3.457222 4.691945,-4.092222 1.728611,-0.881944 5.185833,-4.903611 8.819444,-10.265833 1.622778,-2.363611 2.010833,-2.786945 2.328333,-2.54 0.3175,0.3175 0.846667,1.375833 2.293056,4.656666 0.811389,1.940278 2.187222,6.208889 3.4925,11.1125 0.211666,0.811389 0.423333,2.257778 0.423333,3.210278 0.07056,1.446389 -0.07056,2.010833 -0.846667,3.704166 -0.493888,1.093612 -1.446388,2.716389 -2.151944,3.598334 -1.023056,1.27 -1.234722,1.693333 -0.987778,1.975555 0.564445,0.705556 2.081389,0.423334 3.668889,-0.635 2.469444,-1.658055 2.716389,-1.763889 3.915833,-1.799166 1.516945,0 2.54,0.670277 3.880556,2.575277 1.234722,1.763889 1.799166,3.033889 1.834444,4.162778 0,1.693333 -7.584722,-4.056944 -7.549444,-3.880555 0.03528,0.03528 -18.873611,0.352777 -32.631944,1.869722 0,0 -1.058333,0.141111 -1.058333,0.141111 0,0 0,-0.07056 0,-0.07056 0,0 0.388055,-0.564444 0.388055,-0.564444 2.363611,-3.563056 4.480278,-6.808611 5.468056,-8.255 1.199444,-1.693333 2.610555,-3.421944 4.021666,-4.903611 z"
       style="fill:#7f7f7f;fill-opacity:0;stroke-width:0.447;stroke-miterlimit:4;stroke-dasharray:none" />
  </g>
</svg>
