<?xml version="1.0" encoding="UTF-8" standalone="no"?>
<!-- Created with Inkscape (http://www.inkscape.org/) -->

<svg
   width="297mm"
   height="210mm"
   viewBox="0 0 297 210"
   version="1.1"
   id="svg1189"
   xmlns="http://www.w3.org/2000/svg"
   xmlns:svg="http://www.w3.org/2000/svg">
  <defs
     id="defs1186" />
  <g
     id="layer1">
    <path
       id="Path5"
       stroke-width="0.246944"
       stroke="#2b2b2b"
       stroke-opacity="1"
       fill="#555555"
       fill-opacity="1"
       fill-rule="evenodd"
       stroke-linecap="round"
       stroke-linejoin="round"
       d="m 262.83432,193.44538 c 0,0 0,-89.9936 0,-89.9936 0,0 0,-89.993614 0,-89.993614 0,0 -119.97972,0 -119.97972,0 0,0 -120.014991,0 -120.014991,0 0,0 0,89.993614 0,89.993614 0,0 0,89.9936 0,89.9936 0,0 120.014991,0 120.014991,0 0,0 119.97972,0 119.97972,0 z M 75.615164,104.96872 c -0.03528,-1.09361 0,-2.04611 0.03528,-2.08139 0.211667,-0.21167 5.573889,-1.16417 5.715,-1.02305 0.07056,0.0705 0.105834,1.05833 0.105834,2.08138 0,1.02306 -0.03528,2.01084 -0.07056,2.08139 -0.141111,0.10584 -5.044722,0.98778 -5.468055,0.98778 0,0 -0.282223,-0.0353 -0.282223,-0.0353 0,0 -0.03528,-2.01083 -0.03528,-2.01083 z m -9.242778,10.4775 c 0,-0.0706 2.046111,-0.42333 7.3025,-1.30528 0.881944,-0.14111 1.622778,-0.24694 1.658055,-0.21166 0.03528,0.0353 0.105834,0.84666 0.141112,1.79916 0,0.38806 0,0.67028 0,0.88195 0,0.17639 0,0.3175 0,0.42333 0,0.35278 -0.03528,0.42333 -0.105834,0.42333 -0.105833,0 -2.081389,-0.42333 -4.409722,-0.9525 -2.363611,-0.52916 -4.339166,-0.98777 -4.409722,-0.98777 -0.105833,0 -0.176389,-0.0353 -0.176389,-0.0706 z M 77.41433,114.2115 c 0,-0.28222 0.07056,-0.42334 0.211667,-0.49389 0.176389,-0.0706 2.963333,-0.56445 4.515555,-0.77611 0.493889,-0.10584 0.881945,-0.14111 0.9525,-0.14111 0.105834,0 0.176389,0.0705 0.176389,0.74083 0,0.24694 -0.03528,0.52917 -0.03528,0.88194 0,0 -0.03528,1.65806 -0.03528,1.65806 0,0 -1.305278,0.3175 -1.305278,0.3175 -0.705556,0.17639 -1.658056,0.42333 -2.116667,0.52917 -0.740833,0.17639 -1.164166,0.28222 -1.5875,0.3175 -0.07055,0 -0.211666,-0.0706 -0.282222,-0.14111 -0.03528,-0.0706 -0.141111,-0.52917 -0.211666,-0.98778 -0.07056,-0.45861 -0.141112,-1.02306 -0.211667,-1.23472 -0.03528,-0.28223 -0.07056,-0.49389 -0.07056,-0.67028 z m -15.486944,-0.35278 c 0,0.35278 -0.03528,0.56444 -0.03528,0.56444 -0.07055,0 -0.881944,0.14112 -1.834444,0.28223 -2.293055,0.38805 -2.2225,0.38805 -2.293055,0 -0.07056,-0.45861 -0.388056,-6.73806 -0.458612,-8.32556 0,0 -0.03528,-1.34055 -0.03528,-1.34055 0,0 0.458611,-0.0706 0.458611,-0.0706 0.211666,-0.0353 1.234722,-0.0706 2.187222,-0.10583 0,0 1.799167,-0.0706 1.799167,-0.0706 0,0 0.07055,1.94028 0.07055,1.94028 0.105833,3.42194 0.141111,6.0325 0.141111,7.12611 z m -6.843889,2.99861 c 0,-0.10583 6.455834,-1.12889 7.055556,-1.12889 0.246944,0 2.469444,0.49389 4.903611,1.05834 6.773333,1.62277 9.278055,2.15194 10.089444,2.04611 0.246945,-0.0353 1.023056,-0.21167 1.658056,-0.38806 0.670277,-0.14111 1.763888,-0.38805 2.469444,-0.52917 0.670278,-0.14111 1.552222,-0.3175 1.905,-0.42333 0.352778,-0.0705 0.740833,-0.14111 0.811389,-0.14111 0.211666,0 0.246944,0.17639 0.388055,2.68111 0.07056,0.98778 0.141111,2.04611 0.176389,2.29306 0.03528,0.14111 0.03528,0.24694 0.03528,0.35277 0,0.0706 -0.03528,0.14112 -0.03528,0.14112 -0.07055,0 -0.3175,-0.17639 -0.564444,-0.35278 -1.234722,-0.88195 -2.928056,-1.44639 -4.868333,-1.5875 -1.164167,-0.0706 -1.375834,-0.10584 -2.116667,-0.45861 -1.728611,-0.74084 -3.316111,-1.19945 -5.715,-1.55223 -0.635,-0.10583 -1.693333,-0.3175 -2.293055,-0.45861 -1.516945,-0.35277 -4.797778,-0.45861 -6.103056,-0.21166 -1.693333,0.3175 -4.7625,0.10583 -5.997222,-0.38806 -0.917222,-0.38805 -1.799167,-0.84667 -1.799167,-0.9525 z m -0.141111,-14.64028 c -1.5875,0.17639 -1.622777,-0.0353 -2.786944,-0.9525 -5.009444,-4.05694 -8.219722,-6.59694 -13.546667,-10.795 -3.386666,-2.64583 -6.244166,-4.903607 -6.385277,-5.009441 -0.211667,-0.141111 -0.282223,-0.282222 -0.282223,-0.564444 0,-0.458611 0.07056,-0.493889 0.987778,-0.493889 0.352778,0 3.386667,-0.141111 6.6675,-0.3175 0,0 4.409722,-0.211667 4.409722,-0.211667 0,0 0,0.105834 0,0.105834 -0.03528,1.693333 0.03528,3.880555 0.176389,5.891387 0.141111,2.2225 0.141111,2.29306 0.458611,2.57528 0.352778,0.38805 0.740834,0.635 1.199445,0.77611 0.564444,0.17639 1.305278,0.14111 2.363611,-0.0353 0.881944,-0.14111 1.27,-0.24694 1.375833,-0.38805 0.105834,-0.17639 0.105834,-0.56445 0.07056,-1.23473 0,-0.56444 -0.105834,-2.18722 -0.141111,-3.633606 -0.105834,-2.151945 -0.246945,-3.774722 -0.3175,-4.233334 0,0 -0.03528,-0.07055 -0.03528,-0.07055 0,0 2.786944,-0.141111 2.786944,-0.141111 8.078611,-0.388056 11.994444,-0.599722 12.311944,-0.670278 0.282223,-0.03528 0.493889,0.07056 2.116667,1.093611 0.705556,0.458611 2.2225,1.411111 3.386667,2.116667 1.199444,0.705555 2.716389,1.622778 3.386666,2.081389 1.128889,0.670282 11.641667,7.126112 14.851944,9.066392 0.635,0.42333 1.093611,0.74083 1.058334,0.81139 -0.07056,0.0353 -1.763889,0.28222 -3.845278,0.52917 -3.457222,0.38805 -8.466666,0.98777 -20.531666,2.46944 -2.751667,0.3175 -6.173611,0.74083 -7.584722,0.9525 -0.9525,0.10583 -1.658056,0.21167 -2.151945,0.28222 z m 34.325277,22.26028 c 0,0.28222 0,0.49389 0,0.52917 -0.07055,0.17639 -0.105833,0.17639 -0.635,-0.17639 -0.246944,-0.14111 -0.917222,-0.49389 -1.481666,-0.77611 -0.564445,-0.24695 -1.023056,-0.52917 -1.058334,-0.56445 -0.03528,-0.0705 -0.105833,-0.52916 -0.141111,-1.09361 -0.03528,-0.52916 -0.105833,-1.30528 -0.105833,-1.72861 -0.03528,-0.45861 -0.03528,-0.77611 0.03528,-0.77611 0.03528,0 0.352778,0.24694 0.740833,0.56444 0.776111,0.67028 1.481667,1.02306 2.081389,1.02306 0.352778,0 0.423333,0.0353 0.458611,0.24694 0.03528,0.17639 0.07056,0.9525 0.105833,1.69334 0,0.38805 0,0.77611 0,1.05833 z m -3.527777,-5.82083 c -0.07056,-0.14111 -0.07056,-0.3175 -0.07056,-0.70556 0,0 -0.03528,-0.635 -0.03528,-0.635 0,0 0.564445,-0.17639 0.564445,-0.17639 0.881944,-0.28222 2.8575,-0.70555 2.928055,-0.635 0.141111,0.0706 0.105834,3.42195 -0.03528,3.56306 -0.03528,0.0705 -0.352777,0.10583 -0.670277,0.10583 -0.529167,0 -0.670278,-0.0353 -1.340556,-0.49389 -0.388055,-0.24694 -0.881944,-0.635 -1.058333,-0.77611 -0.141111,-0.10583 -0.211667,-0.17639 -0.282222,-0.24694 z M 46.017109,84.683998 c 0,-0.211666 0,-0.352778 0.03528,-0.388055 0.141111,-0.176389 2.469444,-0.07056 2.575277,0.141111 0.105834,0.211666 0.282222,4.480276 0.282222,6.667496 0,0.70556 0,1.19945 -0.03528,1.23473 -0.105834,0.0705 -2.293056,0.0353 -2.363611,-0.0706 -0.176389,-0.21167 -0.529167,-5.997222 -0.493889,-7.584722 z m 38.87611,28.786662 c 0,-0.77611 0,-0.88194 0.176389,-0.98777 0.176389,-0.0706 0.740833,-0.0353 2.2225,0.17639 2.151944,0.28222 2.504722,0.28222 2.54,0.59972 0,0.10583 0,0.28222 -0.03528,0.49389 0,0 0,0.70555 0,0.70555 0,0 -2.2225,0.52917 -2.2225,0.52917 -1.234722,0.28222 -2.293055,0.52917 -2.398889,0.49389 -0.105833,0 -0.176389,-0.17639 -0.211666,-0.56445 -0.03528,-0.28222 -0.07056,-0.9525 -0.07056,-1.44639 z m 5.150555,-5.89138 c -2.751666,0.52916 -4.092222,0.77611 -4.727222,0.81138 -0.246944,0.0353 -0.388055,0.0353 -0.423333,0 -0.07056,-0.14111 -0.105833,-0.59972 -0.105833,-1.48166 0,-0.70556 0,-1.27 0.03528,-1.27 0.03528,0 0.493889,0.0353 1.058334,0.14111 1.5875,0.24694 4.903611,0.635 6.279444,0.74083 0.987778,0.10584 1.481667,0.17639 1.516945,0.24695 0,0.0353 -0.141112,0.10583 -0.423334,0.14111 -1.234722,0.24694 -2.293055,0.45861 -3.210278,0.67028 z m -0.03528,1.34055 c 0,0.0706 0,0.14111 0,0.24695 -0.03528,0.17638 -0.07056,0.84666 -0.07056,1.44638 0,0 0,1.09362 0,1.09362 0,0 -0.282222,-0.0353 -0.282222,-0.0353 -0.141111,0 -1.128889,-0.10584 -2.151944,-0.21167 0,0 -1.869723,-0.21167 -1.869723,-0.21167 0,0 -0.03528,-0.88194 -0.03528,-0.88194 0,-0.67028 0,-0.88194 0.141111,-0.9525 0.07055,-0.0706 1.058333,-0.28222 2.116666,-0.52917 1.940278,-0.35277 2.187222,-0.42333 2.151945,0.0353 z M 168.43099,74.770943 c 0,0 -1.16417,-0.03528 -1.16417,-0.03528 0,0 -1.16416,-0.07055 -1.16416,-0.07055 0,0 -0.45861,0.3175 -0.45861,0.3175 -0.81139,0.529166 -1.30528,1.728611 -1.94028,4.444999 -0.14111,0.599723 -0.28222,4.409723 -0.17639,5.150556 0.21167,1.552222 0.28222,1.905 0.49389,2.575278 0.0705,0.105833 0.17639,0.423333 0.24694,0.705555 0.21167,0.634999 0.77611,1.234719 1.23472,1.411109 0.49389,0.14111 11.04195,0.59972 11.50056,0.45861 0.38806,-0.0706 1.02306,-0.67028 1.27,-1.12889 0.14111,-0.352773 0.56444,-1.446384 0.77611,-2.116662 0.45861,-1.340556 0.74083,-4.480278 0.56445,-6.314722 -0.14112,-1.234722 -0.24695,-1.869722 -0.38806,-2.151945 -0.0353,-0.105833 -0.0706,-0.246944 -0.0706,-0.3175 0,-0.07055 -0.0353,-0.211666 -0.0705,-0.352777 -0.17639,-0.493889 -0.49389,-1.27 -0.70556,-1.516945 -0.38805,-0.564444 -0.70555,-0.670278 -1.97555,-0.740833 0,0 -1.09361,-0.03528 -1.09361,-0.03528 0,0 -0.17639,-0.352778 -0.17639,-0.352778 0,0 -0.14111,-0.352777 -0.14111,-0.352777 0,0 -0.88195,-0.03528 -0.88195,-0.03528 -1.02305,-0.03528 -0.9525,0 -1.09361,-1.023056 -0.0353,-0.3175 -0.10583,-0.776111 -0.17639,-1.058333 -0.17639,-1.199444 -0.17639,-1.234722 0.49389,-1.058333 0.81139,0.211666 2.92806,0.670277 3.56306,0.776111 0.49389,0.105833 0.635,0.03528 0.74083,-0.246945 0.0353,-0.105833 0.0353,-0.176389 0.0353,-0.246944 0,0 -0.0706,-0.07056 -0.0706,-0.07056 0,0 43.25056,10.089445 43.25056,10.089445 0,0 -0.17639,0.176388 -0.17639,0.176388 -0.88195,1.128889 -1.48167,2.116667 -2.18722,3.563056 -2.2225,4.40972 -3.56306,9.48972 -4.62139,17.49777 -0.0706,0.635 -0.14111,1.23472 -0.21167,1.76389 0,0 -0.17639,1.16417 -0.17639,1.16417 0,0 0,0.0353 0,0.0353 0.10583,0.35278 -0.0705,1.37583 -0.3175,1.86972 0,0 0,0.0353 0,0.0353 0,0 -0.17639,0.9525 -0.17639,0.9525 -0.28222,1.44638 -0.635,2.57527 -1.05833,3.70416 -0.77611,2.11667 -1.51695,3.175 -3.98639,5.71499 -1.12889,1.12889 -2.29306,2.36361 -2.57528,2.75167 -2.15194,2.71639 -4.23333,7.05555 -6.13833,12.84111 0,0 -0.84667,2.54 -0.84667,2.54 0,0 -2.01083,1.44639 -2.01083,1.44639 -4.09222,2.99861 -7.05556,4.83305 -9.24278,5.67972 -1.19944,0.49389 -2.71639,0.91722 -4.30389,1.23472 0,0 -1.48166,0.28222 -1.48166,0.28222 0,0 -0.59973,0.635 -0.59973,0.635 -0.91722,0.98778 -2.2225,3.03389 -3.31611,5.25639 -0.35277,0.74084 -0.42333,0.77611 -0.98777,0.59973 -0.24695,-0.0706 -0.21167,-0.10584 0.52916,-0.84666 0.42334,-0.42333 0.74084,-0.77611 0.70556,-0.81139 -0.10584,-0.0706 -1.34056,0.24694 -1.86972,0.45861 0,0 -0.38806,0.17639 -0.38806,0.17639 0,0 0,-0.3175 0,-0.3175 0.0353,-0.45861 0.45861,-1.62278 0.81139,-2.2225 0.17639,-0.28222 0.3175,-0.52917 0.3175,-0.59972 0,-0.42334 -1.09361,0.74083 -1.79917,1.86972 0,0 -0.52916,0.91722 -0.52916,0.91722 0,0 0,-0.49389 0,-0.49389 0,-0.56444 -0.0706,-0.9525 -0.17639,-0.9525 -0.0353,0 -0.21167,0.24695 -0.35278,0.52917 -0.14111,0.3175 -0.3175,0.56444 -0.35278,0.56444 -0.0705,0 -0.14111,-0.28222 -0.21167,-0.635 -0.14111,-0.59972 -0.0705,-1.27 0.14112,-2.11666 0.10583,-0.42334 -0.10584,-0.35278 -0.35278,0.10583 -0.21167,0.38806 -0.45861,1.37583 -0.56445,2.18722 0,0 -0.0705,0.52917 -0.0705,0.52917 0,0 -0.24695,-0.52917 -0.24695,-0.52917 -0.21166,-0.49389 -0.74083,-1.16416 -0.91722,-1.16416 -0.0353,0 -0.0705,0.35277 -0.0353,0.81138 0,0.42333 0,0.88194 -0.0705,0.9525 -0.0706,0.17638 -0.14111,0.10583 -0.45861,-0.3175 -0.21167,-0.28223 -0.49389,-0.56445 -0.59973,-0.635 -0.14111,-0.0706 -0.17638,-0.10584 -0.17638,0.14111 0,0 0,0.14111 0,0.14111 0,0 0.0353,0 0.0353,0 0.0353,0.0353 0.0706,0.0705 0.0706,0.10583 0,0.0353 0,0.0706 -0.0353,0.10583 0,0 -0.0353,0.0353 -0.0353,0.0353 0,0 0.0353,0.42334 0.0353,0.42334 0,0.10583 0,0.17638 -0.0353,0.17638 0,0 -0.14111,-0.21166 -0.24694,-0.42333 0,0 -0.0706,-0.14111 -0.0706,-0.14111 0,0 -1.19944,0 -1.19944,0 0,0 0,0.0353 0,0.0353 -0.0706,0.21165 -0.10583,0.28221 -0.17639,0.21165 0,0 -0.17639,-0.24693 -0.17639,-0.24693 0,0 -2.2225,0 -2.2225,0 0,0 0.0353,-0.17639 0.0353,-0.17639 0.0353,-0.10583 0.0353,-0.28222 0.0353,-0.49389 0,-0.56444 -0.0353,-0.67028 -0.35278,-0.98778 0,0 -0.35278,-0.38805 -0.35278,-0.38805 0,0 0.14111,-0.81139 0.14111,-0.81139 0.10584,-0.81139 0.3175,-1.30528 0.42334,-1.16417 0.0353,0.0353 0.17638,0.45861 0.28222,0.9525 0,0 0.17639,0.91723 0.17639,0.91723 0,0 0.52916,-0.0353 0.52916,-0.0353 0.28223,-0.0353 0.635,-0.10584 0.77611,-0.17638 0.24695,-0.0706 0.28223,-0.14111 0.21167,-0.49389 -0.0353,-0.24694 -0.21167,-0.81139 -0.35278,-1.27001 -0.17639,-0.4586 -0.28222,-0.84666 -0.24694,-0.88193 0.0353,0 0.70555,0.0353 1.48167,0.10583 1.72861,0.14111 2.57527,0.0353 2.96333,-0.42333 0.17639,-0.14112 0.28222,-0.42334 0.28222,-0.56445 0,-0.14111 0.0353,-0.35278 0.0706,-0.45861 0.0353,-0.10583 -0.17639,-0.35278 -0.52917,-0.70556 -0.77611,-0.74083 -1.27,-1.51694 -1.30528,-2.08138 -0.0353,-0.38806 0,-0.49389 0.3175,-0.70556 0.9525,-0.67028 1.27,-1.30528 0.91722,-1.69333 -0.28222,-0.35278 -1.37583,-0.3175 -1.905,0 -0.24694,0.14111 -0.42333,0.21166 -0.52916,0.14111 -0.10584,-0.14111 0,-0.38806 0.21166,-0.38806 0.14112,0 0.74084,-0.59972 1.02306,-1.05833 0.3175,-0.52917 0.59972,-1.37583 0.52917,-1.65806 -0.14111,-0.45861 -0.28223,-0.38805 -0.59973,0.3175 -0.3175,0.67028 -0.84666,1.27 -1.37583,1.51695 -0.24694,0.14111 -0.52917,0.14111 -1.09361,0.10583 -0.56444,-0.0353 -0.91722,0 -1.55222,0.17639 -0.42334,0.14111 -0.67028,0.21167 -0.88195,0.17639 -0.35277,-0.0353 -0.56444,-0.28222 -0.98777,-0.98778 -0.45862,-0.77611 -0.81139,-1.02305 -0.81139,-0.56444 0,0.10583 0.0705,0.35277 0.17639,0.52916 0.0705,0.21167 0.21166,0.56445 0.28222,0.81139 0.14111,0.59972 0.52916,1.09361 0.81139,1.09361 0.14111,0 0.24694,0.0706 0.24694,0.10584 0,0.17639 -0.28222,0.35277 -0.81139,0.49389 -0.24694,0.0706 -0.67028,0.21166 -0.88194,0.35277 -0.56445,0.35278 -1.79917,0.56445 -3.81,0.67028 -2.61056,0.17639 -5.36222,0.70556 -7.9375,1.5875 -0.67028,0.21167 -1.37584,0.42333 -1.55222,0.42333 -0.17639,0 -0.52917,0.10584 -0.74084,0.21167 -0.3175,0.17639 -0.49389,0.17639 -0.91722,0.10583 -0.35278,-0.0705 -0.67028,-0.0353 -0.88194,0.0353 -0.42334,0.14111 -0.88195,0.56445 -0.88195,0.77611 0,0.17639 -0.70555,0.70555 -1.72861,1.27 -0.38806,0.21167 -0.91722,0.56445 -1.12889,0.81139 -0.21167,0.21167 -0.59972,0.49389 -0.84667,0.67027 -0.56444,0.35278 -0.88194,0.77611 -0.88194,1.16418 0,0.45861 0.38806,1.905 0.67028,2.54 0,0 0.0353,0.10583 0.0353,0.10583 0,0 -1.44639,0 -1.44639,0 0,0 -0.0706,0.0353 -0.0706,0.0353 0,0 -0.0705,-0.0353 -0.0705,-0.0353 0,0 0,0 0,0 0,0 -0.0353,0 -0.0353,0 -0.0353,0 -0.17639,-0.0353 -0.17639,-0.17639 0,0 0.0353,-0.0353 0.0353,-0.0353 0,0 -0.0353,0 -0.0353,0 -0.21167,-0.21165 -0.38806,-0.49388 -0.38806,-0.59971 0,-0.14111 -0.0705,-0.24694 -0.10583,-0.24694 -0.10583,0 -0.74083,0.67026 -0.98778,1.05833 0,0 -0.17639,0.28222 -0.17639,0.28222 0,0 -0.17638,-0.38805 -0.17638,-0.38805 -0.24695,-0.42334 -0.45862,-0.45861 -0.52917,-0.0353 -0.17639,0.67028 -0.24695,0.84667 -0.42333,0.70555 -0.24695,-0.21166 -0.49389,-0.0353 -0.42334,0.28223 0.0353,0.17639 0.0706,0.3175 0.0353,0.3175 -0.0353,0 -0.21167,-0.24695 -0.38806,-0.52917 -0.42333,-0.59972 -1.23472,-1.4464 -1.34055,-1.37584 -0.0353,0.0353 0,0.35277 0.10583,0.74083 0.21167,0.84667 0.21167,0.81139 -0.10583,0.91722 -0.28222,0.0353 -0.28222,0.0706 -0.21167,0.56445 0.0353,0.45861 0.0353,0.49389 -0.0706,0.38805 -0.0706,-0.0705 -0.21167,-0.38805 -0.3175,-0.70555 -0.14111,-0.42334 -0.21167,-0.49389 -0.3175,-0.38806 -0.0706,0.0353 -0.14111,0.21167 -0.17639,0.38806 0,0 -0.0706,0.28222 -0.0706,0.28222 0,0 -0.45861,-0.24695 -0.45861,-0.24695 -0.63499,-0.38805 -0.67027,-0.35277 -0.59972,0.45862 0.10584,0.88194 -0.0706,0.9525 -0.38805,0.24694 -0.14111,-0.3175 -0.21167,-0.74083 -0.21167,-1.19944 -0.0353,-0.38806 -0.0353,-0.74084 -0.0353,-0.74084 -0.0353,-0.14111 -0.35278,0.28222 -0.52917,0.77611 0,0 -0.21166,0.59973 -0.21166,0.59973 0,0 -0.49389,-0.0353 -0.49389,-0.0353 -0.42334,-0.0353 -0.49389,0 -0.45861,0.10583 0.0353,0.0706 0.0706,0.38806 0.10583,0.67028 0,0 0.0705,0.52917 0.0705,0.52917 0,0 -0.3175,-0.17639 -0.3175,-0.17639 -0.38805,-0.21167 -0.52917,-0.14111 -0.45861,0.28222 0,0 0.0706,0.3175 0.0706,0.3175 0,0 -0.59972,-0.56445 -0.59972,-0.56445 -0.56445,-0.56444 -1.41111,-1.09361 -1.51695,-0.9525 -0.0353,0.0353 0.0353,0.28223 0.17639,0.52917 0.10583,0.24695 0.3175,0.74083 0.42333,1.05833 0,0 0.17639,0.56445 0.17639,0.56445 0,0 -0.88194,0.28222 -0.88194,0.28222 -2.71639,0.81139 -4.86833,1.62278 -6.94972,2.61056 -4.05695,1.97555 -6.63223,4.09222 -7.83167,6.56166 -0.52917,1.09361 -0.70555,1.905 -0.70555,3.31611 0,6.35 3.28083,11.04195 9.70138,13.75834 5.85611,2.50472 14.11111,3.59833 26.77584,3.59833 1.86972,0 3.45722,0.0353 3.45722,0.0706 0,0.0353 -0.17639,0.35277 -0.38806,0.70555 0,0 -0.35278,0.635 -0.35278,0.635 0,0 -60.113326,0 -60.113326,0 0,0 -60.113333,0 -60.113333,0 0,0 0,-35.56 0,-35.56 0,-19.57916 0,-35.59527 0.03528,-35.59527 0,0 1.093612,0.3175 2.434167,0.67027 2.469444,0.635 5.044722,1.23473 7.373055,1.72861 2.081389,0.42334 2.645834,0.52917 3.774723,0.635 2.54,0.24695 4.656666,0.52917 5.115277,0.635 1.340556,0.28223 2.434167,0.67028 3.527778,1.16417 0.670278,0.3175 1.481667,0.59972 1.869722,0.70556 0.846667,0.17639 4.233333,0.21166 6.949722,0.10583 2.469445,-0.10583 4.656667,0.0353 6.244167,0.38806 0.599722,0.14111 1.516944,0.3175 2.010833,0.38805 2.116667,0.35278 4.056944,0.84667 5.221111,1.41111 1.375833,0.635 1.869722,0.77611 3.316111,0.91722 1.093611,0.10584 1.5875,0.21167 2.363611,0.49389 1.199445,0.45861 1.27,0.49389 2.010833,1.09361 0.493889,0.38806 0.846667,0.56445 1.834445,0.88195 1.5875,0.56444 2.151944,0.88194 3.351389,2.04611 0.670277,0.59972 1.305277,1.09361 1.763889,1.37583 0.423333,0.21167 1.093611,0.67028 1.516944,1.02306 0.846667,0.635 6.702778,2.82222 5.009444,1.86972 -2.681111,-1.48167 -3.986388,-2.29305 -4.656666,-2.75167 -0.388056,-0.3175 -1.023056,-0.70555 -1.411111,-0.91722 -1.164167,-0.67028 -1.340556,-0.84666 -1.446389,-1.62278 -0.07056,-0.35277 -0.105834,-1.41111 -0.105834,-2.36361 0,0 0,-1.69333 0,-1.69333 0,0 0.282223,0 0.282223,0 0.423333,0 1.763889,0.52917 3.386666,1.23472 1.693334,0.77611 2.046111,0.84667 4.303889,1.05834 2.081392,0.17638 2.469442,0.24694 3.880552,0.98777 1.34056,0.67028 2.25778,1.34056 3.24556,2.43417 0.49389,0.52917 1.02305,1.05833 1.19944,1.16417 0.21167,0.10583 0.70556,0.24694 1.30528,0.3175 0.56445,0.0706 1.12889,1.16416 1.27,1.23472 0.0353,0 1.5875,0.42333 4.16278,0.42333 0.70555,-0.0353 1.30528,-0.42333 2.2225,-0.45861 0,0 0.17639,0.24695 0.17639,0.24695 0.14111,-0.21167 0.21166,-1.05834 0.28222,-1.69334 0,0 0.0706,-0.88194 0.0706,-0.88194 0,0 -0.38806,-0.35278 -0.38806,-0.35278 -0.17638,-0.17639 -0.38805,-0.35278 -0.45861,-0.35278 -0.0353,0 -0.0706,-0.17639 -0.0706,-0.42333 0,-0.38806 -0.0705,-0.49389 -0.3175,-0.70556 -0.3175,-0.24694 -0.3175,-0.3175 -0.3175,-0.9525 0.0353,-0.38805 0.0353,-0.74083 0.0353,-0.81139 -0.0353,-0.0705 -0.21166,-0.24694 -0.49389,-0.35277 -0.42333,-0.21167 -0.42333,-0.24695 -0.45861,-0.63499 0,-0.21167 -0.0705,-0.49389 -0.14111,-0.59973 -0.0706,-0.10583 -0.14111,-0.38805 -0.14111,-0.635 0,-0.42333 -0.17639,-0.67027 -0.45861,-0.56444 -0.10583,0.0353 -0.14111,0.17639 -0.14111,0.42333 0,0.28223 -0.10583,0.49389 -0.28222,0.70556 -0.21167,0.28222 -0.24695,0.35278 -0.14111,0.59972 0.10583,0.21167 0.10583,0.28221 -0.0353,0.38805 -0.14112,0.14111 -0.14112,0.14111 -0.21167,-0.21166 -0.0706,-0.42333 -0.21167,-0.56444 -0.67028,-0.67028 -0.35278,-0.0705 -0.38805,-0.10583 -0.56444,-1.51694 -0.10584,-0.635 -0.17639,-0.77611 -0.49389,-0.91722 -0.28222,-0.10584 -0.45861,-0.45862 -0.74084,-1.48167 -0.17638,-0.59972 -0.17638,-0.74083 -0.0705,-1.41111 0.10584,-0.74084 0.10584,-0.74084 -0.21166,-1.41111 -0.38806,-0.70556 -0.77611,-1.34056 -0.91723,-1.34056 -0.0353,0 -0.10583,0.56445 -0.14111,1.23472 -0.0706,1.12889 -0.10583,1.27 -0.42333,2.01083 -0.35278,0.70555 -0.38806,0.81139 -0.28222,1.09362 0.0706,0.21166 0.14111,0.52915 0.14111,0.7761 0,0.42333 -0.0353,0.45861 -0.35278,0.45861 -0.49389,0 -0.77611,0.38806 -0.56444,0.74083 0.0706,0.14111 0.24694,0.28223 0.35277,0.3175 0.14112,0.0353 0.24695,0.14111 0.24695,0.24695 0,0.17639 -0.0706,0.21166 -0.42333,0.21166 -0.24695,0 -0.67028,0 -0.9525,0.0353 -0.45862,0.0706 -0.56445,0.10584 -0.70556,0.42334 -0.17639,0.28222 -0.17639,0.3175 0,0.56444 0.0705,0.17639 0.3175,0.38806 0.52917,0.49389 0.28222,0.21167 0.3175,0.28222 0.28222,0.49389 -0.0353,0.14111 -0.0706,0.38805 -0.0706,0.56444 0,0.28222 -0.0353,0.3175 -0.38806,0.38806 -0.42333,0.0353 -0.81138,0.28222 -0.81138,0.49389 0,0.42333 -0.17639,0.35277 -1.09362,-0.24695 -0.52916,-0.3175 -1.41111,-0.81139 -1.97555,-1.09361 -1.05833,-0.52917 -1.41111,-0.635 -3.421945,-0.81139 -1.869723,-0.17639 -2.187223,-0.28222 -4.021667,-1.16416 -1.799167,-0.88195 -2.786944,-1.30528 -3.4925,-1.41112 -0.246944,-0.0353 -0.458611,-0.14111 -0.529167,-0.21166 -0.07055,-0.0706 -0.141111,-0.81139 -0.176388,-1.905 0,0 -0.07056,-1.76389 -0.07056,-1.76389 0,0 0.388056,-0.10583 0.388056,-0.10583 0.246944,-0.0706 1.164166,-0.28223 2.081388,-0.52917 2.928056,-0.70556 3.774723,-0.98778 4.021667,-1.23472 0.246944,-0.24695 0.246944,-0.24695 0.141111,-1.34056 -0.07055,-0.59972 -0.141111,-1.65805 -0.141111,-2.32833 0,-0.67028 0,-1.86972 -0.03528,-2.64584 0,0 -0.07055,-1.44638 -0.07055,-1.44638 0,0 -0.388056,-0.17639 -0.388056,-0.17639 -0.176389,-0.0706 -1.446389,-0.28223 -2.822222,-0.42334 -6.35,-0.74083 -7.972778,-0.98777 -8.149167,-1.12889 -0.03528,-0.0353 -0.07055,-1.02305 -0.105833,-2.2225 0,0 -0.07055,-2.18722 -0.07055,-2.18722 0,0 0.282222,-0.0706 0.282222,-0.0706 0.176389,-0.0353 2.081389,-0.28223 4.233333,-0.56445 2.610556,-0.3175 4.021667,-0.56444 4.162778,-0.635 0.352778,-0.24694 0.3175,-0.70555 -0.03528,-0.9525 -0.141111,-0.10583 -2.116667,-1.30528 -4.374444,-2.68111 -6.279445,-3.81 -9.136945,-5.53861 -9.2075,-5.60917 -0.07056,-0.0705 0.03528,-0.24694 0.176389,-0.45861 0.282222,-0.42333 0.3175,-0.88194 0.141111,-1.340547 -0.07056,-0.211666 -0.07056,-0.352778 0.03528,-0.670278 0.211666,-0.493888 0.105833,-0.776111 -0.493889,-1.093611 -0.388056,-0.211666 -0.493889,-0.352777 -0.705556,-0.846666 -0.3175,-0.811389 -0.3175,-1.023056 0.105833,-1.481667 0.388056,-0.423333 0.458612,-0.740833 0.211667,-1.199444 -0.211667,-0.423334 -0.599722,-0.670278 -1.340555,-0.917223 0,0 -0.211667,-0.07055 -0.211667,-0.07055 0,0 0.176389,0.03528 0.176389,0.03528 0,0 -0.07056,-0.07056 -0.07056,-0.07056 -0.493889,-0.3175 -1.340555,-1.199444 -1.728611,-1.763889 0,0 -0.03528,-0.03528 -0.03528,-0.03528 0,0 -0.388055,-0.352777 -0.388055,-0.352777 0,0 0.176389,-0.529167 0.176389,-0.529167 0.105833,-0.3175 0.352778,-0.705556 0.670278,-1.023055 0.352777,-0.388056 0.458611,-0.599723 0.458611,-0.846667 0,-0.3175 -0.141111,-0.423333 -0.9525,-0.529167 0,0 -0.458611,-0.105833 -0.458611,-0.105833 0,0 0.07055,-0.352778 0.07055,-0.352778 0.07056,-0.423333 0,-0.493889 -0.493889,-0.599722 -0.211666,-0.07056 -0.3175,-0.141111 -0.282222,-0.211667 0.176389,-0.635 0.141111,-0.705555 -0.3175,-0.917222 -0.282222,-0.105833 -0.493889,-0.246944 -0.493889,-0.282222 0,-0.07056 0.246945,-0.282222 0.529167,-0.529167 0.776111,-0.670278 0.635,-1.093611 -0.423334,-1.093611 -0.423333,0 -0.388055,0.03528 -0.564444,-1.164167 -0.03528,-0.246944 -0.105833,-0.493888 -0.211667,-0.564444 -0.07055,-0.105833 -0.176388,-0.493889 -0.246944,-0.881944 -0.105833,-0.493889 -0.176389,-0.705556 -0.3175,-0.705556 -0.282222,-0.07056 -0.388056,0.388056 -0.3175,1.305278 0,0 0.07056,0.846666 0.07056,0.846666 0,0 -0.352778,0.352778 -0.352778,0.352778 -0.3175,0.352778 -0.3175,0.352778 -0.352778,1.375833 0,0 0,1.023056 0,1.023056 0,0 -0.423333,0.388056 -0.423333,0.388056 -0.388056,0.352777 -0.423334,0.458611 -0.564445,1.199444 -0.07056,0.423333 -0.141111,0.9525 -0.141111,1.128889 0,0.176389 -0.105833,0.599722 -0.211667,0.9525 -0.176388,0.458611 -0.211666,0.740833 -0.176388,1.058333 0.07055,0.423333 0.03528,0.493889 -0.176389,0.670278 -0.141111,0.105833 -0.282223,0.3175 -0.352778,0.529167 -0.105833,0.3175 -0.141111,0.352777 -0.635,0.423333 -0.846667,0.105833 -0.917222,0.176389 -0.846667,0.740833 0.03528,0.3175 0.176389,0.811389 0.423334,1.27 0.211666,0.388056 0.352777,0.776111 0.352777,0.811389 -0.03528,0.03528 -0.599722,-0.282222 -1.27,-0.670278 -0.635,-0.388055 -1.411111,-0.846666 -1.728611,-1.023055 0,0 -0.599722,-0.3175 -0.599722,-0.3175 0,0 -1.340555,0.07055 -1.340555,0.07055 -0.740834,0.03528 -1.340556,0.03528 -1.340556,0 0,0 0.141111,-0.246944 0.282222,-0.493889 0.105834,-0.282222 0.246945,-0.564444 0.246945,-0.670277 0,-0.105834 -0.141111,-0.352778 -0.246945,-0.529167 -0.282222,-0.352778 -0.352777,-0.776111 -0.176389,-0.776111 0.141112,0 0.529167,-0.599722 0.529167,-0.881944 0,-0.105834 -0.07056,-0.246945 -0.176389,-0.3175 -0.211666,-0.211667 -0.176389,-0.388056 0.176389,-0.776112 0.352778,-0.423333 0.352778,-0.705555 0.07056,-1.023055 -0.282223,-0.282222 -0.352778,-0.282222 -1.234723,-0.03528 0,0 -0.705555,0.211667 -0.705555,0.211667 0,0 -0.529167,-0.564445 -0.529167,-0.564445 -0.3175,-0.352777 -0.529166,-0.670277 -0.529166,-0.740833 0,-0.105833 0.176388,-0.352778 0.423333,-0.599722 0.529167,-0.493889 0.599722,-0.811389 0.211667,-1.199445 -0.211667,-0.211666 -0.917223,-0.599722 -1.481667,-0.776111 -0.176389,-0.07055 -0.176389,-0.141111 -0.105833,-0.564444 0.07055,-0.635 -0.07056,-0.811389 -0.917223,-1.234722 -0.3175,-0.176389 -0.564444,-0.3175 -0.564444,-0.352778 0,-0.07056 0.07056,-0.3175 0.176389,-0.564445 0.141111,-0.458611 0.141111,-0.493888 -0.03528,-0.846666 -0.176389,-0.352778 -0.176389,-0.352778 0.07056,-0.599722 0.141111,-0.176389 0.211666,-0.352778 0.211666,-0.599723 -0.03528,-0.211666 -0.03528,-0.423333 -0.03528,-0.529166 0,-0.105834 0.03528,-0.352778 0.07055,-0.564445 0.03528,-0.3175 0.03528,-0.388055 -0.211667,-0.635 0,0 -0.282222,-0.246944 -0.282222,-0.246944 0,0 0.211667,-0.282222 0.211667,-0.282222 0.282222,-0.388056 0.282222,-0.881945 0,-1.128889 -0.141111,-0.176389 -0.3175,-0.211667 -0.811389,-0.211667 0,0 -0.599722,0 -0.599722,0 0,0 0.07055,-0.282222 0.07055,-0.282222 0.03528,-0.176389 0,-0.423333 -0.105833,-0.670278 -0.105833,-0.211666 -0.141111,-0.458611 -0.105833,-0.564444 0.03528,-0.141111 -0.03528,-0.3175 -0.282223,-0.599722 -0.423333,-0.458612 -0.423333,-0.458612 -0.246944,-0.917223 0.07056,-0.282222 0.07056,-0.352777 -0.105833,-0.529166 -0.105834,-0.105834 -0.423334,-0.3175 -0.635,-0.423334 -0.493889,-0.211666 -0.493889,-0.211666 -0.388056,-1.199444 0.03528,-0.3175 0,-0.423333 -0.105833,-0.388056 -0.07056,0 -0.3175,-0.246944 -0.564445,-0.564444 0,0 -0.388055,-0.564444 -0.388055,-0.564444 0,0 0.246944,-0.176389 0.246944,-0.176389 0,0 0.246945,-0.176389 0.246945,-0.176389 0,0 -0.388056,-0.388056 -0.388056,-0.388056 -0.246944,-0.246944 -0.493889,-0.670278 -0.670278,-1.164166 -0.141111,-0.388056 -0.3175,-0.811389 -0.352777,-0.917223 -0.03528,-0.105833 -0.03528,-0.176389 0.07055,-0.176389 0,0 0,0 0,0 0,0 -0.07055,-0.176388 -0.07055,-0.176388 -0.211667,-0.458612 -0.388056,-1.023056 -0.493889,-1.481667 0,0 -0.105834,-0.352778 -0.105834,-0.352778 0,0 -0.529166,1.27 -0.529166,1.27 0,0 0.246944,0.141111 0.246944,0.141111 0,0 -0.03528,1.128889 -0.03528,1.128889 -0.07055,1.5875 -0.141111,2.398889 -0.246944,2.398889 -0.07056,0 -0.105833,0.105833 -0.105833,0.176389 0,0.105833 -0.105834,0.246944 -0.246945,0.3175 -0.352778,0.176389 -0.3175,0.529166 0.105834,1.023055 0.176388,0.211667 0.352777,0.423334 0.352777,0.423334 0,0.03528 -0.176389,0.176389 -0.352777,0.282222 -0.176389,0.105833 -0.352778,0.282222 -0.388056,0.388055 -0.07056,0.141112 0.141111,0.635 0.388056,0.811389 0.211666,0.211667 0.176388,0.423334 -0.105834,0.423334 -0.352778,0 -1.305278,0.3175 -1.481666,0.493889 -0.3175,0.246944 -0.246945,0.846666 0.176388,1.375833 0.211667,0.282222 0.352778,0.564444 0.352778,0.740833 0,0.176389 0.105834,0.388056 0.246945,0.529167 0.141111,0.141111 0.246944,0.246944 0.246944,0.282222 0,0.03528 -0.141111,0.141111 -0.3175,0.246944 -0.246944,0.141112 -0.282222,0.211667 -0.282222,0.564445 0,0.388055 -0.03528,0.423333 -0.388056,0.564444 -0.211666,0.105834 -0.458611,0.246945 -0.599722,0.388056 0,0 -0.246944,0.211667 -0.246944,0.211667 0,0 0,-0.282223 0,-0.282223 0,-0.176389 -0.07056,-0.458611 -0.176389,-0.599722 -0.105834,-0.176389 -0.211667,-0.423333 -0.211667,-0.529167 0,-0.105833 -0.105833,-0.352777 -0.211666,-0.493888 -0.141112,-0.176389 -0.246945,-0.493889 -0.3175,-1.234723 -0.03528,-0.564444 -0.141112,-1.023055 -0.176389,-1.093611 -0.141111,-0.141111 -0.282223,0.03528 -0.352778,0.423334 -0.141111,0.811388 -0.282222,1.305277 -0.529167,1.763888 -0.176389,0.423334 -0.211666,0.564445 -0.141111,0.881945 0.07056,0.352778 0.03528,0.458611 -0.246944,0.917222 -0.211667,0.246945 -0.493889,0.599722 -0.705556,0.705556 -0.388055,0.211666 -0.493889,0.529166 -0.352778,0.9525 0.07056,0.211666 0.07056,0.282222 -0.105833,0.423333 -0.282222,0.246944 -0.3175,0.599722 -0.105833,1.058333 0,0 0.211666,0.458611 0.211666,0.458611 0,0 -0.282222,0.282223 -0.282222,0.282223 -0.282222,0.3175 -0.458611,0.352777 -0.635,0.105833 -0.07055,-0.105833 -0.282222,-0.246945 -0.423333,-0.352778 -0.3175,-0.176389 -0.564445,-0.740833 -0.564445,-1.27 0,-0.141111 -0.07056,-0.388055 -0.176389,-0.529166 -0.07056,-0.105834 -0.176388,-0.458612 -0.211666,-0.776112 -0.03528,-0.352777 -0.105834,-0.599722 -0.211667,-0.635 -0.176389,-0.07055 -0.211667,0 -0.388055,0.670278 -0.07055,0.3175 -0.282223,0.705556 -0.388056,0.881945 -0.211667,0.211666 -0.246944,0.352777 -0.211667,0.599722 0.105834,0.458611 -0.141111,1.164166 -0.529166,1.552222 0,0 -0.352778,0.282222 -0.352778,0.282222 0,0 0.176389,0.423334 0.176389,0.423334 0.246944,0.529166 0.105833,0.917222 -0.423333,1.234722 -0.211667,0.176389 -0.388056,0.388055 -0.458612,0.564444 -0.07056,0.352778 -0.211666,0.458611 -0.635,0.458611 -0.246944,0 -0.458611,-0.105833 -0.811388,-0.423333 -0.282278,-0.246963 -0.599778,-0.529186 -0.740889,-0.599741 -0.246945,-0.176389 -0.246945,-0.211667 -0.141111,-0.529167 0.176389,-0.423333 0.176389,-1.023055 0.03528,-1.305278 -0.07056,-0.105833 -0.352778,-0.3175 -0.670278,-0.458611 -0.282222,-0.141111 -0.529167,-0.3175 -0.529167,-0.388055 0,-0.07056 0.141111,-0.211667 0.352778,-0.282223 0.388055,-0.176388 0.599722,-0.564444 0.458611,-0.881944 -0.105833,-0.176389 -0.458611,-0.3175 -1.093611,-0.458611 -0.423333,-0.07056 -0.423333,-0.176389 0.03528,-0.423333 0.776111,-0.388056 0.846667,-0.846667 0.105833,-0.987778 -0.3175,-0.03528 -0.388055,-0.105833 -0.3175,-0.211667 0.246945,-0.635 0.176389,-1.023055 -0.211666,-1.164166 -0.105834,-0.07056 -0.282223,-0.07056 -0.458611,-0.07056 -0.564445,0 -0.599723,-0.03528 -0.352778,-0.881944 0.176389,-0.599723 0.105833,-0.846667 -0.246945,-1.058334 -0.141111,-0.07055 -0.176389,-0.176389 -0.141111,-0.423333 0.03528,-0.246944 0,-0.388056 -0.211666,-0.635 -0.141112,-0.176385 -0.317501,-0.56444 -0.388056,-0.917218 -0.211667,-1.058334 -0.564445,-0.776111 -0.564445,0.493889 0,0.282222 -0.105833,0.705555 -0.211666,0.987777 -0.176389,0.423334 -0.211667,0.599723 -0.176389,1.093611 0.07055,0.599723 0.07055,0.635 -0.176389,0.740834 -0.246945,0.105833 -0.282222,0.176389 -0.211667,0.493889 0.07056,0.352777 0.07056,0.881944 0.03528,1.975555 -0.03528,0.529167 -0.07055,0.670278 -0.282222,0.917222 -0.352778,0.388056 -0.493889,0.635 -0.599722,1.234723 -0.07056,0.282222 -0.246945,0.635 -0.352778,0.811388 0,0 -0.246945,0.352778 -0.246945,0.352778 0,0 0,-13.793611 0,-13.793611 0,0 0,-13.758333 0,-13.758333 0,0 0.141112,0.141112 0.141112,0.141112 0,0 0.03528,-0.881945 0.03528,-0.881945 0,0 -0.176389,-0.105833 -0.176389,-0.105833 0,0 0,-4.550833 0,-4.550833 0,0 47.483888,11.112499 47.483888,11.112499 0,0 -0.564445,-0.105833 -0.564445,-0.105833 -0.635,-0.105833 -0.776111,0 -0.811389,0.352778 0,0.282222 0.141111,0.423333 0.529167,0.493889 0.176389,0.03528 0.740833,0.176388 1.27,0.282222 1.234722,0.282222 1.799167,0.423333 2.398889,0.564444 0.282222,0.07056 0.670278,0.141111 0.881944,0.211667 0.211667,0.03528 0.388056,0.105833 0.352778,0.141111 0,0.105833 -0.352778,1.799167 -0.493889,2.293056 -0.03528,0.246944 -0.141111,0.564444 -0.176389,0.740833 0,0 -0.07056,0.3175 -0.07056,0.3175 0,0 -0.846667,-0.03528 -0.846667,-0.03528 0,0 -0.846667,-0.03528 -0.846667,-0.03528 0,0 -0.176389,0.352778 -0.176389,0.352778 0,0 -0.176388,0.352778 -0.176388,0.352778 0,0 -1.164167,-0.03528 -1.164167,-0.03528 0,0 -1.164167,-0.07056 -1.164167,-0.07056 0,0 -0.458611,0.3175 -0.458611,0.3175 -0.776111,0.529167 -1.305278,1.728612 -1.940278,4.445 -0.141111,0.635 -0.282222,4.409722 -0.176388,5.150556 0.211666,1.552222 0.282222,1.905 0.529166,2.575278 0.03528,0.105833 0.141111,0.423333 0.211667,0.705555 0.211667,0.635 0.776111,1.234722 1.27,1.411111 0.458611,0.141111 11.006666,0.599722 11.465277,0.458611 0.423334,-0.07055 1.023056,-0.670278 1.27,-1.128889 0.141111,-0.352777 0.564445,-1.446388 0.811389,-2.116666 0.423334,-1.340556 0.705556,-4.480278 0.529167,-6.314722 -0.141111,-1.234723 -0.246945,-1.869722 -0.388056,-2.151945 -0.03528,-0.105833 -0.07055,-0.246944 -0.07055,-0.3175 0,-0.246944 -0.493889,-1.516944 -0.776111,-1.869722 -0.388056,-0.564444 -0.705556,-0.670278 -1.975556,-0.740833 0,0 -1.093611,-0.03528 -1.093611,-0.03528 0,0 -0.176389,-0.352778 -0.176389,-0.352778 0,0 -0.141111,-0.352778 -0.141111,-0.352778 0,0 -0.881944,-0.03528 -0.881944,-0.03528 -1.023056,-0.03528 -0.9525,0.03528 -1.093611,-1.023056 -0.03528,-0.3175 -0.105834,-0.776111 -0.141112,-1.023055 -0.211666,-1.234723 -0.211666,-1.27 0.458612,-1.093611 0.811388,0.211666 2.928055,0.670277 3.563055,0.776111 0.493889,0.105833 0.635,0.03528 0.740833,-0.246945 0.07056,-0.211666 0.03528,-0.3175 -0.141111,-0.458611 0,0 -0.03528,0 -0.03528,0 0,0 76.411658,17.850555 76.411658,17.850555 0,0 -0.0353,0 -0.0353,0 -0.24695,0.03528 -0.28223,0.141111 -0.3175,0.388056 0,0.282222 0.14111,0.423333 0.52916,0.493889 0.17639,0.03528 0.74084,0.176389 1.23473,0.282222 1.23472,0.282222 1.83444,0.423333 2.43416,0.564444 0.28222,0.07056 0.67028,0.141111 0.88195,0.176389 0.21166,0.07056 0.35277,0.141111 0.35277,0.141111 0,0.141111 -0.35277,1.834445 -0.49388,2.328334 -0.0353,0.211666 -0.14112,0.564444 -0.17639,0.740833 0,0 -0.0706,0.3175 -0.0706,0.3175 0,0 -0.84667,-0.03528 -0.84667,-0.03528 0,0 -0.84666,-0.03528 -0.84666,-0.03528 0,0 -0.17639,0.352778 -0.17639,0.352778 0,0 -0.17639,0.352778 -0.17639,0.352778 z m -0.74083,2.293055 c 0,0.740834 -0.0353,2.293056 -0.0706,3.704167 -0.0353,0.635 -0.0353,1.234722 -0.0705,1.728611 -0.0353,0.635 -0.0706,1.093611 -0.10584,1.128889 -0.0353,0.07055 -0.67028,0.07055 -1.62278,0.03528 0,0 -1.51694,-0.07056 -1.51694,-0.07056 0,0 -0.0353,-0.846666 -0.0353,-0.846666 0,-0.105834 0,-0.246945 0,-0.388056 0.0353,-1.093611 0.24695,-3.104444 0.42334,-3.704167 0.21166,-0.705555 0.38805,-1.164166 0.45861,-1.375833 0.0353,-0.105833 0.14111,-0.3175 0.21166,-0.493889 0,0 0.14111,-0.352778 0.14111,-0.352778 0,0 1.02306,0.07056 1.02306,0.07056 0.74083,0.03528 1.05833,0.07056 1.12889,0.176389 0.0353,0 0.0353,0.176389 0.0353,0.388055 z m 11.18305,4.339167 c 0,0.352778 -0.0353,0.740833 -0.0353,1.128889 0,0.705555 -0.0705,1.411111 -0.10583,1.516944 -0.0706,0.141111 -0.3175,0.141111 -1.5875,0.105834 -1.05833,-0.03528 -1.55222,-0.105834 -1.65805,-0.211667 -0.0706,-0.07056 -0.0353,-1.728611 0.0353,-3.386667 0.0706,-1.658055 0.17639,-3.351388 0.24695,-3.4925 0.10583,-0.176388 0.24694,-0.176388 1.19944,-0.141111 0,0 1.09361,0.03528 1.09361,0.03528 0,0 0.0706,0.282222 0.0706,0.282222 0.0705,0.176389 0.14111,0.458611 0.21167,0.705556 0.0705,0.211667 0.14111,0.493889 0.17638,0.599722 0.0706,0.246944 0.21167,1.093611 0.3175,2.046111 0,0.176389 0,0.493889 0.0353,0.811389 z m -5.00944,-3.880555 c 0.0353,0.458611 0,1.234722 -0.0353,2.539999 -0.0353,0.846667 -0.0706,1.658056 -0.10583,2.293056 -0.0353,0.635 -0.0706,1.093611 -0.0706,1.234722 0,0 -0.0705,0.423333 -0.0705,0.423333 0,0 -2.08139,-0.105833 -2.08139,-0.105833 -1.83445,-0.07055 -2.11667,-0.105833 -2.15195,-0.246944 -0.0353,-0.141111 0,-1.799167 0.0706,-3.457222 0.10583,-1.658056 0.21166,-3.280834 0.24694,-3.386667 0.10584,-0.176389 0.24695,-0.176389 2.04611,-0.105833 1.05834,0.03528 1.97556,0.141111 2.08139,0.176389 0.0353,0.03528 0.0706,0.176388 0.0706,0.635 z m -1.16417,-9.595556 c -0.10583,0.141111 -0.17639,0.282222 -0.17639,0.493889 0,0.03528 0,0.105833 0.0353,0.176389 0,0 0.0353,0.105833 0.0353,0.105833 0,0 -1.16417,-0.282222 -1.16417,-0.282222 0,0 0.10583,-0.105833 0.10583,-0.105833 0.49389,-0.670278 -0.21166,-1.622778 -0.98777,-1.27 -0.3175,0.176389 -0.45861,0.388055 -0.49389,0.740833 0,0.105833 0,0.211667 0.0353,0.282222 0,0 0,0.03528 0,0.03528 0,0 -1.12889,-0.282222 -1.12889,-0.282222 0,0 0.0705,-0.07056 0.0705,-0.07056 0.38806,-0.529166 0.0353,-1.27 -0.635,-1.305277 -0.59972,-0.03528 -0.9525,0.564444 -0.81139,1.058333 0,0 0,0 0,0 0,0 -78.775268,-18.379722 -78.775268,-18.379722 0,0 0.03528,-0.07056 0.03528,-0.07056 0.176389,-0.3175 0.176389,-0.740833 -0.03528,-1.023055 -0.282222,-0.352778 -0.635,-0.388056 -1.023055,-0.211667 -0.282222,0.176389 -0.352778,0.246945 -0.388056,0.635 0,0.07056 0,0.141111 0,0.211667 0,0 0,0.141111 0,0.141111 0,0 -1.093611,-0.282222 -1.093611,-0.282222 0,0 0.07056,-0.105834 0.07056,-0.105834 0.176389,-0.3175 0.176389,-0.670277 -0.105834,-0.987777 -0.493889,-0.529167 -1.446389,-0.176389 -1.481666,0.599722 0,0 0.03528,0.176389 0.03528,0.176389 0,0 -1.023055,-0.246945 -1.023055,-0.246945 0,0 0,-0.03528 0,-0.03528 0.493889,-0.670278 -0.176389,-1.622778 -0.987778,-1.27 -0.3175,0.176389 -0.458611,0.388055 -0.493889,0.776111 0,0.03528 0,0.07055 0,0.105833 0,0 0.03528,0.07056 0.03528,0.07056 0,0 -1.058333,-0.246945 -1.058333,-0.246945 0,0 0,0 0,0 0.388055,-0.529166 0.03528,-1.27 -0.635,-1.305278 -0.529167,0 -0.917222,0.493889 -0.846667,0.9525 0,0 0,0.03528 0,0.03528 0,0 -47.871944,-11.183055 -47.871944,-11.183055 0,0 0,-3.668889 0,-3.668889 0,0 0,-9.736666 0,-9.736666 0,0 110.948606,0 110.948606,0 0,0 110.94861,0 110.94861,0 0,0 0,6.914444 0,6.914444 0,3.81 -0.0353,6.914444 -0.0706,6.914444 -0.21166,0 -0.52916,-0.3175 -0.635,-0.670278 -0.14111,-0.423333 -0.70555,-0.740833 -1.30528,-0.740833 -0.88194,0 -3.42194,0.987778 -3.91583,1.516945 -0.14111,0.176388 -0.3175,0.705555 -0.52917,1.516944 -0.45861,1.763889 -0.74083,2.328333 -2.11666,3.81 -3.91583,4.374444 -9.87778,13.934722 -13.58195,21.695833 -1.44638,3.104444 -1.94027,4.445 -2.8575,7.584722 -0.28222,1.058333 -0.74083,2.328333 -0.9525,2.786944 -0.38805,0.846667 -0.49388,0.9525 -3.28083,3.704167 -0.91722,0.917222 -1.69333,1.693333 -2.32833,2.363611 0,0 -0.3175,0.352778 -0.3175,0.352778 0,0 -45.50833,-10.618611 -45.50833,-10.618611 0,0 0.0353,-0.03528 0.0353,-0.03528 0.28223,-0.282222 0.3175,-0.811389 0.0706,-1.128889 -0.28222,-0.352778 -0.635,-0.388055 -1.02306,-0.211667 -0.28222,0.176389 -0.35277,0.246945 -0.38805,0.635 0,0.141111 0,0.282223 0,0.388056 0,0 0.0353,0.03528 0.0353,0.03528 0,0 -1.23473,-0.282223 -1.23473,-0.282223 0,0 0.0353,0 0.0353,0 0.3175,-0.3175 0.35278,-0.811388 0.0353,-1.164166 -0.38806,-0.388056 -0.98778,-0.3175 -1.30528,0.105833 z m -8.43139,17.180278 c 0,0 0,-0.211667 0,-0.211667 0,0 0.0353,-0.246945 0.0353,-0.246945 0,0 7.16139,0.3175 7.16139,0.3175 5.29167,0.211667 7.19667,0.3175 7.23194,0.423334 0,0.03528 0.0353,0.07055 0.0353,0.105833 -0.0706,0.282222 -0.9525,0.211667 -7.37305,-0.07055 0,0 -7.09084,-0.3175 -7.09084,-0.3175 z M 76.532386,64.716776 c 0,0 0,-0.211666 0,-0.211666 0,0 0.03528,-0.246945 0.03528,-0.246945 0,0 7.161388,0.3175 7.161388,0.3175 5.291667,0.211667 7.196667,0.3175 7.231945,0.423334 0.03528,0.03528 0.03528,0.07055 0.03528,0.105833 -0.07055,0.282222 -0.9525,0.246944 -7.373055,-0.07056 0,0 -7.090833,-0.3175 -7.090833,-0.3175 z m 3.421944,-8.043333 c 0.03528,0.740834 0,2.293056 -0.07055,3.704167 -0.03528,0.635 -0.03528,1.234722 -0.07056,1.728611 -0.03528,0.635 -0.07055,1.093611 -0.105833,1.128889 -0.03528,0.07055 -0.670278,0.07055 -1.5875,0.03528 0,0 -1.552222,-0.07056 -1.552222,-0.07056 0,0 -0.03528,-0.846667 -0.03528,-0.846667 0,-0.105833 0,-0.246944 0,-0.388055 0.03528,-1.093611 0.246944,-3.104445 0.423333,-3.704167 0.211667,-0.705555 0.388056,-1.164166 0.458611,-1.375833 0.07056,-0.105833 0.141111,-0.3175 0.246945,-0.493889 0,0 0.105833,-0.3175 0.105833,-0.3175 0,0 1.023056,0.03528 1.023056,0.03528 0.740833,0.03528 1.058333,0.07055 1.128888,0.176389 0.03528,0 0.03528,0.176389 0.03528,0.388055 z m 11.183056,4.339167 c 0,0.352778 0,0.740833 -0.03528,1.128889 0,0.705555 -0.07056,1.411111 -0.105834,1.516944 -0.07055,0.141111 -0.282222,0.141111 -1.5875,0.105833 -1.058333,-0.03528 -1.552222,-0.105833 -1.622777,-0.211666 -0.105834,-0.07056 -0.07056,-1.728611 0,-3.386667 0.07056,-1.658055 0.176389,-3.351389 0.246944,-3.4925 0.105834,-0.176389 0.246945,-0.176389 1.199445,-0.141111 0,0 1.093611,0.03528 1.093611,0.03528 0,0 0.105833,0.282222 0.105833,0.282222 0.03528,0.176389 0.141111,0.458611 0.176389,0.705556 0.07055,0.211666 0.141111,0.493889 0.176389,0.599722 0.07055,0.246944 0.211666,1.093611 0.3175,2.046111 0,0.176389 0.03528,0.493889 0.03528,0.811389 z m -4.974167,-3.880556 c 0,0.458612 -0.03528,1.234723 -0.07056,2.54 -0.03528,0.846667 -0.07055,1.658056 -0.105833,2.293056 -0.03528,0.635 -0.03528,1.093611 -0.07055,1.234722 0,0 -0.07056,0.423333 -0.07056,0.423333 0,0 -2.081389,-0.105833 -2.081389,-0.105833 -1.834444,-0.07056 -2.116666,-0.105833 -2.151944,-0.246944 -0.03528,-0.141112 0,-1.799167 0.105833,-3.457223 0.07056,-1.658055 0.176389,-3.280833 0.246945,-3.386666 0.07056,-0.176389 0.211666,-0.176389 2.010833,-0.105833 1.058333,0.03528 1.975555,0.141111 2.081389,0.176388 0.03528,0.03528 0.07055,0.176389 0.105833,0.635 z m 80.962491,92.674716 c 0,0 0.10584,-0.21166 0.10584,-0.21166 0,0 0,-0.10584 0,-0.10584 0,0 0,0.3175 0,0.3175 0,0 -0.10584,0 -0.10584,0 z M 36.350998,93.43289 c -0.03528,0.28222 -0.03528,0.35277 -0.105834,0.35277 -0.07056,0 -0.493889,-0.0705 -0.987778,-0.14111 -0.458611,-0.0705 -0.846666,-0.14111 -0.846666,-0.17639 0,0 0,-0.81138 0.03528,-1.76388 0.03528,-1.97556 0.03528,-1.97556 0.811388,-1.44639 1.023056,0.67027 0.987778,0.59972 1.058334,2.15194 0,0.28222 0,0.49389 0.03528,0.67028 0,0.14111 0,0.24694 0,0.35278 z m 58.737499,16.40416 c 0,1.12889 0,2.25778 -0.03528,2.25778 -0.03528,0 -0.9525,-0.10583 -2.046111,-0.24694 -1.093611,-0.14111 -2.046111,-0.28223 -2.046111,-0.3175 -0.07056,-0.0706 -0.105834,-0.81139 -0.105834,-1.5875 0,-0.77611 0.03528,-1.55223 0.07056,-1.62278 0.105833,-0.10583 3.951111,-0.88195 4.092222,-0.81139 0.03528,0.0353 0.07056,1.16417 0.07056,2.32833 z m -4.339167,3.45723 c 0,-0.3175 0.03528,-0.59973 0.07056,-0.59973 0.388055,0.0353 3.492499,0.38806 3.527777,0.42334 0.07056,0.10583 -2.822222,0.77611 -3.210277,0.77611 0,0 -0.352778,-0.0353 -0.352778,-0.0353 0,0 -0.03528,-0.56444 -0.03528,-0.56444 z"
       style="fill:#555555;fill-opacity:0;stroke-width:0.447;stroke-miterlimit:4;stroke-dasharray:none" />
  </g>
</svg>
